<svg xmlns="http://www.w3.org/2000/svg" width="60.686" height="63.132" viewBox="0 0 60.686 63.132">
  <g id="Grupo_129624" data-name="Grupo 129624" transform="translate(-5598.124 -3107.63)">
    <path id="Trazado_190612" data-name="Trazado 190612" d="M5634.457,3168.912h-32.448a2.038,2.038,0,0,1-2.035-2.036v-13.315a.925.925,0,0,0-1.85,0v13.315a3.89,3.89,0,0,0,3.885,3.886h32.448a.925.925,0,0,0,0-1.85Zm0,0" fill="#b13e8d"/>
    <path id="Trazado_190613" data-name="Trazado 190613" d="M5657.155,3125.824l-2.037-.84.671-1.624a2.676,2.676,0,0,0-4.947-2.043l-.759,1.835a2.151,2.151,0,0,0-1.656.977l-.01-12.618a3.889,3.889,0,0,0-3.884-3.881h-42.524a3.89,3.89,0,0,0-3.885,3.885v37.728a.925.925,0,1,0,1.85,0v-37.728a2.038,2.038,0,0,1,2.035-2.036h42.524a2.037,2.037,0,0,1,2.034,2.033l.014,16.989-3.841,9.3a2.16,2.16,0,0,0-1.994,1.335l-4.3,10.418a2.162,2.162,0,0,0,.355,2.222l.372,3.41.083,1.067a2.152,2.152,0,0,0,.552,1.282l-.362.875a.927.927,0,0,0,.5,1.208.968.968,0,0,0,1.207-.5l.361-.874a2.147,2.147,0,0,0,1.3-.519l.813-.7,2.649-2.159a2.175,2.175,0,0,0,.652-.158,2.142,2.142,0,0,0,1.167-1.169l.5-1.22.014,14.561a2.037,2.037,0,0,1-2.036,2.033h-5.8a.925.925,0,0,0,0,1.85h5.8a3.889,3.889,0,0,0,3.885-3.884l-.017-19.032,1.95-4.726a2.16,2.16,0,0,0-.472-2.351l2.035-4.928a.925.925,0,0,0-1.709-.706l-1.972,4.776-3.765-1.554,3.846-9.311,0-.006,1.592-3.854c.084-.049-.04-.184.4-.167l3.195,1.318a.308.308,0,0,1,.167.4l-1.793,4.343a.925.925,0,0,0,1.71.705c.38-.975,1.589-3.739,1.888-4.637l.928.383a.829.829,0,0,1,.449,1.081l-3.262,7.9a.925.925,0,0,0,.5,1.208.968.968,0,0,0,1.207-.5l3.262-7.9a2.679,2.679,0,0,0-1.452-3.5Zm-17.546,30.5a.309.309,0,0,1-.509-.209c-.035-.7-.239-2.529-.321-3.26l3.345,1.381s-2.414,2-2.515,2.088Zm9.076-13.906-4.3,10.417c-.085.049.04.184-.4.167l-5.66-2.336a.309.309,0,0,1-.168-.4l4.3-10.417c.038-.04.078-.23.4-.167l5.66,2.336a.309.309,0,0,1,.167.4Zm4.946-20.841a.827.827,0,0,1,.449,1.08l-.671,1.625-1.529-.631.672-1.625a.827.827,0,0,1,1.079-.449Zm0,0" fill="#b13e8d"/>
    <path id="Trazado_190614" data-name="Trazado 190614" d="M5612.332,3116.23h13.5a.925.925,0,0,0,0-1.85h-13.5a2.161,2.161,0,0,0-2.158,2.158v2.521a2.161,2.161,0,0,0,2.158,2.158h21.922a2.161,2.161,0,0,0,2.158-2.158v-2.521a2.161,2.161,0,0,0-2.158-2.158h-4.1a.925.925,0,0,0,0,1.85h4.1a.308.308,0,0,1,.308.308v2.521a.308.308,0,0,1-.308.309h-21.922a.308.308,0,0,1-.308-.309v-2.521a.308.308,0,0,1,.308-.308Zm0,0" fill="#b13e8d"/>
    <path id="Trazado_190615" data-name="Trazado 190615" d="M5609.3,3143.793a4.187,4.187,0,0,1-2.945-.779.925.925,0,1,0-1.013,1.548,5.571,5.571,0,0,0,3.039,1.064v1.31a.925.925,0,1,0,1.85,0v-1.383a4.535,4.535,0,0,0,3.561-3.722,3.983,3.983,0,0,0-2.742-4.557,13.388,13.388,0,0,1-3.445-1.611,1.494,1.494,0,0,1-.41-1.473,1.945,1.945,0,0,1,1.3-1.531,3.1,3.1,0,0,1,2.877.479.925.925,0,0,0,1.248-1.365,4.8,4.8,0,0,0-2.387-1.064v-1.2a.925.925,0,1,0-1.85,0v1.274c-.138.03-.278.066-.421.109a3.771,3.771,0,0,0-2.583,2.958,3.318,3.318,0,0,0,1.087,3.271,13.888,13.888,0,0,0,3.97,1.9,2.163,2.163,0,0,1,1.534,2.506,2.687,2.687,0,0,1-2.668,2.269Zm0,0" fill="#b13e8d"/>
    <path id="Trazado_190616" data-name="Trazado 190616" d="M5641.469,3133.289a.924.924,0,0,0-.925-.924h-11.221a.925.925,0,1,0,0,1.849h11.221a.925.925,0,0,0,.925-.925Zm0,0" fill="#b13e8d"/>
    <path id="Trazado_190617" data-name="Trazado 190617" d="M5618.719,3134.214h6.288a.925.925,0,1,0,0-1.849h-6.288a.925.925,0,1,0,0,1.849Zm0,0" fill="#b13e8d"/>
    <path id="Trazado_190618" data-name="Trazado 190618" d="M5618.719,3139.146h19.359a.924.924,0,0,0,0-1.849h-19.359a.924.924,0,1,0,0,1.849Zm0,0" fill="#b13e8d"/>
    <path id="Trazado_190619" data-name="Trazado 190619" d="M5635.612,3142.229h-16.893a.924.924,0,1,0,0,1.849h16.893a.924.924,0,0,0,0-1.849Zm0,0" fill="#b13e8d"/>
    <path id="Trazado_190620" data-name="Trazado 190620" d="M5631.913,3147.161h-13.194a.925.925,0,1,0,0,1.85h13.194a.925.925,0,0,0,0-1.85Zm0,0" fill="#b13e8d"/>
    <path id="Trazado_190621" data-name="Trazado 190621" d="M5609.3,3155.225a4.377,4.377,0,1,0,4.378,4.378,4.382,4.382,0,0,0-4.378-4.378Zm0,6.9a2.527,2.527,0,1,1,2.528-2.527,2.529,2.529,0,0,1-2.528,2.527Zm0,0" fill="#b13e8d"/>
    <path id="Trazado_190622" data-name="Trazado 190622" d="M5631.273,3160.354l-.364-1.721a2.117,2.117,0,0,0-4.178.081l-.535,3.066a.467.467,0,0,1-.426.42.472.472,0,0,1-.429-.436l-.522-4.973a2.076,2.076,0,0,0-2.073-1.868h-.025a2.088,2.088,0,0,0-2.029,1.72l-.67,3.766a.43.43,0,0,1-.415.311h-2.64a.925.925,0,0,0,0,1.85h2.64a2.275,2.275,0,0,0,2.218-1.748c.018-.074.675-3.791.687-3.855a.236.236,0,0,1,.23-.194h0a.234.234,0,0,1,.234.211s.522,4.974.526,5.013a2.273,2.273,0,0,0,4.513.1l.535-3.066a.315.315,0,0,1,.274-.285.309.309,0,0,1,.272.269l.365,1.721a2.254,2.254,0,0,0,2.194,1.833h2.681a.925.925,0,1,0,0-1.85h-2.681a.428.428,0,0,1-.385-.366Zm0,0" fill="#b13e8d"/>
    <path id="Trazado_190623" data-name="Trazado 190623" d="M5640.544,3127.432h-21.825a.925.925,0,1,0,0,1.85h21.825a.925.925,0,1,0,0-1.85Zm0,0" fill="#b13e8d"/>
  </g>
</svg>
