<svg xmlns="http://www.w3.org/2000/svg" width="1032.04" height="373.029" viewBox="0 0 1032.04 373.029">
  <g id="Grupo_129761" data-name="Grupo 129761" transform="translate(-137.804 -645.457)">
    <g id="Grupo_132004" data-name="Grupo 132004">
      <rect id="Rectángulo_42182" data-name="Rectángulo 42182" width="65.98" height="370.858" rx="7.064" transform="translate(137.804 645.457)" fill="#f7ca18" opacity="0.5"/>
      <path id="Trazado_191114" data-name="Trazado 191114" d="M382.5,759.635l-28.25-28.25A8.152,8.152,0,0,0,348.483,729h-106.4V801.8h106.4a8.152,8.152,0,0,0,5.765-2.388l28.25-28.25A8.153,8.153,0,0,0,382.5,759.635Z" fill="#6836bf" opacity="0.25" style="isolation: isolate"/>
      <path id="Trazado_191115" data-name="Trazado 191115" d="M223.123,729a8.152,8.152,0,0,0-8.152,8.153v56.5a8.153,8.153,0,0,0,8.152,8.153h18.96V729Z" fill="#6836bf"/>
      <text id="Obtención_de_materia_prima" data-name="Obtención de 
materia prima" transform="translate(259.337 750.38)" fill="#12263f" font-size="12.406" font-family="Roboto-Regular, Roboto"><tspan x="3.493" y="12">Obtención de </tspan><tspan x="1.473" y="26.887">materia prima</tspan></text>
      <text id="_1" data-name="1" transform="translate(222.335 751.579)" fill="#fff" font-size="20.803" font-family="Roboto-Bold, Roboto" font-weight="700"><tspan x="0" y="20">1</tspan></text>
      <path id="Trazado_191116" data-name="Trazado 191116" d="M559.778,759.635l-28.25-28.25A8.154,8.154,0,0,0,525.763,729h-106.4V801.8h106.4a8.154,8.154,0,0,0,5.765-2.388l28.25-28.25A8.153,8.153,0,0,0,559.778,759.635Z" fill="#6836bf" opacity="0.25" style="isolation: isolate"/>
      <path id="Trazado_191117" data-name="Trazado 191117" d="M400.4,729a8.153,8.153,0,0,0-8.153,8.153v56.5A8.153,8.153,0,0,0,400.4,801.8h18.96V729Z" fill="#6836bf"/>
      <text id="Producción" transform="translate(436.616 757.806)" fill="#12263f" font-size="12.406" font-family="Roboto-Regular, Roboto"><tspan x="8.639" y="12">Producción</tspan></text>
      <text id="_2" data-name="2" transform="translate(399.614 751.579)" fill="#fff" font-size="20.803" font-family="Roboto-Bold, Roboto" font-weight="700"><tspan x="0" y="20">2</tspan></text>
      <path id="Trazado_191118" data-name="Trazado 191118" d="M737.057,759.635l-28.25-28.25A8.152,8.152,0,0,0,703.042,729h-106.4V801.8h106.4a8.152,8.152,0,0,0,5.765-2.388l28.25-28.25A8.153,8.153,0,0,0,737.057,759.635Z" fill="#6836bf" opacity="0.25" style="isolation: isolate"/>
      <path id="Trazado_191119" data-name="Trazado 191119" d="M577.682,729a8.152,8.152,0,0,0-8.152,8.153v56.5a8.153,8.153,0,0,0,8.152,8.153h18.96V729Z" fill="#6836bf"/>
      <text id="Empaque_y_almacenaje" data-name="Empaque y almacenaje" transform="translate(613.896 749.573)" fill="#12263f" font-size="12.406" font-family="Roboto-Regular, Roboto"><tspan x="2.277" y="12">Empaque y </tspan><tspan x="1.008" y="26.887">almacenaje</tspan></text>
      <text id="_3" data-name="3" transform="translate(576.894 751.579)" fill="#fff" font-size="20.803" font-family="Roboto-Bold, Roboto" font-weight="700"><tspan x="0" y="20">3</tspan></text>
      <path id="Trazado_191120" data-name="Trazado 191120" d="M914.337,759.635l-28.25-28.25A8.153,8.153,0,0,0,880.322,729h-106.4V801.8h106.4a8.153,8.153,0,0,0,5.765-2.388l28.25-28.25A8.154,8.154,0,0,0,914.337,759.635Z" fill="#6836bf" opacity="0.25" style="isolation: isolate"/>
      <path id="Trazado_191121" data-name="Trazado 191121" d="M754.962,729a8.153,8.153,0,0,0-8.153,8.153v56.5a8.153,8.153,0,0,0,8.153,8.153h18.96V729Z" fill="#6836bf"/>
      <text id="Operaciones_logísticas" data-name="Operaciones logísticas" transform="translate(791.175 749.573)" fill="#12263f" font-size="12.406" font-family="Roboto-Regular, Roboto"><tspan x="1.862" y="12">Operaciones </tspan><tspan x="9.837" y="26.887">logísticas</tspan></text>
      <text id="_4" data-name="4" transform="translate(754.173 751.579)" fill="#fff" font-size="20.803" font-family="Roboto-Bold, Roboto" font-weight="700"><tspan x="0" y="20">4</tspan></text>
      <path id="Trazado_191122" data-name="Trazado 191122" d="M1092.864,759.635l-28.25-28.25a8.154,8.154,0,0,0-5.765-2.388h-106.4V801.8h106.4a8.154,8.154,0,0,0,5.765-2.388l28.25-28.25A8.153,8.153,0,0,0,1092.864,759.635Z" fill="#6836bf" opacity="0.25" style="isolation: isolate"/>
      <path id="Trazado_191123" data-name="Trazado 191123" d="M933.489,729a8.153,8.153,0,0,0-8.153,8.153v56.5a8.154,8.154,0,0,0,8.153,8.153h18.96V729Z" fill="#6836bf"/>
      <text id="_Ventas" data-name=" Ventas" transform="translate(969.702 757.829)" fill="#12263f" font-size="12.406" font-family="Roboto-Regular, Roboto"><tspan x="15.786" y="12" xml:space="preserve"> Ventas</tspan></text>
      <text id="_5" data-name="5" transform="translate(932.701 751.579)" fill="#fff" font-size="20.803" font-family="Roboto-Bold, Roboto" font-weight="700"><tspan x="0" y="20">5</tspan></text>
      <rect id="Rectángulo_42183" data-name="Rectángulo 42183" width="880.281" height="32.58" rx="3.792" transform="translate(214.971 810.16)" fill="#f7ca18" opacity="0.25" style="isolation: isolate"/>
      <text id="Procesos_misionales" data-name="Procesos misionales" transform="translate(552.883 816.607)" fill="#12263f" font-size="16.642" font-family="Roboto-Regular, Roboto"><tspan x="25.143" y="16">Procesos misionales</tspan></text>
      <rect id="Rectángulo_42184" data-name="Rectángulo 42184" width="880.281" height="32.58" rx="3.792" transform="translate(214.971 687.227)" fill="#f7ca18" opacity="0.25" style="isolation: isolate"/>
      <text id="Procesos_de_dirección" data-name="Procesos de dirección" transform="translate(552.883 693.979)" fill="#12263f" font-size="15.714" font-family="Roboto-Regular, Roboto"><tspan x="24.831" y="15">Procesos de dirección</tspan></text>
      <rect id="Rectángulo_42185" data-name="Rectángulo 42185" width="880.281" height="32.58" rx="3.792" transform="translate(214.971 645.457)" fill="#d2e1f1"/>
      <text id="_1._Planeación_estratégica" data-name="1. Planeación estratégica" transform="translate(535.705 652.208)" fill="#12263f" font-size="15.714" font-family="Roboto-Regular, Roboto"><tspan x="31.303" y="15">1. Planeación estratégica</tspan></text>
      <path id="Trazado_191124" data-name="Trazado 191124" d="M377.742,852.133H242.083v72.8H377.742a7.145,7.145,0,0,0,7.144-7.145V859.277A7.144,7.144,0,0,0,377.742,852.133Z" fill="#e8e8e8"/>
      <path id="Trazado_191125" data-name="Trazado 191125" d="M222.115,852.133a7.143,7.143,0,0,0-7.144,7.144v58.516a7.144,7.144,0,0,0,7.144,7.145h19.968v-72.8Z" fill="#b13e8d"/>
      <text id="Marketing" transform="translate(259.337 880.462)" fill="#12263f" font-size="12.406" font-family="Roboto-Regular, Roboto"><tspan x="0" y="12">Marketing</tspan></text>
      <text id="_1-2" data-name="1" transform="translate(222.335 874.714)" fill="#fff" font-size="20.803" font-family="Roboto-Bold, Roboto" font-weight="700"><tspan x="0" y="20">1</tspan></text>
      <path id="Trazado_191126" data-name="Trazado 191126" d="M554.434,852.133H418.776v72.8H554.434a7.145,7.145,0,0,0,7.145-7.145V859.277A7.144,7.144,0,0,0,554.434,852.133Z" fill="#e8e8e8"/>
      <path id="Trazado_191127" data-name="Trazado 191127" d="M398.808,852.133a7.144,7.144,0,0,0-7.145,7.144v58.516a7.145,7.145,0,0,0,7.145,7.145h19.968v-72.8Z" fill="#b13e8d"/>
      <text id="Administración_del_recurso_humano" data-name="Administración del recurso humano" transform="translate(436.029 873.114)" fill="#12263f" font-size="12.406" font-family="Roboto-Regular, Roboto"><tspan x="0" y="12">Administración del </tspan><tspan x="0" y="26.887">recurso humano</tspan></text>
      <text id="_2-2" data-name="2" transform="translate(399.027 874.714)" fill="#fff" font-size="20.803" font-family="Roboto-Bold, Roboto" font-weight="700"><tspan x="0" y="20">2</tspan></text>
      <path id="Trazado_191128" data-name="Trazado 191128" d="M732.3,852.133H596.642v72.8H732.3a7.145,7.145,0,0,0,7.145-7.145V859.277A7.144,7.144,0,0,0,732.3,852.133Z" fill="#e8e8e8"/>
      <path id="Trazado_191129" data-name="Trazado 191129" d="M576.674,852.133a7.143,7.143,0,0,0-7.144,7.144v58.516a7.144,7.144,0,0,0,7.144,7.145h19.968v-72.8Z" fill="#b13e8d"/>
      <text id="Administración_financiera" data-name="Administración financiera" transform="translate(613.896 873.114)" fill="#12263f" font-size="12.406" font-family="Roboto-Regular, Roboto"><tspan x="0" y="12">Administración </tspan><tspan x="0" y="26.887">financiera</tspan></text>
      <text id="_3-2" data-name="3" transform="translate(576.894 874.714)" fill="#fff" font-size="20.803" font-family="Roboto-Bold, Roboto" font-weight="700"><tspan x="0" y="20">3</tspan></text>
      <path id="Trazado_191130" data-name="Trazado 191130" d="M909.58,852.133H773.922v72.8H909.58a7.145,7.145,0,0,0,7.145-7.145V859.277A7.144,7.144,0,0,0,909.58,852.133Z" fill="#e8e8e8"/>
      <path id="Trazado_191131" data-name="Trazado 191131" d="M753.954,852.133a7.144,7.144,0,0,0-7.145,7.144v58.516a7.145,7.145,0,0,0,7.145,7.145h19.968v-72.8Z" fill="#b13e8d"/>
      <text id="Mantenimiento_de_maquinaria_y_equipo" data-name="Mantenimiento de maquinaria y equipo" transform="translate(791.175 865.839)" fill="#12263f" font-size="12.406" font-family="Roboto-Regular, Roboto"><tspan x="0" y="12">Mantenimiento </tspan><tspan x="0" y="26.887">de maquinaria y </tspan><tspan x="0" y="41.774">equipo</tspan></text>
      <text id="_4-2" data-name="4" transform="translate(754.173 874.714)" fill="#fff" font-size="20.803" font-family="Roboto-Bold, Roboto" font-weight="700"><tspan x="0" y="20">4</tspan></text>
      <path id="Trazado_191132" data-name="Trazado 191132" d="M1088.107,852.133H952.449v72.8h135.658a7.145,7.145,0,0,0,7.145-7.145V859.277A7.144,7.144,0,0,0,1088.107,852.133Z" fill="#e8e8e8"/>
      <path id="Trazado_191133" data-name="Trazado 191133" d="M932.481,852.133a7.144,7.144,0,0,0-7.145,7.144v58.516a7.145,7.145,0,0,0,7.145,7.145h19.968v-72.8Z" fill="#b13e8d"/>
      <text id="Compras" transform="translate(969.702 880.552)" fill="#12263f" font-size="12.406" font-family="Roboto-Regular, Roboto"><tspan x="0" y="12">Compras</tspan></text>
      <text id="_5-2" data-name="5" transform="translate(932.701 874.714)" fill="#fff" font-size="20.803" font-family="Roboto-Bold, Roboto" font-weight="700"><tspan x="0" y="20">5</tspan></text>
      <rect id="Rectángulo_42186" data-name="Rectángulo 42186" width="880.281" height="32.58" rx="3.792" transform="translate(214.971 938.513)" fill="#f7ca18" opacity="0.25" style="isolation: isolate"/>
      <text id="Procesos_de_apoyo" data-name="Procesos de apoyo" transform="translate(569.627 945.264)" fill="#12263f" font-size="15.714" font-family="Roboto-Regular, Roboto"><tspan x="18.876" y="15">Procesos de apoyo</tspan></text>
      <text id="Necesidades_y_requisitos_del_cliente" data-name="Necesidades y requisitos del cliente" transform="translate(191.297 716.897) rotate(90)" fill="#12263f" font-size="15.714" font-family="Roboto-Regular, Roboto"><tspan x="14.136" y="15">Necesidades y requisitos del </tspan><tspan x="90.815" y="33.857">cliente</tspan></text>
      <rect id="Rectángulo_42187" data-name="Rectángulo 42187" width="65.98" height="370.858" rx="7.064" transform="translate(1103.864 645.457)" fill="#f7ca18" opacity="0.5"/>
      <text id="Satisfacción_del_cliente" data-name="Satisfacción del cliente" transform="translate(1147.546 716.897) rotate(90)" fill="#12263f" font-size="15.714" font-family="Roboto-Regular, Roboto"><tspan x="33.015" y="15">Satisfacción del cliente</tspan></text>
      <rect id="Rectángulo_42188" data-name="Rectángulo 42188" width="880.281" height="32.58" rx="3.792" transform="translate(214.971 983.735)" fill="#d2e1f1"/>
      <text id="_Investigación_desarrollo_e_innovación" data-name=" Investigación, desarrollo e innovación" transform="translate(464.601 990.486)" fill="#12263f" font-size="15.714" font-family="Roboto-Regular, Roboto"><tspan x="57.8" y="15" xml:space="preserve"> Investigación, desarrollo e innovación</tspan></text>
    </g>
  </g>
</svg>
