<svg xmlns="http://www.w3.org/2000/svg" width="465.285" height="383.325" viewBox="0 0 465.285 383.325">
  <g id="Grupo_132007" data-name="Grupo 132007" transform="translate(-788 -592)">
    <path id="Trazado_191198" data-name="Trazado 191198" d="M0,0H181.628V77.924H0Z" transform="translate(815.84 594)" fill="#f7ca18" opacity="0.25"/>
    <path id="Trazado_190541" data-name="Trazado 190541" d="M1454.511,1555.1l-58.327-38-58.327,38-58.327,38,58.327,38,58.327,38,58.327-38,58.327-38Z" transform="translate(-489.53 -809.437)" fill="#f7ca18" opacity="0.25" style="isolation: isolate"/>
    <path id="Trazado_191199" data-name="Trazado 191199" d="M38.962,0h103.7a38.962,38.962,0,0,1,38.962,38.962h0a38.962,38.962,0,0,1-38.962,38.962H38.962A38.962,38.962,0,0,1,0,38.962H0A38.962,38.962,0,0,1,38.962,0Z" transform="translate(815.84 895.401)" fill="#f7ca18" opacity="0.25"/>
    <path id="Trazado_191200" data-name="Trazado 191200" d="M0,0H181.628V77.924H0Z" transform="translate(1069.657 744.701)" fill="#f7ca18" opacity="0.25"/>
    <g id="Grupo_129542" data-name="Grupo 129542" transform="translate(-489.53 -809.437)">
      <g id="Grupo_129537" data-name="Grupo 129537">
        <line id="Línea_407" data-name="Línea 407" y2="28.253" transform="translate(1396.184 1481.361)" fill="#fff"/>
      </g>
      <g id="Grupo_129541" data-name="Grupo 129541">
        <g id="Grupo_129538" data-name="Grupo 129538">
          <rect id="Rectángulo_42040" data-name="Rectángulo 42040" width="1" height="22.283" transform="translate(1395.684 1481.36)" fill="#f7ca18"/>
        </g>
        <g id="Grupo_129540" data-name="Grupo 129540">
          <g id="Grupo_129539" data-name="Grupo 129539">
            <path id="Trazado_190542" data-name="Trazado 190542" d="M1392.481,1500.835l3.7,1.573,3.7-1.573-3.7,8.778Z" fill="#f7ca18"/>
          </g>
        </g>
      </g>
    </g>
    <g id="Grupo_129548" data-name="Grupo 129548" transform="translate(-489.53 -809.437)">
      <g id="Grupo_129543" data-name="Grupo 129543">
        <line id="Línea_408" data-name="Línea 408" y2="28.253" transform="translate(1396.184 1669.108)" fill="#fff"/>
      </g>
      <g id="Grupo_129547" data-name="Grupo 129547">
        <g id="Grupo_129544" data-name="Grupo 129544">
          <rect id="Rectángulo_42041" data-name="Rectángulo 42041" width="1" height="22.283" transform="translate(1395.684 1669.108)" fill="#f7ca18"/>
        </g>
        <g id="Grupo_129546" data-name="Grupo 129546">
          <g id="Grupo_129545" data-name="Grupo 129545">
            <path id="Trazado_190543" data-name="Trazado 190543" d="M1392.481,1688.582l3.7,1.573,3.7-1.573-3.7,8.778Z" fill="#f7ca18"/>
          </g>
        </g>
      </g>
    </g>
    <g id="Grupo_129554" data-name="Grupo 129554" transform="translate(-489.53 -809.437)">
      <g id="Grupo_129549" data-name="Grupo 129549">
        <line id="Línea_409" data-name="Línea 409" x2="28.253" transform="translate(1511.47 1593.099)" fill="#fff"/>
      </g>
      <g id="Grupo_129553" data-name="Grupo 129553">
        <g id="Grupo_129550" data-name="Grupo 129550">
          <rect id="Rectángulo_42042" data-name="Rectángulo 42042" width="22.283" height="1" transform="translate(1511.47 1592.6)" fill="#f7ca18"/>
        </g>
        <g id="Grupo_129552" data-name="Grupo 129552">
          <g id="Grupo_129551" data-name="Grupo 129551">
            <path id="Trazado_190544" data-name="Trazado 190544" d="M1530.945,1596.8l1.573-3.7-1.573-3.7,8.778,3.7Z" fill="#f7ca18"/>
          </g>
        </g>
      </g>
    </g>
    <path id="Trazado_191201" data-name="Trazado 191201" d="M55.095,14v5H53.412V6.239h4.707A4.729,4.729,0,0,1,61.4,7.308a3.625,3.625,0,0,1,1.188,2.831A3.577,3.577,0,0,1,61.427,13,4.94,4.94,0,0,1,58.1,14Zm0-1.376h3.024a3.023,3.023,0,0,0,2.068-.637,2.328,2.328,0,0,0,.719-1.839,2.4,2.4,0,0,0-.719-1.826,2.832,2.832,0,0,0-1.972-.711h-3.12Zm13.971-1.657a4.859,4.859,0,0,0-.8-.061A2.137,2.137,0,0,0,66.1,12.269V19H64.482V9.517h1.578l.026,1.1a2.525,2.525,0,0,1,2.261-1.271,1.657,1.657,0,0,1,.719.123Zm5.425,8.2a4.144,4.144,0,0,1-3.138-1.266,4.7,4.7,0,0,1-1.21-3.388v-.3a5.691,5.691,0,0,1,.539-2.52A4.2,4.2,0,0,1,72.19,9.968a3.79,3.79,0,0,1,2.1-.627,3.552,3.552,0,0,1,2.875,1.218,5.275,5.275,0,0,1,1.025,3.488v.675H71.765a3.371,3.371,0,0,0,.819,2.266,2.576,2.576,0,0,0,1.994.863,2.824,2.824,0,0,0,1.455-.351,3.656,3.656,0,0,0,1.043-.929l.99.771A3.982,3.982,0,0,1,74.491,19.175Zm-.2-8.5a2.163,2.163,0,0,0-1.648.714,3.472,3.472,0,0,0-.824,2h4.75v-.123a3.088,3.088,0,0,0-.666-1.915A2.036,2.036,0,0,0,74.289,10.674Zm11.3,5.811a1.194,1.194,0,0,0-.5-1.021,4.767,4.767,0,0,0-1.727-.627,8.163,8.163,0,0,1-1.955-.631,2.781,2.781,0,0,1-1.069-.876A2.1,2.1,0,0,1,80,12.12a2.46,2.46,0,0,1,.986-1.972,3.851,3.851,0,0,1,2.52-.806,3.963,3.963,0,0,1,2.616.833,2.645,2.645,0,0,1,1,2.13h-1.63a1.464,1.464,0,0,0-.565-1.148,2.118,2.118,0,0,0-1.424-.482,2.217,2.217,0,0,0-1.385.386,1.214,1.214,0,0,0-.5,1.008.984.984,0,0,0,.465.885,5.715,5.715,0,0,0,1.678.57,8.746,8.746,0,0,1,1.968.649,2.87,2.87,0,0,1,1.117.907,2.23,2.23,0,0,1,.364,1.293,2.427,2.427,0,0,1-1.017,2.038,4.265,4.265,0,0,1-2.638.767,4.775,4.775,0,0,1-2.016-.4,3.279,3.279,0,0,1-1.372-1.126,2.715,2.715,0,0,1-.5-1.564h1.621a1.679,1.679,0,0,0,.653,1.293,2.533,2.533,0,0,0,1.608.478,2.615,2.615,0,0,0,1.477-.372A1.145,1.145,0,0,0,85.587,16.485Zm7.669,2.691a4.144,4.144,0,0,1-3.138-1.266,4.7,4.7,0,0,1-1.21-3.388v-.3a5.691,5.691,0,0,1,.539-2.52,4.2,4.2,0,0,1,1.508-1.735,3.79,3.79,0,0,1,2.1-.627,3.552,3.552,0,0,1,2.875,1.218,5.275,5.275,0,0,1,1.025,3.488v.675H90.53a3.371,3.371,0,0,0,.819,2.266,2.576,2.576,0,0,0,1.994.863A2.824,2.824,0,0,0,94.8,17.5a3.656,3.656,0,0,0,1.043-.929l.99.771A3.982,3.982,0,0,1,93.256,19.175Zm-.2-8.5a2.163,2.163,0,0,0-1.648.714,3.472,3.472,0,0,0-.824,2h4.75v-.123a3.088,3.088,0,0,0-.666-1.915A2.036,2.036,0,0,0,93.054,10.674Zm7.31-1.157.053,1.192a3.456,3.456,0,0,1,2.84-1.367q3.006,0,3.033,3.392V19h-1.621V12.725a2.183,2.183,0,0,0-.469-1.516,1.879,1.879,0,0,0-1.433-.491,2.34,2.34,0,0,0-1.385.421,2.857,2.857,0,0,0-.929,1.1V19H98.83V9.517Zm10.57-2.3v2.3h1.77V10.77h-1.77v5.888a1.316,1.316,0,0,0,.237.856,1,1,0,0,0,.806.285,3.926,3.926,0,0,0,.771-.105V19a4.728,4.728,0,0,1-1.245.174,2.019,2.019,0,0,1-1.639-.657,2.824,2.824,0,0,1-.552-1.867V10.77h-1.727V9.517h1.727V7.22ZM120.453,19a3.406,3.406,0,0,1-.228-1,3.618,3.618,0,0,1-2.7,1.174,3.348,3.348,0,0,1-2.3-.793,2.566,2.566,0,0,1-.9-2.011,2.681,2.681,0,0,1,1.126-2.3,5.31,5.31,0,0,1,3.168-.819H120.2v-.745a1.821,1.821,0,0,0-.508-1.354,2.043,2.043,0,0,0-1.5-.5,2.364,2.364,0,0,0-1.455.438,1.291,1.291,0,0,0-.587,1.061h-1.63a2.238,2.238,0,0,1,.5-1.372,3.44,3.44,0,0,1,1.367-1.047,4.6,4.6,0,0,1,1.9-.386,3.749,3.749,0,0,1,2.568.819,2.956,2.956,0,0,1,.964,2.257v4.365a5.336,5.336,0,0,0,.333,2.077V19Zm-2.691-1.236a2.85,2.85,0,0,0,1.446-.394,2.386,2.386,0,0,0,.99-1.025V14.4h-1.271q-2.98,0-2.98,1.744a1.476,1.476,0,0,0,.508,1.192A1.954,1.954,0,0,0,117.762,17.764Zm11.184-6.793a4.859,4.859,0,0,0-.8-.061,2.137,2.137,0,0,0-2.165,1.359V19h-1.621V9.517h1.578l.026,1.1a2.525,2.525,0,0,1,2.261-1.271,1.656,1.656,0,0,1,.719.123ZM54.919,40.715a4.144,4.144,0,0,1-3.138-1.266,4.7,4.7,0,0,1-1.21-3.388v-.3a5.691,5.691,0,0,1,.539-2.52,4.2,4.2,0,0,1,1.508-1.735,3.79,3.79,0,0,1,2.1-.627A3.552,3.552,0,0,1,57.593,32.1a5.275,5.275,0,0,1,1.025,3.488v.675H52.194a3.371,3.371,0,0,0,.819,2.266,2.576,2.576,0,0,0,1.994.863,2.824,2.824,0,0,0,1.455-.351,3.656,3.656,0,0,0,1.043-.929l.99.771A3.982,3.982,0,0,1,54.919,40.715Zm-.2-8.5a2.163,2.163,0,0,0-1.648.714,3.472,3.472,0,0,0-.824,2H57v-.123a3.088,3.088,0,0,0-.666-1.915A2.036,2.036,0,0,0,54.718,32.214Zm7.538,8.326H60.634V27.077h1.621Zm10.973.175a4.144,4.144,0,0,1-3.138-1.266,4.7,4.7,0,0,1-1.21-3.388v-.3a5.691,5.691,0,0,1,.539-2.52,4.2,4.2,0,0,1,1.508-1.735,3.79,3.79,0,0,1,2.1-.627A3.552,3.552,0,0,1,75.9,32.1a5.275,5.275,0,0,1,1.025,3.488v.675H70.5a3.371,3.371,0,0,0,.819,2.266,2.576,2.576,0,0,0,1.994.863,2.824,2.824,0,0,0,1.455-.351,3.656,3.656,0,0,0,1.043-.929l.99.771A3.982,3.982,0,0,1,73.229,40.715Zm-.2-8.5a2.163,2.163,0,0,0-1.648.714,3.472,3.472,0,0,0-.824,2h4.75v-.123a3.088,3.088,0,0,0-.666-1.915A2.036,2.036,0,0,0,73.027,32.214Zm8.957,2.305,2.1-3.462h1.893l-3.1,4.689,3.2,4.794H84.2l-2.191-3.55L79.82,40.54H77.935l3.2-4.794-3.1-4.689h1.876ZM93.554,40.54a3.406,3.406,0,0,1-.228-1,3.618,3.618,0,0,1-2.7,1.174,3.348,3.348,0,0,1-2.3-.793,2.566,2.566,0,0,1-.9-2.011,2.681,2.681,0,0,1,1.126-2.3,5.31,5.31,0,0,1,3.168-.819H93.3v-.745a1.821,1.821,0,0,0-.508-1.354,2.043,2.043,0,0,0-1.5-.5,2.364,2.364,0,0,0-1.455.438,1.291,1.291,0,0,0-.587,1.061H87.62a2.238,2.238,0,0,1,.5-1.372,3.44,3.44,0,0,1,1.367-1.047,4.6,4.6,0,0,1,1.9-.386,3.749,3.749,0,0,1,2.568.819,2.956,2.956,0,0,1,.964,2.257v4.365a5.336,5.336,0,0,0,.333,2.077v.14ZM90.863,39.3a2.85,2.85,0,0,0,1.446-.394,2.386,2.386,0,0,0,.99-1.025V35.939H92.029q-2.98,0-2.98,1.744a1.476,1.476,0,0,0,.508,1.192A1.954,1.954,0,0,0,90.863,39.3Zm1.5-12.227h1.963l-2.349,2.577-1.306,0Zm6.626,3.979.044,1.052a3.5,3.5,0,0,1,2.813-1.227,2.711,2.711,0,0,1,2.708,1.525,3.593,3.593,0,0,1,1.231-1.1,3.637,3.637,0,0,1,1.792-.421q3.12,0,3.173,3.3V40.54h-1.621V34.282a2.178,2.178,0,0,0-.465-1.521,2.046,2.046,0,0,0-1.56-.5,2.15,2.15,0,0,0-1.5.539,2.187,2.187,0,0,0-.692,1.451V40.54h-1.63V34.326a1.809,1.809,0,0,0-2.025-2.068,2.169,2.169,0,0,0-2.182,1.359V40.54H97.454V31.057Zm18.143,9.659a4.144,4.144,0,0,1-3.138-1.266,4.7,4.7,0,0,1-1.21-3.388v-.3a5.691,5.691,0,0,1,.539-2.52,4.2,4.2,0,0,1,1.508-1.735,3.79,3.79,0,0,1,2.1-.627A3.552,3.552,0,0,1,119.8,32.1a5.275,5.275,0,0,1,1.025,3.488v.675h-6.424a3.371,3.371,0,0,0,.819,2.266,2.576,2.576,0,0,0,1.994.863,2.824,2.824,0,0,0,1.455-.351,3.656,3.656,0,0,0,1.043-.929l.99.771A3.982,3.982,0,0,1,117.131,40.715Zm-.2-8.5a2.163,2.163,0,0,0-1.648.714,3.472,3.472,0,0,0-.824,2h4.75v-.123a3.088,3.088,0,0,0-.666-1.915A2.036,2.036,0,0,0,116.929,32.214Zm7.31-1.157.053,1.192a3.456,3.456,0,0,1,2.84-1.367q3.006,0,3.033,3.392V40.54h-1.621V34.264a2.183,2.183,0,0,0-.469-1.516,1.879,1.879,0,0,0-1.433-.491,2.34,2.34,0,0,0-1.385.421,2.857,2.857,0,0,0-.929,1.1V40.54h-1.621V31.057Z" transform="translate(816.535 609.483)" fill="#12263f"/>
    <path id="Trazado_191202" data-name="Trazado 191202" d="M23.963,13.04a5.139,5.139,0,0,1-.188,1.486,3.32,3.32,0,0,1-.6,1.074q-.421.517-1.227,1.363a3,3,0,0,0-.9,1.713L21.027,19a1.966,1.966,0,0,0,.508,1.459,1.992,1.992,0,0,0,1.464.5,2.042,2.042,0,0,0,1.424-.5,1.661,1.661,0,0,0,.548-1.293h1.621a3.024,3.024,0,0,1-1,2.305,3.707,3.707,0,0,1-2.59.894,3.731,3.731,0,0,1-2.656-.881,3.2,3.2,0,0,1-.938-2.45,4.573,4.573,0,0,1,1.4-3.05l.955-.99a2.959,2.959,0,0,0,.578-1.963Zm.07-2.774a.975.975,0,0,1-.241.669.9.9,0,0,1-.714.273.917.917,0,0,1-.719-.273.965.965,0,0,1-.245-.669.922.922,0,0,1,.245-.652.933.933,0,0,1,.719-.264.919.919,0,0,1,.714.264A.931.931,0,0,1,24.033,10.266ZM30.466,14v5H28.783V6.239H33.49a4.729,4.729,0,0,1,3.282,1.069,3.625,3.625,0,0,1,1.188,2.831A3.577,3.577,0,0,1,36.8,13a4.94,4.94,0,0,1-3.326,1Zm0-1.376H33.49a3.023,3.023,0,0,0,2.068-.637,2.328,2.328,0,0,0,.719-1.839,2.4,2.4,0,0,0-.719-1.826,2.832,2.832,0,0,0-1.972-.711h-3.12ZM45.611,19a3.406,3.406,0,0,1-.228-1,3.618,3.618,0,0,1-2.7,1.174,3.348,3.348,0,0,1-2.3-.793,2.566,2.566,0,0,1-.9-2.011,2.681,2.681,0,0,1,1.126-2.3,5.31,5.31,0,0,1,3.168-.819h1.578v-.745a1.821,1.821,0,0,0-.508-1.354,2.043,2.043,0,0,0-1.5-.5,2.364,2.364,0,0,0-1.455.438,1.291,1.291,0,0,0-.587,1.061h-1.63a2.238,2.238,0,0,1,.5-1.372,3.44,3.44,0,0,1,1.367-1.047,4.6,4.6,0,0,1,1.9-.386,3.749,3.749,0,0,1,2.568.819,2.956,2.956,0,0,1,.964,2.257v4.365a5.336,5.336,0,0,0,.333,2.077V19Zm-2.691-1.236a2.85,2.85,0,0,0,1.446-.394,2.386,2.386,0,0,0,.99-1.025V14.4H44.086q-2.98,0-2.98,1.744a1.476,1.476,0,0,0,.508,1.192A1.954,1.954,0,0,0,42.921,17.764Zm12.122-1.28a1.194,1.194,0,0,0-.5-1.021,4.767,4.767,0,0,0-1.727-.627,8.163,8.163,0,0,1-1.955-.631,2.781,2.781,0,0,1-1.069-.876,2.1,2.1,0,0,1-.346-1.21,2.46,2.46,0,0,1,.986-1.972,3.851,3.851,0,0,1,2.52-.806,3.963,3.963,0,0,1,2.616.833,2.645,2.645,0,0,1,1,2.13h-1.63a1.464,1.464,0,0,0-.565-1.148,2.118,2.118,0,0,0-1.424-.482,2.217,2.217,0,0,0-1.385.386,1.214,1.214,0,0,0-.5,1.008.984.984,0,0,0,.465.885,5.715,5.715,0,0,0,1.678.57,8.745,8.745,0,0,1,1.968.649,2.87,2.87,0,0,1,1.117.907,2.23,2.23,0,0,1,.364,1.293,2.427,2.427,0,0,1-1.017,2.038,4.265,4.265,0,0,1-2.638.767,4.775,4.775,0,0,1-2.016-.4,3.279,3.279,0,0,1-1.372-1.126,2.715,2.715,0,0,1-.5-1.564h1.621a1.679,1.679,0,0,0,.653,1.293,2.533,2.533,0,0,0,1.608.478,2.615,2.615,0,0,0,1.477-.372A1.145,1.145,0,0,0,55.042,16.485Zm3.3-2.314a5.6,5.6,0,0,1,.548-2.507,4.086,4.086,0,0,1,1.525-1.718,4.151,4.151,0,0,1,2.231-.6,4,4,0,0,1,3.133,1.341,5.159,5.159,0,0,1,1.2,3.567v.114a5.65,5.65,0,0,1-.53,2.485,4.026,4.026,0,0,1-1.516,1.713,4.2,4.2,0,0,1-2.266.614,3.989,3.989,0,0,1-3.125-1.341,5.133,5.133,0,0,1-1.2-3.55Zm1.63.193a4.057,4.057,0,0,0,.732,2.533,2.48,2.48,0,0,0,3.922-.013,4.436,4.436,0,0,0,.727-2.713,4.05,4.05,0,0,0-.741-2.529,2.354,2.354,0,0,0-1.968-.968,2.328,2.328,0,0,0-1.937.955A4.4,4.4,0,0,0,59.977,14.364Zm17.415,4.812a4.144,4.144,0,0,1-3.138-1.266,4.7,4.7,0,0,1-1.21-3.388v-.3a5.691,5.691,0,0,1,.539-2.52,4.2,4.2,0,0,1,1.508-1.735,3.79,3.79,0,0,1,2.1-.627,3.552,3.552,0,0,1,2.875,1.218,5.275,5.275,0,0,1,1.025,3.488v.675H74.666a3.371,3.371,0,0,0,.819,2.266,2.576,2.576,0,0,0,1.994.863,2.824,2.824,0,0,0,1.455-.351,3.656,3.656,0,0,0,1.043-.929l.99.771A3.982,3.982,0,0,1,77.392,19.175Zm-.2-8.5a2.163,2.163,0,0,0-1.648.714,3.472,3.472,0,0,0-.824,2h4.75v-.123a3.088,3.088,0,0,0-.666-1.915A2.036,2.036,0,0,0,77.19,10.674ZM84.728,19H83.107V5.538h1.621Zm10.973.175a4.144,4.144,0,0,1-3.138-1.266,4.7,4.7,0,0,1-1.21-3.388v-.3a5.691,5.691,0,0,1,.539-2.52A4.2,4.2,0,0,1,93.4,9.968a3.79,3.79,0,0,1,2.1-.627,3.552,3.552,0,0,1,2.875,1.218A5.275,5.275,0,0,1,99.4,14.048v.675H92.976a3.371,3.371,0,0,0,.819,2.266,2.576,2.576,0,0,0,1.994.863,2.824,2.824,0,0,0,1.455-.351,3.656,3.656,0,0,0,1.043-.929l.99.771A3.982,3.982,0,0,1,95.7,19.175Zm-.2-8.5a2.163,2.163,0,0,0-1.648.714,3.472,3.472,0,0,0-.824,2h4.75v-.123a3.088,3.088,0,0,0-.666-1.915A2.036,2.036,0,0,0,95.5,10.674Zm8.957,2.305,2.1-3.462h1.893l-3.1,4.689L108.55,19h-1.876l-2.191-3.55L102.292,19h-1.884l3.2-4.794-3.1-4.689h1.876ZM116.027,19a3.406,3.406,0,0,1-.228-1,3.618,3.618,0,0,1-2.7,1.174,3.348,3.348,0,0,1-2.3-.793,2.566,2.566,0,0,1-.9-2.011,2.681,2.681,0,0,1,1.126-2.3,5.31,5.31,0,0,1,3.168-.819h1.578v-.745a1.821,1.821,0,0,0-.508-1.354,2.043,2.043,0,0,0-1.5-.5,2.364,2.364,0,0,0-1.455.438,1.291,1.291,0,0,0-.587,1.061h-1.63a2.238,2.238,0,0,1,.5-1.372,3.44,3.44,0,0,1,1.367-1.047,4.6,4.6,0,0,1,1.9-.386,3.749,3.749,0,0,1,2.568.819,2.956,2.956,0,0,1,.964,2.257v4.365a5.336,5.336,0,0,0,.333,2.077V19Zm-2.691-1.236a2.85,2.85,0,0,0,1.446-.394,2.386,2.386,0,0,0,.99-1.025V14.4H114.5q-2.98,0-2.98,1.744a1.476,1.476,0,0,0,.508,1.192A1.954,1.954,0,0,0,113.336,17.764Zm8.125-8.248.044,1.052a3.5,3.5,0,0,1,2.813-1.227,2.711,2.711,0,0,1,2.708,1.525,3.593,3.593,0,0,1,1.231-1.1,3.637,3.637,0,0,1,1.792-.421q3.12,0,3.173,3.3V19H131.6V12.742a2.178,2.178,0,0,0-.465-1.521,2.046,2.046,0,0,0-1.56-.5,2.15,2.15,0,0,0-1.5.539,2.187,2.187,0,0,0-.692,1.451V19h-1.63V12.786a1.809,1.809,0,0,0-2.025-2.068,2.169,2.169,0,0,0-2.182,1.359V19h-1.621V9.517ZM139.6,19.175a4.144,4.144,0,0,1-3.138-1.266,4.7,4.7,0,0,1-1.21-3.388v-.3a5.691,5.691,0,0,1,.539-2.52A4.2,4.2,0,0,1,137.3,9.968a3.79,3.79,0,0,1,2.1-.627,3.552,3.552,0,0,1,2.875,1.218,5.275,5.275,0,0,1,1.025,3.488v.675h-6.424a3.371,3.371,0,0,0,.819,2.266,2.576,2.576,0,0,0,1.994.863,2.824,2.824,0,0,0,1.455-.351,3.656,3.656,0,0,0,1.043-.929l.99.771A3.982,3.982,0,0,1,139.6,19.175Zm-.2-8.5a2.163,2.163,0,0,0-1.648.714,3.472,3.472,0,0,0-.824,2h4.75v-.123a3.088,3.088,0,0,0-.666-1.915A2.036,2.036,0,0,0,139.4,10.674Zm.789-5.136h1.963l-2.349,2.577-1.306,0Zm6.521,3.979.053,1.192a3.456,3.456,0,0,1,2.84-1.367q3.006,0,3.033,3.392V19h-1.621V12.725a2.183,2.183,0,0,0-.469-1.516,1.879,1.879,0,0,0-1.433-.491,2.34,2.34,0,0,0-1.385.421,2.857,2.857,0,0,0-.929,1.1V19h-1.621V9.517Zm10.272,5.875a5.231,5.231,0,0,1,.237-1.645,4.219,4.219,0,0,1,.894-1.339l1.148-1.181A2.648,2.648,0,0,0,160,9.442,2.036,2.036,0,0,0,159.517,8a1.818,1.818,0,0,0-1.4-.52,2.11,2.11,0,0,0-1.437.473,1.6,1.6,0,0,0-.543,1.271h-1.621a2.953,2.953,0,0,1,1.012-2.292,3.786,3.786,0,0,1,2.59-.872,3.573,3.573,0,0,1,2.581.888,3.22,3.22,0,0,1,.925,2.437,4.4,4.4,0,0,1-1.42,3.019l-.955.945a2.943,2.943,0,0,0-.64,2.039Zm-.07,2.784a.966.966,0,0,1,.241-.668.908.908,0,0,1,.714-.27.922.922,0,0,1,.719.27.956.956,0,0,1,.245.668.924.924,0,0,1-.245.659.94.94,0,0,1-.719.261.868.868,0,0,1-.955-.92Z" transform="translate(816.535 773.092)" fill="#12263f"/>
    <path id="Trazado_191203" data-name="Trazado 191203" d="M87,13.364H81.643V19H79.96V6.239h7.906V7.615H81.643v4.374H87ZM91.389,19H89.768V9.517h1.621ZM89.636,7a.968.968,0,0,1,.241-.666.9.9,0,0,1,.714-.272.919.919,0,0,1,.719.272A.958.958,0,0,1,91.556,7a.926.926,0,0,1-.245.657.936.936,0,0,1-.719.263.921.921,0,0,1-.714-.263A.936.936,0,0,1,89.636,7Zm5.881,2.515.053,1.192a3.456,3.456,0,0,1,2.84-1.367q3.006,0,3.033,3.392V19H99.821V12.725a2.183,2.183,0,0,0-.469-1.516,1.879,1.879,0,0,0-1.433-.491,2.34,2.34,0,0,0-1.385.421,2.857,2.857,0,0,0-.929,1.1V19H93.983V9.517Z" transform="translate(816.535 923.792)" fill="#12263f"/>
    <path id="Trazado_191204" data-name="Trazado 191204" d="M25.479,13.838h-3V19H20.79V6.239h4.225a5,5,0,0,1,3.317.982,3.532,3.532,0,0,1,1.161,2.857,3.436,3.436,0,0,1-.644,2.077,3.846,3.846,0,0,1-1.792,1.323l3,5.417V19H28.249Zm-3-1.376h2.586a2.916,2.916,0,0,0,1.994-.65,2.2,2.2,0,0,0,.741-1.739A2.314,2.314,0,0,0,27.1,8.256a2.988,2.988,0,0,0-2.038-.641H22.481Zm13.051,6.714a4.144,4.144,0,0,1-3.138-1.266,4.7,4.7,0,0,1-1.21-3.388v-.3a5.691,5.691,0,0,1,.539-2.52,4.2,4.2,0,0,1,1.508-1.735,3.79,3.79,0,0,1,2.1-.627,3.552,3.552,0,0,1,2.875,1.218,5.275,5.275,0,0,1,1.025,3.488v.675H32.806a3.371,3.371,0,0,0,.819,2.266,2.576,2.576,0,0,0,1.994.863,2.824,2.824,0,0,0,1.455-.351,3.656,3.656,0,0,0,1.043-.929l.99.771A3.982,3.982,0,0,1,35.532,19.175Zm-.2-8.5a2.163,2.163,0,0,0-1.648.714,3.472,3.472,0,0,0-.824,2h4.75v-.123a3.088,3.088,0,0,0-.666-1.915A2.036,2.036,0,0,0,35.33,10.674Zm13.787,3.69a5.678,5.678,0,0,1-.99,3.488,3.174,3.174,0,0,1-2.682,1.323,3.478,3.478,0,0,1-2.717-1.1v4.566H41.106V9.517h1.481l.079,1.052a3.34,3.34,0,0,1,2.752-1.227,3.234,3.234,0,0,1,2.7,1.288,5.74,5.74,0,0,1,.995,3.585ZM47.5,14.179a4.19,4.19,0,0,0-.684-2.533,2.2,2.2,0,0,0-1.876-.929,2.384,2.384,0,0,0-2.209,1.306v4.531a2.388,2.388,0,0,0,2.226,1.3,2.192,2.192,0,0,0,1.854-.925A4.574,4.574,0,0,0,47.5,14.179Zm7.616,5a4.144,4.144,0,0,1-3.138-1.266,4.7,4.7,0,0,1-1.21-3.388v-.3A5.691,5.691,0,0,1,51.3,11.7a4.2,4.2,0,0,1,1.508-1.735,3.79,3.79,0,0,1,2.1-.627,3.552,3.552,0,0,1,2.875,1.218,5.275,5.275,0,0,1,1.025,3.488v.675H52.386a3.371,3.371,0,0,0,.819,2.266,2.576,2.576,0,0,0,1.994.863,2.824,2.824,0,0,0,1.455-.351,3.656,3.656,0,0,0,1.043-.929l.99.771A3.982,3.982,0,0,1,55.112,19.175Zm-.2-8.5a2.163,2.163,0,0,0-1.648.714,3.472,3.472,0,0,0-.824,2h4.75v-.123a3.088,3.088,0,0,0-.666-1.915A2.036,2.036,0,0,0,54.911,10.674ZM62.886,7.22v2.3h1.77V10.77h-1.77v5.888a1.316,1.316,0,0,0,.237.856,1,1,0,0,0,.806.285,3.926,3.926,0,0,0,.771-.105V19a4.728,4.728,0,0,1-1.245.174,2.019,2.019,0,0,1-1.639-.657,2.824,2.824,0,0,1-.552-1.867V10.77H59.538V9.517h1.727V7.22ZM68.312,19H66.69V9.517h1.621ZM66.559,7a.968.968,0,0,1,.241-.666.9.9,0,0,1,.714-.272.919.919,0,0,1,.719.272A.958.958,0,0,1,68.478,7a.926.926,0,0,1-.245.657.936.936,0,0,1-.719.263.921.921,0,0,1-.714-.263A.936.936,0,0,1,66.559,7Zm8.931,3.97a4.859,4.859,0,0,0-.8-.061,2.137,2.137,0,0,0-2.165,1.359V19H70.906V9.517h1.578l.026,1.1a2.525,2.525,0,0,1,2.261-1.271,1.657,1.657,0,0,1,.719.123Zm9.869,8.2a4.144,4.144,0,0,1-3.138-1.266,4.7,4.7,0,0,1-1.21-3.388v-.3a5.691,5.691,0,0,1,.539-2.52,4.2,4.2,0,0,1,1.508-1.735,3.79,3.79,0,0,1,2.1-.627,3.552,3.552,0,0,1,2.875,1.218,5.275,5.275,0,0,1,1.025,3.488v.675H82.633a3.371,3.371,0,0,0,.819,2.266,2.576,2.576,0,0,0,1.994.863A2.824,2.824,0,0,0,86.9,17.5a3.656,3.656,0,0,0,1.043-.929l.99.771A3.982,3.982,0,0,1,85.359,19.175Zm-.2-8.5a2.163,2.163,0,0,0-1.648.714,3.472,3.472,0,0,0-.824,2h4.75v-.123a3.088,3.088,0,0,0-.666-1.915A2.036,2.036,0,0,0,85.157,10.674ZM92.7,19H91.074V5.538H92.7Zm10.973.175a4.144,4.144,0,0,1-3.138-1.266,4.7,4.7,0,0,1-1.21-3.388v-.3a5.691,5.691,0,0,1,.539-2.52,4.2,4.2,0,0,1,1.508-1.735,3.79,3.79,0,0,1,2.1-.627,3.552,3.552,0,0,1,2.875,1.218,5.275,5.275,0,0,1,1.025,3.488v.675h-6.424a3.371,3.371,0,0,0,.819,2.266,2.576,2.576,0,0,0,1.994.863,2.824,2.824,0,0,0,1.455-.351,3.656,3.656,0,0,0,1.043-.929l.99.771A3.982,3.982,0,0,1,103.668,19.175Zm-.2-8.5a2.163,2.163,0,0,0-1.648.714,3.472,3.472,0,0,0-.824,2h4.75v-.123a3.088,3.088,0,0,0-.666-1.915A2.036,2.036,0,0,0,103.467,10.674Zm8.957,2.305,2.1-3.462h1.893l-3.1,4.689,3.2,4.794h-1.876l-2.191-3.55L110.259,19h-1.884l3.2-4.794-3.1-4.689h1.876ZM123.994,19a3.406,3.406,0,0,1-.228-1,3.618,3.618,0,0,1-2.7,1.174,3.348,3.348,0,0,1-2.3-.793,2.566,2.566,0,0,1-.9-2.011,2.681,2.681,0,0,1,1.126-2.3,5.31,5.31,0,0,1,3.168-.819h1.578v-.745a1.821,1.821,0,0,0-.508-1.354,2.043,2.043,0,0,0-1.5-.5,2.364,2.364,0,0,0-1.455.438,1.291,1.291,0,0,0-.587,1.061h-1.63a2.238,2.238,0,0,1,.5-1.372,3.44,3.44,0,0,1,1.367-1.047,4.6,4.6,0,0,1,1.9-.386,3.749,3.749,0,0,1,2.568.819,2.956,2.956,0,0,1,.964,2.257v4.365a5.336,5.336,0,0,0,.333,2.077V19ZM121.3,17.764a2.85,2.85,0,0,0,1.446-.394,2.386,2.386,0,0,0,.99-1.025V14.4h-1.271q-2.98,0-2.98,1.744A1.476,1.476,0,0,0,120,17.335,1.954,1.954,0,0,0,121.3,17.764Zm8.125-8.248.044,1.052a3.5,3.5,0,0,1,2.813-1.227,2.711,2.711,0,0,1,2.708,1.525,3.592,3.592,0,0,1,1.231-1.1,3.637,3.637,0,0,1,1.792-.421q3.12,0,3.173,3.3V19h-1.621V12.742a2.178,2.178,0,0,0-.465-1.521,2.046,2.046,0,0,0-1.56-.5,2.15,2.15,0,0,0-1.5.539,2.187,2.187,0,0,0-.692,1.451V19h-1.63V12.786a1.809,1.809,0,0,0-2.025-2.068,2.169,2.169,0,0,0-2.182,1.359V19h-1.621V9.517Zm18.143,9.659a4.144,4.144,0,0,1-3.138-1.266,4.7,4.7,0,0,1-1.21-3.388v-.3a5.691,5.691,0,0,1,.539-2.52,4.2,4.2,0,0,1,1.508-1.735,3.79,3.79,0,0,1,2.1-.627,3.552,3.552,0,0,1,2.875,1.218,5.275,5.275,0,0,1,1.025,3.488v.675h-6.424a3.371,3.371,0,0,0,.819,2.266,2.576,2.576,0,0,0,1.994.863,2.824,2.824,0,0,0,1.455-.351,3.656,3.656,0,0,0,1.043-.929l.99.771A3.982,3.982,0,0,1,147.57,19.175Zm-.2-8.5a2.163,2.163,0,0,0-1.648.714,3.472,3.472,0,0,0-.824,2h4.75v-.123a3.088,3.088,0,0,0-.666-1.915A2.036,2.036,0,0,0,147.369,10.674Zm7.31-1.157.053,1.192a3.456,3.456,0,0,1,2.84-1.367q3.006,0,3.033,3.392V19h-1.621V12.725a2.183,2.183,0,0,0-.469-1.516,1.879,1.879,0,0,0-1.433-.491,2.34,2.34,0,0,0-1.385.421,2.857,2.857,0,0,0-.929,1.1V19h-1.621V9.517Z" transform="translate(1069.902 773.092)" fill="#12263f"/>
    <path id="Trazado_191205" data-name="Trazado 191205" d="M34.1,13.166a1.056,1.056,0,0,0-.4-.879,4.961,4.961,0,0,0-1.4-.652,13.456,13.456,0,0,1-1.641-.652,3.107,3.107,0,0,1-2.073-2.8A2.509,2.509,0,0,1,29.1,6.621a3.34,3.34,0,0,1,1.461-1.055,5.686,5.686,0,0,1,2.124-.377,4.974,4.974,0,0,1,2.062.41,3.264,3.264,0,0,1,1.417,1.168A3.051,3.051,0,0,1,36.67,8.5H34.107a1.289,1.289,0,0,0-.4-1.011,1.556,1.556,0,0,0-1.08-.359,1.755,1.755,0,0,0-1.088.3.9.9,0,0,0,.04,1.516,5.542,5.542,0,0,0,1.545.688,9.467,9.467,0,0,1,1.816.765,3.052,3.052,0,0,1,1.729,2.747,2.6,2.6,0,0,1-1.055,2.2,4.691,4.691,0,0,1-2.893.8,5.74,5.74,0,0,1-2.347-.465,3.539,3.539,0,0,1-1.582-1.274,3.321,3.321,0,0,1-.531-1.864H30.84a1.635,1.635,0,0,0,.443,1.263,2.094,2.094,0,0,0,1.439.406,1.655,1.655,0,0,0,1.007-.275A.907.907,0,0,0,34.1,13.166ZM40.567,16H38.084V8.075h2.483ZM39.644,4.9h2.607L40.215,7.2l-2.014,0Z" transform="translate(905.748 861.747)" fill="#6836bf"/>
    <path id="Trazado_191206" data-name="Trazado 191206" d="M34.861,16H32.305L28.526,9.364V16H25.955V5.336h2.571L32.3,11.972V5.336h2.563Zm1.2-4.036a4.677,4.677,0,0,1,.461-2.113A3.3,3.3,0,0,1,37.85,8.427a3.993,3.993,0,0,1,2.029-.5,3.644,3.644,0,0,1,2.805,1.1,4.23,4.23,0,0,1,1.025,3v.088a4.1,4.1,0,0,1-1.029,2.941,3.654,3.654,0,0,1-2.787,1.088,3.7,3.7,0,0,1-2.717-1.014,3.968,3.968,0,0,1-1.106-2.75Zm2.468.154a2.949,2.949,0,0,0,.344,1.611,1.147,1.147,0,0,0,1.018.513q1.318,0,1.348-2.029v-.249q0-2.131-1.362-2.131-1.238,0-1.34,1.838Z" transform="translate(1000.404 741.95)" fill="#6836bf"/>
    <g id="Trazado_191207" data-name="Trazado 191207" transform="translate(815.84 594)" fill="none" stroke-linecap="round">
      <path d="M0,0H181.628V77.924H0Z" stroke="none"/>
      <path d="M -1.52587890625e-05 0 L -1.52587890625e-05 77.92404937744141 L 181.6275329589844 77.92404937744141 L 181.6275329589844 0 L -1.52587890625e-05 0 M -2.000015258789062 -2 L 183.6275329589844 -2 L 183.6275329589844 79.92404937744141 L -2.000015258789062 79.92404937744141 L -2.000015258789062 -2 Z" stroke="none" fill="#f7ca18"/>
    </g>
    <g id="Trazado_190545" data-name="Trazado 190545" transform="translate(-489.53 -809.437)" fill="none" stroke-linecap="round" stroke-linejoin="round" style="isolation: isolate">
      <path d="M1454.511,1555.1l-58.327-38-58.327,38-58.327,38,58.327,38,58.327,38,58.327-38,58.327-38Z" stroke="none"/>
      <path d="M 1396.183837890625 1517.091064453125 L 1279.5302734375 1593.099243164062 L 1396.183837890625 1669.107543945312 L 1512.837524414062 1593.099243164062 L 1396.183837890625 1517.091064453125 M 1396.183837890625 1515.091064453125 C 1396.563842773438 1515.091064453125 1396.94384765625 1515.19921875 1397.275634765625 1515.415405273438 L 1513.929321289062 1591.423583984375 C 1514.495849609375 1591.792724609375 1514.837524414062 1592.423095703125 1514.837524414062 1593.099243164062 C 1514.837524414062 1593.775390625 1514.495849609375 1594.40576171875 1513.929321289062 1594.77490234375 L 1397.275634765625 1670.783203125 C 1396.612060546875 1671.215576171875 1395.755615234375 1671.215576171875 1395.092041015625 1670.783203125 L 1278.4384765625 1594.77490234375 C 1277.871948242188 1594.40576171875 1277.5302734375 1593.775390625 1277.5302734375 1593.099243164062 C 1277.5302734375 1592.423095703125 1277.871948242188 1591.792724609375 1278.4384765625 1591.423583984375 L 1395.092041015625 1515.415405273438 C 1395.423828125 1515.19921875 1395.803833007812 1515.091064453125 1396.183837890625 1515.091064453125 Z" stroke="none" fill="#f7ca18"/>
    </g>
    <g id="Trazado_191208" data-name="Trazado 191208" transform="translate(815.84 895.401)" fill="none" stroke-linecap="round">
      <path d="M38.962,0h103.7a38.962,38.962,0,0,1,38.962,38.962h0a38.962,38.962,0,0,1-38.962,38.962H38.962A38.962,38.962,0,0,1,0,38.962H0A38.962,38.962,0,0,1,38.962,0Z" stroke="none"/>
      <path d="M 38.96199035644531 0 C 17.44386291503906 0 -1.52587890625e-05 17.44388198852539 -1.52587890625e-05 38.96197891235352 L -1.52587890625e-05 38.96207046508789 C -1.52587890625e-05 60.48016738891602 17.44386291503906 77.92404937744141 38.96199035644531 77.92404937744141 L 142.6655578613281 77.92404937744141 C 164.1836853027344 77.92404937744141 181.6275329589844 60.48016738891602 181.6275329589844 38.96207046508789 L 181.6275329589844 38.96197891235352 C 181.6275329589844 17.44388198852539 164.1836853027344 0 142.6655578613281 0 L 38.96199035644531 0 M 38.96199035644531 -2 L 142.6655578613281 -2 C 148.1945190429688 -2 153.5591278076172 -0.91668701171875 158.6104431152344 1.219810485839844 C 163.4883880615234 3.283027648925781 167.8688201904297 6.236259460449219 171.6300659179688 9.99749755859375 C 175.3912811279297 13.75871276855469 178.3445129394531 18.13916778564453 180.4077301025391 23.01712036132812 C 182.5442199707031 28.06840515136719 183.6275329589844 33.43302536010742 183.6275329589844 38.96197891235352 C 183.6275329589844 44.49095153808594 182.5442199707031 49.85559844970703 180.4077301025391 54.90688323974609 C 178.3445129394531 59.78485870361328 175.3912963867188 64.16531372070312 171.6300659179688 67.92655181884766 C 167.8688201904297 71.68778991699219 163.4883880615234 74.64102172851562 158.6104431152344 76.70423889160156 C 153.5591583251953 78.84073638916016 148.1945190429688 79.92404937744141 142.6655578613281 79.92404937744141 L 38.96199035644531 79.92404937744141 C 33.43302917480469 79.92404937744141 28.06838989257812 78.84073638916016 23.01710510253906 76.70423889160156 C 18.13916015625 74.64102172851562 13.75869750976562 71.68778991699219 9.997482299804688 67.92655181884766 C 6.236251831054688 64.16533660888672 3.283004760742188 59.78488159179688 1.219802856445312 54.90692901611328 C -0.9167022705078125 49.85564422607422 -2.000015258789062 44.49102401733398 -2.000015258789062 38.96207046508789 C -2.000015258789062 33.43309783935547 -0.9167022705078125 28.06845474243164 1.219802856445312 23.01716613769531 C 3.283004760742188 18.13919067382812 6.236251831054688 13.75873565673828 9.997482299804688 9.99749755859375 C 13.75869750976562 6.236259460449219 18.13916015625 3.283027648925781 23.01710510253906 1.219810485839844 C 28.06838989257812 -0.91668701171875 33.43302917480469 -2 38.96199035644531 -2 Z" stroke="none" fill="#f7ca18"/>
    </g>
    <g id="Trazado_191209" data-name="Trazado 191209" transform="translate(1069.657 744.701)" fill="none" stroke-linecap="round">
      <path d="M0,0H181.628V77.924H0Z" stroke="none"/>
      <path d="M -1.52587890625e-05 0 L -1.52587890625e-05 77.92404937744141 L 181.6275329589844 77.92404937744141 L 181.6275329589844 0 L -1.52587890625e-05 0 M -2.000015258789062 -2 L 183.6275329589844 -2 L 183.6275329589844 79.92404937744141 L -2.000015258789062 79.92404937744141 L -2.000015258789062 -2 Z" stroke="none" fill="#f7ca18"/>
    </g>
  </g>
</svg>
