<svg xmlns="http://www.w3.org/2000/svg" width="465.285" height="383.325" viewBox="0 0 465.285 383.325">
  <g id="Grupo_129555" data-name="Grupo 129555" transform="translate(-1277.53 -1401.437)">
    <rect id="Rectángulo_42037" data-name="Rectángulo 42037" width="181.628" height="77.924" transform="translate(1305.37 1403.437)" fill="#f7ca18" opacity="0.25" style="isolation: isolate"/>
    <path id="Trazado_190541" data-name="Trazado 190541" d="M1454.511,1555.1l-58.327-38-58.327,38-58.327,38,58.327,38,58.327,38,58.327-38,58.327-38Z" fill="#f7ca18" opacity="0.25" style="isolation: isolate"/>
    <rect id="Rectángulo_42038" data-name="Rectángulo 42038" width="181.628" height="77.924" rx="38.962" transform="translate(1305.37 1704.838)" fill="#f7ca18" opacity="0.25" style="isolation: isolate"/>
    <rect id="Rectángulo_42039" data-name="Rectángulo 42039" width="181.628" height="77.924" transform="translate(1559.188 1554.137)" fill="#f7ca18" opacity="0.25" style="isolation: isolate"/>
    <g id="Grupo_129542" data-name="Grupo 129542">
      <g id="Grupo_129537" data-name="Grupo 129537">
        <line id="Línea_407" data-name="Línea 407" y2="28.253" transform="translate(1396.184 1481.361)" fill="#fff"/>
      </g>
      <g id="Grupo_129541" data-name="Grupo 129541">
        <g id="Grupo_129538" data-name="Grupo 129538">
          <rect id="Rectángulo_42040" data-name="Rectángulo 42040" width="1" height="22.283" transform="translate(1395.684 1481.36)" fill="#f7ca18"/>
        </g>
        <g id="Grupo_129540" data-name="Grupo 129540">
          <g id="Grupo_129539" data-name="Grupo 129539">
            <path id="Trazado_190542" data-name="Trazado 190542" d="M1392.481,1500.835l3.7,1.573,3.7-1.573-3.7,8.778Z" fill="#f7ca18"/>
          </g>
        </g>
      </g>
    </g>
    <g id="Grupo_129548" data-name="Grupo 129548">
      <g id="Grupo_129543" data-name="Grupo 129543">
        <line id="Línea_408" data-name="Línea 408" y2="28.253" transform="translate(1396.184 1669.108)" fill="#fff"/>
      </g>
      <g id="Grupo_129547" data-name="Grupo 129547">
        <g id="Grupo_129544" data-name="Grupo 129544">
          <rect id="Rectángulo_42041" data-name="Rectángulo 42041" width="1" height="22.283" transform="translate(1395.684 1669.108)" fill="#f7ca18"/>
        </g>
        <g id="Grupo_129546" data-name="Grupo 129546">
          <g id="Grupo_129545" data-name="Grupo 129545">
            <path id="Trazado_190543" data-name="Trazado 190543" d="M1392.481,1688.582l3.7,1.573,3.7-1.573-3.7,8.778Z" fill="#f7ca18"/>
          </g>
        </g>
      </g>
    </g>
    <g id="Grupo_129554" data-name="Grupo 129554">
      <g id="Grupo_129549" data-name="Grupo 129549">
        <line id="Línea_409" data-name="Línea 409" x2="28.253" transform="translate(1511.47 1593.099)" fill="#fff"/>
      </g>
      <g id="Grupo_129553" data-name="Grupo 129553">
        <g id="Grupo_129550" data-name="Grupo 129550">
          <rect id="Rectángulo_42042" data-name="Rectángulo 42042" width="22.283" height="1" transform="translate(1511.47 1592.6)" fill="#f7ca18"/>
        </g>
        <g id="Grupo_129552" data-name="Grupo 129552">
          <g id="Grupo_129551" data-name="Grupo 129551">
            <path id="Trazado_190544" data-name="Trazado 190544" d="M1530.945,1596.8l1.573-3.7-1.573-3.7,8.778,3.7Z" fill="#f7ca18"/>
          </g>
        </g>
      </g>
    </g>
    <text id="Presentar_El_examen_" data-name="Presentar 
El examen
" transform="translate(1306.065 1418.92)" fill="#12263f" font-size="17.95" font-family="Roboto-Regular, Roboto"><tspan x="52.014" y="17">Presentar </tspan><tspan x="49.411" y="38.54">El examen</tspan></text>
    <text id="_Paso_el_examen_" data-name="¿Paso el examen?
" transform="translate(1306.065 1582.528)" fill="#12263f" font-size="17.95" font-family="Roboto-Regular, Roboto"><tspan x="18.809" y="17">¿Paso el examen?</tspan></text>
    <text id="Fin" transform="translate(1306.065 1733.228)" fill="#12263f" font-size="17.95" font-family="Roboto-Regular, Roboto"><tspan x="78.479" y="17">Fin</tspan></text>
    <text id="Repetir_el_examen" data-name="Repetir el examen" transform="translate(1559.432 1582.528)" fill="#12263f" font-size="17.95" font-family="Roboto-Regular, Roboto"><tspan x="19.317" y="17">Repetir el examen</tspan></text>
    <text id="SÍ" transform="translate(1395.279 1671.183)" fill="#6836bf" font-size="15" font-family="Roboto-Black, Roboto" font-weight="800"><tspan x="27.669" y="14">SÍ</tspan></text>
    <text id="NO" transform="translate(1489.934 1551.386)" fill="#6836bf" font-size="15" font-family="Roboto-Black, Roboto" font-weight="800"><tspan x="24.183" y="14">NO</tspan></text>
    <g id="Rectángulo_42043" data-name="Rectángulo 42043" transform="translate(1305.37 1403.437)" fill="none" stroke="#f7ca18" stroke-linecap="round" stroke-linejoin="round" stroke-width="2" style="isolation: isolate">
      <rect width="181.628" height="77.924" stroke="none"/>
      <rect x="-1" y="-1" width="183.628" height="79.924" fill="none"/>
    </g>
    <g id="Trazado_190545" data-name="Trazado 190545" fill="none" stroke-linecap="round" stroke-linejoin="round" style="isolation: isolate">
      <path d="M1454.511,1555.1l-58.327-38-58.327,38-58.327,38,58.327,38,58.327,38,58.327-38,58.327-38Z" stroke="none"/>
      <path d="M 1396.183837890625 1517.091064453125 L 1279.5302734375 1593.099243164062 L 1396.183837890625 1669.107543945312 L 1512.837524414062 1593.099243164062 L 1396.183837890625 1517.091064453125 M 1396.183837890625 1515.091064453125 C 1396.563842773438 1515.091064453125 1396.94384765625 1515.19921875 1397.275634765625 1515.415405273438 L 1513.929321289062 1591.423583984375 C 1514.495849609375 1591.792724609375 1514.837524414062 1592.423095703125 1514.837524414062 1593.099243164062 C 1514.837524414062 1593.775390625 1514.495849609375 1594.40576171875 1513.929321289062 1594.77490234375 L 1397.275634765625 1670.783203125 C 1396.612060546875 1671.215576171875 1395.755615234375 1671.215576171875 1395.092041015625 1670.783203125 L 1278.4384765625 1594.77490234375 C 1277.871948242188 1594.40576171875 1277.5302734375 1593.775390625 1277.5302734375 1593.099243164062 C 1277.5302734375 1592.423095703125 1277.871948242188 1591.792724609375 1278.4384765625 1591.423583984375 L 1395.092041015625 1515.415405273438 C 1395.423828125 1515.19921875 1395.803833007812 1515.091064453125 1396.183837890625 1515.091064453125 Z" stroke="none" fill="#f7ca18"/>
    </g>
    <g id="Rectángulo_42044" data-name="Rectángulo 42044" transform="translate(1305.37 1704.838)" fill="none" stroke="#f7ca18" stroke-linecap="round" stroke-linejoin="round" stroke-width="2" style="isolation: isolate">
      <rect width="181.628" height="77.924" rx="38.962" stroke="none"/>
      <rect x="-1" y="-1" width="183.628" height="79.924" rx="39.962" fill="none"/>
    </g>
    <g id="Rectángulo_42045" data-name="Rectángulo 42045" transform="translate(1559.188 1554.137)" fill="none" stroke="#f7ca18" stroke-linecap="round" stroke-linejoin="round" stroke-width="2" style="isolation: isolate">
      <rect width="181.628" height="77.924" stroke="none"/>
      <rect x="-1" y="-1" width="183.628" height="79.924" fill="none"/>
    </g>
  </g>
</svg>
