<svg xmlns="http://www.w3.org/2000/svg" width="698.165" height="240.953" viewBox="0 0 698.165 240.953">
  <g id="Grupo_132005" data-name="Grupo 132005" transform="translate(-3219.417 11051.477)">
    <path id="Trazado_191166" data-name="Trazado 191166" d="M13.87,0H151.263a13.87,13.87,0,0,1,13.87,13.87V56.978a13.87,13.87,0,0,1-13.87,13.87H13.87A13.87,13.87,0,0,1,0,56.978V13.87A13.87,13.87,0,0,1,13.87,0Z" transform="translate(3490.894 -11049.277)" fill="#6836bf" opacity="0.25"/>
    <path id="Trazado_191167" data-name="Trazado 191167" d="M59.73,10.2V14H58.452V4.3h3.576a3.593,3.593,0,0,1,2.494.812,2.754,2.754,0,0,1,.9,2.151,2.718,2.718,0,0,1-.882,2.174,3.753,3.753,0,0,1-2.527.762Zm0-1.045h2.3A2.3,2.3,0,0,0,63.6,8.675a1.768,1.768,0,0,0,.546-1.4A1.827,1.827,0,0,0,63.6,5.89a2.152,2.152,0,0,0-1.5-.54H59.73ZM70.345,7.9a3.692,3.692,0,0,0-.606-.047,1.623,1.623,0,0,0-1.645,1.032V14H66.862V6.795h1.2l.02.832A1.918,1.918,0,0,1,69.8,6.662a1.259,1.259,0,0,1,.546.093Zm.673,2.431a4.256,4.256,0,0,1,.416-1.9,3.1,3.1,0,0,1,1.159-1.305,3.154,3.154,0,0,1,1.695-.459,3.039,3.039,0,0,1,2.381,1.019,3.92,3.92,0,0,1,.909,2.71v.087a4.293,4.293,0,0,1-.4,1.888,3.059,3.059,0,0,1-1.152,1.3,3.19,3.19,0,0,1-1.721.466,3.031,3.031,0,0,1-2.374-1.019,3.9,3.9,0,0,1-.909-2.7Zm1.239.146a3.082,3.082,0,0,0,.556,1.924,1.884,1.884,0,0,0,2.98-.01,3.371,3.371,0,0,0,.553-2.061,3.077,3.077,0,0,0-.563-1.921,1.789,1.789,0,0,0-1.495-.736,1.769,1.769,0,0,0-1.472.726A3.346,3.346,0,0,0,72.256,10.477Zm9.756,2.65a1.774,1.774,0,0,0,1.152-.4,1.406,1.406,0,0,0,.546-1h1.165a2.234,2.234,0,0,1-.426,1.179A2.807,2.807,0,0,1,83.4,13.8a3.026,3.026,0,0,1-1.388.333,2.968,2.968,0,0,1-2.341-.982,3.912,3.912,0,0,1-.869-2.687v-.206a4.338,4.338,0,0,1,.386-1.871A2.942,2.942,0,0,1,80.3,7.115,3.15,3.15,0,0,1,82,6.662a2.89,2.89,0,0,1,2.014.726,2.594,2.594,0,0,1,.856,1.885H83.71a1.7,1.7,0,0,0-.529-1.149A1.647,1.647,0,0,0,82,7.674a1.724,1.724,0,0,0-1.455.676,3.174,3.174,0,0,0-.516,1.954v.233a3.111,3.111,0,0,0,.513,1.918A1.732,1.732,0,0,0,82.012,13.128Zm7.238,1.006a3.148,3.148,0,0,1-2.384-.962,3.571,3.571,0,0,1-.919-2.574v-.226a4.324,4.324,0,0,1,.41-1.914A3.2,3.2,0,0,1,87.5,7.138,2.88,2.88,0,0,1,89.1,6.662a2.7,2.7,0,0,1,2.184.926,4.008,4.008,0,0,1,.779,2.65v.513H87.179a2.561,2.561,0,0,0,.623,1.721,1.957,1.957,0,0,0,1.515.656,2.146,2.146,0,0,0,1.105-.266,2.778,2.778,0,0,0,.792-.706l.752.586A3.026,3.026,0,0,1,89.25,14.133ZM89.1,7.674a1.643,1.643,0,0,0-1.252.543,2.638,2.638,0,0,0-.626,1.522h3.609V9.645a2.346,2.346,0,0,0-.506-1.455A1.547,1.547,0,0,0,89.1,7.674Zm8.584,4.415a.907.907,0,0,0-.376-.776,3.622,3.622,0,0,0-1.312-.476,6.2,6.2,0,0,1-1.485-.479,2.113,2.113,0,0,1-.812-.666,1.593,1.593,0,0,1-.263-.919,1.869,1.869,0,0,1,.749-1.5A2.926,2.926,0,0,1,96.1,6.662a3.011,3.011,0,0,1,1.988.633,2.009,2.009,0,0,1,.762,1.618H97.607a1.112,1.112,0,0,0-.43-.872A1.609,1.609,0,0,0,96.1,7.674a1.684,1.684,0,0,0-1.052.293.922.922,0,0,0-.38.766.747.747,0,0,0,.353.673,4.342,4.342,0,0,0,1.275.433,6.644,6.644,0,0,1,1.495.493,2.181,2.181,0,0,1,.849.689,1.7,1.7,0,0,1,.276.982,1.844,1.844,0,0,1-.772,1.548,3.24,3.24,0,0,1-2,.583,3.628,3.628,0,0,1-1.532-.306,2.491,2.491,0,0,1-1.042-.856,2.062,2.062,0,0,1-.376-1.189h1.232a1.275,1.275,0,0,0,.5.982,1.925,1.925,0,0,0,1.222.363,1.987,1.987,0,0,0,1.122-.283A.87.87,0,0,0,97.68,12.089Zm2.51-1.758a4.256,4.256,0,0,1,.416-1.9,3.1,3.1,0,0,1,1.159-1.305,3.154,3.154,0,0,1,1.695-.459,3.039,3.039,0,0,1,2.381,1.019,3.92,3.92,0,0,1,.909,2.71v.087a4.293,4.293,0,0,1-.4,1.888,3.059,3.059,0,0,1-1.152,1.3,3.19,3.19,0,0,1-1.721.466,3.031,3.031,0,0,1-2.374-1.019,3.9,3.9,0,0,1-.909-2.7Zm1.239.146a3.082,3.082,0,0,0,.556,1.924,1.884,1.884,0,0,0,2.98-.01,3.371,3.371,0,0,0,.553-2.061,3.077,3.077,0,0,0-.563-1.921,1.789,1.789,0,0,0-1.495-.736,1.769,1.769,0,0,0-1.472.726A3.346,3.346,0,0,0,101.429,10.477ZM46.838,27.638v-9.7h2.737a4.406,4.406,0,0,1,2.237.559,3.783,3.783,0,0,1,1.5,1.592,5.18,5.18,0,0,1,.536,2.371v.619a5.2,5.2,0,0,1-.529,2.4,3.724,3.724,0,0,1-1.512,1.585,4.686,4.686,0,0,1-2.287.566Zm1.279-8.65v7.6h1.345a2.927,2.927,0,0,0,2.3-.92,3.8,3.8,0,0,0,.822-2.619v-.567a3.86,3.86,0,0,0-.776-2.569,2.761,2.761,0,0,0-2.2-.93Zm7.145,4.981a4.256,4.256,0,0,1,.416-1.9,3.1,3.1,0,0,1,1.159-1.305,3.154,3.154,0,0,1,1.695-.459,3.039,3.039,0,0,1,2.381,1.019,3.92,3.92,0,0,1,.909,2.71v.087a4.293,4.293,0,0,1-.4,1.888,3.059,3.059,0,0,1-1.152,1.3,3.19,3.19,0,0,1-1.721.466,3.031,3.031,0,0,1-2.374-1.019,3.9,3.9,0,0,1-.909-2.7Zm1.239.146a3.082,3.082,0,0,0,.556,1.924,1.884,1.884,0,0,0,2.98-.01,3.371,3.371,0,0,0,.553-2.061,3.077,3.077,0,0,0-.563-1.921,1.789,1.789,0,0,0-1.495-.736,1.769,1.769,0,0,0-1.472.726A3.346,3.346,0,0,0,56.5,24.115Zm9.756,2.65a1.774,1.774,0,0,0,1.152-.4,1.406,1.406,0,0,0,.546-1H69.12a2.234,2.234,0,0,1-.426,1.179,2.807,2.807,0,0,1-1.049.892,3.026,3.026,0,0,1-1.388.333,2.968,2.968,0,0,1-2.341-.982,3.912,3.912,0,0,1-.869-2.687V23.9a4.338,4.338,0,0,1,.386-1.871,2.942,2.942,0,0,1,1.109-1.272A3.15,3.15,0,0,1,66.25,20.3a2.89,2.89,0,0,1,2.014.726,2.594,2.594,0,0,1,.856,1.885H67.954a1.7,1.7,0,0,0-.529-1.149,1.647,1.647,0,0,0-1.175-.449,1.724,1.724,0,0,0-1.455.676,3.174,3.174,0,0,0-.516,1.954v.233a3.111,3.111,0,0,0,.513,1.918A1.732,1.732,0,0,0,66.256,26.765Zm8.7.16a2.617,2.617,0,0,1-2.111.846,2.24,2.24,0,0,1-1.755-.669,2.9,2.9,0,0,1-.609-1.981V20.433H71.71v4.655q0,1.638,1.332,1.638a1.844,1.844,0,0,0,1.878-1.052V20.433h1.232v7.205H74.98Zm4.229-6.493.033.8a2.661,2.661,0,0,1,2.138-.932,2.06,2.06,0,0,1,2.058,1.159,2.729,2.729,0,0,1,.936-.839,2.763,2.763,0,0,1,1.362-.32q2.371,0,2.411,2.51v4.828H86.886V22.883a1.654,1.654,0,0,0-.353-1.155,1.554,1.554,0,0,0-1.185-.383,1.634,1.634,0,0,0-1.139.41,1.661,1.661,0,0,0-.526,1.1v4.781H82.444V22.916a1.375,1.375,0,0,0-1.538-1.572,1.648,1.648,0,0,0-1.658,1.032v5.261H78.016V20.433Zm13.784,7.338a3.148,3.148,0,0,1-2.384-.962,3.571,3.571,0,0,1-.919-2.574v-.226a4.324,4.324,0,0,1,.41-1.914,3.2,3.2,0,0,1,1.145-1.318,2.88,2.88,0,0,1,1.595-.476A2.7,2.7,0,0,1,95,21.225a4.008,4.008,0,0,1,.779,2.65v.513H90.895a2.561,2.561,0,0,0,.623,1.721,1.957,1.957,0,0,0,1.515.656,2.146,2.146,0,0,0,1.105-.266,2.778,2.778,0,0,0,.792-.706l.752.586A3.026,3.026,0,0,1,92.966,27.771Zm-.153-6.459a1.643,1.643,0,0,0-1.252.543,2.638,2.638,0,0,0-.626,1.522h3.609v-.093a2.346,2.346,0,0,0-.506-1.455A1.547,1.547,0,0,0,92.813,21.312Zm5.554-.879.04.906a2.626,2.626,0,0,1,2.158-1.039q2.284,0,2.3,2.577v4.761h-1.232V22.87a1.659,1.659,0,0,0-.356-1.152,1.428,1.428,0,0,0-1.089-.373,1.778,1.778,0,0,0-1.052.32,2.17,2.17,0,0,0-.706.839v5.134H97.2V20.433Zm8.031-1.745v1.745h1.345v.952H106.4v4.474a1,1,0,0,0,.18.65.757.757,0,0,0,.613.217,2.982,2.982,0,0,0,.586-.08v.993a3.593,3.593,0,0,1-.946.132,1.534,1.534,0,0,1-1.245-.5,2.146,2.146,0,0,1-.42-1.418V21.385h-1.312v-.952h1.312V18.688Zm7.232,8.95a2.588,2.588,0,0,1-.173-.759,2.749,2.749,0,0,1-2.051.892,2.543,2.543,0,0,1-1.748-.6,1.95,1.95,0,0,1-.683-1.528,2.037,2.037,0,0,1,.856-1.748,4.034,4.034,0,0,1,2.407-.623h1.2V22.7a1.384,1.384,0,0,0-.386-1.029,1.552,1.552,0,0,0-1.139-.383,1.8,1.8,0,0,0-1.105.333.981.981,0,0,0-.446.806h-1.239a1.7,1.7,0,0,1,.383-1.042,2.613,2.613,0,0,1,1.039-.8,3.5,3.5,0,0,1,1.442-.293,2.848,2.848,0,0,1,1.951.623,2.246,2.246,0,0,1,.732,1.715v3.316a4.054,4.054,0,0,0,.253,1.578v.107Zm-2.044-.939a2.165,2.165,0,0,0,1.1-.3,1.813,1.813,0,0,0,.752-.779V24.142h-.966q-2.264,0-2.264,1.325a1.121,1.121,0,0,0,.386.906A1.484,1.484,0,0,0,111.585,26.7Zm6.353.939h-1.232V17.409h1.232Z" transform="translate(3491.526 -11030.21)" fill="#12263f"/>
    <path id="Trazado_191168" data-name="Trazado 191168" d="M59.3,7.114H56.644V9.1h3.1V10H55.521V3.536h4.2v.906H56.644V6.227H59.3Zm3.951,1.58a.489.489,0,0,0-.238-.439,2.526,2.526,0,0,0-.788-.266,4.051,4.051,0,0,1-.919-.293A1.226,1.226,0,0,1,60.5,6.564a1.279,1.279,0,0,1,.524-1.039,2.071,2.071,0,0,1,1.332-.417,2.155,2.155,0,0,1,1.392.426,1.352,1.352,0,0,1,.531,1.105H63.2a.665.665,0,0,0-.231-.517.885.885,0,0,0-.613-.206.956.956,0,0,0-.579.164.518.518,0,0,0-.224.439.437.437,0,0,0,.209.386,2.869,2.869,0,0,0,.843.277,3.993,3.993,0,0,1,1,.333,1.411,1.411,0,0,1,.537.464,1.183,1.183,0,0,1,.175.657,1.252,1.252,0,0,1-.537,1.05,2.291,2.291,0,0,1-1.407.4,2.484,2.484,0,0,1-1.052-.213A1.732,1.732,0,0,1,60.6,9.29a1.387,1.387,0,0,1-.257-.8h1.048a.76.76,0,0,0,.289.588,1.121,1.121,0,0,0,.706.206,1.091,1.091,0,0,0,.648-.162A.5.5,0,0,0,63.25,8.695ZM66.6,4.029V5.2h.848V6H66.6V8.677a.591.591,0,0,0,.109.4A.5.5,0,0,0,67.1,9.2a1.662,1.662,0,0,0,.377-.044v.835a2.657,2.657,0,0,1-.71.1q-1.243,0-1.243-1.372V6h-.79V5.2h.79V4.029ZM71.143,10a1.665,1.665,0,0,1-.124-.448,1.815,1.815,0,0,1-2.442.124,1.321,1.321,0,0,1-.457-1.021,1.364,1.364,0,0,1,.57-1.179,2.764,2.764,0,0,1,1.631-.411h.661V6.75a.841.841,0,0,0-.209-.6.827.827,0,0,0-.635-.224.95.95,0,0,0-.6.184.57.57,0,0,0-.235.468H68.222a1.2,1.2,0,0,1,.262-.739A1.745,1.745,0,0,1,69.2,5.3a2.5,2.5,0,0,1,1.006-.2,2.016,2.016,0,0,1,1.345.424,1.512,1.512,0,0,1,.515,1.192V8.89a2.455,2.455,0,0,0,.182,1.034V10Zm-1.185-.777a1.227,1.227,0,0,0,.6-.155,1.038,1.038,0,0,0,.424-.417V7.745H70.4a1.59,1.59,0,0,0-.9.209.676.676,0,0,0-.3.59.63.63,0,0,0,.206.495A.8.8,0,0,0,69.958,9.223Zm.6-6.042h1.23l-1.23,1.345-.866,0ZM75.836,10V6H75.1V5.2h.732V4.757a1.65,1.65,0,0,1,.444-1.234,1.7,1.7,0,0,1,1.243-.435,2.493,2.493,0,0,1,.6.08l-.027.843a2.125,2.125,0,0,0-.413-.036.693.693,0,0,0-.772.795V5.2h.977V6h-.977v4Zm2.641-2.446a2.832,2.832,0,0,1,.28-1.272,2.043,2.043,0,0,1,.786-.87,2.214,2.214,0,0,1,1.163-.3,2.1,2.1,0,0,1,1.578.626,2.462,2.462,0,0,1,.655,1.66l0,.253a2.858,2.858,0,0,1-.273,1.27,2.018,2.018,0,0,1-.781.866,2.23,2.23,0,0,1-1.174.306,2.084,2.084,0,0,1-1.627-.677,2.593,2.593,0,0,1-.61-1.8Zm1.079.093a1.935,1.935,0,0,0,.306,1.161,1,1,0,0,0,.852.42.985.985,0,0,0,.85-.426,2.138,2.138,0,0,0,.3-1.247A1.911,1.911,0,0,0,81.556,6.4a1.055,1.055,0,0,0-1.689-.007A2.1,2.1,0,0,0,79.556,7.647ZM86.37,6.182a2.67,2.67,0,0,0-.439-.036.99.99,0,0,0-1,.568V10H83.853V5.2h1.03l.027.537a1.215,1.215,0,0,1,1.083-.626,1.01,1.01,0,0,1,.382.062Zm1.7-.986.031.5a1.728,1.728,0,0,1,1.385-.59,1.328,1.328,0,0,1,1.318.737,1.7,1.7,0,0,1,1.474-.737,1.5,1.5,0,0,1,1.183.439,1.935,1.935,0,0,1,.4,1.3V10H92.776V6.875a.955.955,0,0,0-.2-.67.875.875,0,0,0-.661-.213.9.9,0,0,0-.6.2,1.042,1.042,0,0,0-.326.517l0,3.294H89.913V6.839a.77.77,0,0,0-.866-.848.95.95,0,0,0-.919.528V10H87.049V5.2ZM97.833,10a1.665,1.665,0,0,1-.124-.448,1.815,1.815,0,0,1-2.442.124,1.321,1.321,0,0,1-.457-1.021,1.364,1.364,0,0,1,.57-1.179,2.764,2.764,0,0,1,1.631-.411h.661V6.75a.841.841,0,0,0-.209-.6.827.827,0,0,0-.635-.224.95.95,0,0,0-.6.184.57.57,0,0,0-.235.468H94.912a1.2,1.2,0,0,1,.262-.739,1.745,1.745,0,0,1,.713-.539,2.5,2.5,0,0,1,1.006-.2,2.016,2.016,0,0,1,1.345.424,1.512,1.512,0,0,1,.515,1.192V8.89a2.455,2.455,0,0,0,.182,1.034V10Zm-1.185-.777a1.227,1.227,0,0,0,.6-.155,1.038,1.038,0,0,0,.424-.417V7.745h-.582a1.59,1.59,0,0,0-.9.209.676.676,0,0,0-.3.59.63.63,0,0,0,.206.495A.8.8,0,0,0,96.647,9.223Zm3.032-1.66a2.856,2.856,0,0,1,.515-1.782,1.65,1.65,0,0,1,1.381-.673,1.568,1.568,0,0,1,1.234.533V3.181h1.079V10h-.977l-.053-.5a1.59,1.59,0,0,1-1.292.586A1.641,1.641,0,0,1,100.2,9.41,2.96,2.96,0,0,1,99.68,7.563Zm1.079.093A2,2,0,0,0,101.04,8.8a.915.915,0,0,0,.8.411,1.019,1.019,0,0,0,.968-.59V6.568a1,1,0,0,0-.959-.577.921.921,0,0,0-.808.415A2.227,2.227,0,0,0,100.758,7.656Zm4.053-.1a2.832,2.832,0,0,1,.28-1.272,2.043,2.043,0,0,1,.786-.87,2.214,2.214,0,0,1,1.163-.3,2.1,2.1,0,0,1,1.578.626,2.462,2.462,0,0,1,.655,1.66l0,.253A2.858,2.858,0,0,1,109,8.917a2.018,2.018,0,0,1-.781.866,2.23,2.23,0,0,1-1.174.306,2.084,2.084,0,0,1-1.627-.677,2.593,2.593,0,0,1-.61-1.8Zm1.079.093a1.935,1.935,0,0,0,.306,1.161,1,1,0,0,0,.852.42.985.985,0,0,0,.85-.426,2.138,2.138,0,0,0,.3-1.247A1.911,1.911,0,0,0,107.89,6.4a1.055,1.055,0,0,0-1.689-.007A2.1,2.1,0,0,0,105.89,7.647Zm-51.2,9.092a2.86,2.86,0,0,1-.506,1.778,1.758,1.758,0,0,1-2.624.144v2.277H50.484v-6.65h.994l.044.488a1.584,1.584,0,0,1,1.292-.577,1.637,1.637,0,0,1,1.378.655,2.936,2.936,0,0,1,.5,1.818Zm-1.074-.093a2,2,0,0,0-.286-1.141.931.931,0,0,0-.819-.422.993.993,0,0,0-.95.546V17.76a1,1,0,0,0,.959.559.93.93,0,0,0,.806-.415A2.205,2.205,0,0,0,53.619,16.646Zm1.785,0a2.832,2.832,0,0,1,.28-1.272,2.043,2.043,0,0,1,.786-.87,2.214,2.214,0,0,1,1.163-.3,2.1,2.1,0,0,1,1.578.626,2.462,2.462,0,0,1,.655,1.66l0,.253a2.858,2.858,0,0,1-.273,1.27,2.018,2.018,0,0,1-.781.866,2.23,2.23,0,0,1-1.174.306,2.084,2.084,0,0,1-1.627-.677,2.593,2.593,0,0,1-.61-1.8Zm1.079.093a1.935,1.935,0,0,0,.306,1.161,1,1,0,0,0,.852.42.985.985,0,0,0,.85-.426,2.138,2.138,0,0,0,.3-1.247,1.911,1.911,0,0,0-.313-1.154,1.055,1.055,0,0,0-1.689-.007A2.1,2.1,0,0,0,56.482,16.739ZM63.3,15.274a2.67,2.67,0,0,0-.439-.036.99.99,0,0,0-1,.568v3.285H60.779v-4.8h1.03l.027.537a1.215,1.215,0,0,1,1.083-.626,1.01,1.01,0,0,1,.382.062Zm4.093,3.818H66.311V12.273H67.39Zm4.044,0a1.665,1.665,0,0,1-.124-.448,1.815,1.815,0,0,1-2.442.124,1.321,1.321,0,0,1-.457-1.021,1.364,1.364,0,0,1,.57-1.179,2.764,2.764,0,0,1,1.631-.411h.661v-.315a.841.841,0,0,0-.209-.6.827.827,0,0,0-.635-.224.95.95,0,0,0-.6.184.57.57,0,0,0-.235.468H68.513a1.2,1.2,0,0,1,.262-.739,1.745,1.745,0,0,1,.713-.539,2.5,2.5,0,0,1,1.006-.2,2.016,2.016,0,0,1,1.345.424,1.512,1.512,0,0,1,.515,1.192v2.166a2.455,2.455,0,0,0,.182,1.034v.075Zm-1.185-.777a1.227,1.227,0,0,0,.6-.155,1.038,1.038,0,0,0,.424-.417v-.906h-.582a1.59,1.59,0,0,0-.9.209.676.676,0,0,0-.3.59.63.63,0,0,0,.206.495A.8.8,0,0,0,70.249,18.315Zm5.927-.528a.489.489,0,0,0-.238-.439,2.526,2.526,0,0,0-.788-.266,4.051,4.051,0,0,1-.919-.293,1.226,1.226,0,0,1-.808-1.132,1.279,1.279,0,0,1,.524-1.039,2.071,2.071,0,0,1,1.332-.417,2.155,2.155,0,0,1,1.392.426,1.352,1.352,0,0,1,.531,1.105H76.122a.665.665,0,0,0-.231-.517.885.885,0,0,0-.613-.206.956.956,0,0,0-.579.164.518.518,0,0,0-.224.439.437.437,0,0,0,.209.386,2.869,2.869,0,0,0,.843.277,3.993,3.993,0,0,1,1,.333,1.411,1.411,0,0,1,.537.464,1.183,1.183,0,0,1,.175.657,1.252,1.252,0,0,1-.537,1.05,2.29,2.29,0,0,1-1.407.4,2.484,2.484,0,0,1-1.052-.213,1.732,1.732,0,0,1-.719-.586,1.387,1.387,0,0,1-.257-.8h1.048a.76.76,0,0,0,.289.588,1.121,1.121,0,0,0,.706.206,1.091,1.091,0,0,0,.648-.162A.5.5,0,0,0,76.175,17.787Zm4.644,1.305v-4h-.732v-.8h.732v-.439a1.65,1.65,0,0,1,.444-1.234,1.7,1.7,0,0,1,1.243-.435,2.493,2.493,0,0,1,.6.08l-.027.843a2.125,2.125,0,0,0-.413-.036.693.693,0,0,0-.772.795v.426h.977v.8H81.9v4Zm5.713,0a1.665,1.665,0,0,1-.124-.448,1.815,1.815,0,0,1-2.442.124,1.321,1.321,0,0,1-.457-1.021,1.364,1.364,0,0,1,.57-1.179,2.764,2.764,0,0,1,1.631-.411h.661v-.315a.841.841,0,0,0-.209-.6.827.827,0,0,0-.635-.224.95.95,0,0,0-.6.184.57.57,0,0,0-.235.468H83.611a1.2,1.2,0,0,1,.262-.739,1.745,1.745,0,0,1,.713-.539,2.5,2.5,0,0,1,1.006-.2,2.016,2.016,0,0,1,1.345.424,1.512,1.512,0,0,1,.515,1.192v2.166a2.455,2.455,0,0,0,.182,1.034v.075Zm-1.185-.777a1.227,1.227,0,0,0,.6-.155,1.038,1.038,0,0,0,.424-.417v-.906h-.582a1.59,1.59,0,0,0-.9.209.676.676,0,0,0-.3.59.63.63,0,0,0,.206.495A.8.8,0,0,0,85.347,18.315Zm5.927-.528a.489.489,0,0,0-.238-.439,2.526,2.526,0,0,0-.788-.266,4.051,4.051,0,0,1-.919-.293,1.226,1.226,0,0,1-.808-1.132,1.279,1.279,0,0,1,.524-1.039,2.071,2.071,0,0,1,1.332-.417,2.155,2.155,0,0,1,1.392.426,1.352,1.352,0,0,1,.531,1.105H91.22a.665.665,0,0,0-.231-.517.885.885,0,0,0-.613-.206.956.956,0,0,0-.579.164.518.518,0,0,0-.224.439.437.437,0,0,0,.209.386,2.869,2.869,0,0,0,.843.277,3.993,3.993,0,0,1,1,.333,1.411,1.411,0,0,1,.537.464,1.183,1.183,0,0,1,.175.657,1.252,1.252,0,0,1-.537,1.05,2.29,2.29,0,0,1-1.407.4,2.484,2.484,0,0,1-1.052-.213,1.732,1.732,0,0,1-.719-.586,1.387,1.387,0,0,1-.257-.8h1.048a.76.76,0,0,0,.289.588,1.121,1.121,0,0,0,.706.206,1.091,1.091,0,0,0,.648-.162A.5.5,0,0,0,91.274,17.787Zm4.115,1.394a2.232,2.232,0,0,1-1.663-.646,2.343,2.343,0,0,1-.637-1.72v-.133a2.882,2.882,0,0,1,.277-1.285,2.112,2.112,0,0,1,.779-.881,2.06,2.06,0,0,1,1.119-.315,1.885,1.885,0,0,1,1.516.626,2.647,2.647,0,0,1,.535,1.771v.435H94.177a1.443,1.443,0,0,0,.4.941,1.193,1.193,0,0,0,.877.346,1.461,1.461,0,0,0,1.208-.6l.582.555a1.942,1.942,0,0,1-.77.668A2.411,2.411,0,0,1,95.389,19.181Zm-.129-4.115a.908.908,0,0,0-.717.311,1.611,1.611,0,0,0-.348.866H96.25v-.08a1.311,1.311,0,0,0-.289-.819A.9.9,0,0,0,95.26,15.065Zm5.585,2.721a.489.489,0,0,0-.238-.439,2.526,2.526,0,0,0-.788-.266,4.051,4.051,0,0,1-.919-.293,1.226,1.226,0,0,1-.808-1.132,1.279,1.279,0,0,1,.524-1.039,2.071,2.071,0,0,1,1.332-.417,2.155,2.155,0,0,1,1.392.426,1.352,1.352,0,0,1,.531,1.105h-1.079a.665.665,0,0,0-.231-.517.885.885,0,0,0-.613-.206.956.956,0,0,0-.579.164.518.518,0,0,0-.224.439.437.437,0,0,0,.209.386,2.869,2.869,0,0,0,.843.277,3.993,3.993,0,0,1,1,.333,1.411,1.411,0,0,1,.537.464,1.183,1.183,0,0,1,.175.657,1.252,1.252,0,0,1-.537,1.05,2.29,2.29,0,0,1-1.407.4,2.484,2.484,0,0,1-1.052-.213,1.732,1.732,0,0,1-.719-.586,1.387,1.387,0,0,1-.257-.8H98.98a.76.76,0,0,0,.289.588,1.121,1.121,0,0,0,.706.206,1.091,1.091,0,0,0,.648-.162A.5.5,0,0,0,100.845,17.787Zm4.062-1.132a2.856,2.856,0,0,1,.515-1.782A1.65,1.65,0,0,1,106.8,14.2a1.568,1.568,0,0,1,1.234.533V12.273h1.079v6.819h-.977l-.053-.5a1.59,1.59,0,0,1-1.292.586,1.641,1.641,0,0,1-1.365-.679A2.96,2.96,0,0,1,104.907,16.655Zm1.079.093a2,2,0,0,0,.282,1.143.915.915,0,0,0,.8.411,1.019,1.019,0,0,0,.968-.59V15.66a1,1,0,0,0-.959-.577.921.921,0,0,0-.808.415A2.227,2.227,0,0,0,105.986,16.748Zm6.371,2.433a2.232,2.232,0,0,1-1.663-.646,2.343,2.343,0,0,1-.637-1.72v-.133a2.882,2.882,0,0,1,.277-1.285,2.112,2.112,0,0,1,.779-.881,2.06,2.06,0,0,1,1.119-.315,1.885,1.885,0,0,1,1.516.626,2.647,2.647,0,0,1,.535,1.771v.435h-3.139a1.442,1.442,0,0,0,.4.941,1.193,1.193,0,0,0,.877.346,1.461,1.461,0,0,0,1.208-.6l.582.555a1.942,1.942,0,0,1-.77.668A2.411,2.411,0,0,1,112.356,19.181Zm-.129-4.115a.908.908,0,0,0-.717.311,1.611,1.611,0,0,0-.348.866h2.055v-.08a1.311,1.311,0,0,0-.289-.819A.9.9,0,0,0,112.227,15.065Z" transform="translate(3491.526 -10954.785)" fill="#6836bf"/>
    <path id="Trazado_191169" data-name="Trazado 191169" d="M13.87,0H151.263a13.87,13.87,0,0,1,13.87,13.87V56.978a13.87,13.87,0,0,1-13.87,13.87H13.87A13.87,13.87,0,0,1,0,56.978V13.87A13.87,13.87,0,0,1,13.87,0Z" transform="translate(3397.679 -10883.568)" fill="#6836bf" opacity="0.25"/>
    <path id="Trazado_191170" data-name="Trazado 191170" d="M53.474,5.35H50.358V14H49.086V5.35h-3.11V4.3h7.5ZM57.7,7.9a3.692,3.692,0,0,0-.606-.047,1.623,1.623,0,0,0-1.645,1.032V14H54.22V6.795h1.2l.02.832a1.918,1.918,0,0,1,1.718-.966,1.259,1.259,0,0,1,.546.093ZM63.017,14a2.588,2.588,0,0,1-.173-.759,2.749,2.749,0,0,1-2.051.892,2.543,2.543,0,0,1-1.748-.6A1.95,1.95,0,0,1,58.362,12a2.037,2.037,0,0,1,.856-1.748,4.034,4.034,0,0,1,2.407-.623h1.2V9.066a1.384,1.384,0,0,0-.386-1.029A1.552,1.552,0,0,0,61.3,7.654a1.8,1.8,0,0,0-1.105.333.981.981,0,0,0-.446.806H58.508a1.7,1.7,0,0,1,.383-1.042,2.613,2.613,0,0,1,1.039-.8,3.5,3.5,0,0,1,1.442-.293,2.848,2.848,0,0,1,1.951.623A2.246,2.246,0,0,1,64.055,9v3.316a4.054,4.054,0,0,0,.253,1.578V14Zm-2.044-.939a2.165,2.165,0,0,0,1.1-.3,1.813,1.813,0,0,0,.752-.779V10.5h-.966q-2.264,0-2.264,1.325a1.121,1.121,0,0,0,.386.906A1.484,1.484,0,0,0,60.972,13.061ZM67.658,5.05V6.795H69v.952H67.658v4.474a1,1,0,0,0,.18.65.757.757,0,0,0,.613.217,2.983,2.983,0,0,0,.586-.08V14a3.592,3.592,0,0,1-.946.132,1.534,1.534,0,0,1-1.245-.5,2.146,2.146,0,0,1-.42-1.418V7.747H65.114V6.795h1.312V5.05ZM74.89,14a2.588,2.588,0,0,1-.173-.759,2.749,2.749,0,0,1-2.051.892,2.543,2.543,0,0,1-1.748-.6A1.95,1.95,0,0,1,70.235,12a2.037,2.037,0,0,1,.856-1.748A4.034,4.034,0,0,1,73.5,9.632h1.2V9.066a1.384,1.384,0,0,0-.386-1.029,1.552,1.552,0,0,0-1.139-.383,1.8,1.8,0,0,0-1.105.333.981.981,0,0,0-.446.806H70.382a1.7,1.7,0,0,1,.383-1.042,2.613,2.613,0,0,1,1.039-.8,3.5,3.5,0,0,1,1.442-.293,2.848,2.848,0,0,1,1.951.623A2.246,2.246,0,0,1,75.929,9v3.316a4.054,4.054,0,0,0,.253,1.578V14Zm-2.044-.939a2.165,2.165,0,0,0,1.1-.3,1.813,1.813,0,0,0,.752-.779V10.5h-.966q-2.264,0-2.264,1.325a1.121,1.121,0,0,0,.386.906A1.484,1.484,0,0,0,72.845,13.061Zm6.173-6.266.033.8a2.661,2.661,0,0,1,2.138-.932A2.06,2.06,0,0,1,83.247,7.82a2.729,2.729,0,0,1,.936-.839,2.763,2.763,0,0,1,1.362-.32q2.371,0,2.411,2.51V14H86.723V9.245A1.654,1.654,0,0,0,86.37,8.09a1.554,1.554,0,0,0-1.185-.383,1.634,1.634,0,0,0-1.139.41,1.661,1.661,0,0,0-.526,1.1V14H82.281V9.279a1.375,1.375,0,0,0-1.538-1.572,1.648,1.648,0,0,0-1.658,1.032V14H77.853V6.795ZM91.151,14H89.919V6.795h1.232ZM89.819,4.884A.735.735,0,0,1,90,4.378a.688.688,0,0,1,.543-.206.7.7,0,0,1,.546.206.728.728,0,0,1,.186.506.7.7,0,0,1-.186.5.711.711,0,0,1-.546.2.7.7,0,0,1-.543-.2A.711.711,0,0,1,89.819,4.884Zm6.293,9.249a3.148,3.148,0,0,1-2.384-.962,3.571,3.571,0,0,1-.919-2.574v-.226a4.324,4.324,0,0,1,.41-1.914,3.2,3.2,0,0,1,1.145-1.318,2.88,2.88,0,0,1,1.595-.476,2.7,2.7,0,0,1,2.184.926,4.008,4.008,0,0,1,.779,2.65v.513H94.041a2.561,2.561,0,0,0,.623,1.721,1.957,1.957,0,0,0,1.515.656,2.146,2.146,0,0,0,1.105-.266,2.778,2.778,0,0,0,.792-.706l.752.586A3.026,3.026,0,0,1,96.112,14.133Zm-.153-6.459a1.643,1.643,0,0,0-1.252.543,2.638,2.638,0,0,0-.626,1.522H97.69V9.645a2.346,2.346,0,0,0-.506-1.455A1.547,1.547,0,0,0,95.959,7.674Zm5.554-.879.04.906a2.626,2.626,0,0,1,2.158-1.039q2.284,0,2.3,2.577V14h-1.232V9.232a1.659,1.659,0,0,0-.356-1.152,1.428,1.428,0,0,0-1.089-.373,1.778,1.778,0,0,0-1.052.32,2.171,2.171,0,0,0-.706.839V14h-1.232V6.795Zm8.031-1.745V6.795h1.345v.952h-1.345v4.474a1,1,0,0,0,.18.65.757.757,0,0,0,.613.217,2.983,2.983,0,0,0,.586-.08V14a3.592,3.592,0,0,1-.946.132,1.534,1.534,0,0,1-1.245-.5,2.146,2.146,0,0,1-.42-1.418V7.747H107V6.795h1.312V5.05Zm2.324,5.281a4.256,4.256,0,0,1,.416-1.9,3.1,3.1,0,0,1,1.159-1.305,3.154,3.154,0,0,1,1.695-.459,3.039,3.039,0,0,1,2.381,1.019,3.92,3.92,0,0,1,.909,2.71v.087a4.293,4.293,0,0,1-.4,1.888,3.059,3.059,0,0,1-1.152,1.3,3.19,3.19,0,0,1-1.721.466,3.031,3.031,0,0,1-2.374-1.019,3.9,3.9,0,0,1-.909-2.7Zm1.239.146a3.082,3.082,0,0,0,.556,1.924,1.884,1.884,0,0,0,2.98-.01,3.371,3.371,0,0,0,.553-2.061,3.077,3.077,0,0,0-.563-1.921,1.789,1.789,0,0,0-1.495-.736,1.769,1.769,0,0,0-1.472.726A3.346,3.346,0,0,0,113.106,10.477ZM46.838,27.638v-9.7h2.737a4.406,4.406,0,0,1,2.237.559,3.783,3.783,0,0,1,1.5,1.592,5.18,5.18,0,0,1,.536,2.371v.619a5.2,5.2,0,0,1-.529,2.4,3.724,3.724,0,0,1-1.512,1.585,4.686,4.686,0,0,1-2.287.566Zm1.279-8.65v7.6h1.345a2.927,2.927,0,0,0,2.3-.92,3.8,3.8,0,0,0,.822-2.619v-.567a3.86,3.86,0,0,0-.776-2.569,2.761,2.761,0,0,0-2.2-.93Zm7.145,4.981a4.256,4.256,0,0,1,.416-1.9,3.1,3.1,0,0,1,1.159-1.305,3.154,3.154,0,0,1,1.695-.459,3.039,3.039,0,0,1,2.381,1.019,3.92,3.92,0,0,1,.909,2.71v.087a4.293,4.293,0,0,1-.4,1.888,3.059,3.059,0,0,1-1.152,1.3,3.19,3.19,0,0,1-1.721.466,3.031,3.031,0,0,1-2.374-1.019,3.9,3.9,0,0,1-.909-2.7Zm1.239.146a3.082,3.082,0,0,0,.556,1.924,1.884,1.884,0,0,0,2.98-.01,3.371,3.371,0,0,0,.553-2.061,3.077,3.077,0,0,0-.563-1.921,1.789,1.789,0,0,0-1.495-.736,1.769,1.769,0,0,0-1.472.726A3.346,3.346,0,0,0,56.5,24.115Zm9.756,2.65a1.774,1.774,0,0,0,1.152-.4,1.406,1.406,0,0,0,.546-1H69.12a2.234,2.234,0,0,1-.426,1.179,2.807,2.807,0,0,1-1.049.892,3.026,3.026,0,0,1-1.388.333,2.968,2.968,0,0,1-2.341-.982,3.912,3.912,0,0,1-.869-2.687V23.9a4.338,4.338,0,0,1,.386-1.871,2.942,2.942,0,0,1,1.109-1.272A3.15,3.15,0,0,1,66.25,20.3a2.89,2.89,0,0,1,2.014.726,2.594,2.594,0,0,1,.856,1.885H67.954a1.7,1.7,0,0,0-.529-1.149,1.647,1.647,0,0,0-1.175-.449,1.724,1.724,0,0,0-1.455.676,3.174,3.174,0,0,0-.516,1.954v.233a3.111,3.111,0,0,0,.513,1.918A1.732,1.732,0,0,0,66.256,26.765Zm8.7.16a2.617,2.617,0,0,1-2.111.846,2.24,2.24,0,0,1-1.755-.669,2.9,2.9,0,0,1-.609-1.981V20.433H71.71v4.655q0,1.638,1.332,1.638a1.844,1.844,0,0,0,1.878-1.052V20.433h1.232v7.205H74.98Zm4.229-6.493.033.8a2.661,2.661,0,0,1,2.138-.932,2.06,2.06,0,0,1,2.058,1.159,2.729,2.729,0,0,1,.936-.839,2.763,2.763,0,0,1,1.362-.32q2.371,0,2.411,2.51v4.828H86.886V22.883a1.654,1.654,0,0,0-.353-1.155,1.554,1.554,0,0,0-1.185-.383,1.634,1.634,0,0,0-1.139.41,1.661,1.661,0,0,0-.526,1.1v4.781H82.444V22.916a1.375,1.375,0,0,0-1.538-1.572,1.648,1.648,0,0,0-1.658,1.032v5.261H78.016V20.433Zm13.784,7.338a3.148,3.148,0,0,1-2.384-.962,3.571,3.571,0,0,1-.919-2.574v-.226a4.324,4.324,0,0,1,.41-1.914,3.2,3.2,0,0,1,1.145-1.318,2.88,2.88,0,0,1,1.595-.476A2.7,2.7,0,0,1,95,21.225a4.008,4.008,0,0,1,.779,2.65v.513H90.895a2.561,2.561,0,0,0,.623,1.721,1.957,1.957,0,0,0,1.515.656,2.146,2.146,0,0,0,1.105-.266,2.778,2.778,0,0,0,.792-.706l.752.586A3.026,3.026,0,0,1,92.966,27.771Zm-.153-6.459a1.643,1.643,0,0,0-1.252.543,2.638,2.638,0,0,0-.626,1.522h3.609v-.093a2.346,2.346,0,0,0-.506-1.455A1.547,1.547,0,0,0,92.813,21.312Zm5.554-.879.04.906a2.626,2.626,0,0,1,2.158-1.039q2.284,0,2.3,2.577v4.761h-1.232V22.87a1.659,1.659,0,0,0-.356-1.152,1.428,1.428,0,0,0-1.089-.373,1.778,1.778,0,0,0-1.052.32,2.17,2.17,0,0,0-.706.839v5.134H97.2V20.433Zm8.031-1.745v1.745h1.345v.952H106.4v4.474a1,1,0,0,0,.18.65.757.757,0,0,0,.613.217,2.982,2.982,0,0,0,.586-.08v.993a3.593,3.593,0,0,1-.946.132,1.534,1.534,0,0,1-1.245-.5,2.146,2.146,0,0,1-.42-1.418V21.385h-1.312v-.952h1.312V18.688Zm7.232,8.95a2.588,2.588,0,0,1-.173-.759,2.749,2.749,0,0,1-2.051.892,2.543,2.543,0,0,1-1.748-.6,1.95,1.95,0,0,1-.683-1.528,2.037,2.037,0,0,1,.856-1.748,4.034,4.034,0,0,1,2.407-.623h1.2V22.7a1.384,1.384,0,0,0-.386-1.029,1.552,1.552,0,0,0-1.139-.383,1.8,1.8,0,0,0-1.105.333.981.981,0,0,0-.446.806h-1.239a1.7,1.7,0,0,1,.383-1.042,2.613,2.613,0,0,1,1.039-.8,3.5,3.5,0,0,1,1.442-.293,2.848,2.848,0,0,1,1.951.623,2.246,2.246,0,0,1,.732,1.715v3.316a4.054,4.054,0,0,0,.253,1.578v.107Zm-2.044-.939a2.165,2.165,0,0,0,1.1-.3,1.813,1.813,0,0,0,.752-.779V24.142h-.966q-2.264,0-2.264,1.325a1.121,1.121,0,0,0,.386.906A1.484,1.484,0,0,0,111.585,26.7Zm6.353.939h-1.232V17.409h1.232Z" transform="translate(3398.312 -10863.168)" fill="#12263f"/>
    <path id="Trazado_191171" data-name="Trazado 191171" d="M13.87,0H151.263a13.87,13.87,0,0,1,13.87,13.87V56.978a13.87,13.87,0,0,1-13.87,13.87H13.87A13.87,13.87,0,0,1,0,56.978V13.87A13.87,13.87,0,0,1,13.87,0Z" transform="translate(3573.555 -10883.568)" fill="#6836bf" opacity="0.25"/>
    <path id="Trazado_191172" data-name="Trazado 191172" d="M45.69,10.078H43.412V14H42.127V4.3h3.21a3.8,3.8,0,0,1,2.52.746,2.683,2.683,0,0,1,.882,2.171A2.61,2.61,0,0,1,48.25,8.8,2.922,2.922,0,0,1,46.888,9.8l2.277,4.115V14H47.794ZM43.412,9.032h1.964a2.216,2.216,0,0,0,1.515-.494,1.669,1.669,0,0,0,.563-1.321,1.758,1.758,0,0,0-.536-1.381A2.27,2.27,0,0,0,45.37,5.35H43.412Zm9.915,5.1a3.148,3.148,0,0,1-2.384-.962,3.571,3.571,0,0,1-.919-2.574v-.226a4.324,4.324,0,0,1,.41-1.914A3.2,3.2,0,0,1,51.58,7.138a2.88,2.88,0,0,1,1.595-.476,2.7,2.7,0,0,1,2.184.926,4.008,4.008,0,0,1,.779,2.65v.513H51.257a2.561,2.561,0,0,0,.623,1.721,1.957,1.957,0,0,0,1.515.656,2.146,2.146,0,0,0,1.105-.266,2.777,2.777,0,0,0,.792-.706l.752.586A3.026,3.026,0,0,1,53.328,14.133Zm-.153-6.459a1.643,1.643,0,0,0-1.252.543A2.638,2.638,0,0,0,51.3,9.738h3.609V9.645A2.346,2.346,0,0,0,54.4,8.19,1.547,1.547,0,0,0,53.174,7.674Zm7.278,5.454a1.774,1.774,0,0,0,1.152-.4,1.406,1.406,0,0,0,.546-1h1.165a2.234,2.234,0,0,1-.426,1.179,2.807,2.807,0,0,1-1.049.892,3.026,3.026,0,0,1-1.388.333,2.968,2.968,0,0,1-2.341-.982,3.912,3.912,0,0,1-.869-2.687v-.206a4.338,4.338,0,0,1,.386-1.871,2.942,2.942,0,0,1,1.109-1.272,3.15,3.15,0,0,1,1.708-.453,2.89,2.89,0,0,1,2.014.726,2.594,2.594,0,0,1,.856,1.885H62.151a1.7,1.7,0,0,0-.529-1.149,1.647,1.647,0,0,0-1.175-.449,1.724,1.724,0,0,0-1.455.676,3.174,3.174,0,0,0-.516,1.954v.233a3.111,3.111,0,0,0,.513,1.918A1.732,1.732,0,0,0,60.453,13.128Zm8.7.16a2.617,2.617,0,0,1-2.111.846,2.24,2.24,0,0,1-1.755-.669,2.9,2.9,0,0,1-.609-1.981V6.795h1.232V11.45q0,1.638,1.332,1.638a1.844,1.844,0,0,0,1.878-1.052V6.795h1.232V14H69.176Zm9.156-2.81a4.314,4.314,0,0,1-.752,2.65,2.412,2.412,0,0,1-2.038,1.006,2.642,2.642,0,0,1-2.064-.832V16.77H72.219V6.795h1.125l.06.8A2.538,2.538,0,0,1,75.5,6.662a2.457,2.457,0,0,1,2.054.979,4.361,4.361,0,0,1,.756,2.724Zm-1.232-.14a3.183,3.183,0,0,0-.519-1.924,1.673,1.673,0,0,0-1.425-.706,1.811,1.811,0,0,0-1.678.992v3.443a1.814,1.814,0,0,0,1.691.986,1.665,1.665,0,0,0,1.408-.7A3.475,3.475,0,0,0,77.074,10.338Zm5.787,3.8a3.148,3.148,0,0,1-2.384-.962,3.571,3.571,0,0,1-.919-2.574v-.226a4.324,4.324,0,0,1,.41-1.914,3.2,3.2,0,0,1,1.145-1.318,2.88,2.88,0,0,1,1.595-.476,2.7,2.7,0,0,1,2.184.926,4.008,4.008,0,0,1,.779,2.65v.513H80.79a2.561,2.561,0,0,0,.623,1.721,1.957,1.957,0,0,0,1.515.656,2.146,2.146,0,0,0,1.105-.266,2.778,2.778,0,0,0,.792-.706l.752.586A3.026,3.026,0,0,1,82.861,14.133Zm-.153-6.459a1.643,1.643,0,0,0-1.252.543,2.638,2.638,0,0,0-.626,1.522h3.609V9.645a2.346,2.346,0,0,0-.506-1.455A1.547,1.547,0,0,0,82.707,7.674Zm7.871.226a3.692,3.692,0,0,0-.606-.047,1.623,1.623,0,0,0-1.645,1.032V14H87.1V6.795h1.2l.02.832a1.918,1.918,0,0,1,1.718-.966,1.259,1.259,0,0,1,.546.093ZM95.892,14a2.588,2.588,0,0,1-.173-.759,2.749,2.749,0,0,1-2.051.892,2.543,2.543,0,0,1-1.748-.6A1.95,1.95,0,0,1,91.238,12a2.037,2.037,0,0,1,.856-1.748A4.034,4.034,0,0,1,94.5,9.632h1.2V9.066a1.384,1.384,0,0,0-.386-1.029,1.552,1.552,0,0,0-1.139-.383,1.8,1.8,0,0,0-1.105.333.981.981,0,0,0-.446.806H91.384a1.7,1.7,0,0,1,.383-1.042,2.613,2.613,0,0,1,1.039-.8,3.5,3.5,0,0,1,1.442-.293,2.848,2.848,0,0,1,1.951.623A2.246,2.246,0,0,1,96.931,9v3.316a4.054,4.054,0,0,0,.253,1.578V14Zm-2.044-.939a2.165,2.165,0,0,0,1.1-.3,1.813,1.813,0,0,0,.752-.779V10.5h-.966q-2.264,0-2.264,1.325a1.121,1.121,0,0,0,.386.906A1.484,1.484,0,0,0,93.848,13.061Zm7.9.067a1.774,1.774,0,0,0,1.152-.4,1.406,1.406,0,0,0,.546-1h1.165a2.234,2.234,0,0,1-.426,1.179,2.807,2.807,0,0,1-1.049.892,3.026,3.026,0,0,1-1.388.333,2.968,2.968,0,0,1-2.341-.982,3.912,3.912,0,0,1-.869-2.687v-.206a4.338,4.338,0,0,1,.386-1.871,2.942,2.942,0,0,1,1.109-1.272,3.15,3.15,0,0,1,1.708-.453,2.89,2.89,0,0,1,2.014.726,2.594,2.594,0,0,1,.856,1.885H103.45a1.7,1.7,0,0,0-.529-1.149,1.647,1.647,0,0,0-1.175-.449,1.724,1.724,0,0,0-1.455.676,3.174,3.174,0,0,0-.516,1.954v.233a3.111,3.111,0,0,0,.513,1.918A1.732,1.732,0,0,0,101.752,13.128Zm5.587.872h-1.232V6.795h1.232Zm-1.332-9.116a.735.735,0,0,1,.183-.506.688.688,0,0,1,.543-.206.7.7,0,0,1,.546.206.728.728,0,0,1,.186.506.7.7,0,0,1-.186.5.711.711,0,0,1-.546.2.7.7,0,0,1-.543-.2A.711.711,0,0,1,106.008,4.884Zm2.977,5.447a4.256,4.256,0,0,1,.416-1.9,3.1,3.1,0,0,1,1.159-1.305,3.154,3.154,0,0,1,1.695-.459,3.039,3.039,0,0,1,2.381,1.019,3.92,3.92,0,0,1,.909,2.71v.087a4.293,4.293,0,0,1-.4,1.888,3.059,3.059,0,0,1-1.152,1.3,3.19,3.19,0,0,1-1.721.466,3.031,3.031,0,0,1-2.374-1.019,3.9,3.9,0,0,1-.909-2.7Zm1.239.146a3.082,3.082,0,0,0,.556,1.924,1.884,1.884,0,0,0,2.98-.01,3.371,3.371,0,0,0,.553-2.061,3.077,3.077,0,0,0-.563-1.921,1.789,1.789,0,0,0-1.495-.736,1.769,1.769,0,0,0-1.472.726A3.346,3.346,0,0,0,110.223,10.477Zm2.59-6.706H114.3L112.52,5.729l-.992,0Zm5.44,3.023.04.906a2.626,2.626,0,0,1,2.158-1.039q2.284,0,2.3,2.577V14h-1.232V9.232a1.659,1.659,0,0,0-.356-1.152,1.428,1.428,0,0,0-1.089-.373,1.778,1.778,0,0,0-1.052.32,2.171,2.171,0,0,0-.706.839V14h-1.232V6.795Z" transform="translate(3574.187 -10856.098)" fill="#12263f"/>
    <path id="Trazado_191173" data-name="Trazado 191173" d="M13.87,0H151.263a13.87,13.87,0,0,1,13.87,13.87V56.978a13.87,13.87,0,0,1-13.87,13.87H13.87A13.87,13.87,0,0,1,0,56.978V13.87A13.87,13.87,0,0,1,13.87,0Z" transform="translate(3750.251 -10883.568)" fill="#6836bf" opacity="0.25"/>
    <path id="Trazado_191174" data-name="Trazado 191174" d="M42.979,11.463H38.917L38.005,14H36.687l3.7-9.7h1.119L45.217,14H43.905ZM39.3,10.417h3.3L40.948,5.883Zm6.726-.08a4.221,4.221,0,0,1,.786-2.667,2.674,2.674,0,0,1,4.062-.143V3.772h1.232V14H50.977l-.06-.772a2.509,2.509,0,0,1-2.058.906,2.461,2.461,0,0,1-2.041-1.025,4.269,4.269,0,0,1-.789-2.677Zm1.232.14a3.2,3.2,0,0,0,.506,1.918,1.636,1.636,0,0,0,1.4.693,1.8,1.8,0,0,0,1.711-1.052V8.726a1.811,1.811,0,0,0-1.7-1.019,1.644,1.644,0,0,0-1.412.7A3.519,3.519,0,0,0,47.261,10.477Zm7.918-3.682.033.8a2.661,2.661,0,0,1,2.138-.932A2.06,2.06,0,0,1,59.407,7.82a2.729,2.729,0,0,1,.936-.839,2.763,2.763,0,0,1,1.362-.32q2.371,0,2.411,2.51V14H62.883V9.245A1.654,1.654,0,0,0,62.53,8.09a1.554,1.554,0,0,0-1.185-.383,1.634,1.634,0,0,0-1.139.41,1.661,1.661,0,0,0-.526,1.1V14H58.442V9.279A1.375,1.375,0,0,0,56.9,7.707a1.648,1.648,0,0,0-1.658,1.032V14H54.014V6.795ZM67.312,14H66.08V6.795h1.232ZM65.98,4.884a.735.735,0,0,1,.183-.506.688.688,0,0,1,.543-.206.7.7,0,0,1,.546.206.728.728,0,0,1,.186.506.7.7,0,0,1-.186.5.711.711,0,0,1-.546.2.7.7,0,0,1-.543-.2A.711.711,0,0,1,65.98,4.884Zm4.468,1.911.04.906a2.626,2.626,0,0,1,2.158-1.039q2.284,0,2.3,2.577V14H73.718V9.232a1.659,1.659,0,0,0-.356-1.152,1.428,1.428,0,0,0-1.089-.373,1.778,1.778,0,0,0-1.052.32,2.171,2.171,0,0,0-.706.839V14H69.283V6.795ZM78.146,14H76.914V6.795h1.232ZM76.814,4.884A.735.735,0,0,1,77,4.378a.688.688,0,0,1,.543-.206.7.7,0,0,1,.546.206.728.728,0,0,1,.186.506.7.7,0,0,1-.186.5.711.711,0,0,1-.546.2.7.7,0,0,1-.543-.2A.711.711,0,0,1,76.814,4.884Zm7.5,7.205a.907.907,0,0,0-.376-.776,3.622,3.622,0,0,0-1.312-.476,6.2,6.2,0,0,1-1.485-.479,2.113,2.113,0,0,1-.812-.666,1.593,1.593,0,0,1-.263-.919,1.869,1.869,0,0,1,.749-1.5,2.926,2.926,0,0,1,1.914-.613,3.011,3.011,0,0,1,1.988.633,2.009,2.009,0,0,1,.762,1.618H84.239a1.112,1.112,0,0,0-.43-.872,1.609,1.609,0,0,0-1.082-.366,1.684,1.684,0,0,0-1.052.293.922.922,0,0,0-.38.766.747.747,0,0,0,.353.673,4.342,4.342,0,0,0,1.275.433,6.644,6.644,0,0,1,1.495.493,2.181,2.181,0,0,1,.849.689,1.7,1.7,0,0,1,.276.982,1.844,1.844,0,0,1-.772,1.548,3.24,3.24,0,0,1-2,.583,3.628,3.628,0,0,1-1.532-.306,2.491,2.491,0,0,1-1.042-.856,2.062,2.062,0,0,1-.376-1.189h1.232a1.275,1.275,0,0,0,.5.982,1.925,1.925,0,0,0,1.222.363,1.987,1.987,0,0,0,1.122-.283A.87.87,0,0,0,84.312,12.089ZM88.821,5.05V6.795h1.345v.952H88.821v4.474a1,1,0,0,0,.18.65.757.757,0,0,0,.613.217,2.983,2.983,0,0,0,.586-.08V14a3.592,3.592,0,0,1-.946.132,1.534,1.534,0,0,1-1.245-.5,2.146,2.146,0,0,1-.42-1.418V7.747H86.277V6.795h1.312V5.05ZM95.087,7.9a3.692,3.692,0,0,0-.606-.047,1.623,1.623,0,0,0-1.645,1.032V14H91.6V6.795h1.2l.02.832a1.918,1.918,0,0,1,1.718-.966,1.259,1.259,0,0,1,.546.093ZM100.4,14a2.588,2.588,0,0,1-.173-.759,2.749,2.749,0,0,1-2.051.892,2.543,2.543,0,0,1-1.748-.6A1.95,1.95,0,0,1,95.746,12a2.037,2.037,0,0,1,.856-1.748,4.034,4.034,0,0,1,2.407-.623h1.2V9.066a1.384,1.384,0,0,0-.386-1.029,1.552,1.552,0,0,0-1.139-.383,1.8,1.8,0,0,0-1.105.333.981.981,0,0,0-.446.806H95.892a1.7,1.7,0,0,1,.383-1.042,2.613,2.613,0,0,1,1.039-.8,3.5,3.5,0,0,1,1.442-.293,2.848,2.848,0,0,1,1.951.623A2.246,2.246,0,0,1,101.439,9v3.316a4.054,4.054,0,0,0,.253,1.578V14Zm-2.044-.939a2.165,2.165,0,0,0,1.1-.3,1.813,1.813,0,0,0,.752-.779V10.5h-.966q-2.264,0-2.264,1.325a1.121,1.121,0,0,0,.386.906A1.484,1.484,0,0,0,98.356,13.061Zm7.9.067a1.774,1.774,0,0,0,1.152-.4,1.406,1.406,0,0,0,.546-1h1.165a2.234,2.234,0,0,1-.426,1.179,2.807,2.807,0,0,1-1.049.892,3.026,3.026,0,0,1-1.388.333,2.968,2.968,0,0,1-2.341-.982,3.912,3.912,0,0,1-.869-2.687v-.206a4.338,4.338,0,0,1,.386-1.871,2.942,2.942,0,0,1,1.109-1.272,3.15,3.15,0,0,1,1.708-.453,2.89,2.89,0,0,1,2.014.726,2.594,2.594,0,0,1,.856,1.885h-1.165a1.7,1.7,0,0,0-.529-1.149,1.647,1.647,0,0,0-1.175-.449,1.724,1.724,0,0,0-1.455.676,3.174,3.174,0,0,0-.516,1.954v.233a3.111,3.111,0,0,0,.513,1.918A1.732,1.732,0,0,0,106.261,13.128Zm5.587.872h-1.232V6.795h1.232Zm-1.332-9.116a.735.735,0,0,1,.183-.506.688.688,0,0,1,.543-.206.7.7,0,0,1,.546.206.728.728,0,0,1,.186.506.7.7,0,0,1-.186.5.711.711,0,0,1-.546.2.7.7,0,0,1-.543-.2A.711.711,0,0,1,110.516,4.884Zm2.977,5.447a4.256,4.256,0,0,1,.416-1.9,3.1,3.1,0,0,1,1.159-1.305,3.154,3.154,0,0,1,1.695-.459,3.039,3.039,0,0,1,2.381,1.019,3.92,3.92,0,0,1,.909,2.71v.087a4.293,4.293,0,0,1-.4,1.888,3.059,3.059,0,0,1-1.152,1.3,3.19,3.19,0,0,1-1.721.466,3.031,3.031,0,0,1-2.374-1.019,3.9,3.9,0,0,1-.909-2.7Zm1.239.146a3.082,3.082,0,0,0,.556,1.924,1.884,1.884,0,0,0,2.98-.01,3.371,3.371,0,0,0,.553-2.061,3.077,3.077,0,0,0-.563-1.921,1.789,1.789,0,0,0-1.495-.736,1.769,1.769,0,0,0-1.472.726A3.346,3.346,0,0,0,114.731,10.477Zm2.59-6.706h1.492l-1.785,1.958-.992,0Zm5.44,3.023.04.906a2.626,2.626,0,0,1,2.158-1.039q2.284,0,2.3,2.577V14h-1.232V9.232a1.659,1.659,0,0,0-.356-1.152,1.428,1.428,0,0,0-1.089-.373,1.778,1.778,0,0,0-1.052.32,2.171,2.171,0,0,0-.706.839V14H121.6V6.795Z" transform="translate(3750.883 -10856.098)" fill="#12263f"/>
    <path id="Trazado_191175" data-name="Trazado 191175" d="M13.87,0H151.263a13.87,13.87,0,0,1,13.87,13.87V56.978a13.87,13.87,0,0,1-13.87,13.87H13.87A13.87,13.87,0,0,1,0,56.978V13.87A13.87,13.87,0,0,1,13.87,0Z" transform="translate(3221.616 -10883.568)" fill="#6836bf" opacity="0.25"/>
    <path id="Trazado_191176" data-name="Trazado 191176" d="M56.957,9.678a6.012,6.012,0,0,1-2.394-1.162,2.22,2.22,0,0,1-.749-1.7,2.345,2.345,0,0,1,.916-1.895,3.639,3.639,0,0,1,2.381-.749,3.972,3.972,0,0,1,1.781.386A2.929,2.929,0,0,1,60.1,5.623a2.724,2.724,0,0,1,.43,1.485H59.248a1.773,1.773,0,0,0-.559-1.387,2.275,2.275,0,0,0-1.578-.5,2.329,2.329,0,0,0-1.475.417,1.391,1.391,0,0,0-.529,1.157,1.251,1.251,0,0,0,.5,1,4.931,4.931,0,0,0,1.711.75,7.941,7.941,0,0,1,1.891.75,2.87,2.87,0,0,1,1.012.956,2.439,2.439,0,0,1,.33,1.285,2.265,2.265,0,0,1-.919,1.888,3.918,3.918,0,0,1-2.457.709,4.557,4.557,0,0,1-1.865-.383A3.138,3.138,0,0,1,53.977,12.7a2.559,2.559,0,0,1-.469-1.512h1.285a1.67,1.67,0,0,0,.649,1.388,2.734,2.734,0,0,0,1.735.509,2.513,2.513,0,0,0,1.552-.413,1.341,1.341,0,0,0,.539-1.125,1.317,1.317,0,0,0-.5-1.1A5.758,5.758,0,0,0,56.957,9.678Zm8.031,4.455a3.148,3.148,0,0,1-2.384-.962,3.571,3.571,0,0,1-.919-2.574v-.226a4.324,4.324,0,0,1,.41-1.914A3.2,3.2,0,0,1,63.24,7.138a2.88,2.88,0,0,1,1.595-.476,2.7,2.7,0,0,1,2.184.926,4.008,4.008,0,0,1,.779,2.65v.513H62.917a2.561,2.561,0,0,0,.623,1.721,1.957,1.957,0,0,0,1.515.656,2.146,2.146,0,0,0,1.105-.266,2.778,2.778,0,0,0,.792-.706l.752.586A3.026,3.026,0,0,1,64.988,14.133Zm-.153-6.459a1.643,1.643,0,0,0-1.252.543,2.638,2.638,0,0,0-.626,1.522h3.609V9.645A2.346,2.346,0,0,0,66.06,8.19,1.547,1.547,0,0,0,64.835,7.674ZM70.561,14H69.329V3.772h1.232Zm4.961.133a3.148,3.148,0,0,1-2.384-.962,3.571,3.571,0,0,1-.919-2.574v-.226a4.324,4.324,0,0,1,.41-1.914,3.2,3.2,0,0,1,1.145-1.318,2.88,2.88,0,0,1,1.595-.476,2.7,2.7,0,0,1,2.184.926,4.008,4.008,0,0,1,.779,2.65v.513H73.451a2.561,2.561,0,0,0,.623,1.721,1.957,1.957,0,0,0,1.515.656,2.146,2.146,0,0,0,1.105-.266,2.778,2.778,0,0,0,.792-.706l.752.586A3.026,3.026,0,0,1,75.522,14.133Zm-.153-6.459a1.643,1.643,0,0,0-1.252.543,2.638,2.638,0,0,0-.626,1.522H77.1V9.645a2.346,2.346,0,0,0-.506-1.455A1.547,1.547,0,0,0,75.369,7.674Zm7.278,5.454a1.774,1.774,0,0,0,1.152-.4,1.406,1.406,0,0,0,.546-1h1.165a2.234,2.234,0,0,1-.426,1.179,2.807,2.807,0,0,1-1.049.892,3.026,3.026,0,0,1-1.388.333,2.968,2.968,0,0,1-2.341-.982,3.912,3.912,0,0,1-.869-2.687v-.206a4.338,4.338,0,0,1,.386-1.871,2.942,2.942,0,0,1,1.109-1.272,3.15,3.15,0,0,1,1.708-.453,2.89,2.89,0,0,1,2.014.726,2.594,2.594,0,0,1,.856,1.885H84.346a1.7,1.7,0,0,0-.529-1.149,1.647,1.647,0,0,0-1.175-.449,1.724,1.724,0,0,0-1.455.676A3.174,3.174,0,0,0,80.67,10.3v.233a3.111,3.111,0,0,0,.513,1.918A1.732,1.732,0,0,0,82.648,13.128Zm7.139,0a1.774,1.774,0,0,0,1.152-.4,1.406,1.406,0,0,0,.546-1h1.165a2.234,2.234,0,0,1-.426,1.179,2.807,2.807,0,0,1-1.049.892,3.026,3.026,0,0,1-1.388.333,2.968,2.968,0,0,1-2.341-.982,3.912,3.912,0,0,1-.869-2.687v-.206a4.338,4.338,0,0,1,.386-1.871,2.942,2.942,0,0,1,1.109-1.272,3.15,3.15,0,0,1,1.708-.453,2.89,2.89,0,0,1,2.014.726,2.594,2.594,0,0,1,.856,1.885H91.484a1.7,1.7,0,0,0-.529-1.149,1.647,1.647,0,0,0-1.175-.449,1.724,1.724,0,0,0-1.455.676,3.174,3.174,0,0,0-.516,1.954v.233a3.111,3.111,0,0,0,.513,1.918A1.732,1.732,0,0,0,89.786,13.128ZM95.373,14H94.141V6.795h1.232ZM94.041,4.884a.735.735,0,0,1,.183-.506.688.688,0,0,1,.543-.206.7.7,0,0,1,.546.206.728.728,0,0,1,.186.506.7.7,0,0,1-.186.5.711.711,0,0,1-.546.2.7.7,0,0,1-.543-.2A.711.711,0,0,1,94.041,4.884Zm2.977,5.447a4.256,4.256,0,0,1,.416-1.9,3.1,3.1,0,0,1,1.159-1.305,3.154,3.154,0,0,1,1.695-.459,3.039,3.039,0,0,1,2.381,1.019,3.92,3.92,0,0,1,.909,2.71v.087a4.293,4.293,0,0,1-.4,1.888,3.059,3.059,0,0,1-1.152,1.3,3.19,3.19,0,0,1-1.721.466,3.031,3.031,0,0,1-2.374-1.019,3.9,3.9,0,0,1-.909-2.7Zm1.239.146a3.082,3.082,0,0,0,.556,1.924,1.884,1.884,0,0,0,2.98-.01,3.371,3.371,0,0,0,.553-2.061,3.077,3.077,0,0,0-.563-1.921,1.789,1.789,0,0,0-1.495-.736,1.769,1.769,0,0,0-1.472.726A3.346,3.346,0,0,0,98.256,10.477Zm2.59-6.706h1.492l-1.785,1.958-.992,0Zm5.44,3.023.04.906a2.626,2.626,0,0,1,2.158-1.039q2.284,0,2.3,2.577V14h-1.232V9.232A1.659,1.659,0,0,0,109.2,8.08a1.428,1.428,0,0,0-1.089-.373,1.778,1.778,0,0,0-1.052.32,2.171,2.171,0,0,0-.706.839V14h-1.232V6.795Z" transform="translate(3222.248 -10856.375)" fill="#12263f"/>
    <g id="Grupo_129558" data-name="Grupo 129558" transform="translate(1305.544 -12437.838)">
      <g id="Grupo_129557" data-name="Grupo 129557">
        <path id="Trazado_190546" data-name="Trazado 190546" d="M1999.048,1541.709v-17.02h528.635" fill="none" stroke="#6836bf" stroke-miterlimit="10" stroke-width="0.682"/>
        <g id="Grupo_129556" data-name="Grupo 129556">
          <path id="Trazado_190547" data-name="Trazado 190547" d="M2001.573,1539.794l-2.525,1.073-2.525-1.073,2.525,5.986Z" fill="#6836bf"/>
        </g>
      </g>
    </g>
    <g id="Grupo_129561" data-name="Grupo 129561" transform="translate(1305.544 -12437.838)">
      <g id="Grupo_129560" data-name="Grupo 129560">
        <line id="Línea_410" data-name="Línea 410" y1="17.02" transform="translate(2175.112 1524.689)" fill="none" stroke="#6836bf" stroke-miterlimit="10" stroke-width="0.682"/>
        <g id="Grupo_129559" data-name="Grupo 129559">
          <path id="Trazado_190548" data-name="Trazado 190548" d="M2177.637,1539.794l-2.525,1.073-2.525-1.073,2.525,5.986Z" fill="#6836bf"/>
        </g>
      </g>
    </g>
    <g id="Grupo_129564" data-name="Grupo 129564" transform="translate(1305.544 -12437.838)">
      <g id="Grupo_129563" data-name="Grupo 129563">
        <line id="Línea_411" data-name="Línea 411" y1="17.02" transform="translate(2350.987 1524.689)" fill="none" stroke="#6836bf" stroke-miterlimit="10" stroke-width="0.682"/>
        <g id="Grupo_129562" data-name="Grupo 129562">
          <path id="Trazado_190549" data-name="Trazado 190549" d="M2353.512,1539.794l-2.525,1.073-2.525-1.073,2.525,5.986Z" fill="#6836bf"/>
        </g>
      </g>
    </g>
    <g id="Grupo_129567" data-name="Grupo 129567" transform="translate(1305.544 -12437.838)">
      <g id="Grupo_129566" data-name="Grupo 129566">
        <line id="Línea_412" data-name="Línea 412" y1="17.02" transform="translate(2527.683 1524.689)" fill="none" stroke="#6836bf" stroke-miterlimit="10" stroke-width="0.682"/>
        <g id="Grupo_129565" data-name="Grupo 129565">
          <path id="Trazado_190550" data-name="Trazado 190550" d="M2530.208,1539.794l-2.525,1.073-2.525-1.073,2.525,5.986Z" fill="#6836bf"/>
        </g>
      </g>
    </g>
    <path id="Trazado_191177" data-name="Trazado 191177" d="M0,0V20.677" transform="translate(3574.187 -10978.431)" fill="none" stroke="#6836bf" stroke-width="0.682"/>
    <path id="Trazado_191178" data-name="Trazado 191178" d="M0,18.917V0" transform="translate(3573.461 -10932.066)" fill="none" stroke="#6836bf" stroke-width="0.682"/>
    <g id="Grupo_129568" data-name="Grupo 129568" transform="translate(1305.544 -12437.838)" style="isolation: isolate">
      <path id="Trazado_190551" data-name="Trazado 190551" d="M2336.613,1388.56a13.87,13.87,0,0,1,13.87,13.87v43.108a13.87,13.87,0,0,1-13.87,13.87H2199.22a13.87,13.87,0,0,1-13.87-13.87V1402.43a13.87,13.87,0,0,1,13.87-13.87h137.393m0-2.2H2199.22a16.088,16.088,0,0,0-16.069,16.069v43.108a16.087,16.087,0,0,0,16.069,16.068h137.393a16.086,16.086,0,0,0,16.069-16.068V1402.43a16.087,16.087,0,0,0-16.069-16.069Z" fill="#6836bf"/>
    </g>
    <g id="Grupo_129569" data-name="Grupo 129569" transform="translate(1305.544 -12437.838)" style="isolation: isolate">
      <path id="Trazado_190552" data-name="Trazado 190552" d="M2243.4,1554.269a13.87,13.87,0,0,1,13.87,13.87v43.108a13.87,13.87,0,0,1-13.87,13.87H2106a13.87,13.87,0,0,1-13.87-13.87v-43.108a13.87,13.87,0,0,1,13.87-13.87H2243.4m0-2.2H2106a16.087,16.087,0,0,0-16.069,16.069v43.108A16.086,16.086,0,0,0,2106,1627.315H2243.4a16.087,16.087,0,0,0,16.069-16.068v-43.108a16.088,16.088,0,0,0-16.069-16.069Z" fill="#6836bf"/>
    </g>
    <g id="Grupo_129570" data-name="Grupo 129570" transform="translate(1305.544 -12437.838)" style="isolation: isolate">
      <path id="Trazado_190553" data-name="Trazado 190553" d="M2419.274,1554.269a13.87,13.87,0,0,1,13.87,13.87v43.108a13.87,13.87,0,0,1-13.87,13.87H2281.88a13.869,13.869,0,0,1-13.869-13.87v-43.108a13.869,13.869,0,0,1,13.869-13.87h137.394m0-2.2H2281.88a16.087,16.087,0,0,0-16.068,16.069v43.108a16.086,16.086,0,0,0,16.068,16.068h137.394a16.086,16.086,0,0,0,16.068-16.068v-43.108a16.087,16.087,0,0,0-16.068-16.069Z" fill="#6836bf"/>
    </g>
    <g id="Grupo_129571" data-name="Grupo 129571" transform="translate(1305.544 -12437.838)" style="isolation: isolate">
      <path id="Trazado_190554" data-name="Trazado 190554" d="M2595.97,1554.269a13.87,13.87,0,0,1,13.869,13.87v43.108a13.87,13.87,0,0,1-13.869,13.87H2458.576a13.87,13.87,0,0,1-13.87-13.87v-43.108a13.87,13.87,0,0,1,13.87-13.87H2595.97m0-2.2H2458.576a16.088,16.088,0,0,0-16.069,16.069v43.108a16.087,16.087,0,0,0,16.069,16.068H2595.97a16.086,16.086,0,0,0,16.068-16.068v-43.108a16.087,16.087,0,0,0-16.068-16.069Z" fill="#6836bf"/>
    </g>
    <g id="Grupo_129572" data-name="Grupo 129572" transform="translate(1305.544 -12437.838)" style="isolation: isolate">
      <path id="Trazado_190555" data-name="Trazado 190555" d="M2067.335,1554.269a13.869,13.869,0,0,1,13.869,13.87v43.108a13.869,13.869,0,0,1-13.869,13.87H1929.941a13.87,13.87,0,0,1-13.87-13.87v-43.108a13.87,13.87,0,0,1,13.87-13.87h137.394m0-2.2H1929.941a16.087,16.087,0,0,0-16.068,16.069v43.108a16.086,16.086,0,0,0,16.068,16.068h137.394a16.086,16.086,0,0,0,16.068-16.068v-43.108a16.087,16.087,0,0,0-16.068-16.069Z" fill="#6836bf"/>
    </g>
  </g>
</svg>
