<svg xmlns="http://www.w3.org/2000/svg" width="820" height="385.778" viewBox="0 0 820 385.778">
  <g id="Grupo_132004" data-name="Grupo 132004" transform="translate(-390 -1802.723)">
    <path id="Trazado_191194" data-name="Trazado 191194" d="M16.663,0H605.108a16.663,16.663,0,0,1,16.663,16.663v52a16.663,16.663,0,0,1-16.663,16.663H16.663A16.663,16.663,0,0,1,0,68.661v-52A16.663,16.663,0,0,1,16.663,0Z" transform="translate(487.68 1860.818)" fill="#f7ca18" opacity="0.995"/>
    <path id="Trazado_191192" data-name="Trazado 191192" d="M16.663,0H605.108a16.663,16.663,0,0,1,16.663,16.663v52a16.663,16.663,0,0,1-16.663,16.663H16.663A16.663,16.663,0,0,1,0,68.661v-52A16.663,16.663,0,0,1,16.663,0Z" transform="translate(487.68 1956.13)" fill="#b13e8d"/>
    <path id="Trazado_191189" data-name="Trazado 191189" d="M16.663,0H605.108a16.663,16.663,0,0,1,16.663,16.663v52a16.663,16.663,0,0,1-16.663,16.663H16.663A16.663,16.663,0,0,1,0,68.661v-52A16.663,16.663,0,0,1,16.663,0Z" transform="translate(487.68 2051.442)" fill="#f7ca18" opacity="0.995"/>
    <path id="Trazado_191196" data-name="Trazado 191196" d="M15.344,0H68.3A15.344,15.344,0,0,1,83.639,15.344V261.458A15.344,15.344,0,0,1,68.3,276.8H15.344A15.344,15.344,0,0,1,0,261.458V15.344A15.344,15.344,0,0,1,15.344,0Z" transform="translate(390 1859.965)" fill="#7fc733" opacity="0.5"/>
    <path id="Trazado_191197" data-name="Trazado 191197" d="M41.7,25H38.189L31.345,13.773V25H27.83V7.938h3.516L38.2,19.188V7.938h3.5Zm8.684.234a6.225,6.225,0,0,1-4.541-1.711A6.082,6.082,0,0,1,44.1,18.965v-.328a7.66,7.66,0,0,1,.738-3.416,5.418,5.418,0,0,1,2.092-2.32,5.871,5.871,0,0,1,3.088-.814,5.262,5.262,0,0,1,4.1,1.641A6.667,6.667,0,0,1,55.6,18.379v1.383H47.529a3.146,3.146,0,0,0,.99,1.992,2.993,2.993,0,0,0,2.092.75,3.656,3.656,0,0,0,3.059-1.418l1.664,1.863a5.084,5.084,0,0,1-2.062,1.682A6.767,6.767,0,0,1,50.388,25.234ZM50,14.816a2.116,2.116,0,0,0-1.635.683,3.535,3.535,0,0,0-.8,1.954h4.711v-.271a2.521,2.521,0,0,0-.609-1.748A2.183,2.183,0,0,0,50,14.816ZM62.8,22.5a2.221,2.221,0,0,0,1.523-.516,1.807,1.807,0,0,0,.609-1.371h3.176a4.344,4.344,0,0,1-.7,2.361,4.64,4.64,0,0,1-1.893,1.664,5.923,5.923,0,0,1-2.654.592,5.5,5.5,0,0,1-4.289-1.729A6.84,6.84,0,0,1,57,18.73v-.223a6.762,6.762,0,0,1,1.559-4.676,5.441,5.441,0,0,1,4.277-1.746,5.333,5.333,0,0,1,3.814,1.354,4.792,4.792,0,0,1,1.459,3.6H64.931a2.327,2.327,0,0,0-.609-1.608,2.265,2.265,0,0,0-3.334.244,5,5,0,0,0-.6,2.8v.352a5.063,5.063,0,0,0,.6,2.817A2.065,2.065,0,0,0,62.8,22.5Zm13.078,2.73a6.225,6.225,0,0,1-4.541-1.711,6.082,6.082,0,0,1-1.752-4.559v-.328a7.66,7.66,0,0,1,.738-3.416,5.418,5.418,0,0,1,2.092-2.32,5.871,5.871,0,0,1,3.088-.814,5.262,5.262,0,0,1,4.1,1.641,6.667,6.667,0,0,1,1.494,4.652v1.383H73.017a3.146,3.146,0,0,0,.99,1.992,2.993,2.993,0,0,0,2.092.75,3.656,3.656,0,0,0,3.059-1.418l1.664,1.863a5.084,5.084,0,0,1-2.062,1.682A6.767,6.767,0,0,1,75.876,25.234ZM75.49,14.816a2.116,2.116,0,0,0-1.635.683,3.535,3.535,0,0,0-.8,1.954h4.711v-.271a2.521,2.521,0,0,0-.609-1.748A2.183,2.183,0,0,0,75.49,14.816ZM89.88,21.5a1.091,1.091,0,0,0-.615-.979,6.989,6.989,0,0,0-1.975-.639q-4.523-.949-4.523-3.844a3.484,3.484,0,0,1,1.4-2.818,5.649,5.649,0,0,1,3.662-1.131,6.08,6.08,0,0,1,3.861,1.137,3.582,3.582,0,0,1,1.447,2.953H89.751a1.639,1.639,0,0,0-.469-1.2,1.984,1.984,0,0,0-1.465-.475,2.027,2.027,0,0,0-1.324.387,1.221,1.221,0,0,0-.469.984,1.044,1.044,0,0,0,.533.908,5.485,5.485,0,0,0,1.8.6,14.692,14.692,0,0,1,2.133.568q2.684.984,2.684,3.41a3.307,3.307,0,0,1-1.488,2.807,6.42,6.42,0,0,1-3.844,1.072,6.706,6.706,0,0,1-2.83-.568,4.748,4.748,0,0,1-1.939-1.559,3.621,3.621,0,0,1-.7-2.139H85.58a1.768,1.768,0,0,0,.668,1.383,2.649,2.649,0,0,0,1.664.48,2.452,2.452,0,0,0,1.471-.369A1.149,1.149,0,0,0,89.88,21.5ZM98.927,25h-3.4V12.32h3.4ZM95.33,9.039a1.668,1.668,0,0,1,.51-1.254,2.2,2.2,0,0,1,2.771,0,1.658,1.658,0,0,1,.516,1.254A1.663,1.663,0,0,1,98.6,10.3a2.172,2.172,0,0,1-2.754,0A1.663,1.663,0,0,1,95.33,9.039Zm5.859,9.527a7.641,7.641,0,0,1,1.33-4.723,4.316,4.316,0,0,1,3.639-1.758,3.884,3.884,0,0,1,3.059,1.383V7h3.4V25h-3.059l-.164-1.348a3.985,3.985,0,0,1-3.258,1.582,4.3,4.3,0,0,1-3.592-1.764A7.887,7.887,0,0,1,101.189,18.566Zm3.387.252a5.005,5.005,0,0,0,.621,2.735,2.023,2.023,0,0,0,1.8.951,2.266,2.266,0,0,0,2.215-1.326V16.166a2.234,2.234,0,0,0-2.191-1.326Q104.576,14.84,104.576,18.819ZM122.587,25a3.761,3.761,0,0,1-.34-1.137,4.1,4.1,0,0,1-3.2,1.371,4.5,4.5,0,0,1-3.088-1.078,3.467,3.467,0,0,1-1.225-2.719,3.583,3.583,0,0,1,1.494-3.094,7.373,7.373,0,0,1,4.318-1.09h1.559v-.727a2.089,2.089,0,0,0-.451-1.406,1.775,1.775,0,0,0-1.424-.527,2.018,2.018,0,0,0-1.342.41,1.393,1.393,0,0,0-.486,1.125h-3.387a3.4,3.4,0,0,1,.68-2.039,4.493,4.493,0,0,1,1.922-1.471,7,7,0,0,1,2.789-.533,5.534,5.534,0,0,1,3.721,1.178,4.12,4.12,0,0,1,1.377,3.311v5.5a6.062,6.062,0,0,0,.5,2.73V25Zm-2.8-2.355a2.917,2.917,0,0,0,1.383-.334,2.194,2.194,0,0,0,.938-.9v-2.18h-1.266q-2.543,0-2.707,1.758l-.012.2a1.356,1.356,0,0,0,.445,1.043A1.73,1.73,0,0,0,119.787,22.645Zm7.793-4.078a7.641,7.641,0,0,1,1.33-4.723,4.316,4.316,0,0,1,3.639-1.758,3.884,3.884,0,0,1,3.059,1.383V7h3.4V25h-3.059l-.164-1.348a3.985,3.985,0,0,1-3.258,1.582,4.3,4.3,0,0,1-3.592-1.764A7.887,7.887,0,0,1,127.58,18.566Zm3.387.252a5.005,5.005,0,0,0,.621,2.735,2.023,2.023,0,0,0,1.8.951,2.266,2.266,0,0,0,2.215-1.326V16.166a2.234,2.234,0,0,0-2.191-1.326Q130.966,14.84,130.966,18.819Zm16.5,6.416a6.225,6.225,0,0,1-4.541-1.711,6.082,6.082,0,0,1-1.752-4.559v-.328a7.66,7.66,0,0,1,.738-3.416A5.418,5.418,0,0,1,144,12.9a5.871,5.871,0,0,1,3.088-.814,5.262,5.262,0,0,1,4.1,1.641,6.667,6.667,0,0,1,1.494,4.652v1.383h-8.074a3.146,3.146,0,0,0,.99,1.992,2.993,2.993,0,0,0,2.092.75,3.656,3.656,0,0,0,3.059-1.418l1.664,1.863a5.084,5.084,0,0,1-2.062,1.682A6.767,6.767,0,0,1,147.466,25.234Zm-.387-10.418a2.116,2.116,0,0,0-1.635.683,3.535,3.535,0,0,0-.8,1.954h4.711v-.271a2.521,2.521,0,0,0-.609-1.748A2.183,2.183,0,0,0,147.08,14.816ZM161.47,21.5a1.091,1.091,0,0,0-.615-.979,6.989,6.989,0,0,0-1.975-.639q-4.523-.949-4.523-3.844a3.484,3.484,0,0,1,1.4-2.818,5.649,5.649,0,0,1,3.662-1.131,6.08,6.08,0,0,1,3.861,1.137,3.582,3.582,0,0,1,1.447,2.953h-3.387a1.639,1.639,0,0,0-.469-1.2,1.984,1.984,0,0,0-1.465-.475,2.027,2.027,0,0,0-1.324.387,1.221,1.221,0,0,0-.469.984,1.044,1.044,0,0,0,.533.908,5.485,5.485,0,0,0,1.8.6,14.692,14.692,0,0,1,2.133.568q2.684.984,2.684,3.41a3.307,3.307,0,0,1-1.488,2.807,6.42,6.42,0,0,1-3.844,1.072,6.706,6.706,0,0,1-2.83-.568,4.748,4.748,0,0,1-1.939-1.559,3.621,3.621,0,0,1-.7-2.139h3.211a1.768,1.768,0,0,0,.668,1.383,2.649,2.649,0,0,0,1.664.48,2.452,2.452,0,0,0,1.471-.369A1.149,1.149,0,0,0,161.47,21.5Z" transform="translate(447.383 1902.156) rotate(90)" fill="#12263f"/>
    <path id="Trazado_191190" data-name="Trazado 191190" d="M15.344,0H68.3A15.344,15.344,0,0,1,83.639,15.344V261.458A15.344,15.344,0,0,1,68.3,276.8H15.344A15.344,15.344,0,0,1,0,261.458V15.344A15.344,15.344,0,0,1,15.344,0Z" transform="translate(1126.361 1859.965)" fill="#7fc733" opacity="0.5"/>
    <path id="Trazado_191188" data-name="Trazado 191188" d="M81.618,20.523a1.8,1.8,0,0,0-.7-1.529,9.222,9.222,0,0,0-2.531-1.125A17.944,17.944,0,0,1,75.489,16.7q-2.906-1.57-2.906-4.23a4.12,4.12,0,0,1,.779-2.467A5.083,5.083,0,0,1,75.6,8.313,8.425,8.425,0,0,1,78.875,7.7a7.668,7.668,0,0,1,3.258.662,5.187,5.187,0,0,1,2.221,1.869,4.891,4.891,0,0,1,.791,2.742H81.629a2.3,2.3,0,0,0-.738-1.822,3.035,3.035,0,0,0-2.074-.65,3.242,3.242,0,0,0-2,.545,1.719,1.719,0,0,0-.715,1.436,1.646,1.646,0,0,0,.838,1.395A9.466,9.466,0,0,0,79.4,14.934a10.658,10.658,0,0,1,4.371,2.238A4.458,4.458,0,0,1,85.145,20.5a4.106,4.106,0,0,1-1.676,3.475,7.336,7.336,0,0,1-4.512,1.26,8.712,8.712,0,0,1-3.586-.721A5.674,5.674,0,0,1,72.9,22.539a5.057,5.057,0,0,1-.85-2.906h3.527q0,2.824,3.375,2.824a3.283,3.283,0,0,0,1.957-.51A1.658,1.658,0,0,0,81.618,20.523ZM94.649,25a3.761,3.761,0,0,1-.34-1.137,4.1,4.1,0,0,1-3.2,1.371,4.5,4.5,0,0,1-3.088-1.078A3.467,3.467,0,0,1,86.8,21.438a3.583,3.583,0,0,1,1.494-3.094,7.373,7.373,0,0,1,4.318-1.09h1.559v-.727a2.089,2.089,0,0,0-.451-1.406,1.775,1.775,0,0,0-1.424-.527,2.018,2.018,0,0,0-1.342.41,1.393,1.393,0,0,0-.486,1.125H87.078a3.4,3.4,0,0,1,.68-2.039,4.493,4.493,0,0,1,1.922-1.471,7,7,0,0,1,2.789-.533,5.534,5.534,0,0,1,3.721,1.178,4.12,4.12,0,0,1,1.377,3.311v5.5a6.062,6.062,0,0,0,.5,2.73V25Zm-2.8-2.355a2.917,2.917,0,0,0,1.383-.334,2.194,2.194,0,0,0,.938-.9v-2.18H92.9q-2.543,0-2.707,1.758l-.012.2a1.356,1.356,0,0,0,.445,1.043A1.73,1.73,0,0,0,91.848,22.645ZM104.223,9.2V12.32h2.168V14.8h-2.168v6.328a1.511,1.511,0,0,0,.27,1.008,1.354,1.354,0,0,0,1.031.3,5.4,5.4,0,0,0,1-.082V24.93a6.972,6.972,0,0,1-2.051.3q-3.562,0-3.633-3.6V14.8H98.985V12.32h1.852V9.2ZM111.852,25h-3.4V12.32h3.4Zm-3.6-15.961a1.668,1.668,0,0,1,.51-1.254,2.2,2.2,0,0,1,2.771,0,1.658,1.658,0,0,1,.516,1.254,1.663,1.663,0,0,1-.521,1.266,2.172,2.172,0,0,1-2.754,0A1.663,1.663,0,0,1,108.254,9.039ZM121.508,21.5a1.091,1.091,0,0,0-.615-.979,6.989,6.989,0,0,0-1.975-.639q-4.523-.949-4.523-3.844a3.484,3.484,0,0,1,1.4-2.818,5.649,5.649,0,0,1,3.662-1.131,6.08,6.08,0,0,1,3.861,1.137,3.582,3.582,0,0,1,1.447,2.953h-3.387a1.639,1.639,0,0,0-.469-1.2,1.984,1.984,0,0,0-1.465-.475,2.027,2.027,0,0,0-1.324.387,1.221,1.221,0,0,0-.469.984,1.044,1.044,0,0,0,.533.908,5.485,5.485,0,0,0,1.8.6,14.692,14.692,0,0,1,2.133.568q2.684.984,2.684,3.41a3.307,3.307,0,0,1-1.488,2.807,6.42,6.42,0,0,1-3.844,1.072,6.706,6.706,0,0,1-2.83-.568,4.748,4.748,0,0,1-1.939-1.559,3.621,3.621,0,0,1-.7-2.139h3.211a1.768,1.768,0,0,0,.668,1.383,2.649,2.649,0,0,0,1.664.48,2.452,2.452,0,0,0,1.471-.369A1.149,1.149,0,0,0,121.508,21.5Zm6.4,3.5V14.8H126.02V12.32h1.887V11.242a4.377,4.377,0,0,1,1.225-3.311,4.743,4.743,0,0,1,3.428-1.178,7.917,7.917,0,0,1,1.723.234l-.035,2.625a4.318,4.318,0,0,0-1.031-.105q-1.91,0-1.91,1.793v1.02h2.52V14.8h-2.52V25Zm15.023,0a3.761,3.761,0,0,1-.34-1.137,4.1,4.1,0,0,1-3.2,1.371,4.5,4.5,0,0,1-3.088-1.078,3.467,3.467,0,0,1-1.225-2.719,3.583,3.583,0,0,1,1.494-3.094,7.373,7.373,0,0,1,4.318-1.09h1.559v-.727A2.089,2.089,0,0,0,142,15.121a1.775,1.775,0,0,0-1.424-.527,2.018,2.018,0,0,0-1.342.41,1.393,1.393,0,0,0-.486,1.125H135.36a3.4,3.4,0,0,1,.68-2.039,4.493,4.493,0,0,1,1.922-1.471,7,7,0,0,1,2.789-.533,5.534,5.534,0,0,1,3.721,1.178,4.12,4.12,0,0,1,1.377,3.311v5.5a6.062,6.062,0,0,0,.5,2.73V25Zm-2.8-2.355a2.917,2.917,0,0,0,1.383-.334,2.194,2.194,0,0,0,.938-.9v-2.18h-1.266q-2.543,0-2.707,1.758l-.012.2a1.356,1.356,0,0,0,.445,1.043A1.73,1.73,0,0,0,140.129,22.645Zm13.594-.141a2.221,2.221,0,0,0,1.523-.516,1.807,1.807,0,0,0,.609-1.371h3.176a4.344,4.344,0,0,1-.7,2.361,4.64,4.64,0,0,1-1.893,1.664,5.923,5.923,0,0,1-2.654.592,5.5,5.5,0,0,1-4.289-1.729,6.84,6.84,0,0,1-1.57-4.775v-.223a6.762,6.762,0,0,1,1.559-4.676,5.441,5.441,0,0,1,4.277-1.746,5.333,5.333,0,0,1,3.814,1.354,4.792,4.792,0,0,1,1.459,3.6h-3.176a2.327,2.327,0,0,0-.609-1.608,2.265,2.265,0,0,0-3.334.244,5,5,0,0,0-.6,2.8v.352a5.063,5.063,0,0,0,.6,2.817A2.065,2.065,0,0,0,153.723,22.5Zm12.516,0a2.221,2.221,0,0,0,1.523-.516,1.807,1.807,0,0,0,.609-1.371h3.176a4.344,4.344,0,0,1-.7,2.361,4.64,4.64,0,0,1-1.893,1.664,5.923,5.923,0,0,1-2.654.592,5.5,5.5,0,0,1-4.289-1.729,6.84,6.84,0,0,1-1.57-4.775v-.223A6.762,6.762,0,0,1,162,13.832a5.441,5.441,0,0,1,4.277-1.746,5.333,5.333,0,0,1,3.814,1.354,4.792,4.792,0,0,1,1.459,3.6h-3.176a2.327,2.327,0,0,0-.609-1.608,2.265,2.265,0,0,0-3.334.244,5,5,0,0,0-.6,2.8v.352a5.063,5.063,0,0,0,.6,2.817A2.065,2.065,0,0,0,166.239,22.5ZM177.055,25h-3.4V12.32h3.4Zm-3.6-15.961a1.668,1.668,0,0,1,.51-1.254,2.2,2.2,0,0,1,2.771,0,1.658,1.658,0,0,1,.516,1.254,1.663,1.663,0,0,1-.521,1.266,2.172,2.172,0,0,1-2.754,0A1.663,1.663,0,0,1,173.457,9.039Zm5.859,9.5a7.52,7.52,0,0,1,.727-3.363,5.319,5.319,0,0,1,2.092-2.285,6.1,6.1,0,0,1,3.17-.809,5.774,5.774,0,0,1,4.189,1.57,6.3,6.3,0,0,1,1.811,4.266l.023.867a6.627,6.627,0,0,1-1.629,4.682,6.313,6.313,0,0,1-8.748.006,6.744,6.744,0,0,1-1.635-4.781Zm3.387.24a4.74,4.74,0,0,0,.68,2.764,2.442,2.442,0,0,0,3.867.012,5.186,5.186,0,0,0,.691-3.022,4.692,4.692,0,0,0-.691-2.746,2.248,2.248,0,0,0-1.945-.974,2.211,2.211,0,0,0-1.922.968A5.274,5.274,0,0,0,182.7,18.783ZM185.973,7h3.691l-3.246,3.633h-2.754Zm10.559,5.32.105,1.465a4.427,4.427,0,0,1,3.645-1.7,3.679,3.679,0,0,1,3,1.184,5.522,5.522,0,0,1,1.008,3.539V25H200.9V16.891a2.2,2.2,0,0,0-.469-1.564,2.1,2.1,0,0,0-1.559-.486,2.33,2.33,0,0,0-2.145,1.219V25h-3.387V12.32ZM84.494,53V35.938h5.25a7.973,7.973,0,0,1,4.025,1.014,7.069,7.069,0,0,1,2.771,2.883,8.892,8.892,0,0,1,1,4.248v.785a8.917,8.917,0,0,1-.979,4.23,7.008,7.008,0,0,1-2.76,2.871A8.033,8.033,0,0,1,89.78,53ZM88.01,38.785V50.176h1.7a3.818,3.818,0,0,0,3.152-1.348,6.09,6.09,0,0,0,1.113-3.855v-.9A6.187,6.187,0,0,0,92.9,40.127a3.8,3.8,0,0,0-3.152-1.342Zm17.7,14.449a6.225,6.225,0,0,1-4.541-1.711,6.082,6.082,0,0,1-1.752-4.559v-.328a7.66,7.66,0,0,1,.738-3.416,5.418,5.418,0,0,1,2.092-2.32,5.871,5.871,0,0,1,3.088-.814,5.262,5.262,0,0,1,4.1,1.641,6.667,6.667,0,0,1,1.494,4.652v1.383h-8.074a3.146,3.146,0,0,0,.99,1.992,2.993,2.993,0,0,0,2.092.75,3.656,3.656,0,0,0,3.059-1.418l1.664,1.863a5.084,5.084,0,0,1-2.062,1.682A6.767,6.767,0,0,1,105.705,53.234Zm-.387-10.418a2.116,2.116,0,0,0-1.635.683,3.535,3.535,0,0,0-.8,1.954h4.711v-.271a2.521,2.521,0,0,0-.609-1.748A2.183,2.183,0,0,0,105.319,42.816ZM116.416,53h-3.4V35h3.4ZM138.8,47.316a6.038,6.038,0,0,1-2.033,4.336,7.141,7.141,0,0,1-4.834,1.582,6.421,6.421,0,0,1-5.162-2.209,9.058,9.058,0,0,1-1.881-6.064V43.918a10.228,10.228,0,0,1,.867-4.336,6.5,6.5,0,0,1,2.479-2.877,7.746,7.746,0,0,1,8.5.58,6.488,6.488,0,0,1,2.086,4.441h-3.516a3.563,3.563,0,0,0-.92-2.4,3.407,3.407,0,0,0-2.408-.744,2.987,2.987,0,0,0-2.631,1.26,7.06,7.06,0,0,0-.9,3.908v1.289a7.556,7.556,0,0,0,.838,4.043,2.932,2.932,0,0,0,2.643,1.277,3.471,3.471,0,0,0,2.432-.744,3.361,3.361,0,0,0,.92-2.3ZM144.459,53h-3.4V35h3.4Zm6.363,0h-3.4V40.32h3.4Zm-3.6-15.961a1.668,1.668,0,0,1,.51-1.254,2.2,2.2,0,0,1,2.771,0,1.79,1.79,0,0,1-.006,2.52,2.172,2.172,0,0,1-2.754,0A1.663,1.663,0,0,1,147.225,37.039Zm12.223,16.2a6.225,6.225,0,0,1-4.541-1.711,6.082,6.082,0,0,1-1.752-4.559v-.328a7.66,7.66,0,0,1,.738-3.416,5.418,5.418,0,0,1,2.092-2.32,5.871,5.871,0,0,1,3.088-.814,5.262,5.262,0,0,1,4.1,1.641,6.667,6.667,0,0,1,1.494,4.652v1.383h-8.074a3.146,3.146,0,0,0,.99,1.992,2.993,2.993,0,0,0,2.092.75,3.656,3.656,0,0,0,3.059-1.418l1.664,1.863a5.084,5.084,0,0,1-2.062,1.682A6.767,6.767,0,0,1,159.448,53.234Zm-.387-10.418a2.116,2.116,0,0,0-1.635.683,3.535,3.535,0,0,0-.8,1.954h4.711v-.271a2.521,2.521,0,0,0-.609-1.748A2.183,2.183,0,0,0,159.061,42.816Zm10.641-2.5.105,1.465a4.427,4.427,0,0,1,3.645-1.7,3.679,3.679,0,0,1,3,1.184,5.522,5.522,0,0,1,1.008,3.539V53h-3.387V44.891a2.2,2.2,0,0,0-.469-1.564,2.1,2.1,0,0,0-1.559-.486,2.33,2.33,0,0,0-2.145,1.219V53h-3.387V40.32ZM184.08,37.2V40.32h2.168V42.8H184.08v6.328a1.511,1.511,0,0,0,.27,1.008,1.354,1.354,0,0,0,1.031.3,5.4,5.4,0,0,0,1-.082V52.93a6.972,6.972,0,0,1-2.051.3q-3.562,0-3.633-3.6V42.8h-1.852V40.32h1.852V37.2Zm9.891,16.031a6.225,6.225,0,0,1-4.541-1.711,6.082,6.082,0,0,1-1.752-4.559v-.328a7.66,7.66,0,0,1,.738-3.416,5.418,5.418,0,0,1,2.092-2.32,5.871,5.871,0,0,1,3.088-.814,5.262,5.262,0,0,1,4.1,1.641,6.667,6.667,0,0,1,1.494,4.652v1.383h-8.074a3.146,3.146,0,0,0,.99,1.992,2.993,2.993,0,0,0,2.092.75,3.656,3.656,0,0,0,3.059-1.418l1.664,1.863a5.084,5.084,0,0,1-2.062,1.682A6.767,6.767,0,0,1,193.971,53.234Zm-.387-10.418a2.116,2.116,0,0,0-1.635.683,3.535,3.535,0,0,0-.8,1.954h4.711v-.271a2.521,2.521,0,0,0-.609-1.748A2.183,2.183,0,0,0,193.584,42.816Z" transform="translate(1192.087 1860.541) rotate(90)" fill="#12263f"/>
    <path id="Trazado_191135" data-name="Trazado 191135" d="M742.47,1684.358a159.156,159.156,0,0,1-152.543,31.833l5.874-10.6a7.163,7.163,0,0,0-6.389-10.636l-27.815.482-13.532.234-14.282.247a7.164,7.164,0,0,0-6.017,10.852l4.212,7.012,10.112,16.835,14.325,23.847a7.164,7.164,0,0,0,12.406-.214l9.224-16.636a183.185,183.185,0,0,0,180.332-35.1Z" transform="translate(167.498 430.557)" fill="#6836bf"/>
    <path id="Trazado_191136" data-name="Trazado 191136" d="M827.19,1634.225,810.555,1625a183.118,183.118,0,0,0-38.6-184.209l-17.7,16.414a159.143,159.143,0,0,1,34.868,155.913l-10.594-5.874a7.164,7.164,0,0,0-10.637,6.389l.482,27.814.235,13.532.247,14.283a7.164,7.164,0,0,0,10.851,6.017l7.012-4.212,16.836-10.113,23.847-14.324A7.164,7.164,0,0,0,827.19,1634.225Z" transform="translate(167.498 430.557)" fill="#6836bf"/>
    <path id="Trazado_191137" data-name="Trazado 191137" d="M486.855,1516.991l10.594,5.875a7.164,7.164,0,0,0,10.637-6.389l-.482-27.815-.234-13.532-.248-14.283a7.164,7.164,0,0,0-10.851-6.017l-7.012,4.212-16.835,10.113-23.848,14.324a7.164,7.164,0,0,0,.215,12.406l16.636,9.224a183.118,183.118,0,0,0,38.6,184.21l17.7-16.414A159.147,159.147,0,0,1,486.855,1516.991Z" transform="translate(167.498 430.557)" fill="#6836bf"/>
    <path id="Trazado_191195" data-name="Trazado 191195" d="M16.183,18.988V25H12.667V7.938h6.656a7.7,7.7,0,0,1,3.381.7,5.181,5.181,0,0,1,2.244,2,5.571,5.571,0,0,1,.785,2.947,4.9,4.9,0,0,1-1.717,3.955,7.15,7.15,0,0,1-4.752,1.447Zm0-2.848h3.141a3.088,3.088,0,0,0,2.127-.656,2.387,2.387,0,0,0,.732-1.875,2.814,2.814,0,0,0-.738-2.027,2.758,2.758,0,0,0-2.039-.8H16.183Zm18.281,2.613h-2.8V25H28.147V7.938h6.34a7.167,7.167,0,0,1,4.664,1.348,4.651,4.651,0,0,1,1.641,3.809,5.249,5.249,0,0,1-.756,2.912,5.155,5.155,0,0,1-2.291,1.857l3.691,6.973V25H37.663Zm-2.8-2.848H34.5a2.9,2.9,0,0,0,2.051-.674,2.408,2.408,0,0,0,.727-1.857,2.578,2.578,0,0,0-.686-1.9,2.849,2.849,0,0,0-2.1-.691H31.663Zm25.816.949a10.3,10.3,0,0,1-.891,4.418A6.707,6.707,0,0,1,54.04,24.2a7.532,7.532,0,0,1-7.588.012A6.773,6.773,0,0,1,43.874,21.3a10.005,10.005,0,0,1-.926-4.354v-.844a10.246,10.246,0,0,1,.908-4.436,6.762,6.762,0,0,1,2.566-2.941,7.521,7.521,0,0,1,7.582,0,6.762,6.762,0,0,1,2.566,2.941,10.217,10.217,0,0,1,.908,4.424Zm-3.562-.773A7.18,7.18,0,0,0,52.956,12a3.395,3.395,0,0,0-5.473-.018,7.1,7.1,0,0,0-.973,4.037v.832a7.27,7.27,0,0,0,.961,4.055,3.365,3.365,0,0,0,5.484.053,7.228,7.228,0,0,0,.961-4.049Zm19.512,3.234A6.038,6.038,0,0,1,71.4,23.652a7.141,7.141,0,0,1-4.834,1.582A6.421,6.421,0,0,1,61.4,23.025a9.058,9.058,0,0,1-1.881-6.064V15.918a10.228,10.228,0,0,1,.867-4.336,6.5,6.5,0,0,1,2.479-2.877,7.746,7.746,0,0,1,8.5.58,6.488,6.488,0,0,1,2.086,4.441H69.936a3.563,3.563,0,0,0-.92-2.4,3.407,3.407,0,0,0-2.408-.744,2.987,2.987,0,0,0-2.631,1.26,7.06,7.06,0,0,0-.9,3.908v1.289a7.556,7.556,0,0,0,.838,4.043,2.932,2.932,0,0,0,2.643,1.277,3.471,3.471,0,0,0,2.432-.744,3.361,3.361,0,0,0,.92-2.3ZM86,17.605h-6.75v4.57h7.922V25H75.737V7.938H87.151v2.848h-7.9v4.066H86Zm12.082,2.918a1.8,1.8,0,0,0-.7-1.529,9.222,9.222,0,0,0-2.531-1.125A17.944,17.944,0,0,1,91.956,16.7q-2.906-1.57-2.906-4.23a4.12,4.12,0,0,1,.779-2.467,5.083,5.083,0,0,1,2.238-1.693A8.425,8.425,0,0,1,95.343,7.7a7.668,7.668,0,0,1,3.258.662,5.187,5.187,0,0,1,2.221,1.869,4.891,4.891,0,0,1,.791,2.742H98.1a2.3,2.3,0,0,0-.738-1.822,3.035,3.035,0,0,0-2.074-.65,3.242,3.242,0,0,0-2,.545,1.719,1.719,0,0,0-.715,1.436,1.646,1.646,0,0,0,.838,1.395,9.466,9.466,0,0,0,2.467,1.055,10.658,10.658,0,0,1,4.371,2.238,4.458,4.458,0,0,1,1.371,3.328,4.106,4.106,0,0,1-1.676,3.475,7.336,7.336,0,0,1-4.512,1.26,8.712,8.712,0,0,1-3.586-.721,5.674,5.674,0,0,1-2.467-1.975,5.057,5.057,0,0,1-.85-2.906H92.05q0,2.824,3.375,2.824a3.283,3.283,0,0,0,1.957-.51A1.658,1.658,0,0,0,98.085,20.523Zm19.922-3.668a10.3,10.3,0,0,1-.891,4.418,6.707,6.707,0,0,1-2.549,2.93,7.532,7.532,0,0,1-7.588.012A6.773,6.773,0,0,1,104.4,21.3a10.005,10.005,0,0,1-.926-4.354v-.844a10.246,10.246,0,0,1,.908-4.436,6.762,6.762,0,0,1,2.566-2.941,7.521,7.521,0,0,1,7.582,0A6.762,6.762,0,0,1,117.1,11.67a10.217,10.217,0,0,1,.908,4.424Zm-3.562-.773A7.18,7.18,0,0,0,113.483,12a3.395,3.395,0,0,0-5.473-.018,7.1,7.1,0,0,0-.973,4.037v.832A7.27,7.27,0,0,0,108,20.91a3.365,3.365,0,0,0,5.484.053,7.228,7.228,0,0,0,.961-4.049Zm14.965,4.441a1.8,1.8,0,0,0-.7-1.529,9.222,9.222,0,0,0-2.531-1.125A17.944,17.944,0,0,1,123.28,16.7q-2.906-1.57-2.906-4.23a4.12,4.12,0,0,1,.779-2.467,5.083,5.083,0,0,1,2.238-1.693,8.425,8.425,0,0,1,3.275-.609,7.668,7.668,0,0,1,3.258.662,5.187,5.187,0,0,1,2.221,1.869,4.891,4.891,0,0,1,.791,2.742h-3.516a2.3,2.3,0,0,0-.738-1.822,3.035,3.035,0,0,0-2.074-.65,3.242,3.242,0,0,0-2,.545,1.719,1.719,0,0,0-.715,1.436,1.646,1.646,0,0,0,.838,1.395,9.466,9.466,0,0,0,2.467,1.055,10.658,10.658,0,0,1,4.371,2.238,4.458,4.458,0,0,1,1.371,3.328,4.106,4.106,0,0,1-1.676,3.475,7.336,7.336,0,0,1-4.512,1.26,8.712,8.712,0,0,1-3.586-.721,5.674,5.674,0,0,1-2.467-1.975,5.057,5.057,0,0,1-.85-2.906h3.527q0,2.824,3.375,2.824a3.283,3.283,0,0,0,1.957-.51A1.658,1.658,0,0,0,129.409,20.523Zm22.148-2.918h-6.75v4.57h7.922V25H141.292V7.938h11.414v2.848h-7.9v4.066h6.75Zm12.082,2.918a1.8,1.8,0,0,0-.7-1.529,9.222,9.222,0,0,0-2.531-1.125,17.944,17.944,0,0,1-2.895-1.166q-2.906-1.57-2.906-4.23a4.12,4.12,0,0,1,.779-2.467,5.083,5.083,0,0,1,2.238-1.693A8.425,8.425,0,0,1,160.9,7.7a7.668,7.668,0,0,1,3.258.662,5.187,5.187,0,0,1,2.221,1.869,4.891,4.891,0,0,1,.791,2.742h-3.516a2.3,2.3,0,0,0-.738-1.822,3.035,3.035,0,0,0-2.074-.65,3.242,3.242,0,0,0-2,.545,1.719,1.719,0,0,0-.715,1.436,1.646,1.646,0,0,0,.838,1.395,9.466,9.466,0,0,0,2.467,1.055,10.658,10.658,0,0,1,4.371,2.238,4.458,4.458,0,0,1,1.371,3.328,4.106,4.106,0,0,1-1.676,3.475,7.336,7.336,0,0,1-4.512,1.26,8.712,8.712,0,0,1-3.586-.721,5.674,5.674,0,0,1-2.467-1.975,5.057,5.057,0,0,1-.85-2.906H157.6q0,2.824,3.375,2.824a3.283,3.283,0,0,0,1.957-.51A1.658,1.658,0,0,0,163.64,20.523Zm18.75-9.738h-5.227V25h-3.516V10.785h-5.156V7.938h13.9Zm8.32,7.969h-2.8V25h-3.516V7.938h6.34A7.167,7.167,0,0,1,195.4,9.285a4.651,4.651,0,0,1,1.641,3.809,5.249,5.249,0,0,1-.756,2.912,5.155,5.155,0,0,1-2.291,1.857l3.691,6.973V25h-3.773Zm-2.8-2.848h2.836a2.9,2.9,0,0,0,2.051-.674,2.408,2.408,0,0,0,.727-1.857,2.578,2.578,0,0,0-.686-1.9,2.849,2.849,0,0,0-2.1-.691h-2.824Zm21.434,5.578h-6.164L202.007,25h-3.738L204.62,7.938h3.258L214.265,25h-3.738Zm-5.215-2.848h4.266l-2.145-6.387ZM227.3,10.785h-5.227V25h-3.516V10.785H213.4V7.938h13.9Zm12.27,6.82h-6.75v4.57h7.922V25H229.3V7.938h11.414v2.848h-7.9v4.066h6.75ZM235.9,3.332h3.691l-3.246,3.633h-2.754Zm20.4,19.512a6.1,6.1,0,0,1-2.684,1.764,11.238,11.238,0,0,1-3.844.627,7.614,7.614,0,0,1-3.885-.967,6.448,6.448,0,0,1-2.578-2.807,9.878,9.878,0,0,1-.932-4.324v-1.16a10.491,10.491,0,0,1,.861-4.424,6.372,6.372,0,0,1,2.484-2.859,8.18,8.18,0,0,1,8.549.457,6.185,6.185,0,0,1,2.027,4.213h-3.422a3.4,3.4,0,0,0-1.037-2.145,3.312,3.312,0,0,0-2.209-.68,3.117,3.117,0,0,0-2.73,1.348,7.086,7.086,0,0,0-.949,4.008v1.09a6.746,6.746,0,0,0,1.02,4.055,3.491,3.491,0,0,0,2.988,1.371,3.9,3.9,0,0,0,2.824-.844V18.625h-3.2v-2.59H256.3ZM262.886,25H259.37V7.938h3.516Zm16.652-5.684a6.038,6.038,0,0,1-2.033,4.336,7.141,7.141,0,0,1-4.834,1.582,6.421,6.421,0,0,1-5.162-2.209,9.058,9.058,0,0,1-1.881-6.064V15.918a10.228,10.228,0,0,1,.867-4.336,6.5,6.5,0,0,1,2.479-2.877,7.746,7.746,0,0,1,8.5.58,6.488,6.488,0,0,1,2.086,4.441h-3.516a3.563,3.563,0,0,0-.92-2.4,3.407,3.407,0,0,0-2.408-.744,2.987,2.987,0,0,0-2.631,1.26,7.06,7.06,0,0,0-.9,3.908v1.289a7.556,7.556,0,0,0,.838,4.043,2.932,2.932,0,0,0,2.643,1.277,3.471,3.471,0,0,0,2.432-.744,3.361,3.361,0,0,0,.92-2.3Zm16.324-2.461a10.3,10.3,0,0,1-.891,4.418,6.707,6.707,0,0,1-2.549,2.93,7.532,7.532,0,0,1-7.588.012,6.773,6.773,0,0,1-2.578-2.912,10.005,10.005,0,0,1-.926-4.354v-.844a10.246,10.246,0,0,1,.908-4.436,6.762,6.762,0,0,1,2.566-2.941,7.521,7.521,0,0,1,7.582,0,6.762,6.762,0,0,1,2.566,2.941,10.217,10.217,0,0,1,.908,4.424Zm-3.562-.773A7.18,7.18,0,0,0,291.339,12a3.395,3.395,0,0,0-5.473-.018,7.1,7.1,0,0,0-.973,4.037v.832a7.27,7.27,0,0,0,.961,4.055,3.365,3.365,0,0,0,5.484.053,7.228,7.228,0,0,0,.961-4.049Zm14.965,4.441a1.8,1.8,0,0,0-.7-1.529,9.222,9.222,0,0,0-2.531-1.125,17.944,17.944,0,0,1-2.895-1.166q-2.906-1.57-2.906-4.23a4.12,4.12,0,0,1,.779-2.467,5.083,5.083,0,0,1,2.238-1.693,8.425,8.425,0,0,1,3.275-.609,7.668,7.668,0,0,1,3.258.662A5.187,5.187,0,0,1,310,10.234a4.891,4.891,0,0,1,.791,2.742h-3.516a2.3,2.3,0,0,0-.738-1.822,3.035,3.035,0,0,0-2.074-.65,3.242,3.242,0,0,0-2,.545,1.719,1.719,0,0,0-.715,1.436,1.646,1.646,0,0,0,.838,1.395,9.466,9.466,0,0,0,2.467,1.055,10.658,10.658,0,0,1,4.371,2.238,4.458,4.458,0,0,1,1.371,3.328,4.106,4.106,0,0,1-1.676,3.475,7.336,7.336,0,0,1-4.512,1.26,8.712,8.712,0,0,1-3.586-.721,5.674,5.674,0,0,1-2.467-1.975,5.057,5.057,0,0,1-.85-2.906h3.527q0,2.824,3.375,2.824a3.283,3.283,0,0,0,1.957-.51A1.658,1.658,0,0,0,307.265,20.523Z" transform="translate(637.17 1890.315)" fill="#12263f"/>
    <path id="Trazado_191193" data-name="Trazado 191193" d="M31.78,18.988V25H28.265V7.938h6.656a7.7,7.7,0,0,1,3.381.7,5.181,5.181,0,0,1,2.244,2,5.571,5.571,0,0,1,.785,2.947,4.9,4.9,0,0,1-1.717,3.955,7.15,7.15,0,0,1-4.752,1.447Zm0-2.848h3.141a3.088,3.088,0,0,0,2.127-.656,2.387,2.387,0,0,0,.732-1.875,2.814,2.814,0,0,0-.738-2.027,2.758,2.758,0,0,0-2.039-.8H31.78Zm18.281,2.613h-2.8V25H43.745V7.938h6.34a7.167,7.167,0,0,1,4.664,1.348,4.651,4.651,0,0,1,1.641,3.809,5.249,5.249,0,0,1-.756,2.912,5.155,5.155,0,0,1-2.291,1.857l3.691,6.973V25H53.261Zm-2.8-2.848H50.1a2.9,2.9,0,0,0,2.051-.674,2.408,2.408,0,0,0,.727-1.857,2.578,2.578,0,0,0-.686-1.9,2.849,2.849,0,0,0-2.1-.691H47.261Zm25.816.949a10.3,10.3,0,0,1-.891,4.418,6.707,6.707,0,0,1-2.549,2.93,7.532,7.532,0,0,1-7.588.012A6.773,6.773,0,0,1,59.472,21.3a10.005,10.005,0,0,1-.926-4.354v-.844a10.246,10.246,0,0,1,.908-4.436A6.762,6.762,0,0,1,62.02,8.729a7.521,7.521,0,0,1,7.582,0,6.762,6.762,0,0,1,2.566,2.941,10.217,10.217,0,0,1,.908,4.424Zm-3.562-.773A7.18,7.18,0,0,0,68.554,12a3.395,3.395,0,0,0-5.473-.018,7.1,7.1,0,0,0-.973,4.037v.832a7.27,7.27,0,0,0,.961,4.055,3.365,3.365,0,0,0,5.484.053,7.228,7.228,0,0,0,.961-4.049Zm19.512,3.234a6.038,6.038,0,0,1-2.033,4.336,7.141,7.141,0,0,1-4.834,1.582A6.421,6.421,0,0,1,77,23.025a9.058,9.058,0,0,1-1.881-6.064V15.918a10.228,10.228,0,0,1,.867-4.336,6.5,6.5,0,0,1,2.479-2.877,7.746,7.746,0,0,1,8.5.58,6.488,6.488,0,0,1,2.086,4.441H85.534a3.563,3.563,0,0,0-.92-2.4,3.407,3.407,0,0,0-2.408-.744,2.987,2.987,0,0,0-2.631,1.26,7.06,7.06,0,0,0-.9,3.908v1.289a7.556,7.556,0,0,0,.838,4.043,2.932,2.932,0,0,0,2.643,1.277,3.471,3.471,0,0,0,2.432-.744,3.361,3.361,0,0,0,.92-2.3ZM101.6,17.605H94.85v4.57h7.922V25H91.335V7.938h11.414v2.848h-7.9v4.066h6.75Zm12.082,2.918a1.8,1.8,0,0,0-.7-1.529,9.222,9.222,0,0,0-2.531-1.125,17.944,17.944,0,0,1-2.895-1.166q-2.906-1.57-2.906-4.23a4.12,4.12,0,0,1,.779-2.467,5.083,5.083,0,0,1,2.238-1.693A8.425,8.425,0,0,1,110.94,7.7a7.668,7.668,0,0,1,3.258.662,5.187,5.187,0,0,1,2.221,1.869,4.891,4.891,0,0,1,.791,2.742h-3.516a2.3,2.3,0,0,0-.738-1.822,3.035,3.035,0,0,0-2.074-.65,3.242,3.242,0,0,0-2,.545,1.719,1.719,0,0,0-.715,1.436A1.646,1.646,0,0,0,109,13.879a9.466,9.466,0,0,0,2.467,1.055,10.658,10.658,0,0,1,4.371,2.238A4.458,4.458,0,0,1,117.21,20.5a4.106,4.106,0,0,1-1.676,3.475,7.336,7.336,0,0,1-4.512,1.26,8.712,8.712,0,0,1-3.586-.721,5.674,5.674,0,0,1-2.467-1.975,5.057,5.057,0,0,1-.85-2.906h3.527q0,2.824,3.375,2.824a3.283,3.283,0,0,0,1.957-.51A1.658,1.658,0,0,0,113.683,20.523ZM133.6,16.855a10.3,10.3,0,0,1-.891,4.418,6.707,6.707,0,0,1-2.549,2.93,7.532,7.532,0,0,1-7.588.012A6.773,6.773,0,0,1,120,21.3a10.005,10.005,0,0,1-.926-4.354v-.844a10.246,10.246,0,0,1,.908-4.436,6.762,6.762,0,0,1,2.566-2.941,7.521,7.521,0,0,1,7.582,0A6.762,6.762,0,0,1,132.7,11.67a10.217,10.217,0,0,1,.908,4.424Zm-3.562-.773A7.18,7.18,0,0,0,129.081,12a3.395,3.395,0,0,0-5.473-.018,7.1,7.1,0,0,0-.973,4.037v.832a7.27,7.27,0,0,0,.961,4.055,3.365,3.365,0,0,0,5.484.053,7.228,7.228,0,0,0,.961-4.049Zm14.965,4.441a1.8,1.8,0,0,0-.7-1.529,9.222,9.222,0,0,0-2.531-1.125,17.944,17.944,0,0,1-2.895-1.166q-2.906-1.57-2.906-4.23a4.12,4.12,0,0,1,.779-2.467,5.083,5.083,0,0,1,2.238-1.693,8.425,8.425,0,0,1,3.275-.609,7.668,7.668,0,0,1,3.258.662,5.187,5.187,0,0,1,2.221,1.869,4.891,4.891,0,0,1,.791,2.742h-3.516a2.3,2.3,0,0,0-.738-1.822,3.035,3.035,0,0,0-2.074-.65,3.242,3.242,0,0,0-2,.545,1.719,1.719,0,0,0-.715,1.436,1.646,1.646,0,0,0,.838,1.395,9.466,9.466,0,0,0,2.467,1.055,10.658,10.658,0,0,1,4.371,2.238,4.458,4.458,0,0,1,1.371,3.328,4.106,4.106,0,0,1-1.676,3.475,7.336,7.336,0,0,1-4.512,1.26,8.712,8.712,0,0,1-3.586-.721,5.674,5.674,0,0,1-2.467-1.975,5.057,5.057,0,0,1-.85-2.906h3.527q0,2.824,3.375,2.824a3.283,3.283,0,0,0,1.957-.51A1.658,1.658,0,0,0,145.007,20.523ZM161.483,7.938l4.383,12.375,4.359-12.375h4.617V25h-3.527V20.336l.352-8.051L167.061,25h-2.414l-4.594-12.7.352,8.039V25H156.89V7.938ZM181.651,25h-3.516V7.938h3.516Zm12.105-4.477a1.8,1.8,0,0,0-.7-1.529,9.222,9.222,0,0,0-2.531-1.125,17.944,17.944,0,0,1-2.895-1.166q-2.906-1.57-2.906-4.23a4.12,4.12,0,0,1,.779-2.467,5.083,5.083,0,0,1,2.238-1.693,8.425,8.425,0,0,1,3.275-.609,7.668,7.668,0,0,1,3.258.662,5.187,5.187,0,0,1,2.221,1.869,4.891,4.891,0,0,1,.791,2.742h-3.516a2.3,2.3,0,0,0-.738-1.822,3.035,3.035,0,0,0-2.074-.65,3.242,3.242,0,0,0-2,.545,1.719,1.719,0,0,0-.715,1.436,1.646,1.646,0,0,0,.838,1.395,9.466,9.466,0,0,0,2.467,1.055,10.658,10.658,0,0,1,4.371,2.238,4.458,4.458,0,0,1,1.371,3.328,4.106,4.106,0,0,1-1.676,3.475,7.336,7.336,0,0,1-4.512,1.26,8.712,8.712,0,0,1-3.586-.721,5.674,5.674,0,0,1-2.467-1.975,5.057,5.057,0,0,1-.85-2.906h3.527q0,2.824,3.375,2.824a3.283,3.283,0,0,0,1.957-.51A1.658,1.658,0,0,0,193.757,20.523ZM203.4,25h-3.516V7.938H203.4Zm17.273-8.145a10.3,10.3,0,0,1-.891,4.418,6.707,6.707,0,0,1-2.549,2.93,7.532,7.532,0,0,1-7.588.012,6.773,6.773,0,0,1-2.578-2.912,10.005,10.005,0,0,1-.926-4.354v-.844a10.246,10.246,0,0,1,.908-4.436,6.762,6.762,0,0,1,2.566-2.941,7.521,7.521,0,0,1,7.582,0,6.762,6.762,0,0,1,2.566,2.941,10.217,10.217,0,0,1,.908,4.424Zm-3.562-.773A7.18,7.18,0,0,0,216.151,12a3.395,3.395,0,0,0-5.473-.018,7.1,7.1,0,0,0-.973,4.037v.832a7.27,7.27,0,0,0,.961,4.055,3.365,3.365,0,0,0,5.484.053,7.228,7.228,0,0,0,.961-4.049ZM237.1,25h-3.516l-6.844-11.227V25h-3.516V7.938h3.516l6.855,11.25V7.938h3.5Zm12.7-3.516h-6.164L242.472,25h-3.738l6.352-17.062h3.258L254.729,25h-3.738Zm-5.215-2.848h4.266l-2.145-6.387Zm15.246,3.539H267.3V25h-10.98V7.938h3.516Zm19.746-4.57h-6.75v4.57h7.922V25H269.319V7.938h11.414v2.848h-7.9v4.066h6.75Zm12.082,2.918a1.8,1.8,0,0,0-.7-1.529,9.222,9.222,0,0,0-2.531-1.125,17.944,17.944,0,0,1-2.895-1.166q-2.906-1.57-2.906-4.23a4.12,4.12,0,0,1,.779-2.467,5.083,5.083,0,0,1,2.238-1.693,8.425,8.425,0,0,1,3.275-.609,7.668,7.668,0,0,1,3.258.662,5.187,5.187,0,0,1,2.221,1.869,4.891,4.891,0,0,1,.791,2.742h-3.516a2.3,2.3,0,0,0-.738-1.822,3.035,3.035,0,0,0-2.074-.65,3.242,3.242,0,0,0-2,.545,1.719,1.719,0,0,0-.715,1.436,1.646,1.646,0,0,0,.838,1.395,9.466,9.466,0,0,0,2.467,1.055,10.658,10.658,0,0,1,4.371,2.238,4.458,4.458,0,0,1,1.371,3.328,4.106,4.106,0,0,1-1.676,3.475,7.336,7.336,0,0,1-4.512,1.26,8.712,8.712,0,0,1-3.586-.721,5.674,5.674,0,0,1-2.467-1.975,5.057,5.057,0,0,1-.85-2.906h3.527q0,2.824,3.375,2.824a3.283,3.283,0,0,0,1.957-.51A1.658,1.658,0,0,0,291.667,20.523Z" transform="translate(637.17 1985.628)" fill="#fff"/>
    <path id="Trazado_191191" data-name="Trazado 191191" d="M45.2,18.988V25H41.688V7.938h6.656a7.7,7.7,0,0,1,3.381.7,5.181,5.181,0,0,1,2.244,2,5.571,5.571,0,0,1,.785,2.947,4.9,4.9,0,0,1-1.717,3.955,7.15,7.15,0,0,1-4.752,1.447Zm0-2.848h3.141a3.088,3.088,0,0,0,2.127-.656,2.387,2.387,0,0,0,.732-1.875,2.814,2.814,0,0,0-.738-2.027,2.758,2.758,0,0,0-2.039-.8H45.2Zm18.281,2.613h-2.8V25H57.169V7.938h6.34a7.167,7.167,0,0,1,4.664,1.348,4.651,4.651,0,0,1,1.641,3.809,5.249,5.249,0,0,1-.756,2.912,5.155,5.155,0,0,1-2.291,1.857l3.691,6.973V25H66.684Zm-2.8-2.848H63.52a2.9,2.9,0,0,0,2.051-.674,2.408,2.408,0,0,0,.727-1.857,2.578,2.578,0,0,0-.686-1.9,2.849,2.849,0,0,0-2.1-.691H60.684Zm25.816.949a10.3,10.3,0,0,1-.891,4.418,6.707,6.707,0,0,1-2.549,2.93,7.532,7.532,0,0,1-7.588.012A6.773,6.773,0,0,1,72.9,21.3a10.005,10.005,0,0,1-.926-4.354v-.844a10.246,10.246,0,0,1,.908-4.436,6.762,6.762,0,0,1,2.566-2.941,7.521,7.521,0,0,1,7.582,0,6.762,6.762,0,0,1,2.566,2.941,10.217,10.217,0,0,1,.908,4.424Zm-3.562-.773A7.18,7.18,0,0,0,81.977,12a3.395,3.395,0,0,0-5.473-.018,7.1,7.1,0,0,0-.973,4.037v.832a7.27,7.27,0,0,0,.961,4.055,3.365,3.365,0,0,0,5.484.053,7.228,7.228,0,0,0,.961-4.049Zm19.512,3.234a6.038,6.038,0,0,1-2.033,4.336,7.141,7.141,0,0,1-4.834,1.582,6.421,6.421,0,0,1-5.162-2.209,9.058,9.058,0,0,1-1.881-6.064V15.918a10.228,10.228,0,0,1,.867-4.336,6.5,6.5,0,0,1,2.479-2.877,7.746,7.746,0,0,1,8.5.58,6.488,6.488,0,0,1,2.086,4.441H98.958a3.563,3.563,0,0,0-.92-2.4,3.407,3.407,0,0,0-2.408-.744A2.987,2.987,0,0,0,93,11.846a7.06,7.06,0,0,0-.9,3.908v1.289a7.556,7.556,0,0,0,.838,4.043,2.932,2.932,0,0,0,2.643,1.277,3.471,3.471,0,0,0,2.432-.744,3.361,3.361,0,0,0,.92-2.3Zm12.574-1.711h-6.75v4.57H116.2V25H104.759V7.938h11.414v2.848h-7.9v4.066h6.75Zm12.082,2.918a1.8,1.8,0,0,0-.7-1.529,9.222,9.222,0,0,0-2.531-1.125,17.944,17.944,0,0,1-2.895-1.166q-2.906-1.57-2.906-4.23a4.12,4.12,0,0,1,.779-2.467,5.083,5.083,0,0,1,2.238-1.693,8.425,8.425,0,0,1,3.275-.609,7.668,7.668,0,0,1,3.258.662,5.187,5.187,0,0,1,2.221,1.869,4.891,4.891,0,0,1,.791,2.742h-3.516a2.3,2.3,0,0,0-.738-1.822,3.035,3.035,0,0,0-2.074-.65,3.242,3.242,0,0,0-2,.545,1.719,1.719,0,0,0-.715,1.436,1.646,1.646,0,0,0,.838,1.395,9.466,9.466,0,0,0,2.467,1.055,10.658,10.658,0,0,1,4.371,2.238,4.458,4.458,0,0,1,1.371,3.328,4.106,4.106,0,0,1-1.676,3.475,7.336,7.336,0,0,1-4.512,1.26,8.712,8.712,0,0,1-3.586-.721,5.674,5.674,0,0,1-2.467-1.975,5.057,5.057,0,0,1-.85-2.906h3.527q0,2.824,3.375,2.824a3.283,3.283,0,0,0,1.957-.51A1.658,1.658,0,0,0,127.106,20.523Zm19.922-3.668a10.3,10.3,0,0,1-.891,4.418,6.707,6.707,0,0,1-2.549,2.93,7.532,7.532,0,0,1-7.588.012,6.773,6.773,0,0,1-2.578-2.912,10.005,10.005,0,0,1-.926-4.354v-.844a10.246,10.246,0,0,1,.908-4.436,6.762,6.762,0,0,1,2.566-2.941,7.521,7.521,0,0,1,7.582,0,6.762,6.762,0,0,1,2.566,2.941,10.217,10.217,0,0,1,.908,4.424Zm-3.562-.773A7.18,7.18,0,0,0,142.5,12a3.395,3.395,0,0,0-5.473-.018,7.1,7.1,0,0,0-.973,4.037v.832a7.27,7.27,0,0,0,.961,4.055,3.365,3.365,0,0,0,5.484.053,7.228,7.228,0,0,0,.961-4.049Zm14.965,4.441a1.8,1.8,0,0,0-.7-1.529,9.222,9.222,0,0,0-2.531-1.125A17.944,17.944,0,0,1,152.3,16.7q-2.906-1.57-2.906-4.23a4.12,4.12,0,0,1,.779-2.467,5.083,5.083,0,0,1,2.238-1.693,8.425,8.425,0,0,1,3.275-.609,7.668,7.668,0,0,1,3.258.662,5.187,5.187,0,0,1,2.221,1.869,4.891,4.891,0,0,1,.791,2.742h-3.516a2.3,2.3,0,0,0-.738-1.822,3.035,3.035,0,0,0-2.074-.65,3.242,3.242,0,0,0-2,.545,1.719,1.719,0,0,0-.715,1.436,1.646,1.646,0,0,0,.838,1.395,9.466,9.466,0,0,0,2.467,1.055,10.658,10.658,0,0,1,4.371,2.238,4.458,4.458,0,0,1,1.371,3.328,4.106,4.106,0,0,1-1.676,3.475,7.336,7.336,0,0,1-4.512,1.26,8.712,8.712,0,0,1-3.586-.721,5.674,5.674,0,0,1-2.467-1.975,5.057,5.057,0,0,1-.85-2.906H152.4q0,2.824,3.375,2.824a3.283,3.283,0,0,0,1.957-.51A1.658,1.658,0,0,0,158.431,20.523ZM170.313,25V7.938h5.25a7.973,7.973,0,0,1,4.025,1.014,7.069,7.069,0,0,1,2.771,2.883,8.892,8.892,0,0,1,1,4.248v.785a8.917,8.917,0,0,1-.979,4.23,7.008,7.008,0,0,1-2.76,2.871A8.033,8.033,0,0,1,175.6,25Zm3.516-14.215V22.176h1.7a3.818,3.818,0,0,0,3.152-1.348,6.09,6.09,0,0,0,1.113-3.855v-.9a6.187,6.187,0,0,0-1.078-3.943,3.8,3.8,0,0,0-3.152-1.342Zm22.348,6.82h-6.75v4.57h7.922V25H185.911V7.938h11.414v2.848h-7.9v4.066h6.75Zm18.844,3.879h-6.164L207.684,25h-3.738L210.3,7.938h3.258L219.942,25H216.2Zm-5.215-2.848h4.266l-2.145-6.387Zm15.246.352V25h-3.516V7.938h6.656a7.7,7.7,0,0,1,3.381.7,5.181,5.181,0,0,1,2.244,2,5.571,5.571,0,0,1,.785,2.947,4.9,4.9,0,0,1-1.717,3.955,7.15,7.15,0,0,1-4.752,1.447Zm0-2.848h3.141a3.088,3.088,0,0,0,2.127-.656,2.387,2.387,0,0,0,.732-1.875,2.814,2.814,0,0,0-.738-2.027,2.758,2.758,0,0,0-2.039-.8h-3.223Zm25.98.715a10.3,10.3,0,0,1-.891,4.418,6.707,6.707,0,0,1-2.549,2.93,7.532,7.532,0,0,1-7.588.012,6.773,6.773,0,0,1-2.578-2.912,10.005,10.005,0,0,1-.926-4.354v-.844a10.246,10.246,0,0,1,.908-4.436,6.762,6.762,0,0,1,2.566-2.941,7.521,7.521,0,0,1,7.582,0,6.762,6.762,0,0,1,2.566,2.941,10.217,10.217,0,0,1,.908,4.424Zm-3.562-.773A7.18,7.18,0,0,0,246.509,12a3.395,3.395,0,0,0-5.473-.018,7.1,7.1,0,0,0-.973,4.037v.832a7.27,7.27,0,0,0,.961,4.055,3.365,3.365,0,0,0,5.484.053,7.228,7.228,0,0,0,.961-4.049Zm11.5-.457,3.551-7.687h3.844l-5.6,10.875V25h-3.574V18.813l-5.6-10.875h3.855Zm22.629,1.23a10.3,10.3,0,0,1-.891,4.418,6.707,6.707,0,0,1-2.549,2.93,7.532,7.532,0,0,1-7.588.012,6.773,6.773,0,0,1-2.578-2.912,10.005,10.005,0,0,1-.926-4.354v-.844a10.246,10.246,0,0,1,.908-4.436,6.762,6.762,0,0,1,2.566-2.941,7.521,7.521,0,0,1,7.582,0,6.762,6.762,0,0,1,2.566,2.941,10.217,10.217,0,0,1,.908,4.424Zm-3.562-.773A7.18,7.18,0,0,0,277.071,12a3.395,3.395,0,0,0-5.473-.018,7.1,7.1,0,0,0-.973,4.037v.832a7.27,7.27,0,0,0,.961,4.055,3.365,3.365,0,0,0,5.484.053,7.228,7.228,0,0,0,.961-4.049Z" transform="translate(637.17 2080.939)" fill="#12263f"/>
    <path id="Trazado_191134" data-name="Trazado 191134" d="M748.215,1423.335,744,1416.323l-10.112-16.835-14.325-23.847a7.164,7.164,0,0,0-12.406.215l-9.224,16.635a183.183,183.183,0,0,0-180.332,35.1l15.907,18.164a159.158,159.158,0,0,1,152.544-31.833l-5.875,10.6a7.163,7.163,0,0,0,6.389,10.636l27.815-.481,13.532-.235,14.282-.247A7.164,7.164,0,0,0,748.215,1423.335Z" transform="translate(167.498 430.557)" fill="#6836bf"/>
  </g>
</svg>
