<svg xmlns="http://www.w3.org/2000/svg" width="663.678" height="233.938" viewBox="0 0 663.678 233.938">
  <g id="Grupo_132006" data-name="Grupo 132006" transform="translate(-3232.298 10419.313)">
    <path id="Trazado_191179" data-name="Trazado 191179" d="M8.4,0h72.3a8.4,8.4,0,0,1,8.4,8.4V39.735a8.4,8.4,0,0,1-8.4,8.4H8.4a8.4,8.4,0,0,1-8.4-8.4V8.4A8.4,8.4,0,0,1,8.4,0Z" transform="translate(3699.334 -10305.988)" fill="#e8e8e8"/>
    <path id="Trazado_191180" data-name="Trazado 191180" d="M8.4,0h72.3a8.4,8.4,0,0,1,8.4,8.4V39.735a8.4,8.4,0,0,1-8.4,8.4H8.4a8.4,8.4,0,0,1-8.4-8.4V8.4A8.4,8.4,0,0,1,8.4,0Z" transform="translate(3339.916 -10305.988)" fill="#e8e8e8"/>
    <path id="Trazado_191181" data-name="Trazado 191181" d="M9.423,0h93.341a9.423,9.423,0,0,1,9.423,9.423V38.709a9.423,9.423,0,0,1-9.423,9.423H9.423A9.423,9.423,0,0,1,0,38.709V9.423A9.423,9.423,0,0,1,9.423,0Z" transform="translate(3511.307 -10418.566)" fill="#e8e8e8"/>
    <path id="Trazado_191182" data-name="Trazado 191182" d="M40.579,7.421V10h-.869V3.413H42.14a2.441,2.441,0,0,1,1.694.552,1.871,1.871,0,0,1,.613,1.461,1.846,1.846,0,0,1-.6,1.477,2.55,2.55,0,0,1-1.717.518Zm0-.71H42.14a1.561,1.561,0,0,0,1.068-.329,1.2,1.2,0,0,0,.371-.949,1.241,1.241,0,0,0-.371-.943,1.462,1.462,0,0,0-1.018-.367H40.579Zm7.211-.855a2.508,2.508,0,0,0-.412-.032,1.1,1.1,0,0,0-1.117.7V10h-.837V5.105h.814l.014.565a1.3,1.3,0,0,1,1.167-.656.855.855,0,0,1,.371.063Zm.457,1.651a2.891,2.891,0,0,1,.283-1.294,2.109,2.109,0,0,1,.787-.887,2.143,2.143,0,0,1,1.151-.312,2.064,2.064,0,0,1,1.617.692A2.663,2.663,0,0,1,52.7,7.548v.059a2.916,2.916,0,0,1-.274,1.283,2.078,2.078,0,0,1-.783.884,2.167,2.167,0,0,1-1.169.317A2.059,2.059,0,0,1,48.865,9.4a2.65,2.65,0,0,1-.618-1.832Zm.841.1a2.094,2.094,0,0,0,.378,1.307,1.28,1.28,0,0,0,2.024-.007,2.29,2.29,0,0,0,.375-1.4A2.09,2.09,0,0,0,51.484,6.2a1.215,1.215,0,0,0-1.016-.5,1.2,1.2,0,0,0-1,.493A2.273,2.273,0,0,0,49.089,7.607Zm6.628,1.8a1.206,1.206,0,0,0,.783-.271.955.955,0,0,0,.371-.679h.792a1.518,1.518,0,0,1-.29.8,1.907,1.907,0,0,1-.713.606,2.056,2.056,0,0,1-.943.226,2.016,2.016,0,0,1-1.59-.667,2.658,2.658,0,0,1-.59-1.825v-.14A2.947,2.947,0,0,1,53.8,6.186a2,2,0,0,1,.753-.864,2.14,2.14,0,0,1,1.16-.308,1.963,1.963,0,0,1,1.369.493,1.762,1.762,0,0,1,.581,1.28H56.87a1.153,1.153,0,0,0-.36-.78,1.119,1.119,0,0,0-.8-.305,1.171,1.171,0,0,0-.988.459,2.157,2.157,0,0,0-.351,1.328v.158a2.114,2.114,0,0,0,.348,1.3A1.177,1.177,0,0,0,55.716,9.407Zm4.918.683a2.139,2.139,0,0,1-1.62-.654,2.426,2.426,0,0,1-.624-1.749V7.534a2.937,2.937,0,0,1,.278-1.3,2.17,2.17,0,0,1,.778-.9,1.956,1.956,0,0,1,1.083-.323,1.833,1.833,0,0,1,1.484.629,2.723,2.723,0,0,1,.529,1.8v.348H59.227a1.74,1.74,0,0,0,.423,1.169,1.33,1.33,0,0,0,1.029.446,1.458,1.458,0,0,0,.751-.181,1.887,1.887,0,0,0,.538-.48l.511.4A2.056,2.056,0,0,1,60.634,10.09ZM60.53,5.7a1.116,1.116,0,0,0-.851.369A1.792,1.792,0,0,0,59.254,7.1h2.452V7.041a1.594,1.594,0,0,0-.344-.988A1.051,1.051,0,0,0,60.53,5.7Zm5.831,3a.616.616,0,0,0-.256-.527,2.46,2.46,0,0,0-.891-.323,4.214,4.214,0,0,1-1.009-.326,1.435,1.435,0,0,1-.552-.452,1.082,1.082,0,0,1-.179-.624,1.27,1.27,0,0,1,.509-1.018,1.988,1.988,0,0,1,1.3-.416,2.045,2.045,0,0,1,1.35.43,1.365,1.365,0,0,1,.518,1.1h-.841a.756.756,0,0,0-.292-.593,1.093,1.093,0,0,0-.735-.249,1.144,1.144,0,0,0-.715.2.627.627,0,0,0-.258.52.508.508,0,0,0,.24.457,2.95,2.95,0,0,0,.866.294,4.514,4.514,0,0,1,1.016.335,1.481,1.481,0,0,1,.577.468,1.151,1.151,0,0,1,.188.667,1.253,1.253,0,0,1-.525,1.052,2.2,2.2,0,0,1-1.362.4,2.465,2.465,0,0,1-1.041-.208,1.692,1.692,0,0,1-.708-.581,1.4,1.4,0,0,1-.256-.808h.837a.867.867,0,0,0,.337.667,1.308,1.308,0,0,0,.83.247,1.35,1.35,0,0,0,.762-.192A.591.591,0,0,0,66.361,8.7Zm1.706-1.194a2.891,2.891,0,0,1,.283-1.294,2.109,2.109,0,0,1,.787-.887,2.143,2.143,0,0,1,1.151-.312,2.064,2.064,0,0,1,1.617.692,2.663,2.663,0,0,1,.618,1.841v.059a2.916,2.916,0,0,1-.274,1.283,2.078,2.078,0,0,1-.783.884,2.167,2.167,0,0,1-1.169.317A2.059,2.059,0,0,1,68.684,9.4a2.65,2.65,0,0,1-.618-1.832Zm.841.1a2.094,2.094,0,0,0,.378,1.307,1.28,1.28,0,0,0,2.024-.007,2.29,2.29,0,0,0,.375-1.4A2.09,2.09,0,0,0,71.3,6.2a1.215,1.215,0,0,0-1.016-.5,1.2,1.2,0,0,0-1,.493A2.273,2.273,0,0,0,68.908,7.607ZM31.821,19.265V12.678H33.68a2.993,2.993,0,0,1,1.52.38,2.57,2.57,0,0,1,1.02,1.081,3.519,3.519,0,0,1,.364,1.611v.421a3.532,3.532,0,0,1-.36,1.633A2.53,2.53,0,0,1,35.2,18.881a3.184,3.184,0,0,1-1.554.385Zm.869-5.877v5.166H33.6a1.988,1.988,0,0,0,1.563-.625,2.582,2.582,0,0,0,.559-1.78v-.385A2.623,2.623,0,0,0,35.2,14.02a1.876,1.876,0,0,0-1.5-.632Zm4.854,3.384a2.891,2.891,0,0,1,.283-1.294,2.109,2.109,0,0,1,.787-.887,2.143,2.143,0,0,1,1.151-.312,2.064,2.064,0,0,1,1.617.692A2.663,2.663,0,0,1,42,16.813v.059a2.916,2.916,0,0,1-.274,1.283,2.078,2.078,0,0,1-.783.884,2.167,2.167,0,0,1-1.169.317,2.059,2.059,0,0,1-1.613-.692,2.65,2.65,0,0,1-.618-1.832Zm.841.1a2.094,2.094,0,0,0,.378,1.307,1.28,1.28,0,0,0,2.024-.007,2.29,2.29,0,0,0,.375-1.4,2.09,2.09,0,0,0-.382-1.305,1.215,1.215,0,0,0-1.016-.5,1.2,1.2,0,0,0-1,.493A2.273,2.273,0,0,0,38.385,16.872Zm6.628,1.8A1.206,1.206,0,0,0,45.8,18.4a.955.955,0,0,0,.371-.679h.792a1.518,1.518,0,0,1-.29.8,1.907,1.907,0,0,1-.713.606,2.056,2.056,0,0,1-.943.226,2.016,2.016,0,0,1-1.59-.667,2.658,2.658,0,0,1-.59-1.825v-.14a2.947,2.947,0,0,1,.262-1.271,2,2,0,0,1,.753-.864,2.14,2.14,0,0,1,1.16-.308,1.963,1.963,0,0,1,1.369.493,1.762,1.762,0,0,1,.581,1.28h-.792a1.153,1.153,0,0,0-.36-.78,1.119,1.119,0,0,0-.8-.305,1.171,1.171,0,0,0-.988.459,2.157,2.157,0,0,0-.351,1.328v.158a2.114,2.114,0,0,0,.348,1.3A1.177,1.177,0,0,0,45.013,18.672Zm5.908.109a1.778,1.778,0,0,1-1.434.575,1.522,1.522,0,0,1-1.192-.455,1.968,1.968,0,0,1-.414-1.346V14.37h.837v3.162q0,1.113.9,1.113a1.253,1.253,0,0,0,1.276-.715V14.37h.837v4.895h-.8Zm2.873-4.411.023.543a1.808,1.808,0,0,1,1.452-.633,1.4,1.4,0,0,1,1.4.787,1.854,1.854,0,0,1,.636-.57,1.877,1.877,0,0,1,.925-.217q1.611,0,1.638,1.706v3.28h-.837v-3.23a1.124,1.124,0,0,0-.24-.785,1.056,1.056,0,0,0-.805-.26,1.11,1.11,0,0,0-.774.278,1.129,1.129,0,0,0-.357.749v3.248h-.841V16.058a.934.934,0,0,0-1.045-1.068,1.12,1.12,0,0,0-1.126.7v3.574H53V14.37Zm9.365,4.985a2.139,2.139,0,0,1-1.62-.654,2.426,2.426,0,0,1-.624-1.749V16.8a2.937,2.937,0,0,1,.278-1.3,2.17,2.17,0,0,1,.778-.9,1.956,1.956,0,0,1,1.083-.323,1.833,1.833,0,0,1,1.484.629,2.723,2.723,0,0,1,.529,1.8v.348H61.751a1.74,1.74,0,0,0,.423,1.169,1.33,1.33,0,0,0,1.029.446,1.458,1.458,0,0,0,.751-.181,1.887,1.887,0,0,0,.538-.48l.511.4A2.056,2.056,0,0,1,63.158,19.356Zm-.1-4.388a1.116,1.116,0,0,0-.851.369,1.792,1.792,0,0,0-.425,1.034h2.452v-.063a1.594,1.594,0,0,0-.344-.988A1.051,1.051,0,0,0,63.054,14.967Zm3.773-.6.027.615a1.784,1.784,0,0,1,1.466-.706q1.552,0,1.565,1.751v3.235h-.837V16.026a1.127,1.127,0,0,0-.242-.783.97.97,0,0,0-.74-.253,1.208,1.208,0,0,0-.715.217,1.475,1.475,0,0,0-.48.57v3.488h-.837V14.37Zm5.456-1.185V14.37H73.2v.647h-.914v3.039a.679.679,0,0,0,.122.442.514.514,0,0,0,.416.147,2.026,2.026,0,0,0,.4-.054v.675a2.44,2.44,0,0,1-.642.09,1.042,1.042,0,0,1-.846-.339,1.458,1.458,0,0,1-.285-.964V15.017h-.891V14.37h.891V13.185Zm4.913,6.08a1.758,1.758,0,0,1-.118-.516,1.867,1.867,0,0,1-1.393.606,1.728,1.728,0,0,1-1.188-.409,1.325,1.325,0,0,1-.464-1.038,1.384,1.384,0,0,1,.581-1.188,2.741,2.741,0,0,1,1.635-.423h.814v-.385a.94.94,0,0,0-.262-.7,1.055,1.055,0,0,0-.774-.26,1.22,1.22,0,0,0-.751.226.667.667,0,0,0-.3.547h-.841a1.155,1.155,0,0,1,.26-.708,1.775,1.775,0,0,1,.706-.541,2.374,2.374,0,0,1,.979-.2A1.935,1.935,0,0,1,77.4,14.7a1.526,1.526,0,0,1,.5,1.165v2.253a2.754,2.754,0,0,0,.172,1.072v.072Zm-1.389-.638a1.471,1.471,0,0,0,.746-.2,1.231,1.231,0,0,0,.511-.529v-1h-.656q-1.538,0-1.538.9a.762.762,0,0,0,.262.615A1.009,1.009,0,0,0,75.808,18.627Zm4.316.638h-.837V12.316h.837Z" transform="translate(3511.737 -10405.779)" fill="#12263f"/>
    <path id="Trazado_191183" data-name="Trazado 191183" d="M40.286,4.04h-1.8V5.391h2.108V6H37.719V1.609h2.85v.615H38.482V3.436h1.8ZM42.97,5.113a.332.332,0,0,0-.161-.3,1.716,1.716,0,0,0-.535-.181,2.752,2.752,0,0,1-.624-.2.833.833,0,0,1-.549-.769.869.869,0,0,1,.356-.706,1.407,1.407,0,0,1,.9-.284,1.464,1.464,0,0,1,.946.29.919.919,0,0,1,.36.751h-.733a.452.452,0,0,0-.157-.351.6.6,0,0,0-.416-.14.649.649,0,0,0-.394.112.352.352,0,0,0-.152.3.3.3,0,0,0,.142.262,1.949,1.949,0,0,0,.573.188,2.713,2.713,0,0,1,.677.226.959.959,0,0,1,.365.315.8.8,0,0,1,.119.446.85.85,0,0,1-.365.713,1.556,1.556,0,0,1-.956.273,1.687,1.687,0,0,1-.715-.145,1.176,1.176,0,0,1-.489-.4.942.942,0,0,1-.175-.546H41.7a.516.516,0,0,0,.2.4.762.762,0,0,0,.48.14.741.741,0,0,0,.44-.11A.341.341,0,0,0,42.97,5.113Zm2.277-3.17v.793h.576V3.28h-.576V5.1a.4.4,0,0,0,.074.27.343.343,0,0,0,.264.083,1.129,1.129,0,0,0,.256-.03v.567a1.805,1.805,0,0,1-.483.069q-.844,0-.844-.932V3.28h-.537V2.737h.537V1.943ZM48.333,6a1.131,1.131,0,0,1-.084-.3,1.233,1.233,0,0,1-1.659.084.9.9,0,0,1-.311-.694.927.927,0,0,1,.388-.8,1.878,1.878,0,0,1,1.108-.279h.449V3.792a.572.572,0,0,0-.142-.406.562.562,0,0,0-.431-.152.646.646,0,0,0-.41.125.387.387,0,0,0-.16.318h-.733a.813.813,0,0,1,.178-.5,1.185,1.185,0,0,1,.484-.366,1.7,1.7,0,0,1,.683-.133,1.369,1.369,0,0,1,.914.288,1.027,1.027,0,0,1,.35.81V5.246a1.668,1.668,0,0,0,.124.7V6Zm-.805-.528a.834.834,0,0,0,.409-.106.705.705,0,0,0,.288-.284V4.468h-.4a1.08,1.08,0,0,0-.612.142.459.459,0,0,0-.205.4.428.428,0,0,0,.14.336A.543.543,0,0,0,47.527,5.472Zm.407-4.1h.835l-.835.914-.588,0ZM51.521,6V3.28h-.5V2.737h.5v-.3a1.121,1.121,0,0,1,.3-.838,1.155,1.155,0,0,1,.844-.3,1.694,1.694,0,0,1,.41.054l-.018.573a1.444,1.444,0,0,0-.28-.024.471.471,0,0,0-.525.54v.29h.664V3.28h-.664V6Zm1.795-1.662a1.924,1.924,0,0,1,.19-.864,1.388,1.388,0,0,1,.534-.591,1.5,1.5,0,0,1,.79-.207A1.425,1.425,0,0,1,55.9,3.1a1.673,1.673,0,0,1,.445,1.128l0,.172a1.941,1.941,0,0,1-.185.863,1.371,1.371,0,0,1-.531.588,1.515,1.515,0,0,1-.8.208A1.416,1.416,0,0,1,53.73,5.6a1.762,1.762,0,0,1-.415-1.226Zm.733.063a1.315,1.315,0,0,0,.208.789.677.677,0,0,0,.579.285.669.669,0,0,0,.578-.29,1.452,1.452,0,0,0,.207-.847,1.3,1.3,0,0,0-.213-.784.717.717,0,0,0-1.148,0A1.425,1.425,0,0,0,54.048,4.4Zm4.63-1a1.814,1.814,0,0,0-.3-.024.672.672,0,0,0-.679.386V6h-.733V2.737h.7l.018.365a.826.826,0,0,1,.736-.425.686.686,0,0,1,.259.042Zm1.152-.67.021.341a1.174,1.174,0,0,1,.941-.4.9.9,0,0,1,.9.5,1.157,1.157,0,0,1,1-.5,1.017,1.017,0,0,1,.8.3,1.315,1.315,0,0,1,.27.881V6H63.03V3.877a.649.649,0,0,0-.136-.455.594.594,0,0,0-.449-.145.61.61,0,0,0-.409.134.708.708,0,0,0-.222.351l0,2.238h-.733V3.853a.523.523,0,0,0-.588-.576.645.645,0,0,0-.624.359V6h-.733V2.737ZM66.465,6a1.131,1.131,0,0,1-.084-.3,1.233,1.233,0,0,1-1.659.084.9.9,0,0,1-.311-.694.927.927,0,0,1,.388-.8,1.878,1.878,0,0,1,1.108-.279h.449V3.792a.572.572,0,0,0-.142-.406.562.562,0,0,0-.431-.152.646.646,0,0,0-.41.125.387.387,0,0,0-.16.318H64.48a.813.813,0,0,1,.178-.5,1.185,1.185,0,0,1,.484-.366,1.7,1.7,0,0,1,.683-.133,1.369,1.369,0,0,1,.914.288,1.027,1.027,0,0,1,.35.81V5.246a1.668,1.668,0,0,0,.124.7V6Zm-.805-.528a.834.834,0,0,0,.409-.106.705.705,0,0,0,.288-.284V4.468h-.4a1.08,1.08,0,0,0-.612.142.459.459,0,0,0-.205.4.428.428,0,0,0,.14.336A.543.543,0,0,0,65.66,5.472Zm2.06-1.128a1.94,1.94,0,0,1,.35-1.211,1.121,1.121,0,0,1,.938-.457,1.065,1.065,0,0,1,.838.362V1.367h.733V6h-.664l-.036-.338a1.08,1.08,0,0,1-.878.4,1.115,1.115,0,0,1-.927-.461A2.011,2.011,0,0,1,67.72,4.344Zm.733.063a1.358,1.358,0,0,0,.192.777.621.621,0,0,0,.544.279.692.692,0,0,0,.657-.4V3.669a.682.682,0,0,0-.651-.392.626.626,0,0,0-.549.282A1.513,1.513,0,0,0,68.452,4.408Zm2.754-.069a1.924,1.924,0,0,1,.19-.864,1.388,1.388,0,0,1,.534-.591,1.5,1.5,0,0,1,.79-.207,1.425,1.425,0,0,1,1.072.425,1.673,1.673,0,0,1,.445,1.128l0,.172a1.942,1.942,0,0,1-.185.863,1.371,1.371,0,0,1-.531.588,1.515,1.515,0,0,1-.8.208,1.416,1.416,0,0,1-1.105-.46,1.762,1.762,0,0,1-.415-1.226Zm.733.063a1.315,1.315,0,0,0,.208.789.677.677,0,0,0,.579.285.669.669,0,0,0,.578-.29,1.452,1.452,0,0,0,.207-.847,1.3,1.3,0,0,0-.213-.784.717.717,0,0,0-1.148,0A1.425,1.425,0,0,0,71.939,4.4ZM37.157,10.578a1.943,1.943,0,0,1-.344,1.208,1.194,1.194,0,0,1-1.782.1v1.547H34.3V8.913h.676l.03.332a1.076,1.076,0,0,1,.878-.392,1.112,1.112,0,0,1,.936.445,2,2,0,0,1,.339,1.235Zm-.73-.063a1.361,1.361,0,0,0-.195-.775.632.632,0,0,0-.556-.287.674.674,0,0,0-.645.371v1.448a.681.681,0,0,0,.651.38.632.632,0,0,0,.547-.282A1.5,1.5,0,0,0,36.427,10.515Zm1.212,0a1.924,1.924,0,0,1,.19-.864,1.388,1.388,0,0,1,.534-.591,1.5,1.5,0,0,1,.79-.207,1.425,1.425,0,0,1,1.072.425,1.673,1.673,0,0,1,.445,1.128l0,.172a1.941,1.941,0,0,1-.185.863,1.371,1.371,0,0,1-.531.588,1.515,1.515,0,0,1-.8.208,1.416,1.416,0,0,1-1.105-.46,1.762,1.762,0,0,1-.415-1.226Zm.733.063a1.315,1.315,0,0,0,.208.789.677.677,0,0,0,.579.285.669.669,0,0,0,.578-.29,1.452,1.452,0,0,0,.207-.847,1.3,1.3,0,0,0-.213-.784.717.717,0,0,0-1.148,0A1.425,1.425,0,0,0,38.372,10.578Zm4.63-1a1.814,1.814,0,0,0-.3-.024.672.672,0,0,0-.679.386v2.232h-.733V8.913h.7l.018.365a.826.826,0,0,1,.736-.425A.686.686,0,0,1,43,8.9Zm2.781,2.594H45.05V7.544h.733Zm2.748,0a1.131,1.131,0,0,1-.084-.3,1.233,1.233,0,0,1-1.659.084.9.9,0,0,1-.311-.694.927.927,0,0,1,.388-.8,1.878,1.878,0,0,1,1.108-.279h.449V9.969a.572.572,0,0,0-.142-.406.562.562,0,0,0-.431-.152.646.646,0,0,0-.41.125.387.387,0,0,0-.16.318h-.733a.813.813,0,0,1,.178-.5,1.185,1.185,0,0,1,.484-.366,1.7,1.7,0,0,1,.683-.133,1.369,1.369,0,0,1,.914.288,1.027,1.027,0,0,1,.35.81v1.472a1.668,1.668,0,0,0,.124.7v.051Zm-.805-.528a.834.834,0,0,0,.409-.106.705.705,0,0,0,.288-.284v-.615h-.4a1.08,1.08,0,0,0-.612.142.459.459,0,0,0-.205.4.428.428,0,0,0,.14.336A.543.543,0,0,0,47.725,11.649Zm4.026-.359a.332.332,0,0,0-.161-.3,1.716,1.716,0,0,0-.535-.181,2.752,2.752,0,0,1-.624-.2.833.833,0,0,1-.549-.769.869.869,0,0,1,.356-.706,1.407,1.407,0,0,1,.9-.284,1.464,1.464,0,0,1,.946.29.919.919,0,0,1,.36.751h-.733a.452.452,0,0,0-.157-.351.6.6,0,0,0-.416-.14.649.649,0,0,0-.394.112.352.352,0,0,0-.152.3.3.3,0,0,0,.142.262,1.949,1.949,0,0,0,.573.188,2.713,2.713,0,0,1,.677.226.959.959,0,0,1,.365.315.8.8,0,0,1,.119.446.85.85,0,0,1-.365.713,1.556,1.556,0,0,1-.956.273,1.687,1.687,0,0,1-.715-.145,1.176,1.176,0,0,1-.489-.4.942.942,0,0,1-.175-.546h.712a.516.516,0,0,0,.2.4.762.762,0,0,0,.48.14.741.741,0,0,0,.44-.11A.341.341,0,0,0,51.751,11.29Zm3.155.887V9.456h-.5V8.913h.5v-.3a1.121,1.121,0,0,1,.3-.838,1.155,1.155,0,0,1,.844-.3,1.694,1.694,0,0,1,.41.054l-.018.573a1.443,1.443,0,0,0-.28-.024.471.471,0,0,0-.525.54v.29H56.3v.543h-.664v2.72Zm3.882,0a1.131,1.131,0,0,1-.084-.3,1.233,1.233,0,0,1-1.659.084.9.9,0,0,1-.311-.694.927.927,0,0,1,.388-.8,1.878,1.878,0,0,1,1.108-.279h.449V9.969a.572.572,0,0,0-.142-.406.562.562,0,0,0-.431-.152.646.646,0,0,0-.41.125.387.387,0,0,0-.16.318H56.8a.813.813,0,0,1,.178-.5,1.185,1.185,0,0,1,.484-.366,1.7,1.7,0,0,1,.683-.133,1.369,1.369,0,0,1,.914.288,1.027,1.027,0,0,1,.35.81v1.472a1.668,1.668,0,0,0,.124.7v.051Zm-.805-.528a.834.834,0,0,0,.409-.106.705.705,0,0,0,.288-.284v-.615h-.4a1.08,1.08,0,0,0-.612.142.459.459,0,0,0-.205.4.428.428,0,0,0,.14.336A.543.543,0,0,0,57.982,11.649Zm4.026-.359a.332.332,0,0,0-.161-.3,1.716,1.716,0,0,0-.535-.181,2.752,2.752,0,0,1-.624-.2.833.833,0,0,1-.549-.769.869.869,0,0,1,.356-.706,1.407,1.407,0,0,1,.9-.284,1.464,1.464,0,0,1,.946.29.919.919,0,0,1,.36.751h-.733a.452.452,0,0,0-.157-.351A.6.6,0,0,0,61.4,9.4a.649.649,0,0,0-.394.112.352.352,0,0,0-.152.3.3.3,0,0,0,.142.262,1.949,1.949,0,0,0,.573.188,2.713,2.713,0,0,1,.677.226.959.959,0,0,1,.365.315.8.8,0,0,1,.119.446.85.85,0,0,1-.365.713,1.556,1.556,0,0,1-.956.273,1.687,1.687,0,0,1-.715-.145,1.176,1.176,0,0,1-.489-.4.942.942,0,0,1-.175-.546h.712a.516.516,0,0,0,.2.4.762.762,0,0,0,.48.14.741.741,0,0,0,.44-.11A.341.341,0,0,0,62.009,11.29Zm2.8.947a1.516,1.516,0,0,1-1.129-.439,1.592,1.592,0,0,1-.433-1.169v-.09a1.958,1.958,0,0,1,.188-.873,1.435,1.435,0,0,1,.529-.6,1.4,1.4,0,0,1,.76-.214,1.281,1.281,0,0,1,1.03.425,1.8,1.8,0,0,1,.363,1.2v.3H63.981a.98.98,0,0,0,.27.639.81.81,0,0,0,.6.235.992.992,0,0,0,.82-.407l.4.377a1.319,1.319,0,0,1-.523.454A1.638,1.638,0,0,1,64.8,12.237Zm-.087-2.8a.617.617,0,0,0-.487.211,1.094,1.094,0,0,0-.237.588h1.4v-.054a.891.891,0,0,0-.2-.556A.612.612,0,0,0,64.717,9.441Zm3.794,1.849a.332.332,0,0,0-.161-.3,1.716,1.716,0,0,0-.535-.181,2.752,2.752,0,0,1-.624-.2.833.833,0,0,1-.549-.769A.869.869,0,0,1,67,9.137a1.407,1.407,0,0,1,.9-.284,1.464,1.464,0,0,1,.946.29.919.919,0,0,1,.36.751h-.733a.452.452,0,0,0-.157-.351A.6.6,0,0,0,67.9,9.4a.649.649,0,0,0-.394.112.352.352,0,0,0-.152.3.3.3,0,0,0,.142.262,1.949,1.949,0,0,0,.573.188,2.713,2.713,0,0,1,.677.226.959.959,0,0,1,.365.315.8.8,0,0,1,.119.446.85.85,0,0,1-.365.713,1.556,1.556,0,0,1-.956.273,1.687,1.687,0,0,1-.715-.145,1.176,1.176,0,0,1-.489-.4.942.942,0,0,1-.175-.546h.712a.516.516,0,0,0,.2.4.762.762,0,0,0,.48.14.741.741,0,0,0,.44-.11A.341.341,0,0,0,68.511,11.29Zm2.76-.769a1.94,1.94,0,0,1,.35-1.211,1.121,1.121,0,0,1,.938-.457,1.065,1.065,0,0,1,.838.362V7.544h.733v4.633h-.664l-.036-.338a1.08,1.08,0,0,1-.878.4,1.115,1.115,0,0,1-.927-.461A2.011,2.011,0,0,1,71.271,10.521Zm.733.063a1.358,1.358,0,0,0,.192.777.621.621,0,0,0,.544.279.692.692,0,0,0,.657-.4V9.845a.682.682,0,0,0-.651-.392.626.626,0,0,0-.549.282A1.513,1.513,0,0,0,72,10.584Zm4.328,1.653A1.516,1.516,0,0,1,75.2,11.8a1.592,1.592,0,0,1-.433-1.169v-.09a1.958,1.958,0,0,1,.188-.873,1.435,1.435,0,0,1,.529-.6,1.4,1.4,0,0,1,.76-.214,1.281,1.281,0,0,1,1.03.425,1.8,1.8,0,0,1,.363,1.2v.3H75.508a.98.98,0,0,0,.27.639.81.81,0,0,0,.6.235.992.992,0,0,0,.82-.407l.4.377a1.319,1.319,0,0,1-.523.454A1.638,1.638,0,0,1,76.332,12.237Zm-.087-2.8a.617.617,0,0,0-.487.211,1.094,1.094,0,0,0-.237.588h1.4v-.054a.891.891,0,0,0-.2-.556A.612.612,0,0,0,76.244,9.441Z" transform="translate(3511.737 -10354.256)" fill="#6836bf"/>
    <path id="Trazado_191184" data-name="Trazado 191184" d="M8.4,0h72.3a8.4,8.4,0,0,1,8.4,8.4V39.735a8.4,8.4,0,0,1-8.4,8.4H8.4a8.4,8.4,0,0,1-8.4-8.4V8.4A8.4,8.4,0,0,1,8.4,0Z" transform="translate(3522.792 -10305.988)" fill="#e8e8e8"/>
    <path id="Trazado_191185" data-name="Trazado 191185" d="M43.495,6.919a4.075,4.075,0,0,1-.326,1.69,2.467,2.467,0,0,1-.923,1.1,2.547,2.547,0,0,1-3.707-1.093,3.91,3.91,0,0,1-.342-1.64V6.5a4.026,4.026,0,0,1,.33-1.678,2.442,2.442,0,0,1,2.316-1.5,2.553,2.553,0,0,1,1.4.382,2.463,2.463,0,0,1,.93,1.108,4.094,4.094,0,0,1,.326,1.69Zm-.864-.425a2.953,2.953,0,0,0-.47-1.8,1.552,1.552,0,0,0-1.316-.627,1.535,1.535,0,0,0-1.3.627,2.893,2.893,0,0,0-.486,1.739v.484A2.958,2.958,0,0,0,39.539,8.7a1.673,1.673,0,0,0,2.617.036,2.941,2.941,0,0,0,.475-1.758ZM48.8,7.607a2.931,2.931,0,0,1-.511,1.8,1.638,1.638,0,0,1-1.384.683,1.8,1.8,0,0,1-1.4-.565v2.357h-.837V5.105h.765l.041.543a1.724,1.724,0,0,1,1.421-.633,1.669,1.669,0,0,1,1.4.665A2.963,2.963,0,0,1,48.8,7.53Zm-.837-.1A2.163,2.163,0,0,0,47.612,6.2a1.137,1.137,0,0,0-.968-.48A1.23,1.23,0,0,0,45.5,6.4V8.738a1.233,1.233,0,0,0,1.149.67,1.131,1.131,0,0,0,.957-.477A2.361,2.361,0,0,0,47.965,7.512Zm3.863,1.9a1.206,1.206,0,0,0,.783-.271.955.955,0,0,0,.371-.679h.792a1.518,1.518,0,0,1-.29.8,1.907,1.907,0,0,1-.713.606,2.056,2.056,0,0,1-.943.226,2.016,2.016,0,0,1-1.59-.667,2.658,2.658,0,0,1-.59-1.825v-.14a2.947,2.947,0,0,1,.262-1.271,2,2,0,0,1,.753-.864,2.14,2.14,0,0,1,1.16-.308,1.963,1.963,0,0,1,1.369.493,1.762,1.762,0,0,1,.581,1.28h-.792a1.153,1.153,0,0,0-.36-.78,1.119,1.119,0,0,0-.8-.305,1.171,1.171,0,0,0-.988.459,2.157,2.157,0,0,0-.351,1.328v.158a2.114,2.114,0,0,0,.348,1.3A1.177,1.177,0,0,0,51.828,9.407Zm3.8.593h-.837V5.105h.837Zm-.9-6.193a.5.5,0,0,1,.124-.344.467.467,0,0,1,.369-.14.474.474,0,0,1,.371.14.494.494,0,0,1,.127.344.478.478,0,0,1-.127.339.483.483,0,0,1-.371.136.475.475,0,0,1-.369-.136A.483.483,0,0,1,54.719,3.807Zm2.022,3.7a2.891,2.891,0,0,1,.283-1.294,2.109,2.109,0,0,1,.787-.887,2.143,2.143,0,0,1,1.151-.312,2.064,2.064,0,0,1,1.617.692A2.663,2.663,0,0,1,61.2,7.548v.059a2.916,2.916,0,0,1-.274,1.283,2.078,2.078,0,0,1-.783.884,2.167,2.167,0,0,1-1.169.317A2.059,2.059,0,0,1,57.359,9.4a2.65,2.65,0,0,1-.618-1.832Zm.841.1a2.094,2.094,0,0,0,.378,1.307,1.28,1.28,0,0,0,2.024-.007,2.29,2.29,0,0,0,.375-1.4A2.09,2.09,0,0,0,59.978,6.2a1.215,1.215,0,0,0-1.016-.5,1.2,1.2,0,0,0-1,.493A2.273,2.273,0,0,0,57.583,7.607Zm1.76-4.556h1.013l-1.212,1.33-.674,0Zm3.7,2.054.027.615a1.784,1.784,0,0,1,1.466-.706q1.552,0,1.565,1.751V10H65.26V6.761a1.127,1.127,0,0,0-.242-.783.97.97,0,0,0-.74-.253,1.208,1.208,0,0,0-.715.217,1.475,1.475,0,0,0-.48.57V10h-.837V5.105ZM73.883,10H69.567V9.4l2.28-2.533a5.417,5.417,0,0,0,.7-.934,1.559,1.559,0,0,0,.192-.744,1.182,1.182,0,0,0-.312-.846,1.091,1.091,0,0,0-.832-.33,1.293,1.293,0,0,0-.97.355,1.357,1.357,0,0,0-.346.988H69.44a1.943,1.943,0,0,1,.586-1.47,2.172,2.172,0,0,1,1.568-.561,2.087,2.087,0,0,1,1.452.482,1.643,1.643,0,0,1,.534,1.283A3.768,3.768,0,0,1,72.34,7.4L70.576,9.317h3.307Z" transform="translate(3511.673 -10288.134)" fill="#12263f"/>
    <path id="Trazado_191186" data-name="Trazado 191186" d="M43.495,6.919a4.075,4.075,0,0,1-.326,1.69,2.467,2.467,0,0,1-.923,1.1,2.547,2.547,0,0,1-3.707-1.093,3.91,3.91,0,0,1-.342-1.64V6.5a4.026,4.026,0,0,1,.33-1.678,2.442,2.442,0,0,1,2.316-1.5,2.553,2.553,0,0,1,1.4.382,2.463,2.463,0,0,1,.93,1.108,4.094,4.094,0,0,1,.326,1.69Zm-.864-.425a2.953,2.953,0,0,0-.47-1.8,1.552,1.552,0,0,0-1.316-.627,1.535,1.535,0,0,0-1.3.627,2.893,2.893,0,0,0-.486,1.739v.484A2.958,2.958,0,0,0,39.539,8.7a1.673,1.673,0,0,0,2.617.036,2.941,2.941,0,0,0,.475-1.758ZM48.8,7.607a2.931,2.931,0,0,1-.511,1.8,1.638,1.638,0,0,1-1.384.683,1.8,1.8,0,0,1-1.4-.565v2.357h-.837V5.105h.765l.041.543a1.724,1.724,0,0,1,1.421-.633,1.669,1.669,0,0,1,1.4.665A2.963,2.963,0,0,1,48.8,7.53Zm-.837-.1A2.163,2.163,0,0,0,47.612,6.2a1.137,1.137,0,0,0-.968-.48A1.23,1.23,0,0,0,45.5,6.4V8.738a1.233,1.233,0,0,0,1.149.67,1.131,1.131,0,0,0,.957-.477A2.361,2.361,0,0,0,47.965,7.512Zm3.863,1.9a1.206,1.206,0,0,0,.783-.271.955.955,0,0,0,.371-.679h.792a1.518,1.518,0,0,1-.29.8,1.907,1.907,0,0,1-.713.606,2.056,2.056,0,0,1-.943.226,2.016,2.016,0,0,1-1.59-.667,2.658,2.658,0,0,1-.59-1.825v-.14a2.947,2.947,0,0,1,.262-1.271,2,2,0,0,1,.753-.864,2.14,2.14,0,0,1,1.16-.308,1.963,1.963,0,0,1,1.369.493,1.762,1.762,0,0,1,.581,1.28h-.792a1.153,1.153,0,0,0-.36-.78,1.119,1.119,0,0,0-.8-.305,1.171,1.171,0,0,0-.988.459,2.157,2.157,0,0,0-.351,1.328v.158a2.114,2.114,0,0,0,.348,1.3A1.177,1.177,0,0,0,51.828,9.407Zm3.8.593h-.837V5.105h.837Zm-.9-6.193a.5.5,0,0,1,.124-.344.467.467,0,0,1,.369-.14.474.474,0,0,1,.371.14.494.494,0,0,1,.127.344.478.478,0,0,1-.127.339.483.483,0,0,1-.371.136.475.475,0,0,1-.369-.136A.483.483,0,0,1,54.719,3.807Zm2.022,3.7a2.891,2.891,0,0,1,.283-1.294,2.109,2.109,0,0,1,.787-.887,2.143,2.143,0,0,1,1.151-.312,2.064,2.064,0,0,1,1.617.692A2.663,2.663,0,0,1,61.2,7.548v.059a2.916,2.916,0,0,1-.274,1.283,2.078,2.078,0,0,1-.783.884,2.167,2.167,0,0,1-1.169.317A2.059,2.059,0,0,1,57.359,9.4a2.65,2.65,0,0,1-.618-1.832Zm.841.1a2.094,2.094,0,0,0,.378,1.307,1.28,1.28,0,0,0,2.024-.007,2.29,2.29,0,0,0,.375-1.4A2.09,2.09,0,0,0,59.978,6.2a1.215,1.215,0,0,0-1.016-.5,1.2,1.2,0,0,0-1,.493A2.273,2.273,0,0,0,57.583,7.607Zm1.76-4.556h1.013l-1.212,1.33-.674,0Zm3.7,2.054.027.615a1.784,1.784,0,0,1,1.466-.706q1.552,0,1.565,1.751V10H65.26V6.761a1.127,1.127,0,0,0-.242-.783.97.97,0,0,0-.74-.253,1.208,1.208,0,0,0-.715.217,1.475,1.475,0,0,0-.48.57V10h-.837V5.105ZM70.784,6.3h.629a1.382,1.382,0,0,0,.932-.312,1.043,1.043,0,0,0,.339-.819A1.022,1.022,0,0,0,71.53,4.01a1.2,1.2,0,0,0-.866.31,1.085,1.085,0,0,0-.323.821H69.5a1.68,1.68,0,0,1,.572-1.3,2.085,2.085,0,0,1,1.454-.518,2.06,2.06,0,0,1,1.461.493,1.781,1.781,0,0,1,.529,1.371,1.446,1.446,0,0,1-.278.832,1.68,1.68,0,0,1-.758.6,1.619,1.619,0,0,1,.839.57,1.583,1.583,0,0,1,.3.973,1.8,1.8,0,0,1-.579,1.407,2.168,2.168,0,0,1-1.506.52,2.226,2.226,0,0,1-1.509-.5,1.666,1.666,0,0,1-.581-1.326h.841a1.077,1.077,0,0,0,.339.832,1.291,1.291,0,0,0,.909.312,1.266,1.266,0,0,0,.927-.317,1.22,1.22,0,0,0,.321-.909A1.107,1.107,0,0,0,72.43,7.3a1.537,1.537,0,0,0-1.018-.317h-.629Z" transform="translate(3688.151 -10287.493)" fill="#12263f"/>
    <path id="Trazado_191187" data-name="Trazado 191187" d="M43.495,6.919a4.075,4.075,0,0,1-.326,1.69,2.467,2.467,0,0,1-.923,1.1,2.547,2.547,0,0,1-3.707-1.093,3.91,3.91,0,0,1-.342-1.64V6.5a4.026,4.026,0,0,1,.33-1.678,2.442,2.442,0,0,1,2.316-1.5,2.553,2.553,0,0,1,1.4.382,2.463,2.463,0,0,1,.93,1.108,4.094,4.094,0,0,1,.326,1.69Zm-.864-.425a2.953,2.953,0,0,0-.47-1.8,1.552,1.552,0,0,0-1.316-.627,1.535,1.535,0,0,0-1.3.627,2.893,2.893,0,0,0-.486,1.739v.484A2.958,2.958,0,0,0,39.539,8.7a1.673,1.673,0,0,0,2.617.036,2.941,2.941,0,0,0,.475-1.758ZM48.8,7.607a2.931,2.931,0,0,1-.511,1.8,1.638,1.638,0,0,1-1.384.683,1.8,1.8,0,0,1-1.4-.565v2.357h-.837V5.105h.765l.041.543a1.724,1.724,0,0,1,1.421-.633,1.669,1.669,0,0,1,1.4.665A2.963,2.963,0,0,1,48.8,7.53Zm-.837-.1A2.163,2.163,0,0,0,47.612,6.2a1.137,1.137,0,0,0-.968-.48A1.23,1.23,0,0,0,45.5,6.4V8.738a1.233,1.233,0,0,0,1.149.67,1.131,1.131,0,0,0,.957-.477A2.361,2.361,0,0,0,47.965,7.512Zm3.863,1.9a1.206,1.206,0,0,0,.783-.271.955.955,0,0,0,.371-.679h.792a1.518,1.518,0,0,1-.29.8,1.907,1.907,0,0,1-.713.606,2.056,2.056,0,0,1-.943.226,2.016,2.016,0,0,1-1.59-.667,2.658,2.658,0,0,1-.59-1.825v-.14a2.947,2.947,0,0,1,.262-1.271,2,2,0,0,1,.753-.864,2.14,2.14,0,0,1,1.16-.308,1.963,1.963,0,0,1,1.369.493,1.762,1.762,0,0,1,.581,1.28h-.792a1.153,1.153,0,0,0-.36-.78,1.119,1.119,0,0,0-.8-.305,1.171,1.171,0,0,0-.988.459,2.157,2.157,0,0,0-.351,1.328v.158a2.114,2.114,0,0,0,.348,1.3A1.177,1.177,0,0,0,51.828,9.407Zm3.8.593h-.837V5.105h.837Zm-.9-6.193a.5.5,0,0,1,.124-.344.467.467,0,0,1,.369-.14.474.474,0,0,1,.371.14.494.494,0,0,1,.127.344.478.478,0,0,1-.127.339.483.483,0,0,1-.371.136.475.475,0,0,1-.369-.136A.483.483,0,0,1,54.719,3.807Zm2.022,3.7a2.891,2.891,0,0,1,.283-1.294,2.109,2.109,0,0,1,.787-.887,2.143,2.143,0,0,1,1.151-.312,2.064,2.064,0,0,1,1.617.692A2.663,2.663,0,0,1,61.2,7.548v.059a2.916,2.916,0,0,1-.274,1.283,2.078,2.078,0,0,1-.783.884,2.167,2.167,0,0,1-1.169.317A2.059,2.059,0,0,1,57.359,9.4a2.65,2.65,0,0,1-.618-1.832Zm.841.1a2.094,2.094,0,0,0,.378,1.307,1.28,1.28,0,0,0,2.024-.007,2.29,2.29,0,0,0,.375-1.4A2.09,2.09,0,0,0,59.978,6.2a1.215,1.215,0,0,0-1.016-.5,1.2,1.2,0,0,0-1,.493A2.273,2.273,0,0,0,57.583,7.607Zm1.76-4.556h1.013l-1.212,1.33-.674,0Zm3.7,2.054.027.615a1.784,1.784,0,0,1,1.466-.706q1.552,0,1.565,1.751V10H65.26V6.761a1.127,1.127,0,0,0-.242-.783.97.97,0,0,0-.74-.253,1.208,1.208,0,0,0-.715.217,1.475,1.475,0,0,0-.48.57V10h-.837V5.105ZM72.317,10h-.841V4.422l-1.687.62v-.76l2.4-.9h.131Z" transform="translate(3328.796 -10287.682)" fill="#12263f"/>
    <g id="Grupo_129576" data-name="Grupo 129576" transform="translate(1428.917 -12638.389)">
      <g id="Grupo_129575" data-name="Grupo 129575">
        <path id="Trazado_190556" data-name="Trazado 190556" d="M1955.822,2319.409v-7.1h359.14" fill="none" stroke="#b13e8d" stroke-linecap="round" stroke-linejoin="round" stroke-width="0.747"/>
        <g id="Grupo_129574" data-name="Grupo 129574">
          <path id="Trazado_190557" data-name="Trazado 190557" d="M1958.588,2317.311l-2.766,1.175-2.766-1.175,2.766,6.556Z" fill="#b13e8d"/>
        </g>
      </g>
    </g>
    <g id="Grupo_129579" data-name="Grupo 129579" transform="translate(1428.917 -12638.389)">
      <g id="Grupo_129578" data-name="Grupo 129578">
        <line id="Línea_415" data-name="Línea 415" y1="7.104" transform="translate(2138.452 2312.305)" fill="none" stroke="#b13e8d" stroke-miterlimit="10" stroke-width="0.747"/>
        <g id="Grupo_129577" data-name="Grupo 129577">
          <path id="Trazado_190558" data-name="Trazado 190558" d="M2141.218,2317.311l-2.766,1.175-2.766-1.175,2.766,6.556Z" fill="#b13e8d"/>
        </g>
      </g>
    </g>
    <g id="Grupo_129583" data-name="Grupo 129583" transform="translate(1428.917 -12638.389)">
      <g id="Grupo_129582" data-name="Grupo 129582">
        <g id="Grupo_129581" data-name="Grupo 129581">
          <line id="Línea_416" data-name="Línea 416" y1="7.104" transform="translate(2314.962 2312.305)" fill="none" stroke="#b13e8d" stroke-linecap="round" stroke-linejoin="round" stroke-width="0.747"/>
          <g id="Grupo_129580" data-name="Grupo 129580">
            <path id="Trazado_190559" data-name="Trazado 190559" d="M2317.728,2317.311l-2.766,1.175-2.766-1.175,2.766,6.556Z" fill="#b13e8d"/>
          </g>
        </g>
      </g>
    </g>
    <path id="Trazado_191188" data-name="Trazado 191188" d="M0,0V14.047" transform="translate(3567.894 -10370.434)" fill="none" stroke="#b13e8d" stroke-width="0.747"/>
    <path id="Trazado_191189" data-name="Trazado 191189" d="M0,12.852V0" transform="translate(3567.401 -10338.936)" fill="none" stroke="#b13e8d" stroke-width="0.747"/>
    <path id="Trazado_191190" data-name="Trazado 191190" d="M8.4,0h72.3a8.4,8.4,0,0,1,8.4,8.4V39.735a8.4,8.4,0,0,1-8.4,8.4H8.4a8.4,8.4,0,0,1-8.4-8.4V8.4A8.4,8.4,0,0,1,8.4,0Z" transform="translate(3339.916 -10234.254)" fill="#e8e8e8"/>
    <path id="Trazado_191191" data-name="Trazado 191191" d="M58.2,10H53.889V9.4l2.28-2.533a5.417,5.417,0,0,0,.7-.934,1.559,1.559,0,0,0,.192-.744,1.182,1.182,0,0,0-.312-.846,1.091,1.091,0,0,0-.832-.33,1.293,1.293,0,0,0-.97.355,1.357,1.357,0,0,0-.346.988h-.837a1.943,1.943,0,0,1,.586-1.47,2.172,2.172,0,0,1,1.568-.561,2.087,2.087,0,0,1,1.452.482A1.643,1.643,0,0,1,57.9,5.087,3.768,3.768,0,0,1,56.662,7.4L54.9,9.317H58.2Z" transform="translate(3328.796 -10215.947)" fill="#12263f"/>
    <path id="Trazado_191192" data-name="Trazado 191192" d="M8.4,0h72.3a8.4,8.4,0,0,1,8.4,8.4V39.735a8.4,8.4,0,0,1-8.4,8.4H8.4a8.4,8.4,0,0,1-8.4-8.4V8.4A8.4,8.4,0,0,1,8.4,0Z" transform="translate(3233.045 -10234.254)" fill="#e8e8e8"/>
    <path id="Trazado_191193" data-name="Trazado 191193" d="M56.639,10H55.8V4.422l-1.687.62v-.76l2.4-.9h.131Z" transform="translate(3221.926 -10215.947)" fill="#12263f"/>
    <path id="Trazado_191194" data-name="Trazado 191194" d="M8.4,0h72.3a8.4,8.4,0,0,1,8.4,8.4V39.735a8.4,8.4,0,0,1-8.4,8.4H8.4a8.4,8.4,0,0,1-8.4-8.4V8.4A8.4,8.4,0,0,1,8.4,0Z" transform="translate(3806.141 -10234.254)" fill="#e8e8e8"/>
    <path id="Trazado_191195" data-name="Trazado 191195" d="M57.173,3.409v.71h-.154a2.2,2.2,0,0,0-1.556.579,2.41,2.41,0,0,0-.67,1.579,1.786,1.786,0,0,1,1.421-.6,1.708,1.708,0,0,1,1.373.606A2.338,2.338,0,0,1,58.1,7.851a2.331,2.331,0,0,1-.554,1.629,1.908,1.908,0,0,1-1.486.611,1.88,1.88,0,0,1-1.534-.726,2.878,2.878,0,0,1-.588-1.871V7.173a4.336,4.336,0,0,1,.776-2.78,2.849,2.849,0,0,1,2.309-.984Zm-1.1,2.968a1.407,1.407,0,0,0-1.294.9v.308A2.161,2.161,0,0,0,55.146,8.9a1.1,1.1,0,0,0,.914.5,1.064,1.064,0,0,0,.889-.416,1.727,1.727,0,0,0,.323-1.09,1.728,1.728,0,0,0-.328-1.1A1.051,1.051,0,0,0,56.074,6.376Z" transform="translate(3795.021 -10215.947)" fill="#12263f"/>
    <path id="Trazado_191196" data-name="Trazado 191196" d="M8.4,0h72.3a8.4,8.4,0,0,1,8.4,8.4V39.735a8.4,8.4,0,0,1-8.4,8.4H8.4a8.4,8.4,0,0,1-8.4-8.4V8.4A8.4,8.4,0,0,1,8.4,0Z" transform="translate(3699.27 -10234.254)" fill="#e8e8e8"/>
    <path id="Trazado_191197" data-name="Trazado 191197" d="M54.273,6.7l.335-3.284h3.375v.774H55.318l-.2,1.8a2.126,2.126,0,0,1,1.1-.285,1.817,1.817,0,0,1,1.43.595A2.332,2.332,0,0,1,58.178,7.9a2.25,2.25,0,0,1-.55,1.6,2,2,0,0,1-1.536.586,2.082,2.082,0,0,1-1.425-.484,1.932,1.932,0,0,1-.629-1.339h.792a1.329,1.329,0,0,0,.4.853,1.252,1.252,0,0,0,.86.287,1.129,1.129,0,0,0,.916-.4,1.664,1.664,0,0,0,.333-1.1,1.528,1.528,0,0,0-.36-1.061,1.223,1.223,0,0,0-.957-.4,1.38,1.38,0,0,0-.86.24l-.222.181Z" transform="translate(3688.151 -10215.947)" fill="#12263f"/>
    <path id="Trazado_191198" data-name="Trazado 191198" d="M8.4,0h72.3a8.4,8.4,0,0,1,8.4,8.4V39.735a8.4,8.4,0,0,1-8.4,8.4H8.4a8.4,8.4,0,0,1-8.4-8.4V8.4A8.4,8.4,0,0,1,8.4,0Z" transform="translate(3572.921 -10234.254)" fill="#e8e8e8"/>
    <path id="Trazado_191199" data-name="Trazado 191199" d="M57.422,7.788h.914v.683h-.914V10h-.841V8.471h-3V7.978l2.95-4.565h.891Zm-2.891,0h2.049V4.558l-.1.181Z" transform="translate(3561.801 -10215.947)" fill="#12263f"/>
    <path id="Trazado_191200" data-name="Trazado 191200" d="M8.4,0h72.3a8.4,8.4,0,0,1,8.4,8.4V39.735a8.4,8.4,0,0,1-8.4,8.4H8.4a8.4,8.4,0,0,1-8.4-8.4V8.4A8.4,8.4,0,0,1,8.4,0Z" transform="translate(3466.05 -10234.254)" fill="#e8e8e8"/>
    <path id="Trazado_191201" data-name="Trazado 191201" d="M55.106,6.3h.629a1.382,1.382,0,0,0,.932-.312,1.043,1.043,0,0,0,.339-.819A1.022,1.022,0,0,0,55.852,4.01a1.2,1.2,0,0,0-.866.31,1.085,1.085,0,0,0-.323.821h-.837a1.68,1.68,0,0,1,.572-1.3,2.085,2.085,0,0,1,1.454-.518,2.06,2.06,0,0,1,1.461.493,1.781,1.781,0,0,1,.529,1.371,1.446,1.446,0,0,1-.278.832,1.68,1.68,0,0,1-.758.6,1.619,1.619,0,0,1,.839.57,1.583,1.583,0,0,1,.3.973,1.8,1.8,0,0,1-.579,1.407,2.168,2.168,0,0,1-1.506.52,2.226,2.226,0,0,1-1.509-.5,1.666,1.666,0,0,1-.581-1.326h.841a1.077,1.077,0,0,0,.339.832,1.291,1.291,0,0,0,.909.312,1.266,1.266,0,0,0,.927-.317,1.22,1.22,0,0,0,.321-.909,1.107,1.107,0,0,0-.353-.882,1.537,1.537,0,0,0-1.018-.317h-.629Z" transform="translate(3454.931 -10215.947)" fill="#12263f"/>
    <g id="Grupo_129585" data-name="Grupo 129585" transform="translate(1428.917 -12638.389)">
      <path id="Trazado_190560" data-name="Trazado 190560" d="M1911,2356.467h-62.047v35.758" fill="none" stroke="#b13e8d" stroke-miterlimit="10" stroke-width="0.747"/>
      <g id="Grupo_129584" data-name="Grupo 129584">
        <path id="Trazado_190561" data-name="Trazado 190561" d="M1846.186,2390.127l2.766,1.175,2.766-1.175-2.766,6.556Z" fill="#b13e8d"/>
      </g>
    </g>
    <g id="Grupo_129587" data-name="Grupo 129587" transform="translate(1428.917 -12638.389)">
      <line id="Línea_419" data-name="Línea 419" y2="11.692" transform="translate(1955.544 2380.533)" fill="none" stroke="#b13e8d" stroke-linecap="round" stroke-linejoin="round" stroke-width="0.747"/>
      <g id="Grupo_129586" data-name="Grupo 129586">
        <path id="Trazado_190562" data-name="Trazado 190562" d="M1952.778,2390.127l2.766,1.175,2.766-1.175-2.766,6.556Z" fill="#b13e8d"/>
      </g>
    </g>
    <g id="Grupo_129589" data-name="Grupo 129589" transform="translate(1428.917 -12638.389)">
      <path id="Trazado_190563" data-name="Trazado 190563" d="M2093.875,2356.467h-14.389v35.758" fill="none" stroke="#b13e8d" stroke-linecap="round" stroke-linejoin="round" stroke-width="0.747"/>
      <g id="Grupo_129588" data-name="Grupo 129588">
        <path id="Trazado_190564" data-name="Trazado 190564" d="M2076.721,2390.127l2.766,1.175,2.766-1.175-2.766,6.556Z" fill="#b13e8d"/>
      </g>
    </g>
    <g id="Grupo_129591" data-name="Grupo 129591" transform="translate(1428.917 -12638.389)">
      <path id="Trazado_190565" data-name="Trazado 190565" d="M2181.633,2356.467h14.389v35.758" fill="none" stroke="#b13e8d" stroke-linecap="round" stroke-linejoin="round" stroke-width="0.747"/>
      <g id="Grupo_129590" data-name="Grupo 129590">
        <path id="Trazado_190566" data-name="Trazado 190566" d="M2193.256,2390.127l2.766,1.175,2.766-1.175-2.766,6.556Z" fill="#b13e8d"/>
      </g>
    </g>
    <g id="Grupo_129593" data-name="Grupo 129593" transform="translate(1428.917 -12638.389)">
      <path id="Trazado_190567" data-name="Trazado 190567" d="M1911,2356.467h-62.047v35.758" fill="none" stroke="#b13e8d" stroke-miterlimit="10" stroke-width="0.747"/>
      <g id="Grupo_129592" data-name="Grupo 129592">
        <path id="Trazado_190568" data-name="Trazado 190568" d="M1846.186,2390.127l2.766,1.175,2.766-1.175-2.766,6.556Z" fill="#b13e8d"/>
      </g>
    </g>
    <g id="Grupo_129595" data-name="Grupo 129595" transform="translate(1428.917 -12638.389)">
      <line id="Línea_420" data-name="Línea 420" y2="11.692" transform="translate(1955.544 2380.533)" fill="none" stroke="#b13e8d" stroke-linecap="round" stroke-linejoin="round" stroke-width="0.747"/>
      <g id="Grupo_129594" data-name="Grupo 129594">
        <path id="Trazado_190569" data-name="Trazado 190569" d="M1952.778,2390.127l2.766,1.175,2.766-1.175-2.766,6.556Z" fill="#b13e8d"/>
      </g>
    </g>
    <g id="Grupo_129597" data-name="Grupo 129597" transform="translate(1428.917 -12638.389)">
      <path id="Trazado_190570" data-name="Trazado 190570" d="M2359.722,2356.467h62.047v35.758" fill="none" stroke="#b13e8d" stroke-miterlimit="10" stroke-width="0.747"/>
      <g id="Grupo_129596" data-name="Grupo 129596">
        <path id="Trazado_190571" data-name="Trazado 190571" d="M2419,2390.127l2.766,1.175,2.766-1.175-2.766,6.556Z" fill="#b13e8d"/>
      </g>
    </g>
    <g id="Grupo_129599" data-name="Grupo 129599" transform="translate(1428.917 -12638.389)">
      <line id="Línea_421" data-name="Línea 421" y2="11.692" transform="translate(2315.177 2380.533)" fill="none" stroke="#b13e8d" stroke-linecap="round" stroke-linejoin="round" stroke-width="0.747"/>
      <g id="Grupo_129598" data-name="Grupo 129598">
        <path id="Trazado_190572" data-name="Trazado 190572" d="M2312.411,2390.127l2.766,1.175,2.766-1.175-2.766,6.556Z" fill="#b13e8d"/>
      </g>
    </g>
    <path id="Trazado_191202" data-name="Trazado 191202" d="M8.4,0h72.3a8.4,8.4,0,0,1,8.4,8.4V39.735a8.4,8.4,0,0,1-8.4,8.4H8.4a8.4,8.4,0,0,1-8.4-8.4V8.4A8.4,8.4,0,0,1,8.4,0Z" transform="translate(3699.334 -10305.988)" fill="none" stroke="#b13e8d" stroke-linecap="round" stroke-width="1.494"/>
    <path id="Trazado_191203" data-name="Trazado 191203" d="M8.4,0h72.3a8.4,8.4,0,0,1,8.4,8.4V39.735a8.4,8.4,0,0,1-8.4,8.4H8.4a8.4,8.4,0,0,1-8.4-8.4V8.4A8.4,8.4,0,0,1,8.4,0Z" transform="translate(3339.916 -10305.988)" fill="none" stroke="#b13e8d" stroke-linecap="round" stroke-width="1.494"/>
    <path id="Trazado_191204" data-name="Trazado 191204" d="M9.423,0h93.341a9.423,9.423,0,0,1,9.423,9.423V38.709a9.423,9.423,0,0,1-9.423,9.423H9.423A9.423,9.423,0,0,1,0,38.709V9.423A9.423,9.423,0,0,1,9.423,0Z" transform="translate(3511.307 -10418.566)" fill="none" stroke="#b13e8d" stroke-linecap="round" stroke-width="1.494"/>
    <path id="Trazado_191205" data-name="Trazado 191205" d="M8.4,0h72.3a8.4,8.4,0,0,1,8.4,8.4V39.735a8.4,8.4,0,0,1-8.4,8.4H8.4a8.4,8.4,0,0,1-8.4-8.4V8.4A8.4,8.4,0,0,1,8.4,0Z" transform="translate(3522.792 -10305.988)" fill="none" stroke="#b13e8d" stroke-linecap="round" stroke-width="1.494"/>
    <path id="Trazado_191206" data-name="Trazado 191206" d="M8.4,0h72.3a8.4,8.4,0,0,1,8.4,8.4V39.735a8.4,8.4,0,0,1-8.4,8.4H8.4a8.4,8.4,0,0,1-8.4-8.4V8.4A8.4,8.4,0,0,1,8.4,0Z" transform="translate(3339.916 -10234.254)" fill="none" stroke="#b13e8d" stroke-linecap="round" stroke-width="1.494"/>
    <path id="Trazado_191207" data-name="Trazado 191207" d="M8.4,0h72.3a8.4,8.4,0,0,1,8.4,8.4V39.735a8.4,8.4,0,0,1-8.4,8.4H8.4a8.4,8.4,0,0,1-8.4-8.4V8.4A8.4,8.4,0,0,1,8.4,0Z" transform="translate(3233.045 -10234.254)" fill="none" stroke="#b13e8d" stroke-linecap="round" stroke-width="1.494"/>
    <path id="Trazado_191208" data-name="Trazado 191208" d="M8.4,0h72.3a8.4,8.4,0,0,1,8.4,8.4V39.735a8.4,8.4,0,0,1-8.4,8.4H8.4a8.4,8.4,0,0,1-8.4-8.4V8.4A8.4,8.4,0,0,1,8.4,0Z" transform="translate(3806.141 -10234.254)" fill="none" stroke="#b13e8d" stroke-linecap="round" stroke-width="1.494"/>
    <path id="Trazado_191209" data-name="Trazado 191209" d="M8.4,0h72.3a8.4,8.4,0,0,1,8.4,8.4V39.735a8.4,8.4,0,0,1-8.4,8.4H8.4a8.4,8.4,0,0,1-8.4-8.4V8.4A8.4,8.4,0,0,1,8.4,0Z" transform="translate(3699.27 -10234.254)" fill="none" stroke="#b13e8d" stroke-linecap="round" stroke-width="1.494"/>
    <path id="Trazado_191210" data-name="Trazado 191210" d="M8.4,0h72.3a8.4,8.4,0,0,1,8.4,8.4V39.735a8.4,8.4,0,0,1-8.4,8.4H8.4a8.4,8.4,0,0,1-8.4-8.4V8.4A8.4,8.4,0,0,1,8.4,0Z" transform="translate(3572.921 -10234.254)" fill="none" stroke="#b13e8d" stroke-linecap="round" stroke-width="1.494"/>
    <path id="Trazado_191211" data-name="Trazado 191211" d="M8.4,0h72.3a8.4,8.4,0,0,1,8.4,8.4V39.735a8.4,8.4,0,0,1-8.4,8.4H8.4a8.4,8.4,0,0,1-8.4-8.4V8.4A8.4,8.4,0,0,1,8.4,0Z" transform="translate(3466.05 -10234.254)" fill="none" stroke="#b13e8d" stroke-linecap="round" stroke-width="1.494"/>
  </g>
</svg>
