<svg xmlns="http://www.w3.org/2000/svg" width="155.809" height="78.15" viewBox="0 0 155.809 78.15">
  <g id="Trazado_191139" data-name="Trazado 191139" transform="translate(-3849.682 -2283.588)" fill="#6836bf" stroke-linecap="round" stroke-linejoin="round">
    <path d="M 3957.736328125 2361.869140625 L 3957.736328125 2359.679931640625 L 3957.736328125 2340.81396484375 L 3851.73974609375 2340.81396484375 L 3850.710693359375 2340.81396484375 L 3850.710693359375 2339.784912109375 L 3850.710693359375 2305.5400390625 L 3850.710693359375 2304.510986328125 L 3851.73974609375 2304.510986328125 L 3957.736328125 2304.510986328125 L 3957.736328125 2285.645751953125 L 3957.736328125 2283.45654296875 L 3959.421875 2284.853515625 L 3981.755859375 2303.362060546875 L 4004.08984375 2321.87060546875 L 4005.0458984375 2322.662841796875 L 4004.08984375 2323.455078125 L 3981.755859375 2341.963623046875 L 3959.421875 2360.47216796875 L 3957.736328125 2361.869140625 Z" stroke="none"/>
    <path d="M 3958.765380859375 2285.645751953125 L 3958.765380859375 2305.5400390625 L 3851.73974609375 2305.5400390625 L 3851.73974609375 2339.784912109375 L 3958.765380859375 2339.784912109375 L 3958.765380859375 2359.679931640625 L 4003.433349609375 2322.662841796875 L 3958.765380859375 2285.645751953125 M 3958.76513671875 2283.587890625 C 3959.23583984375 2283.587890625 3959.7021484375 2283.749267578125 3960.07861328125 2284.061279296875 L 4004.74658203125 2321.078369140625 C 4005.21826171875 2321.46923828125 4005.4912109375 2322.050048828125 4005.4912109375 2322.662841796875 C 4005.4912109375 2323.275634765625 4005.21826171875 2323.8564453125 4004.74658203125 2324.247314453125 L 3960.07861328125 2361.264404296875 C 3959.464599609375 2361.773193359375 3958.611572265625 2361.881103515625 3957.889892578125 2361.54248046875 C 3957.168212890625 2361.203125 3956.70751953125 2360.4775390625 3956.70751953125 2359.679931640625 L 3956.70751953125 2341.8427734375 L 3851.73974609375 2341.8427734375 C 3850.603271484375 2341.8427734375 3849.681884765625 2340.92138671875 3849.681884765625 2339.784912109375 L 3849.681884765625 2305.5400390625 C 3849.681884765625 2304.403564453125 3850.603271484375 2303.482177734375 3851.73974609375 2303.482177734375 L 3956.70751953125 2303.482177734375 L 3956.70751953125 2285.645751953125 C 3956.70751953125 2284.84814453125 3957.168212890625 2284.12255859375 3957.889892578125 2283.783203125 C 3958.169189453125 2283.652099609375 3958.468017578125 2283.587890625 3958.76513671875 2283.587890625 Z" stroke="none" fill="#fff"/>
  </g>
</svg>
