<svg xmlns="http://www.w3.org/2000/svg" width="65.879" height="76.508" viewBox="0 0 65.879 76.508">
  <g id="Grupo_129622" data-name="Grupo 129622" transform="translate(-4717.374 -3456.502)">
    <path id="Trazado_190590" data-name="Trazado 190590" d="M4851.971,3470.235v-10.37a3.366,3.366,0,0,0-3.362-3.363h-6.536a1.121,1.121,0,1,0,0,2.241h6.536a1.122,1.122,0,0,1,1.121,1.121v10.37a1.122,1.122,0,0,1-1.121,1.121h-3.287a4.114,4.114,0,0,0-4.109,4.11v18.71a1.12,1.12,0,1,0,2.241,0v-5.724h4.409a1.869,1.869,0,0,1,1.868,1.868v8.875a1.869,1.869,0,0,1-1.868,1.867h-4.409v-1.609a1.12,1.12,0,1,0-2.241,0v31.316h-5.169a1.12,1.12,0,1,0,0,2.241h11.818a4.113,4.113,0,0,0,4.109-4.109v-8.876a4.1,4.1,0,0,1,0-5.977v-8.876a4.1,4.1,0,0,1,0-5.977v-8.875a4.1,4.1,0,0,1,0-5.978v-8.876a4.1,4.1,0,0,0-1.074-2.769,3.353,3.353,0,0,0,1.074-2.462Zm-2.241,49.79v8.876a1.87,1.87,0,0,1-1.868,1.868h-4.409v-12.612h4.409a1.869,1.869,0,0,1,1.868,1.868Zm0-14.853v8.876a1.87,1.87,0,0,1-1.868,1.868h-4.409V3503.3h4.409a1.87,1.87,0,0,1,1.868,1.868Zm-6.276-18.962v-10.744a1.87,1.87,0,0,1,1.868-1.868h2.541a1.87,1.87,0,0,1,1.868,1.868v8.876a1.87,1.87,0,0,1-1.868,1.868Zm0,0" transform="translate(-68.717 0)" fill="#f7ca18"/>
    <path id="Trazado_190591" data-name="Trazado 190591" d="M4762.082,3530.769h-35.626a1.122,1.122,0,0,1-1.121-1.121v-3.578h1.822a4.109,4.109,0,1,0,0-8.219h-1.822v-5.23h1.822a4.109,4.109,0,1,0,0-8.218h-1.822v-5.23h1.822a4.109,4.109,0,1,0,0-8.219h-1.822v-5.23h1.822a4.109,4.109,0,1,0,0-8.219h-1.822v-5.229h1.822a4.11,4.11,0,1,0,0-8.219h-1.822v-4.193a1.122,1.122,0,0,1,1.121-1.121H4768.1a1.121,1.121,0,0,0,0-2.241h-41.647a3.366,3.366,0,0,0-3.362,3.363v4.193h-1.609a4.11,4.11,0,0,0,0,8.219h1.609v5.229h-1.609a4.109,4.109,0,1,0,0,8.219h1.609v5.23h-1.609a4.109,4.109,0,1,0,0,8.219h1.609v5.23h-1.609a4.109,4.109,0,1,0,0,8.218h1.609v5.23h-1.609a4.109,4.109,0,1,0,0,8.219h1.609v3.578a3.365,3.365,0,0,0,3.362,3.362h35.626a1.12,1.12,0,1,0,0-2.241Zm-42.465-62.6a1.87,1.87,0,0,1,1.868-1.868h5.672a1.868,1.868,0,0,1,0,3.736h-5.672a1.869,1.869,0,0,1-1.868-1.868Zm0,13.449a1.869,1.869,0,0,1,1.868-1.868h5.672a1.868,1.868,0,0,1,0,3.736h-5.672a1.869,1.869,0,0,1-1.868-1.868Zm0,13.449a1.87,1.87,0,0,1,1.868-1.868h5.672a1.868,1.868,0,0,1,0,3.736h-5.672a1.869,1.869,0,0,1-1.868-1.868Zm0,13.448a1.869,1.869,0,0,1,1.868-1.867h5.672a1.868,1.868,0,0,1,0,3.736h-5.672a1.869,1.869,0,0,1-1.868-1.868Zm0,13.449a1.869,1.869,0,0,1,1.868-1.867h5.672a1.868,1.868,0,0,1,0,3.736h-5.672a1.869,1.869,0,0,1-1.868-1.868Zm0,0" transform="translate(0 0)" fill="#f7ca18"/>
    <path id="Trazado_190592" data-name="Trazado 190592" d="M4794.372,3580.6a4.114,4.114,0,0,0-4.109-4.109h-14.979a1.121,1.121,0,0,0,0,2.241h14.979a1.869,1.869,0,0,1,1.867,1.868v9.563a1.868,1.868,0,0,1-1.867,1.867h-20.771a1.87,1.87,0,0,1-1.868-1.867V3580.6a1.871,1.871,0,0,1,1.868-1.868h.554a1.121,1.121,0,0,0,0-2.241h-.554a4.114,4.114,0,0,0-4.109,4.109v9.563a4.113,4.113,0,0,0,4.109,4.109h20.771a4.113,4.113,0,0,0,4.109-4.109Zm0,0" transform="translate(-28.065 -70.142)" fill="#f7ca18"/>
    <path id="Trazado_190593" data-name="Trazado 190593" d="M4795.236,3589.981h-17a1.121,1.121,0,0,0,0,2.242h17a1.121,1.121,0,1,0,0-2.242Zm0,0" transform="translate(-34.924 -78.03)" fill="#f7ca18"/>
    <path id="Trazado_190594" data-name="Trazado 190594" d="M4795.236,3600.949h-17a1.121,1.121,0,1,0,0,2.241h17a1.121,1.121,0,1,0,0-2.241Zm0,0" transform="translate(-34.924 -84.441)" fill="#f7ca18"/>
  </g>
</svg>
