<svg xmlns="http://www.w3.org/2000/svg" width="50.338" height="63.132" viewBox="0 0 50.338 63.132">
  <g id="Grupo_129623" data-name="Grupo 129623" transform="translate(-5602.74 -2992.424)">
    <path id="Trazado_190595" data-name="Trazado 190595" d="M5649.193,2992.424h-42.568a3.889,3.889,0,0,0-3.885,3.883v55.366a3.889,3.889,0,0,0,3.885,3.883h7.734a.925.925,0,0,0,0-1.85h-7.734a2.037,2.037,0,0,1-2.035-2.033v-55.366a2.037,2.037,0,0,1,2.035-2.033h42.568a2.037,2.037,0,0,1,2.036,2.033v44.525h-10.363a2.406,2.406,0,0,0-2.4,2.4v10.47h-19.677a.925.925,0,1,0,0,1.85h20.382a3.913,3.913,0,0,0,2.752-1.142l3.315-3.328a.925.925,0,0,0-1.311-1.3l-3.314,3.327a1.989,1.989,0,0,1-.3.246v-10.118a.556.556,0,0,1,.555-.555h10.054a2,2,0,0,1-.285.362l-3.543,3.557a.925.925,0,0,0,1.31,1.3l3.543-3.556a3.861,3.861,0,0,0,1.133-2.742v-45.3a3.889,3.889,0,0,0-3.885-3.883Zm0,0" fill="#b13e8d"/>
    <path id="Trazado_190596" data-name="Trazado 190596" d="M5635.346,2998.672a3.243,3.243,0,0,1,1.828.558.925.925,0,0,0,1.036-1.533,5.12,5.12,0,1,0-2.864,9.365,4.308,4.308,0,0,0,2.918-1.067,4.261,4.261,0,0,0,.434-.448.925.925,0,0,0-1.417-1.188,2.571,2.571,0,0,1-.247.255,2.458,2.458,0,0,1-1.688.6,3.27,3.27,0,1,1,0-6.54Zm0,0" fill="#b13e8d"/>
    <path id="Trazado_190597" data-name="Trazado 190597" d="M5644.93,3007.063h.007a1.117,1.117,0,0,0,1.05-.762l2.74-8.247a.925.925,0,0,0-1.756-.583l-2.056,6.191-2.158-6.218a.925.925,0,1,0-1.748.606l2.871,8.271a1.117,1.117,0,0,0,1.05.742Zm0,0" fill="#b13e8d"/>
    <path id="Trazado_190598" data-name="Trazado 190598" d="M5625.258,2996.822h-16.029a2.161,2.161,0,0,0-2.158,2.158v18.084a2.161,2.161,0,0,0,2.158,2.158h16.029a2.16,2.16,0,0,0,2.158-2.158v-8.171a.925.925,0,1,0-1.849,0v8.171a.309.309,0,0,1-.309.309h-1.309l-.26-2.134,0-.013a3.392,3.392,0,0,0-2.134-2.705l-.809-.314a7.455,7.455,0,0,0,1.744-4.258,1.213,1.213,0,0,0,.358-.614c.163-.687.5-3.569-.792-5.112a3.78,3.78,0,0,0-2.009-1.3,3.668,3.668,0,0,0-1.141-.1,3.29,3.29,0,0,1-1.2-.12,5.076,5.076,0,0,0-2.65-.07,4.986,4.986,0,0,0-2.866,1.915c-1.156,1.617-.749,4.233-.577,4.846a1.224,1.224,0,0,0,.4.611,7.439,7.439,0,0,0,1.74,4.2l-.811.314a3.393,3.393,0,0,0-2.133,2.705l0,.013-.261,2.134h-1.317a.309.309,0,0,1-.309-.309V2998.98a.309.309,0,0,1,.309-.308h16.029a.309.309,0,0,1,.309.308v5.6a.925.925,0,1,0,1.849,0v-5.6a2.16,2.16,0,0,0-2.158-2.158Zm-11.351,11.405a7.846,7.846,0,0,0,4.212-1.524,4.154,4.154,0,0,0,2.481,1.451c-.336,2.2-1.734,3.886-3.352,3.886-1.6,0-2.985-1.645-3.341-3.813Zm-.215-4.6a3.187,3.187,0,0,1,2.551-1.287,3.312,3.312,0,0,1,.937.139,5.189,5.189,0,0,0,1.862.192,1.772,1.772,0,0,1,.56.045,2.155,2.155,0,0,1,1.037.7,4.732,4.732,0,0,1,.488,2.958c-.931-.132-1.3-.472-2.074-1.422a1.17,1.17,0,0,0-1.851.041c-.657.891-2.387,1.347-3.9,1.431a4.5,4.5,0,0,1,.39-2.793Zm-1.05,11.841a1.541,1.541,0,0,1,.969-1.224l1.889-.733a4.254,4.254,0,0,0,3.5,0l1.89.732a1.542,1.542,0,0,1,.969,1.224l.232,1.9h-9.676Zm0,0" fill="#b13e8d"/>
    <path id="Trazado_190599" data-name="Trazado 190599" d="M5631.151,3012.893h9.124a.925.925,0,1,0,0-1.85h-9.124a.925.925,0,0,0,0,1.85Zm0,0" fill="#b13e8d"/>
    <path id="Trazado_190600" data-name="Trazado 190600" d="M5631.151,3017.208h13.686a.925.925,0,1,0,0-1.849h-13.686a.925.925,0,1,0,0,1.849Zm0,0" fill="#b13e8d"/>
    <path id="Trazado_190601" data-name="Trazado 190601" d="M5623.717,3024.175a.926.926,0,0,0,.925.925h20.1a.925.925,0,0,0,0-1.85h-20.1a.926.926,0,0,0-.925.925Zm0,0" fill="#b13e8d"/>
    <path id="Trazado_190602" data-name="Trazado 190602" d="M5611.078,3023.25a.925.925,0,0,0,0,1.85h9.248a.925.925,0,0,0,0-1.85Zm0,0" fill="#b13e8d"/>
    <path id="Trazado_190603" data-name="Trazado 190603" d="M5644.74,3027.566h-9.8a.925.925,0,1,0,0,1.849h9.8a.925.925,0,1,0,0-1.849Zm0,0" fill="#b13e8d"/>
    <path id="Trazado_190604" data-name="Trazado 190604" d="M5631.547,3028.491a.925.925,0,0,0-.925-.925h-19.544a.925.925,0,0,0,0,1.849h19.544a.925.925,0,0,0,.925-.924Zm0,0" fill="#b13e8d"/>
    <path id="Trazado_190605" data-name="Trazado 190605" d="M5612.435,3037.677h-1.357a.924.924,0,0,0,0,1.849h1.357a.924.924,0,0,0,0-1.849Zm0,0" fill="#b13e8d"/>
    <path id="Trazado_190606" data-name="Trazado 190606" d="M5632.657,3037.677h-16.03a.924.924,0,1,0,0,1.849h16.03a.924.924,0,0,0,0-1.849Zm0,0" fill="#b13e8d"/>
    <path id="Trazado_190607" data-name="Trazado 190607" d="M5612.435,3041.992h-1.357a.925.925,0,0,0,0,1.85h1.357a.925.925,0,0,0,0-1.85Zm0,0" fill="#b13e8d"/>
    <path id="Trazado_190608" data-name="Trazado 190608" d="M5632.657,3041.992h-16.03a.925.925,0,0,0,0,1.85h16.03a.925.925,0,0,0,0-1.85Zm0,0" fill="#b13e8d"/>
    <path id="Trazado_190609" data-name="Trazado 190609" d="M5612.435,3046.308h-1.357a.925.925,0,0,0,0,1.85h1.357a.925.925,0,0,0,0-1.85Zm0,0" fill="#b13e8d"/>
    <path id="Trazado_190610" data-name="Trazado 190610" d="M5633.581,3047.233a.924.924,0,0,0-.924-.925h-16.03a.925.925,0,0,0,0,1.85h16.03a.925.925,0,0,0,.924-.925Zm0,0" fill="#b13e8d"/>
    <path id="Trazado_190611" data-name="Trazado 190611" d="M5617.428,3035.211h8.878a.925.925,0,0,0,0-1.85h-8.878a.925.925,0,0,0,0,1.85Zm0,0" fill="#b13e8d"/>
  </g>
</svg>
