<svg xmlns="http://www.w3.org/2000/svg" width="63.132" height="53.021" viewBox="0 0 63.132 53.021">
  <g id="Grupo_129625" data-name="Grupo 129625" transform="translate(-5571.321 -3223.996)">
    <path id="Trazado_190624" data-name="Trazado 190624" d="M5633.528,3257.028a.925.925,0,0,0-.925.925v16.289a.925.925,0,0,1-.924.925H5578.7a3.984,3.984,0,0,0,.633-2.158v-2.16a.925.925,0,1,0-1.85,0v2.16a2.157,2.157,0,1,1-4.315,0V3226.77a.926.926,0,0,1,.925-.925h4.08a.924.924,0,1,0,0-1.849h-4.08a2.778,2.778,0,0,0-2.775,2.774v46.239a4.013,4.013,0,0,0,4.008,4.008h56.35a2.778,2.778,0,0,0,2.774-2.775v-16.289a.925.925,0,0,0-.925-.925Zm0,0" fill="#b13e8d"/>
    <path id="Trazado_190625" data-name="Trazado 190625" d="M5632.646,3242.173v-4.922a2.159,2.159,0,0,0-2.157-2.158h-2.2v-2.158a2.778,2.778,0,0,0-2.775-2.774H5600.3v-3.391a2.777,2.777,0,0,0-2.775-2.774h-15.034a.924.924,0,0,0,0,1.849h15.034a.926.926,0,0,1,.925.925v3.7a1.544,1.544,0,0,0,1.541,1.542h25.524a.925.925,0,0,1,.925.924v2.158h-13.112a.925.925,0,1,0,0,1.85h17.163a.308.308,0,0,1,.308.308V3242h-44.042v-4.747a.308.308,0,0,1,.308-.308h21.96a.925.925,0,1,0,0-1.85h-21.96a2.159,2.159,0,0,0-1.934,1.206H5581.5a2.16,2.16,0,0,0-2.158,2.157v3.7a2.78,2.78,0,0,0-1.856,2.618v21.862a.925.925,0,1,0,1.85,0v-21.862a.926.926,0,0,1,.925-.925h51.418a.925.925,0,0,1,.924.925v8.865a.925.925,0,0,0,1.85,0v-8.865a2.779,2.779,0,0,0-1.807-2.6Zm-51.146-4.025h3.4V3242h-3.713v-3.542a.309.309,0,0,1,.308-.308Zm0,0" fill="#b13e8d"/>
    <path id="Trazado_190626" data-name="Trazado 190626" d="M5575.041,3229.853v1.233a2.16,2.16,0,0,0,2.158,2.158h17.262a2.161,2.161,0,0,0,2.158-2.158v-1.233a2.161,2.161,0,0,0-2.158-2.158H5577.2a2.16,2.16,0,0,0-2.158,2.158Zm19.729,0v1.233a.309.309,0,0,1-.309.308H5577.2a.309.309,0,0,1-.309-.308v-1.233a.31.31,0,0,1,.309-.309h17.262a.31.31,0,0,1,.309.309Zm0,0" fill="#b13e8d"/>
  </g>
</svg>
