<svg xmlns="http://www.w3.org/2000/svg" width="63.132" height="50.493" viewBox="0 0 63.132 50.493">
  <g id="Grupo_129626" data-name="Grupo 129626" transform="translate(-5575.069 -3335.627)">
    <path id="Trazado_190627" data-name="Trazado 190627" d="M5596.038,3346.032a.927.927,0,0,0-1.2.523,11.354,11.354,0,1,0,2.59-3.925.925.925,0,0,0,1.3,1.316,9.464,9.464,0,1,1-2.168,3.285.925.925,0,0,0-.523-1.2Zm0,0" fill="#b13e8d"/>
    <path id="Trazado_190628" data-name="Trazado 190628" d="M5605.329,3354.992a3.178,3.178,0,0,1-2.263-.6.925.925,0,1,0-1.013,1.548,4.62,4.62,0,0,0,2.357.872v.882a.925.925,0,1,0,1.85,0v-.968a3.883,3.883,0,0,0,2.857-3.1,3.373,3.373,0,0,0-2.321-3.861,10.6,10.6,0,0,1-2.713-1.265,1.039,1.039,0,0,1-.264-1.006,1.38,1.38,0,0,1,.917-1.088,2.313,2.313,0,0,1,2.138.348.925.925,0,1,0,1.213-1.4,4.088,4.088,0,0,0-1.827-.842v-.816a.924.924,0,1,0-1.849,0v.878c-.069.017-.138.036-.209.057a3.21,3.21,0,0,0-2.2,2.516,2.844,2.844,0,0,0,.939,2.8,11.271,11.271,0,0,0,3.239,1.554,1.544,1.544,0,0,1,1.113,1.811,1.977,1.977,0,0,1-1.964,1.669Zm0,0" fill="#b13e8d"/>
    <path id="Trazado_190629" data-name="Trazado 190629" d="M5635.735,3364.2v-25.76a2.816,2.816,0,0,0-2.813-2.813h-13.957a.925.925,0,1,0,0,1.849h5.526a10.309,10.309,0,0,0,9.394,9.394v7.721a10.337,10.337,0,0,0-7.132,3.772,13.988,13.988,0,0,0-13.881,5.562h-26.56a10.309,10.309,0,0,0-9.394-9.394v-7.723a10.309,10.309,0,0,0,9.389-9.332h28.342a.925.925,0,1,0,0-1.849h-36.767a2.816,2.816,0,0,0-2.813,2.813v37.615a2.937,2.937,0,0,0,2.819,3.036h34.183a13.993,13.993,0,0,0,23.678.948.925.925,0,1,0-1.524-1.047,12.084,12.084,0,1,1,1.7-3.65.924.924,0,1,0,1.783.488,13.993,13.993,0,0,0-1.969-11.63Zm-25.011,4.164h-20.365a.924.924,0,1,0,0,1.849h19.983a14.594,14.594,0,0,0-.115,2.59h-33.309v-2.59h9.125a.924.924,0,1,0,0-1.849h-9.125v-2.76a2.8,2.8,0,0,0,.964.17h33.854a14.005,14.005,0,0,0-1.012,2.59Zm-26.266-4.439h-6.576a.965.965,0,0,1-.964-.963v-6.577a8.463,8.463,0,0,1,7.54,7.54Zm-6.576-26.449h6.568a8.462,8.462,0,0,1-7.532,7.478v-6.514a.965.965,0,0,1,.964-.964Zm.006,39.766a1.1,1.1,0,0,1-.97-1.186v-1.4h33.522a13.882,13.882,0,0,0,.739,2.59Zm48.457-39.766h6.577a.964.964,0,0,1,.963.964v6.576a8.463,8.463,0,0,1-7.54-7.54Zm2.418,21.417a8.474,8.474,0,0,1,5.122-2.444v5.578a13.988,13.988,0,0,0-5.122-3.134Zm0,0" fill="#b13e8d"/>
    <path id="Trazado_190630" data-name="Trazado 190630" d="M5624.206,3361.582a10.542,10.542,0,1,0,10.542,10.543,10.554,10.554,0,0,0-10.542-10.543Zm.924,19.186v-1.862a.925.925,0,0,0-1.849,0v1.862a8.709,8.709,0,0,1-7.719-7.719h1.862a.925.925,0,1,0,0-1.849h-1.862a8.71,8.71,0,0,1,7.719-7.719v1.862a.925.925,0,1,0,1.849,0v-1.862a8.709,8.709,0,0,1,7.719,7.719h-1.862a.925.925,0,0,0,0,1.849h1.862a8.708,8.708,0,0,1-7.719,7.719Zm0,0" fill="#b13e8d"/>
    <path id="Trazado_190631" data-name="Trazado 190631" d="M5627.5,3367.4l-3.945,3.946a.923.923,0,0,0,0,1.307l3.576,3.576a.925.925,0,1,0,1.307-1.308l-2.921-2.922,3.291-3.292a.925.925,0,0,0-1.308-1.307Zm0,0" fill="#b13e8d"/>
  </g>
</svg>
