<svg xmlns="http://www.w3.org/2000/svg" width="48.268" height="63.132" viewBox="0 0 48.268 63.132">
  <g id="Grupo_129627" data-name="Grupo 129627" transform="translate(-5652.714 -3428.126)">
    <path id="Trazado_190632" data-name="Trazado 190632" d="M5700.982,3430.9a2.778,2.778,0,0,0-2.774-2.775h-42.72a2.778,2.778,0,0,0-2.774,2.775v8.325a.925.925,0,0,0,1.85,0V3430.9a.925.925,0,0,1,.924-.925h42.72a.926.926,0,0,1,.925.925v43.432h-4.245l-.99-5.247a5.961,5.961,0,0,0-3.982-4.55l-3.386-1.12-.921-2.483a1.764,1.764,0,0,0-2.476-.947l-.069.037-.309-1.748a13.8,13.8,0,0,0,3.958-5.181h.2a4.926,4.926,0,0,0,4.92-4.92v-.216a3.025,3.025,0,0,0-2.565-2.985,11.8,11.8,0,0,0-.36-6.194.925.925,0,1,0-1.734.644,10.183,10.183,0,0,1,.216,5.487c-2.441-.2-3.349-1.492-4.776-3.518a30.806,30.806,0,0,0-1.981-2.595,6.4,6.4,0,0,0-.1-3.447,5.693,5.693,0,0,1,2.346.076,5.559,5.559,0,0,1,1.856.846.965.965,0,0,0,1.288-.228.925.925,0,0,0-.229-1.288,7.4,7.4,0,0,0-2.472-1.126,7.631,7.631,0,0,0-4.035.118,11.19,11.19,0,0,0-7.445-.811,10.791,10.791,0,0,0-6.195,4.135,9.464,9.464,0,0,0-1.353,7.924,3.026,3.026,0,0,0-2.428,2.962v.216a4.925,4.925,0,0,0,4.92,4.92h.205a13.807,13.807,0,0,0,3.957,5.178l-.309,1.747-.073-.038a1.762,1.762,0,0,0-2.476.946l-.924,2.491-3.38,1.118a5.96,5.96,0,0,0-3.983,4.55l-.99,5.247h-4.249v-30.794a.925.925,0,0,0-1.85,0v44.945a2.777,2.777,0,0,0,2.774,2.774h42.72a2.777,2.777,0,0,0,2.774-2.774V3430.9Zm-8.9,38.528.925,4.9h-12.189l-1.152-3.393.433-1.227a1.7,1.7,0,0,0,.976-.372c.3-.259,4.768-3.8,5.082-4.1l3.179,1.052a4.113,4.113,0,0,1,2.746,3.137Zm-16.417,2.429h2.36l.83,2.446h-4.02Zm1.419-7.06,1.315,3.776a1.588,1.588,0,0,0,.076.183l-.442,1.252h-2.374l-.437-1.249a1.718,1.718,0,0,0,.081-.191l1.313-3.771Zm7.689-.8-4.695,3.774-1.2-3.445,5.032-2.657Zm5.208-16.038v.216a3.075,3.075,0,0,1-2.535,3.023,19.1,19.1,0,0,0,.842-4.409h.523a1.171,1.171,0,0,1,1.17,1.17Zm-22.828-9.81a9.031,9.031,0,0,1,7.254-3.672,9.524,9.524,0,0,1,4.181.988,4.253,4.253,0,0,1,.158,3.112c-2.553,4.986-8.8,6.341-12.563,6.376a7.912,7.912,0,0,1,.97-6.8Zm-3.436,10.026v-.216a1.172,1.172,0,0,1,1.17-1.17h.529a19.024,19.024,0,0,0,.844,4.409,3.074,3.074,0,0,1-2.543-3.024Zm3.554-1.413a20.523,20.523,0,0,0,5.906-1.249,13.425,13.425,0,0,0,6.53-4.938c.517.642.961,1.269,1.392,1.883,1.384,1.965,2.609,3.7,5.342,4.193a15.408,15.408,0,0,1-2.98,8.279,7.847,7.847,0,0,1-13.209.013,15.378,15.378,0,0,1-2.981-8.181Zm5.365,12.595a9.081,9.081,0,0,0,8.432,0l.279,1.572-3.823,2.018h-1.336l-3.83-2.022Zm-2.845,2.306,5.033,2.658-1.2,3.445-4.7-3.775Zm29.343,26.822a.925.925,0,0,1-.925.924h-42.72a.924.924,0,0,1-.924-.924v-12.3h10.077a.924.924,0,1,0,0-1.849h-3.946l.926-4.9a4.109,4.109,0,0,1,2.746-3.137l3.181-1.052c.3.288,4.826,3.877,5.078,4.1a1.7,1.7,0,0,0,.967.371l.43,1.231-1.153,3.4h-3.913a.924.924,0,1,0,0,1.849h30.176Zm0,0" fill="#b13e8d"/>
    <path id="Trazado_190633" data-name="Trazado 190633" d="M5667.916,3480.849l-2.05-.3-.915-1.859a1.1,1.1,0,0,0-1.982,0l-.914,1.858-2.051.3a1.1,1.1,0,0,0-.611,1.886l1.485,1.443-.353,2.04a1.105,1.105,0,0,0,1.6,1.166l1.047-.552.015-.009.769-.405,1.833.966a1.1,1.1,0,0,0,1.6-1.165l-.352-2.041,1.484-1.444a1.1,1.1,0,0,0-.612-1.885Zm-2.443,2.276a1.1,1.1,0,0,0-.319.981l.161.936-.839-.443a1.1,1.1,0,0,0-1.031,0l-.84.442.163-.939a1.11,1.11,0,0,0-.319-.976l-.682-.662.94-.135a1.1,1.1,0,0,0,.834-.607l.419-.851.419.851a1.1,1.1,0,0,0,.834.607l.94.135Zm0,0" fill="#b13e8d"/>
    <path id="Trazado_190634" data-name="Trazado 190634" d="M5673.766,3484.178l-.353,2.041a1.1,1.1,0,0,0,1.6,1.165l1.046-.552.016-.009.769-.405,1.832.966a1.1,1.1,0,0,0,1.6-1.165l-.353-2.041,1.485-1.443h0a1.1,1.1,0,0,0-.613-1.885l-2.05-.3-.914-1.859a1.106,1.106,0,0,0-1.983,0l-.914,1.858-2.051.3a1.105,1.105,0,0,0-.611,1.886Zm1.829-1.849a1.1,1.1,0,0,0,.834-.607l.419-.851.42.852a1.1,1.1,0,0,0,.833.606l.94.135-.681.662a1.1,1.1,0,0,0-.318.98l.161.936-.839-.443a1.1,1.1,0,0,0-1.031,0l-.84.443.162-.938a1.1,1.1,0,0,0-.319-.978l-.681-.662Zm0,0" fill="#b13e8d"/>
    <path id="Trazado_190635" data-name="Trazado 190635" d="M5686.653,3484.178l-.352,2.04a1.1,1.1,0,0,0,1.6,1.166l1.05-.553.013-.008.769-.405,1.832.966a1.1,1.1,0,0,0,1.165-.083,1.1,1.1,0,0,0,.439-1.082l-.353-2.041,1.485-1.443a1.1,1.1,0,0,0-.613-1.886l-2.05-.3-.913-1.858a1.1,1.1,0,0,0-.991-.617h0a1.1,1.1,0,0,0-.991.617l-.914,1.858-2.051.3a1.105,1.105,0,0,0-.611,1.886Zm1.83-1.849a1.106,1.106,0,0,0,.834-.607l.419-.851.419.852a1.107,1.107,0,0,0,.834.606l.94.135-.681.662a1.1,1.1,0,0,0-.318.98l.161.936-.84-.443a1.1,1.1,0,0,0-1.03,0l-.84.443.163-.94a1.111,1.111,0,0,0-.32-.976l-.681-.662Zm0,0" fill="#b13e8d"/>
    <path id="Trazado_190636" data-name="Trazado 190636" d="M5683.984,3471.293a.925.925,0,0,0,0,1.849h4.631a.925.925,0,1,0,0-1.849Zm0,0" fill="#b13e8d"/>
  </g>
</svg>
