<svg xmlns="http://www.w3.org/2000/svg" width="63.132" height="63.132" viewBox="0 0 63.132 63.132">
  <g id="Grupo_129628" data-name="Grupo 129628" transform="translate(-5735.015 -3532.94)">
    <path id="Trazado_190637" data-name="Trazado 190637" d="M5797.222,3589.906h-29.655a.925.925,0,0,0,0,1.85h28.73v2.466h-58.508a.926.926,0,0,1-.924-.925v-11.652a.925.925,0,1,0-1.85,0V3593.3a2.777,2.777,0,0,0,2.774,2.775h59.433a.926.926,0,0,0,.925-.925v-4.316a.926.926,0,0,0-.925-.925Zm0,0" fill="#b13e8d"/>
    <path id="Trazado_190638" data-name="Trazado 190638" d="M5735.94,3578.377a.925.925,0,0,0,.925-.924v-42.664h2.466v56.042a.925.925,0,0,0,.924.925h23.12a.925.925,0,0,0,0-1.85H5741.18v-56.041a.925.925,0,0,0-.925-.925h-4.315a.925.925,0,0,0-.925.925v43.588a.925.925,0,0,0,.925.924Zm0,0" fill="#b13e8d"/>
    <path id="Trazado_190639" data-name="Trazado 190639" d="M5771.6,3568.146a.3.3,0,0,1-.228-.069l-6.77-5.6a2.156,2.156,0,0,0-3.12.391l-13.9,19.1a2.159,2.159,0,0,0,1.745,3.429h41.941a2.161,2.161,0,0,0,2.158-2.158v-13.418a.925.925,0,1,0-1.85,0v13.418a.309.309,0,0,1-.308.308h-41.941a.309.309,0,0,1-.25-.49l13.9-19.1a.305.305,0,0,1,.21-.124.3.3,0,0,1,.235.068l6.771,5.6a2.156,2.156,0,0,0,3.056-.309l17.779-22.08a.308.308,0,0,1,.548.193v18.178a.925.925,0,1,0,1.849,0v-18.178a2.157,2.157,0,0,0-3.838-1.353l-17.778,22.08a.3.3,0,0,1-.209.113Zm0,0" fill="#b13e8d"/>
    <path id="Trazado_190640" data-name="Trazado 190640" d="M5744.638,3567.947a2.755,2.755,0,0,0,1.632.531,2.782,2.782,0,0,0,2.244-1.141l12.011-16.5,5.507,4.559a4.007,4.007,0,0,0,5.671-.567l7.665-9.427,1.65,1.2a2.157,2.157,0,0,0,3.423-1.7l.153-7.1a.95.95,0,0,0-.006-.129l0-.014a2.683,2.683,0,0,0-2.992-2.447.851.851,0,0,0-.157.021l-.024.006-7.026,1.749a2.159,2.159,0,0,0-.838,3.77l1.477,1.2-6.654,8.182-5.572-4.612a4.006,4.006,0,0,0-5.795.728l-2.808,3.858a.925.925,0,1,0,1.5,1.089l2.808-3.859a2.159,2.159,0,0,1,3.12-.392l6.291,5.208a.924.924,0,0,0,1.307-.129l7.438-9.145a1.541,1.541,0,0,0-.225-2.169l-1.716-1.393a.293.293,0,0,1-.107-.306.3.3,0,0,1,.227-.233l6.93-1.726c.788-.005.952.465.979.765l-.152,7.043a.309.309,0,0,1-.49.243l-1.885-1.365a1.542,1.542,0,0,0-2.1.275l-7.852,9.657a2.159,2.159,0,0,1-3.053.3l-6.265-5.187a.926.926,0,0,0-1.338.168l-12.59,17.3a.925.925,0,1,1-1.5-1.088l7.6-10.448a.925.925,0,1,0-1.5-1.088l-7.606,10.448a2.774,2.774,0,0,0,.61,3.875Zm0,0" fill="#b13e8d"/>
  </g>
</svg>
