<svg xmlns="http://www.w3.org/2000/svg" width="62.999" height="63.132" viewBox="0 0 62.999 63.132">
  <g id="Grupo_129629" data-name="Grupo 129629" transform="translate(-5726.146 -3637.753)">
    <path id="Trazado_190641" data-name="Trazado 190641" d="M5786.081,3644.675h-1.9v-4.764a2.161,2.161,0,0,0-2.158-2.158h-1.812a2.16,2.16,0,0,0-2.158,2.158v4.85a2.161,2.161,0,0,0-1.56,2.072v6.459a.925.925,0,1,0,1.85,0v-6.459a.308.308,0,0,1,.308-.308h4.932a.308.308,0,0,1,.308.308v21.623h-5.548V3657.59a.925.925,0,1,0-1.85,0v10.97a1.914,1.914,0,0,0-1.295,1.807v16.86a1.912,1.912,0,0,0,1.11,1.733v2.58a4.617,4.617,0,0,0,.358,1.785l2.052,4.9a1.54,1.54,0,0,0,1.422.947h.052v.786a.925.925,0,1,0,1.85,0v-.786h.052a1.537,1.537,0,0,0,1.421-.947l2.052-4.9a4.591,4.591,0,0,0,.359-1.785v-2.58a1.912,1.912,0,0,0,1.11-1.733v-16.86a1.914,1.914,0,0,0-1.295-1.807l-.025-22.035h.365a1.216,1.216,0,0,1,1.215,1.214v15.372a.925.925,0,1,0,1.849,0v-15.372a3.068,3.068,0,0,0-3.064-3.064Zm-3.75,0H5779.9v-4.764a.308.308,0,0,1,.308-.308h1.812a.308.308,0,0,1,.308.308Zm-.442,52.649h-1.544l-1.709-4.084h4.962Zm2.187-5.933h-5.918v-2.252h5.918Zm1.11-19.031H5783.5a.924.924,0,1,0,0,1.849h1.687v1.838H5783.5a.925.925,0,0,0,0,1.85h1.687v1.849H5783.5a.925.925,0,0,0,0,1.85h1.687v1.79H5783.5a.925.925,0,1,0,0,1.849h1.687v1.992a.062.062,0,0,1-.062.062h-8.014a.063.063,0,0,1-.062-.062v-1.992h1.688a.925.925,0,0,0,0-1.849h-1.688v-1.79h1.688a.925.925,0,0,0,0-1.85h-1.688V3677.9h1.688a.925.925,0,0,0,0-1.85h-1.688v-1.838h1.688a.924.924,0,0,0,0-1.849h-1.688v-1.993a.062.062,0,0,1,.062-.061h8.014a.061.061,0,0,1,.062.061Zm0,0" fill="#b13e8d"/>
    <path id="Trazado_190642" data-name="Trazado 190642" d="M5727.07,3671.74a.924.924,0,0,0,.925-.925v-30.287a.926.926,0,0,1,.925-.925h4.115a.925.925,0,0,0,0-1.85h-4.115a2.778,2.778,0,0,0-2.774,2.775v30.287a.925.925,0,0,0,.924.925Zm0,0" fill="#b13e8d"/>
    <path id="Trazado_190643" data-name="Trazado 190643" d="M5763.9,3638.566a2.755,2.755,0,0,0-1.961-.813h-24.6a.925.925,0,0,0,0,1.85h24.036v7.785a2.161,2.161,0,0,0,2.158,2.158h7.939v48.565a.926.926,0,0,1-.925.925H5728.92a.926.926,0,0,1-.925-.925v-22.96a.925.925,0,0,0-1.849,0v22.96a2.777,2.777,0,0,0,2.774,2.774h41.636a2.777,2.777,0,0,0,2.775-2.774v-48.97a2.756,2.756,0,0,0-.813-1.962Zm-.363,9.131a.309.309,0,0,1-.308-.309v-6.877l7.186,7.186Zm0,0" fill="#b13e8d"/>
    <path id="Trazado_190644" data-name="Trazado 190644" d="M5736.468,3653.94h-4.316a.925.925,0,0,0,0,1.85h4.316a.925.925,0,1,0,0-1.85Zm0,0" fill="#b13e8d"/>
    <path id="Trazado_190645" data-name="Trazado 190645" d="M5737.393,3659.8a1.542,1.542,0,0,0-1.541-1.541h-3.083a1.543,1.543,0,0,0-1.542,1.541v3.083a1.543,1.543,0,0,0,1.542,1.541h3.083a1.542,1.542,0,0,0,1.541-1.541Zm-1.85,2.775h-2.466v-2.466h2.466Zm0,0" fill="#b13e8d"/>
    <path id="Trazado_190646" data-name="Trazado 190646" d="M5739.242,3659.181a.926.926,0,0,0,.925.925h7.414a.925.925,0,0,0,0-1.85h-7.414a.925.925,0,0,0-.925.925Zm0,0" fill="#b13e8d"/>
    <path id="Trazado_190647" data-name="Trazado 190647" d="M5740.167,3664.421h7.414a.924.924,0,0,0,0-1.849h-7.414a.924.924,0,1,0,0,1.849Zm0,0" fill="#b13e8d"/>
    <path id="Trazado_190648" data-name="Trazado 190648" d="M5736.468,3668.737h-4.316a.924.924,0,1,0,0,1.849h4.316a.924.924,0,1,0,0-1.849Zm0,0" fill="#b13e8d"/>
    <path id="Trazado_190649" data-name="Trazado 190649" d="M5737.393,3674.594a1.542,1.542,0,0,0-1.541-1.542h-3.083a1.543,1.543,0,0,0-1.542,1.542v3.082a1.544,1.544,0,0,0,1.542,1.542h3.083a1.543,1.543,0,0,0,1.541-1.542Zm-1.85,2.774h-2.466V3674.9h2.466Zm0,0" fill="#b13e8d"/>
    <path id="Trazado_190650" data-name="Trazado 190650" d="M5740.167,3674.9h7.414a.925.925,0,0,0,0-1.85h-7.414a.925.925,0,0,0,0,1.85Zm0,0" fill="#b13e8d"/>
    <path id="Trazado_190651" data-name="Trazado 190651" d="M5740.167,3679.218h7.414a.925.925,0,0,0,0-1.85h-7.414a.925.925,0,0,0,0,1.85Zm0,0" fill="#b13e8d"/>
    <path id="Trazado_190652" data-name="Trazado 190652" d="M5736.468,3683.533h-4.316a.925.925,0,0,0,0,1.85h4.316a.925.925,0,1,0,0-1.85Zm0,0" fill="#b13e8d"/>
    <path id="Trazado_190653" data-name="Trazado 190653" d="M5735.852,3687.849h-3.083a1.543,1.543,0,0,0-1.542,1.541v3.083a1.543,1.543,0,0,0,1.542,1.541h3.083a1.542,1.542,0,0,0,1.541-1.541v-3.083a1.543,1.543,0,0,0-1.541-1.541Zm-.309,4.316h-2.466V3689.7h2.466Zm0,0" fill="#b13e8d"/>
    <path id="Trazado_190654" data-name="Trazado 190654" d="M5740.167,3689.7h7.414a.925.925,0,0,0,0-1.85h-7.414a.925.925,0,0,0,0,1.85Zm0,0" fill="#b13e8d"/>
    <path id="Trazado_190655" data-name="Trazado 190655" d="M5740.167,3694.014h7.414a.924.924,0,0,0,0-1.849h-7.414a.924.924,0,1,0,0,1.849Zm0,0" fill="#b13e8d"/>
    <path id="Trazado_190656" data-name="Trazado 190656" d="M5756.212,3653.94H5751.9a.925.925,0,0,0,0,1.85h4.316a.925.925,0,1,0,0-1.85Zm0,0" fill="#b13e8d"/>
    <path id="Trazado_190657" data-name="Trazado 190657" d="M5757.137,3659.8a1.543,1.543,0,0,0-1.542-1.541h-3.082a1.542,1.542,0,0,0-1.541,1.541v3.083a1.542,1.542,0,0,0,1.541,1.541h3.082a1.543,1.543,0,0,0,1.542-1.541Zm-1.85,2.775h-2.466v-2.466h2.466Zm0,0" fill="#b13e8d"/>
    <path id="Trazado_190658" data-name="Trazado 190658" d="M5759.911,3660.106h7.413a.925.925,0,0,0,0-1.85h-7.413a.925.925,0,1,0,0,1.85Zm0,0" fill="#b13e8d"/>
    <path id="Trazado_190659" data-name="Trazado 190659" d="M5759.911,3664.421h7.413a.924.924,0,1,0,0-1.849h-7.413a.924.924,0,1,0,0,1.849Zm0,0" fill="#b13e8d"/>
    <path id="Trazado_190660" data-name="Trazado 190660" d="M5756.212,3668.737H5751.9a.924.924,0,0,0,0,1.849h4.316a.924.924,0,1,0,0-1.849Zm0,0" fill="#b13e8d"/>
    <path id="Trazado_190661" data-name="Trazado 190661" d="M5757.137,3674.594a1.544,1.544,0,0,0-1.542-1.542h-3.082a1.542,1.542,0,0,0-1.541,1.542v3.082a1.543,1.543,0,0,0,1.541,1.542h3.082a1.544,1.544,0,0,0,1.542-1.542Zm-1.85,2.774h-2.466V3674.9h2.466Zm0,0" fill="#b13e8d"/>
    <path id="Trazado_190662" data-name="Trazado 190662" d="M5759.911,3674.9h7.413a.925.925,0,0,0,0-1.85h-7.413a.925.925,0,1,0,0,1.85Zm0,0" fill="#b13e8d"/>
    <path id="Trazado_190663" data-name="Trazado 190663" d="M5759.911,3679.218h7.413a.925.925,0,0,0,0-1.85h-7.413a.925.925,0,1,0,0,1.85Zm0,0" fill="#b13e8d"/>
    <path id="Trazado_190664" data-name="Trazado 190664" d="M5756.212,3683.533H5751.9a.925.925,0,0,0,0,1.85h4.316a.925.925,0,1,0,0-1.85Zm0,0" fill="#b13e8d"/>
    <path id="Trazado_190665" data-name="Trazado 190665" d="M5755.6,3687.849h-3.082a1.542,1.542,0,0,0-1.541,1.541v3.083a1.542,1.542,0,0,0,1.541,1.541h3.082a1.543,1.543,0,0,0,1.542-1.541v-3.083a1.544,1.544,0,0,0-1.542-1.541Zm-.308,4.316h-2.466V3689.7h2.466Zm0,0" fill="#b13e8d"/>
    <path id="Trazado_190666" data-name="Trazado 190666" d="M5759.911,3689.7h7.413a.925.925,0,0,0,0-1.85h-7.413a.925.925,0,1,0,0,1.85Zm0,0" fill="#b13e8d"/>
    <path id="Trazado_190667" data-name="Trazado 190667" d="M5759.911,3694.014h7.413a.924.924,0,1,0,0-1.849h-7.413a.924.924,0,1,0,0,1.849Zm0,0" fill="#b13e8d"/>
    <path id="Trazado_190668" data-name="Trazado 190668" d="M5758.956,3648v-4.574a1.543,1.543,0,0,0-1.542-1.542h-15.352a1.544,1.544,0,0,0-1.541,1.542V3648a1.543,1.543,0,0,0,1.541,1.541H5749a.924.924,0,1,0,0-1.849h-6.631v-3.958h14.735v3.958h-3.783a.924.924,0,1,0,0,1.849h4.091a1.542,1.542,0,0,0,1.542-1.541Zm0,0" fill="#b13e8d"/>
    <path id="Trazado_190669" data-name="Trazado 190669" d="M5782.036,3663.092v-11.713a.925.925,0,0,0-1.85,0v11.713a.925.925,0,1,0,1.85,0Zm0,0" fill="#b13e8d"/>
  </g>
</svg>
