<svg xmlns="http://www.w3.org/2000/svg" width="63.132" height="41.867" viewBox="0 0 63.132 41.867">
  <g id="Grupo_129630" data-name="Grupo 129630" transform="translate(-5840.756 -3669.998)">
    <path id="Trazado_190670" data-name="Trazado 190670" d="M5902.373,3698.152l1.417-3.779a1.542,1.542,0,0,0-1.444-2.083h-3.736v-5.247a1.542,1.542,0,0,0-1.541-1.541h-4.559a2.9,2.9,0,0,0-.442-.734l-2.046-2.476a1.07,1.07,0,0,1-.211-.42l-.768-3.117a2.89,2.89,0,0,0-1.606-1.944l-2.916-1.343a1.066,1.066,0,0,1-.372-.287l-2.045-2.475a2.9,2.9,0,0,0-2.291-1.055l-3.21.055a1.062,1.062,0,0,1-.46-.1l-2.916-1.344a2.889,2.889,0,0,0-2.521.044l-2.868,1.443a1.063,1.063,0,0,1-.456.112l-3.211.055a2.9,2.9,0,0,0-2.252,1.133l-1.959,2.545a1.064,1.064,0,0,1-.362.3l-2.869,1.443a2.891,2.891,0,0,0-1.537,2l-.66,3.143a1.082,1.082,0,0,1-.2.427l-1.958,2.544-.038.051h-4.763a1.542,1.542,0,0,0-1.541,1.541v5.247H5842.3a1.541,1.541,0,0,0-1.443,2.083l1.416,3.779-1.416,3.778a1.541,1.541,0,0,0,1.443,2.083h3.912a.924.924,0,1,0,0-1.849h-3.468l1.3-3.471a1.54,1.54,0,0,0,0-1.082l-1.3-3.471h3.293v3.025a1.542,1.542,0,0,0,1.541,1.541h6.331l.715.866a1.051,1.051,0,0,1,.211.419l.536,2.173h-4.749a.924.924,0,1,0,0,1.849H5856a2.905,2.905,0,0,0,1.211,1.04l2.916,1.343a1.06,1.06,0,0,1,.373.286l2.045,2.476a2.9,2.9,0,0,0,2.29,1.055l3.21-.056a1.039,1.039,0,0,1,.46.1l2.916,1.343a2.893,2.893,0,0,0,2.521-.043l2.869-1.443a1.041,1.041,0,0,1,.456-.112l3.21-.055a2.9,2.9,0,0,0,2.252-1.133l1.959-2.545a1.078,1.078,0,0,1,.362-.3l2.869-1.442a2.876,2.876,0,0,0,.717-.511h13.714a1.542,1.542,0,0,0,1.444-2.083Zm-5.613-1.3h-4.834l.342-.445a2.892,2.892,0,0,0,.519-2.467l-.769-3.117a1.083,1.083,0,0,1-.008-.47l.632-3.007h4.119v9.506Zm-48.876-9.506h3.893a3,3,0,0,0,.08.567l.769,3.118a1.047,1.047,0,0,1,.008.47l-.66,3.142a2.883,2.883,0,0,0,.426,2.209h-4.516Zm36.331,16.963a2.917,2.917,0,0,0-1,.823l-1.959,2.545a1.047,1.047,0,0,1-.818.411l-3.211.056a2.926,2.926,0,0,0-1.255.309l-2.869,1.443a1.052,1.052,0,0,1-.916.016l-2.917-1.343a2.914,2.914,0,0,0-1.216-.267h-.049l-3.21.055a1.061,1.061,0,0,1-.833-.383l-2.044-2.476a2.917,2.917,0,0,0-1.025-.788l-2.917-1.343a1.051,1.051,0,0,1-.583-.707l-.768-3.118a2.934,2.934,0,0,0-.581-1.155l-.992-1.2-1.053-1.275a1.049,1.049,0,0,1-.219-.889l.66-3.143a2.914,2.914,0,0,0-.021-1.292l-.769-3.118a1.057,1.057,0,0,1,.06-.681l.007-.016a1.05,1.05,0,0,1,.122-.2l1.958-2.544a2.938,2.938,0,0,0,.541-1.175l.66-3.142a1.049,1.049,0,0,1,.559-.726l2.868-1.443a2.911,2.911,0,0,0,1-.823l1.958-2.545a1.051,1.051,0,0,1,.818-.411l3.211-.055a2.932,2.932,0,0,0,1.255-.31l2.868-1.443a1.048,1.048,0,0,1,.916-.015l2.917,1.342a2.9,2.9,0,0,0,1.265.266l3.211-.055a1.057,1.057,0,0,1,.832.384l2.045,2.475a2.917,2.917,0,0,0,1.025.789l2.916,1.343a1.049,1.049,0,0,1,.583.706l.769,3.118a2.913,2.913,0,0,0,.58,1.155l2.046,2.476a1.053,1.053,0,0,1,.219.889l-.66,3.142a2.9,2.9,0,0,0,.022,1.293l.768,3.117a1.056,1.056,0,0,1-.189.9l-1.958,2.544a2.907,2.907,0,0,0-.541,1.174l-.66,3.142a1.068,1.068,0,0,1-.19.418l-.008.011a1.066,1.066,0,0,1-.361.3Zm5.314-2.15.584-2.781a1.04,1.04,0,0,1,.2-.426l.192-.251h6.567a1.542,1.542,0,0,0,1.541-1.541v-3.025h3.292l-1.3,3.471a1.54,1.54,0,0,0,0,1.082l1.3,3.471Zm0,0" fill="#b13e8d"/>
    <path id="Trazado_190671" data-name="Trazado 190671" d="M5886.667,3687.329a.925.925,0,0,0-1.794.449,13.019,13.019,0,0,1,.372,2.531,12.938,12.938,0,0,1-12.3,13.546c-.4.019-.8.02-1.193,0a.925.925,0,1,0-.079,1.848c.257,0,.4.031,1.361,0a14.786,14.786,0,0,0,14.059-15.483,14.919,14.919,0,0,0-.426-2.89Zm0,0" fill="#b13e8d"/>
    <path id="Trazado_190672" data-name="Trazado 190672" d="M5867.8,3703.059a12.94,12.94,0,1,1,15.469-19.023.925.925,0,0,0,1.565-.987,14.79,14.79,0,1,0-17.681,21.743.925.925,0,0,0,.647-1.733Zm0,0" fill="#b13e8d"/>
    <path id="Trazado_190673" data-name="Trazado 190673" d="M5876.679,3699.727a1.306,1.306,0,0,0,1.9-1.377l-.839-4.853,3.532-3.434a1.3,1.3,0,0,0-.724-2.227l-4.875-.7-2.174-4.419h0a1.306,1.306,0,0,0-2.343,0l-2.175,4.419-4.875.7a1.3,1.3,0,0,0-.723,2.227l3.531,3.434-.839,4.853a1.306,1.306,0,0,0,1.9,1.377l4.357-2.3Zm-4.966-4.067-3.632,1.915.7-4.046a1.3,1.3,0,0,0-.376-1.158l-2.944-2.862,4.064-.586a1.306,1.306,0,0,0,.986-.716l1.812-3.685,1.813,3.685a1.3,1.3,0,0,0,.985.716l4.064.586-2.944,2.862a1.305,1.305,0,0,0-.376,1.158l.7,4.046-3.631-1.915a1.307,1.307,0,0,0-1.219,0Zm0,0" fill="#b13e8d"/>
  </g>
</svg>
