<svg xmlns="http://www.w3.org/2000/svg" width="663.678" height="262.825" viewBox="0 0 663.678 262.825">
  <g id="Grupo_132009" data-name="Grupo 132009" transform="translate(-3232.298 10448.2)">
    <path id="Trazado_191223" data-name="Trazado 191223" d="M8.4,0h72.3a8.4,8.4,0,0,1,8.4,8.4V39.735a8.4,8.4,0,0,1-8.4,8.4H8.4a8.4,8.4,0,0,1-8.4-8.4V8.4A8.4,8.4,0,0,1,8.4,0Z" transform="translate(3699.334 -10305.988)" fill="#e8e8e8"/>
    <path id="Trazado_191224" data-name="Trazado 191224" d="M8.4,0h72.3a8.4,8.4,0,0,1,8.4,8.4V39.735a8.4,8.4,0,0,1-8.4,8.4H8.4a8.4,8.4,0,0,1-8.4-8.4V8.4A8.4,8.4,0,0,1,8.4,0Z" transform="translate(3339.916 -10305.988)" fill="#e8e8e8"/>
    <path id="Trazado_191225" data-name="Trazado 191225" d="M9.423,0h93.341a9.423,9.423,0,0,1,9.423,9.423V38.709a9.423,9.423,0,0,1-9.423,9.423H9.423A9.423,9.423,0,0,1,0,38.709V9.423A9.423,9.423,0,0,1,9.423,0Z" transform="translate(3511.307 -10447.453)" fill="#e8e8e8"/>
    <path id="Trazado_191226" data-name="Trazado 191226" d="M29.411,12.547V17h-1.5V5.625h4.2a4.215,4.215,0,0,1,2.926.953A3.231,3.231,0,0,1,36.091,9.1a3.189,3.189,0,0,1-1.035,2.551,4.4,4.4,0,0,1-2.965.895Zm0-1.227h2.7a2.7,2.7,0,0,0,1.844-.567,2.075,2.075,0,0,0,.641-1.64,2.143,2.143,0,0,0-.641-1.628,2.525,2.525,0,0,0-1.758-.634H29.411ZM41.865,9.844a4.331,4.331,0,0,0-.711-.055A1.9,1.9,0,0,0,39.224,11v6H37.779V8.547h1.406l.023.977a2.251,2.251,0,0,1,2.016-1.133,1.477,1.477,0,0,1,.641.109Zm.789,2.852a4.993,4.993,0,0,1,.488-2.234A3.643,3.643,0,0,1,44.5,8.93a3.7,3.7,0,0,1,1.988-.539,3.565,3.565,0,0,1,2.793,1.2,4.6,4.6,0,0,1,1.066,3.18v.1a5.036,5.036,0,0,1-.473,2.215,3.589,3.589,0,0,1-1.352,1.527,3.743,3.743,0,0,1-2.02.547,3.556,3.556,0,0,1-2.785-1.2A4.575,4.575,0,0,1,42.654,12.8Zm1.453.172a3.616,3.616,0,0,0,.652,2.258,2.211,2.211,0,0,0,3.5-.012A3.955,3.955,0,0,0,48.9,12.7a3.61,3.61,0,0,0-.66-2.254,2.1,2.1,0,0,0-1.754-.863,2.075,2.075,0,0,0-1.727.852A3.925,3.925,0,0,0,44.107,12.867Zm11.445,3.109a2.082,2.082,0,0,0,1.352-.469,1.649,1.649,0,0,0,.641-1.172h1.367a2.621,2.621,0,0,1-.5,1.383,3.293,3.293,0,0,1-1.23,1.047,3.55,3.55,0,0,1-1.629.391A3.482,3.482,0,0,1,52.806,16a4.59,4.59,0,0,1-1.02-3.152v-.242a5.089,5.089,0,0,1,.453-2.2,3.451,3.451,0,0,1,1.3-1.492,3.7,3.7,0,0,1,2-.531,3.39,3.39,0,0,1,2.363.852,3.043,3.043,0,0,1,1,2.211H57.544a1.992,1.992,0,0,0-.621-1.348,1.932,1.932,0,0,0-1.379-.527,2.023,2.023,0,0,0-1.707.793,3.724,3.724,0,0,0-.605,2.293v.273a3.65,3.65,0,0,0,.6,2.25A2.033,2.033,0,0,0,55.552,15.977Zm8.492,1.18a3.693,3.693,0,0,1-2.8-1.129,4.19,4.19,0,0,1-1.078-3.02v-.266a5.073,5.073,0,0,1,.48-2.246,3.748,3.748,0,0,1,1.344-1.547,3.378,3.378,0,0,1,1.871-.559,3.166,3.166,0,0,1,2.563,1.086,4.7,4.7,0,0,1,.914,3.109v.6H61.615a3,3,0,0,0,.73,2.02,2.3,2.3,0,0,0,1.777.77,2.517,2.517,0,0,0,1.3-.312,3.259,3.259,0,0,0,.93-.828l.883.688A3.55,3.55,0,0,1,64.044,17.156Zm-.18-7.578a1.928,1.928,0,0,0-1.469.637A3.1,3.1,0,0,0,61.661,12H65.9v-.109a2.753,2.753,0,0,0-.594-1.707A1.815,1.815,0,0,0,63.865,9.578Zm10.07,5.18a1.064,1.064,0,0,0-.441-.91,4.249,4.249,0,0,0-1.539-.559,7.277,7.277,0,0,1-1.742-.562,2.479,2.479,0,0,1-.953-.781,1.869,1.869,0,0,1-.309-1.078,2.193,2.193,0,0,1,.879-1.758,3.432,3.432,0,0,1,2.246-.719,3.532,3.532,0,0,1,2.332.742,2.357,2.357,0,0,1,.895,1.9H73.849a1.3,1.3,0,0,0-.5-1.023,1.888,1.888,0,0,0-1.27-.43,1.976,1.976,0,0,0-1.234.344,1.082,1.082,0,0,0-.445.9.877.877,0,0,0,.414.789,5.1,5.1,0,0,0,1.5.508,7.8,7.8,0,0,1,1.754.578,2.558,2.558,0,0,1,1,.809,1.988,1.988,0,0,1,.324,1.152,2.163,2.163,0,0,1-.906,1.816,3.8,3.8,0,0,1-2.352.684,4.257,4.257,0,0,1-1.8-.359,2.922,2.922,0,0,1-1.223-1,2.42,2.42,0,0,1-.441-1.395h1.445a1.5,1.5,0,0,0,.582,1.152,2.258,2.258,0,0,0,1.434.426,2.331,2.331,0,0,0,1.316-.332A1.02,1.02,0,0,0,73.935,14.758ZM76.88,12.7a4.993,4.993,0,0,1,.488-2.234A3.643,3.643,0,0,1,78.728,8.93a3.7,3.7,0,0,1,1.988-.539,3.565,3.565,0,0,1,2.793,1.2,4.6,4.6,0,0,1,1.066,3.18v.1a5.036,5.036,0,0,1-.473,2.215,3.589,3.589,0,0,1-1.352,1.527,3.743,3.743,0,0,1-2.02.547,3.556,3.556,0,0,1-2.785-1.2A4.575,4.575,0,0,1,76.88,12.8Zm1.453.172a3.616,3.616,0,0,0,.652,2.258,2.211,2.211,0,0,0,3.5-.012A3.955,3.955,0,0,0,83.13,12.7a3.61,3.61,0,0,0-.66-2.254,2.1,2.1,0,0,0-1.754-.863,2.075,2.075,0,0,0-1.727.852A3.925,3.925,0,0,0,78.333,12.867ZM14.443,33.7a4.952,4.952,0,0,1,.922-3.129,2.915,2.915,0,0,1,2.414-1.184,2.932,2.932,0,0,1,2.352,1.016V26h1.445V38H20.247l-.07-.906a2.943,2.943,0,0,1-2.414,1.063,2.887,2.887,0,0,1-2.395-1.2,5.008,5.008,0,0,1-.926-3.141Zm1.445.164a3.749,3.749,0,0,0,.594,2.25,1.92,1.92,0,0,0,1.641.813A2.108,2.108,0,0,0,20.13,35.7V31.813a2.125,2.125,0,0,0-1.992-1.2,1.929,1.929,0,0,0-1.656.82A4.128,4.128,0,0,0,15.888,33.867Zm7.547-.172a4.993,4.993,0,0,1,.488-2.234,3.643,3.643,0,0,1,1.359-1.531,3.7,3.7,0,0,1,1.988-.539,3.565,3.565,0,0,1,2.793,1.2,4.6,4.6,0,0,1,1.066,3.18v.1a5.036,5.036,0,0,1-.473,2.215,3.589,3.589,0,0,1-1.352,1.527,3.743,3.743,0,0,1-2.02.547,3.556,3.556,0,0,1-2.785-1.2A4.575,4.575,0,0,1,23.435,33.8Zm1.453.172a3.616,3.616,0,0,0,.652,2.258,2.211,2.211,0,0,0,3.5-.012,3.955,3.955,0,0,0,.648-2.418,3.61,3.61,0,0,0-.66-2.254,2.1,2.1,0,0,0-1.754-.863,2.075,2.075,0,0,0-1.727.852A3.925,3.925,0,0,0,24.888,33.867Zm11.445,3.109a2.082,2.082,0,0,0,1.352-.469,1.649,1.649,0,0,0,.641-1.172h1.367a2.621,2.621,0,0,1-.5,1.383,3.293,3.293,0,0,1-1.23,1.047,3.55,3.55,0,0,1-1.629.391A3.482,3.482,0,0,1,33.587,37a4.59,4.59,0,0,1-1.02-3.152v-.242a5.089,5.089,0,0,1,.453-2.2,3.451,3.451,0,0,1,1.3-1.492,3.7,3.7,0,0,1,2-.531,3.39,3.39,0,0,1,2.363.852,3.043,3.043,0,0,1,1,2.211H38.325a1.992,1.992,0,0,0-.621-1.348,1.932,1.932,0,0,0-1.379-.527,2.023,2.023,0,0,0-1.707.793,3.724,3.724,0,0,0-.605,2.293v.273a3.65,3.65,0,0,0,.6,2.25A2.033,2.033,0,0,0,36.333,36.977Zm10.2.188a3.07,3.07,0,0,1-2.477.992A2.628,2.628,0,0,1,42,37.371a3.4,3.4,0,0,1-.715-2.324v-5.5h1.445v5.461q0,1.922,1.563,1.922A2.163,2.163,0,0,0,46.5,35.7V29.547h1.445V38H46.568ZM51.5,29.547l.039.938a3.122,3.122,0,0,1,2.508-1.094,2.417,2.417,0,0,1,2.414,1.359,3.2,3.2,0,0,1,1.1-.984,3.242,3.242,0,0,1,1.6-.375q2.781,0,2.828,2.945V38H60.536V32.422a1.941,1.941,0,0,0-.414-1.355,1.823,1.823,0,0,0-1.391-.449,1.916,1.916,0,0,0-1.336.48,1.949,1.949,0,0,0-.617,1.293V38H55.325V32.461a1.613,1.613,0,0,0-1.8-1.844,1.934,1.934,0,0,0-1.945,1.211V38H50.13V29.547Zm16.172,8.609a3.693,3.693,0,0,1-2.8-1.129,4.19,4.19,0,0,1-1.078-3.02v-.266a5.073,5.073,0,0,1,.48-2.246,3.748,3.748,0,0,1,1.344-1.547,3.378,3.378,0,0,1,1.871-.559,3.166,3.166,0,0,1,2.563,1.086,4.7,4.7,0,0,1,.914,3.109v.6H65.24a3,3,0,0,0,.73,2.02,2.3,2.3,0,0,0,1.777.77,2.517,2.517,0,0,0,1.3-.312,3.259,3.259,0,0,0,.93-.828l.883.688A3.55,3.55,0,0,1,67.669,38.156Zm-.18-7.578a1.928,1.928,0,0,0-1.469.637A3.1,3.1,0,0,0,65.286,33h4.234v-.109a2.753,2.753,0,0,0-.594-1.707A1.815,1.815,0,0,0,67.49,30.578Zm6.516-1.031.047,1.063a3.08,3.08,0,0,1,2.531-1.219q2.68,0,2.7,3.023V38H77.841V32.406a1.946,1.946,0,0,0-.418-1.352,1.675,1.675,0,0,0-1.277-.437,2.086,2.086,0,0,0-1.234.375,2.546,2.546,0,0,0-.828.984V38H72.638V29.547ZM83.427,27.5v2.047h1.578v1.117H83.427v5.249a1.173,1.173,0,0,0,.211.763.888.888,0,0,0,.719.254,3.5,3.5,0,0,0,.688-.094V38a4.215,4.215,0,0,1-1.109.155,1.8,1.8,0,0,1-1.461-.586,2.517,2.517,0,0,1-.492-1.664V30.664H80.443V29.547h1.539V27.5ZM91.911,38a3.036,3.036,0,0,1-.2-.891A3.225,3.225,0,0,1,89.3,38.156a2.984,2.984,0,0,1-2.051-.707,2.288,2.288,0,0,1-.8-1.793,2.39,2.39,0,0,1,1-2.051,4.733,4.733,0,0,1,2.824-.73h1.406v-.664A1.623,1.623,0,0,0,91.232,31a1.821,1.821,0,0,0-1.336-.449,2.108,2.108,0,0,0-1.3.391,1.151,1.151,0,0,0-.523.945H86.622a2,2,0,0,1,.449-1.223,3.066,3.066,0,0,1,1.219-.934,4.1,4.1,0,0,1,1.691-.344,3.342,3.342,0,0,1,2.289.73,2.635,2.635,0,0,1,.859,2.012v3.891a4.757,4.757,0,0,0,.3,1.852V38Zm-2.4-1.1a2.54,2.54,0,0,0,1.289-.352,2.127,2.127,0,0,0,.883-.914V33.9H90.552q-2.656,0-2.656,1.555a1.316,1.316,0,0,0,.453,1.063A1.742,1.742,0,0,0,89.513,36.9ZM96.966,38H95.521V26h1.445Z" transform="translate(3511.737 -10445.212)" fill="#12263f"/>
    <path id="Trazado_191227" data-name="Trazado 191227" d="M68.625,11.922H63.953v3.5h5.461V17H61.976V5.625h7.383V7.219H63.953v3.141h4.672ZM75.578,14.7a.861.861,0,0,0-.418-.773,4.445,4.445,0,0,0-1.387-.469,7.129,7.129,0,0,1-1.617-.516,2.158,2.158,0,0,1-1.422-1.992,2.25,2.25,0,0,1,.922-1.828A3.644,3.644,0,0,1,74,8.391a3.792,3.792,0,0,1,2.449.75,2.38,2.38,0,0,1,.934,1.945h-1.9a1.17,1.17,0,0,0-.406-.91A1.557,1.557,0,0,0,74,9.813a1.682,1.682,0,0,0-1.02.289.911.911,0,0,0-.395.773.769.769,0,0,0,.367.68,5.049,5.049,0,0,0,1.484.488,7.027,7.027,0,0,1,1.754.586,2.484,2.484,0,0,1,.945.816,2.082,2.082,0,0,1,.309,1.156,2.2,2.2,0,0,1-.945,1.848,4.031,4.031,0,0,1-2.477.707,4.371,4.371,0,0,1-1.852-.375,3.047,3.047,0,0,1-1.266-1.031,2.441,2.441,0,0,1-.453-1.414H72.3a1.338,1.338,0,0,0,.508,1.035,1.973,1.973,0,0,0,1.242.363,1.92,1.92,0,0,0,1.141-.285A.883.883,0,0,0,75.578,14.7Zm5.9-8.211V8.547h1.492V9.953H81.476v4.719a1.039,1.039,0,0,0,.191.7.888.888,0,0,0,.684.215,2.925,2.925,0,0,0,.664-.078v1.469a4.676,4.676,0,0,1-1.25.18q-2.188,0-2.187-2.414V9.953H78.187V8.547h1.391V6.492ZM89.469,17a2.93,2.93,0,0,1-.219-.789,3.193,3.193,0,0,1-4.3.219,2.325,2.325,0,0,1-.8-1.8,2.4,2.4,0,0,1,1-2.074,4.865,4.865,0,0,1,2.871-.723h1.164v-.555a1.481,1.481,0,0,0-.367-1.051A1.456,1.456,0,0,0,87.7,9.836a1.672,1.672,0,0,0-1.062.324,1,1,0,0,0-.414.824h-1.9a2.107,2.107,0,0,1,.461-1.3,3.071,3.071,0,0,1,1.254-.949,4.4,4.4,0,0,1,1.77-.344,3.547,3.547,0,0,1,2.367.746,2.661,2.661,0,0,1,.906,2.1v3.813a4.321,4.321,0,0,0,.32,1.82V17Zm-2.086-1.367a2.159,2.159,0,0,0,1.059-.273,1.827,1.827,0,0,0,.746-.734V13.031H88.164a2.8,2.8,0,0,0-1.586.367,1.189,1.189,0,0,0-.531,1.039,1.109,1.109,0,0,0,.363.871A1.407,1.407,0,0,0,87.383,15.633ZM88.437,5H90.6L88.437,7.367l-1.523,0Zm9.289,12V9.953H96.437V8.547h1.289V7.773A2.9,2.9,0,0,1,98.508,5.6a2.993,2.993,0,0,1,2.188-.766,4.388,4.388,0,0,1,1.063.141l-.047,1.484a3.739,3.739,0,0,0-.727-.062,1.219,1.219,0,0,0-1.359,1.4v.75h1.719V9.953H99.625V17Zm4.648-4.3a4.984,4.984,0,0,1,.492-2.238,3.6,3.6,0,0,1,1.383-1.531,3.9,3.9,0,0,1,2.047-.535,3.692,3.692,0,0,1,2.777,1.1,4.333,4.333,0,0,1,1.152,2.922l.008.445a5.029,5.029,0,0,1-.48,2.234,3.551,3.551,0,0,1-1.375,1.523,3.925,3.925,0,0,1-2.066.539,3.667,3.667,0,0,1-2.863-1.191,4.563,4.563,0,0,1-1.074-3.176Zm1.9.164a3.406,3.406,0,0,0,.539,2.043,1.752,1.752,0,0,0,1.5.738,1.733,1.733,0,0,0,1.5-.75,3.762,3.762,0,0,0,.535-2.2,3.362,3.362,0,0,0-.551-2.031,1.856,1.856,0,0,0-2.973-.012A3.691,3.691,0,0,0,104.273,12.859Zm11.992-2.578a4.7,4.7,0,0,0-.773-.062,1.741,1.741,0,0,0-1.758,1V17h-1.9V8.547h1.813l.047.945a2.139,2.139,0,0,1,1.906-1.1,1.777,1.777,0,0,1,.672.109Zm2.984-1.734.055.883a3.042,3.042,0,0,1,2.438-1.039,2.337,2.337,0,0,1,2.32,1.3,3,3,0,0,1,2.594-1.3,2.636,2.636,0,0,1,2.082.773,3.405,3.405,0,0,1,.7,2.281V17h-1.9V11.5a1.681,1.681,0,0,0-.352-1.18,1.539,1.539,0,0,0-1.164-.375,1.581,1.581,0,0,0-1.059.348,1.833,1.833,0,0,0-.574.91L124.4,17h-1.9V11.438a1.354,1.354,0,0,0-1.523-1.492,1.671,1.671,0,0,0-1.617.93V17h-1.9V8.547ZM136.437,17a2.93,2.93,0,0,1-.219-.789,3.193,3.193,0,0,1-4.3.219,2.325,2.325,0,0,1-.8-1.8,2.4,2.4,0,0,1,1-2.074,4.865,4.865,0,0,1,2.871-.723h1.164v-.555a1.481,1.481,0,0,0-.367-1.051,1.456,1.456,0,0,0-1.117-.395,1.672,1.672,0,0,0-1.062.324,1,1,0,0,0-.414.824h-1.9a2.107,2.107,0,0,1,.461-1.3,3.071,3.071,0,0,1,1.254-.949,4.4,4.4,0,0,1,1.77-.344,3.547,3.547,0,0,1,2.367.746,2.661,2.661,0,0,1,.906,2.1v3.813a4.321,4.321,0,0,0,.32,1.82V17Zm-2.086-1.367a2.16,2.16,0,0,0,1.059-.273,1.827,1.827,0,0,0,.746-.734V13.031h-1.023a2.8,2.8,0,0,0-1.586.367,1.189,1.189,0,0,0-.531,1.039,1.109,1.109,0,0,0,.363.871A1.407,1.407,0,0,0,134.351,15.633Zm5.336-2.922a5.026,5.026,0,0,1,.906-3.137,2.9,2.9,0,0,1,2.43-1.184,2.759,2.759,0,0,1,2.172.938V5h1.9V17h-1.719l-.094-.875a2.8,2.8,0,0,1-2.273,1.031,2.887,2.887,0,0,1-2.4-1.2A5.21,5.21,0,0,1,139.687,12.711Zm1.9.164a3.519,3.519,0,0,0,.5,2.012,1.61,1.61,0,0,0,1.41.723,1.793,1.793,0,0,0,1.7-1.039V10.961a1.766,1.766,0,0,0-1.687-1.016,1.622,1.622,0,0,0-1.422.73A3.919,3.919,0,0,0,141.586,12.875Zm7.133-.18a4.984,4.984,0,0,1,.492-2.238,3.6,3.6,0,0,1,1.383-1.531,3.9,3.9,0,0,1,2.047-.535,3.692,3.692,0,0,1,2.777,1.1,4.333,4.333,0,0,1,1.152,2.922l.008.445a5.029,5.029,0,0,1-.48,2.234,3.551,3.551,0,0,1-1.375,1.523,3.925,3.925,0,0,1-2.066.539,3.667,3.667,0,0,1-2.863-1.191,4.563,4.563,0,0,1-1.074-3.176Zm1.9.164a3.406,3.406,0,0,0,.539,2.043,1.752,1.752,0,0,0,1.5.738,1.733,1.733,0,0,0,1.5-.75,3.762,3.762,0,0,0,.535-2.2,3.362,3.362,0,0,0-.551-2.031,1.856,1.856,0,0,0-2.973-.012A3.691,3.691,0,0,0,150.617,12.859Zm18.953,0a5.033,5.033,0,0,1-.891,3.129,3.094,3.094,0,0,1-4.617.254V20.25h-1.9V8.547h1.75l.078.859a2.788,2.788,0,0,1,2.273-1.016,2.881,2.881,0,0,1,2.426,1.152,5.167,5.167,0,0,1,.879,3.2ZM167.68,12.7a3.526,3.526,0,0,0-.5-2.008,1.638,1.638,0,0,0-1.441-.742,1.747,1.747,0,0,0-1.672.961v3.75a1.763,1.763,0,0,0,1.688.984,1.636,1.636,0,0,0,1.418-.73A3.881,3.881,0,0,0,167.68,12.7Zm3.141,0a4.984,4.984,0,0,1,.492-2.238A3.6,3.6,0,0,1,172.7,8.926a3.9,3.9,0,0,1,2.047-.535,3.692,3.692,0,0,1,2.777,1.1,4.333,4.333,0,0,1,1.152,2.922l.008.445a5.029,5.029,0,0,1-.48,2.234,3.551,3.551,0,0,1-1.375,1.523,3.925,3.925,0,0,1-2.066.539,3.667,3.667,0,0,1-2.863-1.191,4.563,4.563,0,0,1-1.074-3.176Zm1.9.164a3.406,3.406,0,0,0,.539,2.043,1.752,1.752,0,0,0,1.5.738,1.733,1.733,0,0,0,1.5-.75,3.762,3.762,0,0,0,.535-2.2,3.362,3.362,0,0,0-.551-2.031,1.856,1.856,0,0,0-2.973-.012A3.691,3.691,0,0,0,172.719,12.859Zm11.992-2.578a4.7,4.7,0,0,0-.773-.062,1.741,1.741,0,0,0-1.758,1V17h-1.9V8.547h1.813l.047.945a2.139,2.139,0,0,1,1.906-1.1,1.777,1.777,0,0,1,.672.109Zm7.2,6.719h-1.9V5h1.9Zm7.117,0a2.93,2.93,0,0,1-.219-.789,3.193,3.193,0,0,1-4.3.219,2.325,2.325,0,0,1-.8-1.8,2.4,2.4,0,0,1,1-2.074,4.865,4.865,0,0,1,2.871-.723h1.164v-.555a1.481,1.481,0,0,0-.367-1.051,1.456,1.456,0,0,0-1.117-.395,1.672,1.672,0,0,0-1.062.324,1,1,0,0,0-.414.824h-1.9a2.107,2.107,0,0,1,.461-1.3,3.071,3.071,0,0,1,1.254-.949,4.4,4.4,0,0,1,1.77-.344,3.547,3.547,0,0,1,2.367.746,2.661,2.661,0,0,1,.906,2.1v3.813a4.321,4.321,0,0,0,.32,1.82V17Zm-2.086-1.367A2.16,2.16,0,0,0,198,15.359a1.827,1.827,0,0,0,.746-.734V13.031h-1.023a2.8,2.8,0,0,0-1.586.367,1.189,1.189,0,0,0-.531,1.039,1.109,1.109,0,0,0,.363.871A1.407,1.407,0,0,0,196.945,15.633Zm10.43-.93a.861.861,0,0,0-.418-.773,4.445,4.445,0,0,0-1.387-.469,7.129,7.129,0,0,1-1.617-.516,2.158,2.158,0,0,1-1.422-1.992,2.25,2.25,0,0,1,.922-1.828,3.644,3.644,0,0,1,2.344-.734,3.792,3.792,0,0,1,2.449.75,2.38,2.38,0,0,1,.934,1.945h-1.9a1.17,1.17,0,0,0-.406-.91,1.557,1.557,0,0,0-1.078-.363,1.682,1.682,0,0,0-1.02.289.911.911,0,0,0-.395.773.769.769,0,0,0,.367.68,5.049,5.049,0,0,0,1.484.488,7.027,7.027,0,0,1,1.754.586,2.484,2.484,0,0,1,.945.816,2.082,2.082,0,0,1,.309,1.156,2.2,2.2,0,0,1-.945,1.848,4.031,4.031,0,0,1-2.477.707,4.371,4.371,0,0,1-1.852-.375A3.047,3.047,0,0,1,202.7,15.75a2.441,2.441,0,0,1-.453-1.414h1.844a1.338,1.338,0,0,0,.508,1.035,1.973,1.973,0,0,0,1.242.363,1.92,1.92,0,0,0,1.141-.285A.883.883,0,0,0,207.375,14.7Zm8.172,2.3V9.953h-1.289V8.547h1.289V7.773a2.9,2.9,0,0,1,.781-2.172,2.993,2.993,0,0,1,2.188-.766,4.388,4.388,0,0,1,1.063.141l-.047,1.484A3.739,3.739,0,0,0,218.8,6.4a1.219,1.219,0,0,0-1.359,1.4v.75h1.719V9.953h-1.719V17ZM225.6,17a2.93,2.93,0,0,1-.219-.789,3.193,3.193,0,0,1-4.3.219,2.325,2.325,0,0,1-.8-1.8,2.4,2.4,0,0,1,1-2.074,4.865,4.865,0,0,1,2.871-.723h1.164v-.555a1.481,1.481,0,0,0-.367-1.051,1.456,1.456,0,0,0-1.117-.395,1.672,1.672,0,0,0-1.062.324,1,1,0,0,0-.414.824h-1.9a2.107,2.107,0,0,1,.461-1.3,3.071,3.071,0,0,1,1.254-.949,4.4,4.4,0,0,1,1.77-.344,3.547,3.547,0,0,1,2.367.746,2.661,2.661,0,0,1,.906,2.1v3.813a4.321,4.321,0,0,0,.32,1.82V17Zm-2.086-1.367a2.16,2.16,0,0,0,1.059-.273,1.827,1.827,0,0,0,.746-.734V13.031H224.3a2.8,2.8,0,0,0-1.586.367,1.189,1.189,0,0,0-.531,1.039,1.109,1.109,0,0,0,.363.871A1.407,1.407,0,0,0,223.515,15.633Zm10.43-.93a.861.861,0,0,0-.418-.773,4.445,4.445,0,0,0-1.387-.469,7.129,7.129,0,0,1-1.617-.516,2.158,2.158,0,0,1-1.422-1.992,2.25,2.25,0,0,1,.922-1.828,3.644,3.644,0,0,1,2.344-.734,3.792,3.792,0,0,1,2.449.75,2.38,2.38,0,0,1,.934,1.945h-1.9a1.17,1.17,0,0,0-.406-.91,1.557,1.557,0,0,0-1.078-.363,1.682,1.682,0,0,0-1.02.289.911.911,0,0,0-.395.773.769.769,0,0,0,.367.68,5.049,5.049,0,0,0,1.484.488,7.027,7.027,0,0,1,1.754.586,2.484,2.484,0,0,1,.945.816,2.082,2.082,0,0,1,.309,1.156,2.2,2.2,0,0,1-.945,1.848,4.031,4.031,0,0,1-2.477.707,4.371,4.371,0,0,1-1.852-.375,3.047,3.047,0,0,1-1.266-1.031,2.441,2.441,0,0,1-.453-1.414h1.844a1.338,1.338,0,0,0,.508,1.035,1.973,1.973,0,0,0,1.242.363,1.92,1.92,0,0,0,1.141-.285A.883.883,0,0,0,233.945,14.7Zm7.242,2.453a3.928,3.928,0,0,1-2.926-1.137,4.124,4.124,0,0,1-1.121-3.027v-.234a5.072,5.072,0,0,1,.488-2.262A3.716,3.716,0,0,1,239,8.945a3.625,3.625,0,0,1,1.969-.555,3.318,3.318,0,0,1,2.668,1.1,4.658,4.658,0,0,1,.941,3.117v.766h-5.523a2.539,2.539,0,0,0,.7,1.656,2.1,2.1,0,0,0,1.543.609,2.571,2.571,0,0,0,2.125-1.055l1.023.977a3.418,3.418,0,0,1-1.355,1.176A4.244,4.244,0,0,1,241.187,17.156Zm-.227-7.242a1.6,1.6,0,0,0-1.262.547,2.835,2.835,0,0,0-.613,1.523H242.7v-.141A2.308,2.308,0,0,0,242.2,10.4,1.586,1.586,0,0,0,240.961,9.914Zm9.828,4.789a.861.861,0,0,0-.418-.773,4.445,4.445,0,0,0-1.387-.469,7.129,7.129,0,0,1-1.617-.516,2.158,2.158,0,0,1-1.422-1.992,2.25,2.25,0,0,1,.922-1.828,3.644,3.644,0,0,1,2.344-.734,3.792,3.792,0,0,1,2.449.75,2.38,2.38,0,0,1,.934,1.945h-1.9a1.17,1.17,0,0,0-.406-.91,1.557,1.557,0,0,0-1.078-.363,1.682,1.682,0,0,0-1.02.289.911.911,0,0,0-.395.773.769.769,0,0,0,.367.68,5.049,5.049,0,0,0,1.484.488,7.027,7.027,0,0,1,1.754.586,2.484,2.484,0,0,1,.945.816,2.082,2.082,0,0,1,.309,1.156,2.2,2.2,0,0,1-.945,1.848,4.031,4.031,0,0,1-2.477.707,4.371,4.371,0,0,1-1.852-.375,3.047,3.047,0,0,1-1.266-1.031,2.441,2.441,0,0,1-.453-1.414h1.844a1.338,1.338,0,0,0,.508,1.035,1.973,1.973,0,0,0,1.242.363,1.92,1.92,0,0,0,1.141-.285A.883.883,0,0,0,250.789,14.7Zm7.148-1.992a5.026,5.026,0,0,1,.906-3.137,2.9,2.9,0,0,1,2.43-1.184,2.759,2.759,0,0,1,2.172.938V5h1.9V17h-1.719l-.094-.875a2.8,2.8,0,0,1-2.273,1.031,2.887,2.887,0,0,1-2.4-1.2A5.21,5.21,0,0,1,257.937,12.711Zm1.9.164a3.519,3.519,0,0,0,.5,2.012,1.61,1.61,0,0,0,1.41.723,1.793,1.793,0,0,0,1.7-1.039V10.961a1.766,1.766,0,0,0-1.687-1.016,1.622,1.622,0,0,0-1.422.73A3.918,3.918,0,0,0,259.836,12.875Zm11.211,4.281a3.928,3.928,0,0,1-2.926-1.137A4.124,4.124,0,0,1,267,12.992v-.234a5.072,5.072,0,0,1,.488-2.262,3.717,3.717,0,0,1,1.371-1.551,3.625,3.625,0,0,1,1.969-.555,3.318,3.318,0,0,1,2.668,1.1,4.658,4.658,0,0,1,.941,3.117v.766h-5.523a2.539,2.539,0,0,0,.7,1.656,2.1,2.1,0,0,0,1.543.609,2.571,2.571,0,0,0,2.125-1.055l1.023.977a3.418,3.418,0,0,1-1.355,1.176A4.244,4.244,0,0,1,271.047,17.156Zm-.227-7.242a1.6,1.6,0,0,0-1.262.547,2.834,2.834,0,0,0-.613,1.523h3.617v-.141a2.307,2.307,0,0,0-.508-1.441A1.587,1.587,0,0,0,270.82,9.914Z" transform="translate(3399.737 -10370.256)" fill="#6836bf"/>
    <path id="Trazado_191228" data-name="Trazado 191228" d="M8.4,0h72.3a8.4,8.4,0,0,1,8.4,8.4V39.735a8.4,8.4,0,0,1-8.4,8.4H8.4a8.4,8.4,0,0,1-8.4-8.4V8.4A8.4,8.4,0,0,1,8.4,0Z" transform="translate(3522.792 -10305.988)" fill="#e8e8e8"/>
    <path id="Trazado_191229" data-name="Trazado 191229" d="M34.447,11.68a7.037,7.037,0,0,1-.562,2.918,4.261,4.261,0,0,1-1.594,1.9,4.4,4.4,0,0,1-6.4-1.887,6.752,6.752,0,0,1-.59-2.832v-.82a6.953,6.953,0,0,1,.57-2.9,4.218,4.218,0,0,1,4-2.594,4.41,4.41,0,0,1,2.41.66,4.253,4.253,0,0,1,1.605,1.914,7.071,7.071,0,0,1,.563,2.918Zm-1.492-.734a5.1,5.1,0,0,0-.812-3.105,2.68,2.68,0,0,0-2.273-1.082A2.651,2.651,0,0,0,27.63,7.84a5,5,0,0,0-.84,3v.836a5.107,5.107,0,0,0,.824,3.082,2.888,2.888,0,0,0,4.52.063,5.079,5.079,0,0,0,.82-3.035Zm10.656,1.922a5.062,5.062,0,0,1-.883,3.109,2.829,2.829,0,0,1-2.391,1.18,3.1,3.1,0,0,1-2.422-.977v4.07H36.47V8.547h1.32l.07.938a2.977,2.977,0,0,1,2.453-1.094,2.882,2.882,0,0,1,2.41,1.148,5.117,5.117,0,0,1,.887,3.2ZM42.165,12.7a3.735,3.735,0,0,0-.609-2.258,1.963,1.963,0,0,0-1.672-.828,2.125,2.125,0,0,0-1.969,1.164V14.82A2.129,2.129,0,0,0,39.9,15.977a1.954,1.954,0,0,0,1.652-.824A4.077,4.077,0,0,0,42.165,12.7Zm6.672,3.273a2.082,2.082,0,0,0,1.352-.469,1.649,1.649,0,0,0,.641-1.172H52.2a2.621,2.621,0,0,1-.5,1.383,3.293,3.293,0,0,1-1.23,1.047,3.55,3.55,0,0,1-1.629.391A3.482,3.482,0,0,1,46.091,16a4.59,4.59,0,0,1-1.02-3.152v-.242a5.089,5.089,0,0,1,.453-2.2,3.451,3.451,0,0,1,1.3-1.492,3.7,3.7,0,0,1,2-.531,3.39,3.39,0,0,1,2.363.852,3.043,3.043,0,0,1,1,2.211H50.829a1.992,1.992,0,0,0-.621-1.348,1.932,1.932,0,0,0-1.379-.527,2.023,2.023,0,0,0-1.707.793,3.724,3.724,0,0,0-.605,2.293v.273a3.65,3.65,0,0,0,.6,2.25A2.033,2.033,0,0,0,48.837,15.977ZM55.392,17H53.947V8.547h1.445ZM53.829,6.3a.863.863,0,0,1,.215-.594.807.807,0,0,1,.637-.242.819.819,0,0,1,.641.242.854.854,0,0,1,.219.594.826.826,0,0,1-.219.586.834.834,0,0,1-.641.234.821.821,0,0,1-.637-.234A.834.834,0,0,1,53.829,6.3ZM57.322,12.7a4.993,4.993,0,0,1,.488-2.234A3.643,3.643,0,0,1,59.169,8.93a3.7,3.7,0,0,1,1.988-.539,3.565,3.565,0,0,1,2.793,1.2,4.6,4.6,0,0,1,1.066,3.18v.1a5.036,5.036,0,0,1-.473,2.215,3.589,3.589,0,0,1-1.352,1.527,3.743,3.743,0,0,1-2.02.547,3.556,3.556,0,0,1-2.785-1.2A4.575,4.575,0,0,1,57.322,12.8Zm1.453.172a3.616,3.616,0,0,0,.652,2.258,2.211,2.211,0,0,0,3.5-.012,3.955,3.955,0,0,0,.648-2.418,3.61,3.61,0,0,0-.66-2.254,2.1,2.1,0,0,0-1.754-.863,2.075,2.075,0,0,0-1.727.852A3.925,3.925,0,0,0,58.775,12.867ZM61.814,5h1.75L61.47,7.3l-1.164,0ZM68.2,8.547l.047,1.063a3.08,3.08,0,0,1,2.531-1.219q2.68,0,2.7,3.023V17H72.032V11.406a1.946,1.946,0,0,0-.418-1.352,1.675,1.675,0,0,0-1.277-.437,2.086,2.086,0,0,0-1.234.375,2.546,2.546,0,0,0-.828.984V17H66.829V8.547ZM86.923,17H79.47V15.961l3.938-4.375a9.354,9.354,0,0,0,1.207-1.613,2.693,2.693,0,0,0,.332-1.285,2.041,2.041,0,0,0-.539-1.461,1.885,1.885,0,0,0-1.437-.57,2.232,2.232,0,0,0-1.676.613,2.343,2.343,0,0,0-.6,1.707H79.251a3.355,3.355,0,0,1,1.012-2.539,3.751,3.751,0,0,1,2.707-.969,3.6,3.6,0,0,1,2.508.832A2.838,2.838,0,0,1,86.4,8.516q0,1.68-2.141,4l-3.047,3.3h5.711Z" transform="translate(3511.673 -10294.134)" fill="#12263f"/>
    <path id="Trazado_191230" data-name="Trazado 191230" d="M34.447,11.68a7.037,7.037,0,0,1-.562,2.918,4.261,4.261,0,0,1-1.594,1.9,4.4,4.4,0,0,1-6.4-1.887,6.752,6.752,0,0,1-.59-2.832v-.82a6.953,6.953,0,0,1,.57-2.9,4.218,4.218,0,0,1,4-2.594,4.41,4.41,0,0,1,2.41.66,4.253,4.253,0,0,1,1.605,1.914,7.071,7.071,0,0,1,.563,2.918Zm-1.492-.734a5.1,5.1,0,0,0-.812-3.105,2.68,2.68,0,0,0-2.273-1.082A2.651,2.651,0,0,0,27.63,7.84a5,5,0,0,0-.84,3v.836a5.107,5.107,0,0,0,.824,3.082,2.888,2.888,0,0,0,4.52.063,5.079,5.079,0,0,0,.82-3.035Zm10.656,1.922a5.062,5.062,0,0,1-.883,3.109,2.829,2.829,0,0,1-2.391,1.18,3.1,3.1,0,0,1-2.422-.977v4.07H36.47V8.547h1.32l.07.938a2.977,2.977,0,0,1,2.453-1.094,2.882,2.882,0,0,1,2.41,1.148,5.117,5.117,0,0,1,.887,3.2ZM42.165,12.7a3.735,3.735,0,0,0-.609-2.258,1.963,1.963,0,0,0-1.672-.828,2.125,2.125,0,0,0-1.969,1.164V14.82A2.129,2.129,0,0,0,39.9,15.977a1.954,1.954,0,0,0,1.652-.824A4.077,4.077,0,0,0,42.165,12.7Zm6.672,3.273a2.082,2.082,0,0,0,1.352-.469,1.649,1.649,0,0,0,.641-1.172H52.2a2.621,2.621,0,0,1-.5,1.383,3.293,3.293,0,0,1-1.23,1.047,3.55,3.55,0,0,1-1.629.391A3.482,3.482,0,0,1,46.091,16a4.59,4.59,0,0,1-1.02-3.152v-.242a5.089,5.089,0,0,1,.453-2.2,3.451,3.451,0,0,1,1.3-1.492,3.7,3.7,0,0,1,2-.531,3.39,3.39,0,0,1,2.363.852,3.043,3.043,0,0,1,1,2.211H50.829a1.992,1.992,0,0,0-.621-1.348,1.932,1.932,0,0,0-1.379-.527,2.023,2.023,0,0,0-1.707.793,3.724,3.724,0,0,0-.605,2.293v.273a3.65,3.65,0,0,0,.6,2.25A2.033,2.033,0,0,0,48.837,15.977ZM55.392,17H53.947V8.547h1.445ZM53.829,6.3a.863.863,0,0,1,.215-.594.807.807,0,0,1,.637-.242.819.819,0,0,1,.641.242.854.854,0,0,1,.219.594.826.826,0,0,1-.219.586.834.834,0,0,1-.641.234.821.821,0,0,1-.637-.234A.834.834,0,0,1,53.829,6.3ZM57.322,12.7a4.993,4.993,0,0,1,.488-2.234A3.643,3.643,0,0,1,59.169,8.93a3.7,3.7,0,0,1,1.988-.539,3.565,3.565,0,0,1,2.793,1.2,4.6,4.6,0,0,1,1.066,3.18v.1a5.036,5.036,0,0,1-.473,2.215,3.589,3.589,0,0,1-1.352,1.527,3.743,3.743,0,0,1-2.02.547,3.556,3.556,0,0,1-2.785-1.2A4.575,4.575,0,0,1,57.322,12.8Zm1.453.172a3.616,3.616,0,0,0,.652,2.258,2.211,2.211,0,0,0,3.5-.012,3.955,3.955,0,0,0,.648-2.418,3.61,3.61,0,0,0-.66-2.254,2.1,2.1,0,0,0-1.754-.863,2.075,2.075,0,0,0-1.727.852A3.925,3.925,0,0,0,58.775,12.867ZM61.814,5h1.75L61.47,7.3l-1.164,0ZM68.2,8.547l.047,1.063a3.08,3.08,0,0,1,2.531-1.219q2.68,0,2.7,3.023V17H72.032V11.406a1.946,1.946,0,0,0-.418-1.352,1.675,1.675,0,0,0-1.277-.437,2.086,2.086,0,0,0-1.234.375,2.546,2.546,0,0,0-.828.984V17H66.829V8.547Zm13.375,2.063h1.086a2.387,2.387,0,0,0,1.609-.539,1.8,1.8,0,0,0,.586-1.414,1.764,1.764,0,0,0-1.992-2,2.072,2.072,0,0,0-1.5.535,1.873,1.873,0,0,0-.559,1.418H79.361a2.9,2.9,0,0,1,.988-2.246,3.6,3.6,0,0,1,2.512-.895,3.558,3.558,0,0,1,2.523.852A3.076,3.076,0,0,1,86.3,8.688a2.5,2.5,0,0,1-.48,1.438,2.9,2.9,0,0,1-1.309,1.039,2.8,2.8,0,0,1,1.449.984,2.734,2.734,0,0,1,.512,1.68,3.1,3.1,0,0,1-1,2.43,3.745,3.745,0,0,1-2.6.9,3.844,3.844,0,0,1-2.605-.867,2.877,2.877,0,0,1-1-2.289h1.453a1.859,1.859,0,0,0,.586,1.438,2.229,2.229,0,0,0,1.57.539,2.187,2.187,0,0,0,1.6-.547,2.108,2.108,0,0,0,.555-1.57,1.912,1.912,0,0,0-.609-1.523,2.655,2.655,0,0,0-1.758-.547H81.572Z" transform="translate(3688.151 -10293.493)" fill="#12263f"/>
    <path id="Trazado_191231" data-name="Trazado 191231" d="M34.447,11.68a7.037,7.037,0,0,1-.562,2.918,4.261,4.261,0,0,1-1.594,1.9,4.4,4.4,0,0,1-6.4-1.887,6.752,6.752,0,0,1-.59-2.832v-.82a6.953,6.953,0,0,1,.57-2.9,4.218,4.218,0,0,1,4-2.594,4.41,4.41,0,0,1,2.41.66,4.253,4.253,0,0,1,1.605,1.914,7.071,7.071,0,0,1,.563,2.918Zm-1.492-.734a5.1,5.1,0,0,0-.812-3.105,2.68,2.68,0,0,0-2.273-1.082A2.651,2.651,0,0,0,27.63,7.84a5,5,0,0,0-.84,3v.836a5.107,5.107,0,0,0,.824,3.082,2.888,2.888,0,0,0,4.52.063,5.079,5.079,0,0,0,.82-3.035Zm10.656,1.922a5.062,5.062,0,0,1-.883,3.109,2.829,2.829,0,0,1-2.391,1.18,3.1,3.1,0,0,1-2.422-.977v4.07H36.47V8.547h1.32l.07.938a2.977,2.977,0,0,1,2.453-1.094,2.882,2.882,0,0,1,2.41,1.148,5.117,5.117,0,0,1,.887,3.2ZM42.165,12.7a3.735,3.735,0,0,0-.609-2.258,1.963,1.963,0,0,0-1.672-.828,2.125,2.125,0,0,0-1.969,1.164V14.82A2.129,2.129,0,0,0,39.9,15.977a1.954,1.954,0,0,0,1.652-.824A4.077,4.077,0,0,0,42.165,12.7Zm6.672,3.273a2.082,2.082,0,0,0,1.352-.469,1.649,1.649,0,0,0,.641-1.172H52.2a2.621,2.621,0,0,1-.5,1.383,3.293,3.293,0,0,1-1.23,1.047,3.55,3.55,0,0,1-1.629.391A3.482,3.482,0,0,1,46.091,16a4.59,4.59,0,0,1-1.02-3.152v-.242a5.089,5.089,0,0,1,.453-2.2,3.451,3.451,0,0,1,1.3-1.492,3.7,3.7,0,0,1,2-.531,3.39,3.39,0,0,1,2.363.852,3.043,3.043,0,0,1,1,2.211H50.829a1.992,1.992,0,0,0-.621-1.348,1.932,1.932,0,0,0-1.379-.527,2.023,2.023,0,0,0-1.707.793,3.724,3.724,0,0,0-.605,2.293v.273a3.65,3.65,0,0,0,.6,2.25A2.033,2.033,0,0,0,48.837,15.977ZM55.392,17H53.947V8.547h1.445ZM53.829,6.3a.863.863,0,0,1,.215-.594.807.807,0,0,1,.637-.242.819.819,0,0,1,.641.242.854.854,0,0,1,.219.594.826.826,0,0,1-.219.586.834.834,0,0,1-.641.234.821.821,0,0,1-.637-.234A.834.834,0,0,1,53.829,6.3ZM57.322,12.7a4.993,4.993,0,0,1,.488-2.234A3.643,3.643,0,0,1,59.169,8.93a3.7,3.7,0,0,1,1.988-.539,3.565,3.565,0,0,1,2.793,1.2,4.6,4.6,0,0,1,1.066,3.18v.1a5.036,5.036,0,0,1-.473,2.215,3.589,3.589,0,0,1-1.352,1.527,3.743,3.743,0,0,1-2.02.547,3.556,3.556,0,0,1-2.785-1.2A4.575,4.575,0,0,1,57.322,12.8Zm1.453.172a3.616,3.616,0,0,0,.652,2.258,2.211,2.211,0,0,0,3.5-.012,3.955,3.955,0,0,0,.648-2.418,3.61,3.61,0,0,0-.66-2.254,2.1,2.1,0,0,0-1.754-.863,2.075,2.075,0,0,0-1.727.852A3.925,3.925,0,0,0,58.775,12.867ZM61.814,5h1.75L61.47,7.3l-1.164,0ZM68.2,8.547l.047,1.063a3.08,3.08,0,0,1,2.531-1.219q2.68,0,2.7,3.023V17H72.032V11.406a1.946,1.946,0,0,0-.418-1.352,1.675,1.675,0,0,0-1.277-.437,2.086,2.086,0,0,0-1.234.375,2.546,2.546,0,0,0-.828.984V17H66.829V8.547ZM84.22,17H82.767V7.367l-2.914,1.07V7.125L83.993,5.57h.227Z" transform="translate(3328.796 -10293.682)" fill="#12263f"/>
    <g id="Grupo_129576" data-name="Grupo 129576" transform="translate(1428.917 -12638.389)">
      <g id="Grupo_129575" data-name="Grupo 129575">
        <path id="Trazado_190556" data-name="Trazado 190556" d="M1955.822,2319.409v-7.1h359.14" fill="none" stroke="#b13e8d" stroke-linecap="round" stroke-linejoin="round" stroke-width="0.747"/>
        <g id="Grupo_129574" data-name="Grupo 129574">
          <path id="Trazado_190557" data-name="Trazado 190557" d="M1958.588,2317.311l-2.766,1.175-2.766-1.175,2.766,6.556Z" fill="#b13e8d"/>
        </g>
      </g>
    </g>
    <g id="Grupo_129579" data-name="Grupo 129579" transform="translate(1428.917 -12638.389)">
      <g id="Grupo_129578" data-name="Grupo 129578">
        <line id="Línea_415" data-name="Línea 415" y1="7.104" transform="translate(2138.452 2312.305)" fill="none" stroke="#b13e8d" stroke-miterlimit="10" stroke-width="0.747"/>
        <g id="Grupo_129577" data-name="Grupo 129577">
          <path id="Trazado_190558" data-name="Trazado 190558" d="M2141.218,2317.311l-2.766,1.175-2.766-1.175,2.766,6.556Z" fill="#b13e8d"/>
        </g>
      </g>
    </g>
    <g id="Grupo_129583" data-name="Grupo 129583" transform="translate(1428.917 -12638.389)">
      <g id="Grupo_129582" data-name="Grupo 129582">
        <g id="Grupo_129581" data-name="Grupo 129581">
          <line id="Línea_416" data-name="Línea 416" y1="7.104" transform="translate(2314.962 2312.305)" fill="none" stroke="#b13e8d" stroke-linecap="round" stroke-linejoin="round" stroke-width="0.747"/>
          <g id="Grupo_129580" data-name="Grupo 129580">
            <path id="Trazado_190559" data-name="Trazado 190559" d="M2317.728,2317.311l-2.766,1.175-2.766-1.175,2.766,6.556Z" fill="#b13e8d"/>
          </g>
        </g>
      </g>
    </g>
    <path id="Trazado_191232" data-name="Trazado 191232" d="M0,0V14.047" transform="translate(3567.894 -10399.322)" fill="none" stroke="#b13e8d" stroke-width="0.747"/>
    <path id="Trazado_191233" data-name="Trazado 191233" d="M0,12.852V0" transform="translate(3567.401 -10338.936)" fill="none" stroke="#b13e8d" stroke-width="0.747"/>
    <path id="Trazado_191234" data-name="Trazado 191234" d="M8.4,0h72.3a8.4,8.4,0,0,1,8.4,8.4V39.735a8.4,8.4,0,0,1-8.4,8.4H8.4a8.4,8.4,0,0,1-8.4-8.4V8.4A8.4,8.4,0,0,1,8.4,0Z" transform="translate(3339.916 -10234.254)" fill="#e8e8e8"/>
    <path id="Trazado_191235" data-name="Trazado 191235" d="M59.849,17H52.4V15.961l3.938-4.375A9.355,9.355,0,0,0,57.54,9.973a2.693,2.693,0,0,0,.332-1.285,2.041,2.041,0,0,0-.539-1.461,1.885,1.885,0,0,0-1.437-.57,2.232,2.232,0,0,0-1.676.613,2.343,2.343,0,0,0-.6,1.707H52.177a3.355,3.355,0,0,1,1.012-2.539A3.751,3.751,0,0,1,55.9,5.469,3.6,3.6,0,0,1,58.4,6.3a2.838,2.838,0,0,1,.922,2.215q0,1.68-2.141,4l-3.047,3.3h5.711Z" transform="translate(3328.796 -10219.947)" fill="#12263f"/>
    <path id="Trazado_191236" data-name="Trazado 191236" d="M8.4,0h72.3a8.4,8.4,0,0,1,8.4,8.4V39.735a8.4,8.4,0,0,1-8.4,8.4H8.4a8.4,8.4,0,0,1-8.4-8.4V8.4A8.4,8.4,0,0,1,8.4,0Z" transform="translate(3233.045 -10234.254)" fill="#e8e8e8"/>
    <path id="Trazado_191237" data-name="Trazado 191237" d="M57.146,17H55.693V7.367l-2.914,1.07V7.125L56.919,5.57h.227Z" transform="translate(3221.926 -10219.947)" fill="#12263f"/>
    <path id="Trazado_191238" data-name="Trazado 191238" d="M8.4,0h72.3a8.4,8.4,0,0,1,8.4,8.4V39.735a8.4,8.4,0,0,1-8.4,8.4H8.4a8.4,8.4,0,0,1-8.4-8.4V8.4A8.4,8.4,0,0,1,8.4,0Z" transform="translate(3806.141 -10234.254)" fill="#e8e8e8"/>
    <path id="Trazado_191239" data-name="Trazado 191239" d="M58.068,5.617V6.844H57.8a3.805,3.805,0,0,0-2.687,1,4.161,4.161,0,0,0-1.156,2.727,3.085,3.085,0,0,1,2.453-1.031,2.95,2.95,0,0,1,2.371,1.047,4.038,4.038,0,0,1,.887,2.7,4.025,4.025,0,0,1-.957,2.813,3.3,3.3,0,0,1-2.566,1.055A3.247,3.247,0,0,1,53.5,15.9a4.97,4.97,0,0,1-1.016-3.23v-.555a7.488,7.488,0,0,1,1.34-4.8,4.921,4.921,0,0,1,3.988-1.7Zm-1.9,5.125A2.429,2.429,0,0,0,53.935,12.3v.531a3.731,3.731,0,0,0,.633,2.266,1.9,1.9,0,0,0,1.578.859,1.838,1.838,0,0,0,1.535-.719,2.982,2.982,0,0,0,.559-1.883,2.983,2.983,0,0,0-.566-1.895A1.816,1.816,0,0,0,56.169,10.742Z" transform="translate(3795.021 -10219.947)" fill="#12263f"/>
    <path id="Trazado_191240" data-name="Trazado 191240" d="M8.4,0h72.3a8.4,8.4,0,0,1,8.4,8.4V39.735a8.4,8.4,0,0,1-8.4,8.4H8.4a8.4,8.4,0,0,1-8.4-8.4V8.4A8.4,8.4,0,0,1,8.4,0Z" transform="translate(3699.27 -10234.254)" fill="#e8e8e8"/>
    <path id="Trazado_191241" data-name="Trazado 191241" d="M53.06,11.3l.578-5.672h5.828V6.961h-4.6l-.344,3.1a3.671,3.671,0,0,1,1.9-.492A3.138,3.138,0,0,1,58.888,10.6a4.026,4.026,0,0,1,.914,2.777,3.886,3.886,0,0,1-.949,2.77A3.46,3.46,0,0,1,56.2,17.156a3.6,3.6,0,0,1-2.461-.836,3.337,3.337,0,0,1-1.086-2.312h1.367a2.3,2.3,0,0,0,.7,1.473,2.162,2.162,0,0,0,1.484.5,1.95,1.95,0,0,0,1.582-.687,2.874,2.874,0,0,0,.574-1.9,2.638,2.638,0,0,0-.621-1.832,2.113,2.113,0,0,0-1.652-.691,2.383,2.383,0,0,0-1.484.414l-.383.313Z" transform="translate(3688.151 -10219.947)" fill="#12263f"/>
    <path id="Trazado_191242" data-name="Trazado 191242" d="M8.4,0h72.3a8.4,8.4,0,0,1,8.4,8.4V39.735a8.4,8.4,0,0,1-8.4,8.4H8.4a8.4,8.4,0,0,1-8.4-8.4V8.4A8.4,8.4,0,0,1,8.4,0Z" transform="translate(3572.921 -10234.254)" fill="#e8e8e8"/>
    <path id="Trazado_191243" data-name="Trazado 191243" d="M58.5,13.18h1.578v1.18H58.5V17H57.044V14.359h-5.18v-.852l5.094-7.883H58.5Zm-4.992,0h3.539V7.6l-.172.313Z" transform="translate(3561.801 -10219.947)" fill="#12263f"/>
    <path id="Trazado_191244" data-name="Trazado 191244" d="M8.4,0h72.3a8.4,8.4,0,0,1,8.4,8.4V39.735a8.4,8.4,0,0,1-8.4,8.4H8.4a8.4,8.4,0,0,1-8.4-8.4V8.4A8.4,8.4,0,0,1,8.4,0Z" transform="translate(3466.05 -10234.254)" fill="#e8e8e8"/>
    <path id="Trazado_191245" data-name="Trazado 191245" d="M54.5,10.609h1.086a2.387,2.387,0,0,0,1.609-.539,1.8,1.8,0,0,0,.586-1.414,1.764,1.764,0,0,0-1.992-2,2.072,2.072,0,0,0-1.5.535,1.873,1.873,0,0,0-.559,1.418H52.286a2.9,2.9,0,0,1,.988-2.246,3.6,3.6,0,0,1,2.512-.895,3.558,3.558,0,0,1,2.523.852,3.076,3.076,0,0,1,.914,2.367,2.5,2.5,0,0,1-.48,1.438,2.9,2.9,0,0,1-1.309,1.039,2.8,2.8,0,0,1,1.449.984,2.734,2.734,0,0,1,.512,1.68,3.1,3.1,0,0,1-1,2.43,3.745,3.745,0,0,1-2.6.9,3.844,3.844,0,0,1-2.605-.867,2.877,2.877,0,0,1-1-2.289h1.453a1.859,1.859,0,0,0,.586,1.438,2.229,2.229,0,0,0,1.57.539,2.187,2.187,0,0,0,1.6-.547,2.108,2.108,0,0,0,.555-1.57,1.912,1.912,0,0,0-.609-1.523,2.655,2.655,0,0,0-1.758-.547H54.5Z" transform="translate(3454.931 -10219.947)" fill="#12263f"/>
    <g id="Grupo_129585" data-name="Grupo 129585" transform="translate(1428.917 -12638.389)">
      <path id="Trazado_190560" data-name="Trazado 190560" d="M1911,2356.467h-62.047v35.758" fill="none" stroke="#b13e8d" stroke-miterlimit="10" stroke-width="0.747"/>
      <g id="Grupo_129584" data-name="Grupo 129584">
        <path id="Trazado_190561" data-name="Trazado 190561" d="M1846.186,2390.127l2.766,1.175,2.766-1.175-2.766,6.556Z" fill="#b13e8d"/>
      </g>
    </g>
    <g id="Grupo_129587" data-name="Grupo 129587" transform="translate(1428.917 -12638.389)">
      <line id="Línea_419" data-name="Línea 419" y2="11.692" transform="translate(1955.544 2380.533)" fill="none" stroke="#b13e8d" stroke-linecap="round" stroke-linejoin="round" stroke-width="0.747"/>
      <g id="Grupo_129586" data-name="Grupo 129586">
        <path id="Trazado_190562" data-name="Trazado 190562" d="M1952.778,2390.127l2.766,1.175,2.766-1.175-2.766,6.556Z" fill="#b13e8d"/>
      </g>
    </g>
    <g id="Grupo_129589" data-name="Grupo 129589" transform="translate(1428.917 -12638.389)">
      <path id="Trazado_190563" data-name="Trazado 190563" d="M2093.875,2356.467h-14.389v35.758" fill="none" stroke="#b13e8d" stroke-linecap="round" stroke-linejoin="round" stroke-width="0.747"/>
      <g id="Grupo_129588" data-name="Grupo 129588">
        <path id="Trazado_190564" data-name="Trazado 190564" d="M2076.721,2390.127l2.766,1.175,2.766-1.175-2.766,6.556Z" fill="#b13e8d"/>
      </g>
    </g>
    <g id="Grupo_129591" data-name="Grupo 129591" transform="translate(1428.917 -12638.389)">
      <path id="Trazado_190565" data-name="Trazado 190565" d="M2181.633,2356.467h14.389v35.758" fill="none" stroke="#b13e8d" stroke-linecap="round" stroke-linejoin="round" stroke-width="0.747"/>
      <g id="Grupo_129590" data-name="Grupo 129590">
        <path id="Trazado_190566" data-name="Trazado 190566" d="M2193.256,2390.127l2.766,1.175,2.766-1.175-2.766,6.556Z" fill="#b13e8d"/>
      </g>
    </g>
    <g id="Grupo_129593" data-name="Grupo 129593" transform="translate(1428.917 -12638.389)">
      <path id="Trazado_190567" data-name="Trazado 190567" d="M1911,2356.467h-62.047v35.758" fill="none" stroke="#b13e8d" stroke-miterlimit="10" stroke-width="0.747"/>
      <g id="Grupo_129592" data-name="Grupo 129592">
        <path id="Trazado_190568" data-name="Trazado 190568" d="M1846.186,2390.127l2.766,1.175,2.766-1.175-2.766,6.556Z" fill="#b13e8d"/>
      </g>
    </g>
    <g id="Grupo_129595" data-name="Grupo 129595" transform="translate(1428.917 -12638.389)">
      <line id="Línea_420" data-name="Línea 420" y2="11.692" transform="translate(1955.544 2380.533)" fill="none" stroke="#b13e8d" stroke-linecap="round" stroke-linejoin="round" stroke-width="0.747"/>
      <g id="Grupo_129594" data-name="Grupo 129594">
        <path id="Trazado_190569" data-name="Trazado 190569" d="M1952.778,2390.127l2.766,1.175,2.766-1.175-2.766,6.556Z" fill="#b13e8d"/>
      </g>
    </g>
    <g id="Grupo_129597" data-name="Grupo 129597" transform="translate(1428.917 -12638.389)">
      <path id="Trazado_190570" data-name="Trazado 190570" d="M2359.722,2356.467h62.047v35.758" fill="none" stroke="#b13e8d" stroke-miterlimit="10" stroke-width="0.747"/>
      <g id="Grupo_129596" data-name="Grupo 129596">
        <path id="Trazado_190571" data-name="Trazado 190571" d="M2419,2390.127l2.766,1.175,2.766-1.175-2.766,6.556Z" fill="#b13e8d"/>
      </g>
    </g>
    <g id="Grupo_129599" data-name="Grupo 129599" transform="translate(1428.917 -12638.389)">
      <line id="Línea_421" data-name="Línea 421" y2="11.692" transform="translate(2315.177 2380.533)" fill="none" stroke="#b13e8d" stroke-linecap="round" stroke-linejoin="round" stroke-width="0.747"/>
      <g id="Grupo_129598" data-name="Grupo 129598">
        <path id="Trazado_190572" data-name="Trazado 190572" d="M2312.411,2390.127l2.766,1.175,2.766-1.175-2.766,6.556Z" fill="#b13e8d"/>
      </g>
    </g>
    <path id="Trazado_191246" data-name="Trazado 191246" d="M8.4,0h72.3a8.4,8.4,0,0,1,8.4,8.4V39.735a8.4,8.4,0,0,1-8.4,8.4H8.4a8.4,8.4,0,0,1-8.4-8.4V8.4A8.4,8.4,0,0,1,8.4,0Z" transform="translate(3699.334 -10305.988)" fill="none" stroke="#b13e8d" stroke-linecap="round" stroke-width="1.494"/>
    <path id="Trazado_191247" data-name="Trazado 191247" d="M8.4,0h72.3a8.4,8.4,0,0,1,8.4,8.4V39.735a8.4,8.4,0,0,1-8.4,8.4H8.4a8.4,8.4,0,0,1-8.4-8.4V8.4A8.4,8.4,0,0,1,8.4,0Z" transform="translate(3339.916 -10305.988)" fill="none" stroke="#b13e8d" stroke-linecap="round" stroke-width="1.494"/>
    <path id="Trazado_191248" data-name="Trazado 191248" d="M9.423,0h93.341a9.423,9.423,0,0,1,9.423,9.423V38.709a9.423,9.423,0,0,1-9.423,9.423H9.423A9.423,9.423,0,0,1,0,38.709V9.423A9.423,9.423,0,0,1,9.423,0Z" transform="translate(3511.307 -10447.453)" fill="none" stroke="#b13e8d" stroke-linecap="round" stroke-width="1.494"/>
    <path id="Trazado_191249" data-name="Trazado 191249" d="M8.4,0h72.3a8.4,8.4,0,0,1,8.4,8.4V39.735a8.4,8.4,0,0,1-8.4,8.4H8.4a8.4,8.4,0,0,1-8.4-8.4V8.4A8.4,8.4,0,0,1,8.4,0Z" transform="translate(3522.792 -10305.988)" fill="none" stroke="#b13e8d" stroke-linecap="round" stroke-width="1.494"/>
    <path id="Trazado_191250" data-name="Trazado 191250" d="M8.4,0h72.3a8.4,8.4,0,0,1,8.4,8.4V39.735a8.4,8.4,0,0,1-8.4,8.4H8.4a8.4,8.4,0,0,1-8.4-8.4V8.4A8.4,8.4,0,0,1,8.4,0Z" transform="translate(3339.916 -10234.254)" fill="none" stroke="#b13e8d" stroke-linecap="round" stroke-width="1.494"/>
    <path id="Trazado_191251" data-name="Trazado 191251" d="M8.4,0h72.3a8.4,8.4,0,0,1,8.4,8.4V39.735a8.4,8.4,0,0,1-8.4,8.4H8.4a8.4,8.4,0,0,1-8.4-8.4V8.4A8.4,8.4,0,0,1,8.4,0Z" transform="translate(3233.045 -10234.254)" fill="none" stroke="#b13e8d" stroke-linecap="round" stroke-width="1.494"/>
    <path id="Trazado_191252" data-name="Trazado 191252" d="M8.4,0h72.3a8.4,8.4,0,0,1,8.4,8.4V39.735a8.4,8.4,0,0,1-8.4,8.4H8.4a8.4,8.4,0,0,1-8.4-8.4V8.4A8.4,8.4,0,0,1,8.4,0Z" transform="translate(3806.141 -10234.254)" fill="none" stroke="#b13e8d" stroke-linecap="round" stroke-width="1.494"/>
    <path id="Trazado_191253" data-name="Trazado 191253" d="M8.4,0h72.3a8.4,8.4,0,0,1,8.4,8.4V39.735a8.4,8.4,0,0,1-8.4,8.4H8.4a8.4,8.4,0,0,1-8.4-8.4V8.4A8.4,8.4,0,0,1,8.4,0Z" transform="translate(3699.27 -10234.254)" fill="none" stroke="#b13e8d" stroke-linecap="round" stroke-width="1.494"/>
    <path id="Trazado_191254" data-name="Trazado 191254" d="M8.4,0h72.3a8.4,8.4,0,0,1,8.4,8.4V39.735a8.4,8.4,0,0,1-8.4,8.4H8.4a8.4,8.4,0,0,1-8.4-8.4V8.4A8.4,8.4,0,0,1,8.4,0Z" transform="translate(3572.921 -10234.254)" fill="none" stroke="#b13e8d" stroke-linecap="round" stroke-width="1.494"/>
    <path id="Trazado_191255" data-name="Trazado 191255" d="M8.4,0h72.3a8.4,8.4,0,0,1,8.4,8.4V39.735a8.4,8.4,0,0,1-8.4,8.4H8.4a8.4,8.4,0,0,1-8.4-8.4V8.4A8.4,8.4,0,0,1,8.4,0Z" transform="translate(3466.05 -10234.254)" fill="none" stroke="#b13e8d" stroke-linecap="round" stroke-width="1.494"/>
  </g>
</svg>
