<svg xmlns="http://www.w3.org/2000/svg" width="163.799" height="95.579" viewBox="0 0 163.799 95.579">
  <g id="Trazado_191141" data-name="Trazado 191141" transform="translate(-3845.687 -2699.061)" fill="#6836bf" stroke-linecap="round" stroke-linejoin="round">
    <path d="M 3887.685546875 2793.611083984375 C 3887.683837890625 2793.611083984375 3887.68310546875 2793.611083984375 3887.681640625 2793.611083984375 C 3882.04248046875 2793.61083984375 3876.4150390625 2793.213623046875 3870.955810546875 2792.43017578125 C 3866.585693359375 2791.80322265625 3862.312255859375 2790.9287109375 3858.25390625 2789.8310546875 C 3851.319580078125 2787.955322265625 3847.456787109375 2786.097900390625 3847.2958984375 2786.019775390625 L 3846.716064453125 2785.73828125 L 3846.716064453125 2785.093994140625 L 3846.716064453125 2773.89990234375 L 3846.716064453125 2701.118896484375 L 3846.716064453125 2700.08984375 L 3847.7451171875 2700.08984375 L 4007.427978515625 2700.08984375 L 4008.45703125 2700.08984375 L 4008.45703125 2701.118896484375 L 4008.45703125 2773.89990234375 L 4008.45703125 2774.928955078125 L 4007.427978515625 2774.928955078125 C 3976.60986328125 2774.928955078125 3962.31689453125 2778.67578125 3942.534912109375 2783.86181640625 C 3934.586669921875 2785.945556640625 3925.577880859375 2788.307373046875 3914.2724609375 2790.740966796875 C 3905.42724609375 2792.645263671875 3896.4814453125 2793.611083984375 3887.685546875 2793.611083984375 Z" stroke="none"/>
    <path d="M 3847.7451171875 2701.118896484375 L 3847.7451171875 2785.093994140625 C 3847.7451171875 2785.093994140625 3863.173095703125 2792.58203125 3887.681640625 2792.58203125 C 3895.59765625 2792.58203125 3904.457763671875 2791.801513671875 3914.055908203125 2789.735107421875 C 3953.37109375 2781.27197265625 3964.01904296875 2773.89990234375 4007.427978515625 2773.89990234375 L 4007.427978515625 2701.118896484375 L 3847.7451171875 2701.118896484375 M 3847.7451171875 2699.06103515625 L 4007.427978515625 2699.06103515625 C 4008.564453125 2699.06103515625 4009.48583984375 2699.982421875 4009.48583984375 2701.118896484375 L 4009.48583984375 2773.89990234375 C 4009.48583984375 2775.036376953125 4008.564453125 2775.957763671875 4007.427978515625 2775.957763671875 C 3976.742431640625 2775.957763671875 3962.50341796875 2779.690673828125 3942.7958984375 2784.857177734375 C 3934.83740234375 2786.943603515625 3925.81689453125 2789.30859375 3914.489013671875 2791.7470703125 C 3905.572509765625 2793.666748046875 3896.552978515625 2794.639892578125 3887.681640625 2794.639892578125 C 3881.993896484375 2794.639892578125 3876.3173828125 2794.2392578125 3870.8095703125 2793.44921875 C 3866.3984375 2792.816162109375 3862.083740234375 2791.93310546875 3857.9853515625 2790.824462890625 C 3850.95849609375 2788.923828125 3847.01123046875 2787.025390625 3846.846435546875 2786.9453125 C 3846.137451171875 2786.601318359375 3845.687255859375 2785.88232421875 3845.687255859375 2785.093994140625 L 3845.687255859375 2701.118896484375 C 3845.687255859375 2699.982421875 3846.608642578125 2699.06103515625 3847.7451171875 2699.06103515625 Z" stroke="none" fill="#fff"/>
  </g>
</svg>
