<svg xmlns="http://www.w3.org/2000/svg" width="139.947" height="111.791" viewBox="0 0 139.947 111.791">
  <g id="Grupo_132004" data-name="Grupo 132004" transform="translate(-443.864 -3015.963)">
    <g id="Trazado_191143" data-name="Trazado 191143" transform="translate(-3413.75 183.616)" fill="#6836bf" stroke-linecap="round" stroke-linejoin="round">
      <path d="M 3996.531005859375 2902.01806640625 L 3995.501953125 2902.01806640625 L 3920.167236328125 2902.01806640625 L 3919.13818359375 2902.01806640625 L 3919.13818359375 2900.989013671875 L 3919.13818359375 2834.405029296875 L 3919.13818359375 2833.3759765625 L 3920.167236328125 2833.3759765625 L 3971.531982421875 2833.3759765625 L 3971.958251953125 2833.3759765625 L 3972.259521484375 2833.677490234375 L 3996.2294921875 2857.647705078125 L 3996.531005859375 2857.948974609375 L 3996.531005859375 2858.375244140625 L 3996.531005859375 2900.989013671875 L 3996.531005859375 2902.01806640625 Z" stroke="none"/>
      <path d="M 3920.167236328125 2834.405029296875 L 3920.167236328125 2900.989013671875 L 3995.501953125 2900.989013671875 L 3995.501953125 2858.375244140625 L 3971.531982421875 2834.405029296875 L 3920.167236328125 2834.405029296875 M 3920.167236328125 2832.34716796875 L 3971.531982421875 2832.34716796875 C 3972.077880859375 2832.34716796875 3972.601318359375 2832.56396484375 3972.9873046875 2832.949951171875 L 3996.957275390625 2856.919921875 C 3997.343017578125 2857.305908203125 3997.559814453125 2857.829345703125 3997.559814453125 2858.375244140625 L 3997.559814453125 2900.989013671875 C 3997.559814453125 2902.12548828125 3996.638427734375 2903.046875 3995.501953125 2903.046875 L 3920.167236328125 2903.046875 C 3919.03076171875 2903.046875 3918.109375 2902.12548828125 3918.109375 2900.989013671875 L 3918.109375 2834.405029296875 C 3918.109375 2833.2685546875 3919.03076171875 2832.34716796875 3920.167236328125 2832.34716796875 Z" stroke="none" fill="#fff"/>
    </g>
    <g id="Trazado_191145" data-name="Trazado 191145" transform="translate(-3413.75 183.616)" fill="#6836bf" stroke-linecap="round" stroke-linejoin="round">
      <path d="M 3966.282958984375 2922.563720703125 L 3965.25390625 2922.563720703125 L 3889.919189453125 2922.563720703125 L 3888.89013671875 2922.563720703125 L 3888.89013671875 2921.53466796875 L 3888.89013671875 2854.950927734375 L 3888.89013671875 2853.921875 L 3889.919189453125 2853.921875 L 3941.28369140625 2853.921875 L 3941.7099609375 2853.921875 L 3942.01123046875 2854.223388671875 L 3965.9814453125 2878.193603515625 L 3966.282958984375 2878.494873046875 L 3966.282958984375 2878.921142578125 L 3966.282958984375 2921.53466796875 L 3966.282958984375 2922.563720703125 Z" stroke="none"/>
      <path d="M 3889.919189453125 2854.950927734375 L 3889.919189453125 2921.53466796875 L 3965.25390625 2921.53466796875 L 3965.25390625 2878.921142578125 L 3941.28369140625 2854.950927734375 L 3889.919189453125 2854.950927734375 M 3889.919189453125 2852.89306640625 L 3941.28369140625 2852.89306640625 C 3941.82958984375 2852.89306640625 3942.35302734375 2853.10986328125 3942.739013671875 2853.495849609375 L 3966.708984375 2877.466064453125 C 3967.094970703125 2877.851806640625 3967.311767578125 2878.375244140625 3967.311767578125 2878.921142578125 L 3967.311767578125 2921.53466796875 C 3967.311767578125 2922.671142578125 3966.390380859375 2923.592529296875 3965.25390625 2923.592529296875 L 3889.919189453125 2923.592529296875 C 3888.78271484375 2923.592529296875 3887.861328125 2922.671142578125 3887.861328125 2921.53466796875 L 3887.861328125 2854.950927734375 C 3887.861328125 2853.814453125 3888.78271484375 2852.89306640625 3889.919189453125 2852.89306640625 Z" stroke="none" fill="#fff"/>
    </g>
    <g id="Trazado_191147" data-name="Trazado 191147" transform="translate(-3413.75 183.616)" fill="#6836bf" stroke-linecap="round" stroke-linejoin="round">
      <path d="M 3936.03466796875 2943.109619140625 L 3935.005615234375 2943.109619140625 L 3859.6708984375 2943.109619140625 L 3858.641845703125 2943.109619140625 L 3858.641845703125 2942.08056640625 L 3858.641845703125 2875.496826171875 L 3858.641845703125 2874.4677734375 L 3859.6708984375 2874.4677734375 L 3911.03564453125 2874.4677734375 L 3911.4619140625 2874.4677734375 L 3911.76318359375 2874.769287109375 L 3935.733154296875 2898.739501953125 L 3936.03466796875 2899.040771484375 L 3936.03466796875 2899.467041015625 L 3936.03466796875 2942.08056640625 L 3936.03466796875 2943.109619140625 Z" stroke="none"/>
      <path d="M 3859.6708984375 2875.496826171875 L 3859.6708984375 2942.08056640625 L 3935.005615234375 2942.08056640625 L 3935.005615234375 2899.467041015625 L 3911.03564453125 2875.496826171875 L 3859.6708984375 2875.496826171875 M 3859.6708984375 2873.43896484375 L 3911.03564453125 2873.43896484375 C 3911.58154296875 2873.43896484375 3912.10498046875 2873.65576171875 3912.490966796875 2874.041748046875 L 3936.4609375 2898.011962890625 C 3936.8466796875 2898.397705078125 3937.0634765625 2898.921142578125 3937.0634765625 2899.467041015625 L 3937.0634765625 2942.08056640625 C 3937.0634765625 2943.217041015625 3936.14208984375 2944.138427734375 3935.005615234375 2944.138427734375 L 3859.6708984375 2944.138427734375 C 3858.534423828125 2944.138427734375 3857.613037109375 2943.217041015625 3857.613037109375 2942.08056640625 L 3857.613037109375 2875.496826171875 C 3857.613037109375 2874.3603515625 3858.534423828125 2873.43896484375 3859.6708984375 2873.43896484375 Z" stroke="none" fill="#fff"/>
    </g>
  </g>
</svg>
