<svg xmlns="http://www.w3.org/2000/svg" width="155.809" height="31.943" viewBox="0 0 155.809 31.943">
  <g id="Trazado_191140" data-name="Trazado 191140" transform="translate(-3849.682 -2589.482)" fill="#6836bf" stroke-linecap="round" stroke-linejoin="round">
    <path d="M 3968.51123046875 2621.302490234375 L 3969.50439453125 2618.96484375 L 3974.009033203125 2608.361572265625 L 3851.73974609375 2608.361572265625 L 3850.710693359375 2608.361572265625 L 3850.710693359375 2607.33251953125 L 3850.710693359375 2603.57421875 L 3850.710693359375 2602.545166015625 L 3851.73974609375 2602.545166015625 L 3974.0087890625 2602.545166015625 L 3969.50439453125 2591.942626953125 L 3968.51123046875 2589.60498046875 L 3970.851318359375 2590.59228515625 L 4003.833251953125 2604.505859375 L 4006.080810546875 2605.453857421875 L 4003.833251953125 2606.40185546875 L 3970.851318359375 2620.315185546875 L 3968.51123046875 2621.302490234375 Z" stroke="none"/>
    <path d="M 3970.451416015625 2619.3671875 L 4003.433349609375 2605.453857421875 L 3970.451416015625 2591.540283203125 L 3975.56396484375 2603.57421875 L 3851.73974609375 2603.57421875 L 3851.73974609375 2607.33251953125 L 3975.564208984375 2607.33251953125 L 3970.451416015625 2619.3671875 M 3970.451904296875 2621.42529296875 C 3969.91552734375 2621.42529296875 3969.388427734375 2621.215576171875 3968.994384765625 2620.820556640625 C 3968.40234375 2620.22705078125 3968.2294921875 2619.333984375 3968.557373046875 2618.5625 L 3972.453857421875 2609.390380859375 L 3851.73974609375 2609.390380859375 C 3850.603271484375 2609.390380859375 3849.681884765625 2608.468994140625 3849.681884765625 2607.33251953125 L 3849.681884765625 2603.57421875 C 3849.681884765625 2602.437744140625 3850.603271484375 2601.516357421875 3851.73974609375 2601.516357421875 L 3972.45361328125 2601.516357421875 L 3968.557373046875 2592.344970703125 C 3968.2294921875 2591.573486328125 3968.40234375 2590.680419921875 3968.994384765625 2590.0869140625 C 3969.58642578125 2589.493408203125 3970.479736328125 2589.318359375 3971.251220703125 2589.64404296875 L 4004.233154296875 2603.5576171875 C 4004.99560546875 2603.87939453125 4005.4912109375 2604.62646484375 4005.4912109375 2605.453857421875 C 4005.4912109375 2606.28125 4004.99560546875 2607.0283203125 4004.233154296875 2607.35009765625 L 3971.251220703125 2621.263427734375 C 3970.9931640625 2621.372314453125 3970.72119140625 2621.42529296875 3970.451904296875 2621.42529296875 Z" stroke="none" fill="#fff"/>
  </g>
</svg>
