<svg xmlns="http://www.w3.org/2000/svg" width="164.269" height="95.346" viewBox="0 0 164.269 95.346">
  <g id="Grupo_132005" data-name="Grupo 132005" transform="translate(-431.703 -3165.464)">
    <g id="Trazado_191148" data-name="Trazado 191148" transform="translate(-3413.75 183.616)" fill="#6836bf" stroke-linecap="round" stroke-linejoin="round">
      <path d="M 3927.5859375 3076.1650390625 C 3916.74365234375 3076.1650390625 3906.224365234375 3075.689208984375 3896.320068359375 3074.7509765625 C 3886.741943359375 3073.843505859375 3878.13525390625 3072.54345703125 3870.739013671875 3070.886962890625 C 3863.295654296875 3069.2197265625 3857.435546875 3067.269775390625 3853.3212890625 3065.09130859375 C 3848.782470703125 3062.687744140625 3846.48095703125 3060.033203125 3846.48095703125 3057.200927734375 L 3846.48095703125 3001.841064453125 L 3846.48095703125 3000.81201171875 L 3847.510009765625 3000.81201171875 L 4007.6630859375 3000.81201171875 L 4008.692138671875 3000.81201171875 L 4008.692138671875 3001.841064453125 L 4008.692138671875 3057.200927734375 C 4008.692138671875 3060.033203125 4006.390625 3062.687744140625 4001.851806640625 3065.09130859375 C 3997.73779296875 3067.269775390625 3991.877685546875 3069.2197265625 3984.43408203125 3070.886962890625 C 3977.0380859375 3072.54345703125 3968.431396484375 3073.843505859375 3958.85302734375 3074.7509765625 C 3948.948486328125 3075.689208984375 3938.4287109375 3076.1650390625 3927.5859375 3076.1650390625 Z" stroke="none"/>
      <path d="M 3847.510009765625 3001.841064453125 L 3847.510009765625 3057.200927734375 C 3847.510009765625 3067.10595703125 3883.362060546875 3075.135986328125 3927.5859375 3075.135986328125 C 3971.81201171875 3075.135986328125 4007.6630859375 3067.10595703125 4007.6630859375 3057.200927734375 L 4007.6630859375 3001.841064453125 L 3847.510009765625 3001.841064453125 M 3847.510009765625 2999.783203125 L 4007.6630859375 2999.783203125 C 4008.799560546875 2999.783203125 4009.720947265625 3000.70458984375 4009.720947265625 3001.841064453125 L 4009.720947265625 3057.200927734375 C 4009.720947265625 3060.444091796875 4007.2353515625 3063.40478515625 4002.33349609375 3066.000732421875 C 3998.138427734375 3068.22216796875 3992.19189453125 3070.203857421875 3984.6591796875 3071.89111328125 C 3969.39111328125 3075.310791015625 3949.122314453125 3077.19384765625 3927.5859375 3077.19384765625 C 3906.050537109375 3077.19384765625 3885.781982421875 3075.310791015625 3870.51416015625 3071.89111328125 C 3862.9814453125 3070.203857421875 3857.034912109375 3068.22216796875 3852.83984375 3066.000732421875 C 3847.937744140625 3063.40478515625 3845.4521484375 3060.444091796875 3845.4521484375 3057.200927734375 L 3845.4521484375 3001.841064453125 C 3845.4521484375 3000.70458984375 3846.37353515625 2999.783203125 3847.510009765625 2999.783203125 Z" stroke="none" fill="#fff"/>
    </g>
    <g id="Elipse_5152" data-name="Elipse 5152" transform="translate(433.761 3167.521)" fill="#6836bf" stroke="#fff" stroke-linecap="round" stroke-linejoin="round" stroke-width="2.058">
      <ellipse cx="80.076" cy="17.936" rx="80.076" ry="17.936" stroke="none"/>
      <ellipse cx="80.076" cy="17.936" rx="81.105" ry="18.965" fill="none"/>
    </g>
  </g>
</svg>
