<svg xmlns="http://www.w3.org/2000/svg" width="184.814" height="101.28" viewBox="0 0 184.814 101.28">
  <g id="Trazado_191138" data-name="Trazado 191138" transform="translate(-3835.18 -2130.632)" fill="#6836bf" stroke-linecap="round" stroke-linejoin="round">
    <path d="M 3927.58642578125 2231.022705078125 L 3927.09912109375 2230.7607421875 L 3881.924560546875 2206.4697265625 L 3836.750244140625 2182.178466796875 L 3835.06494140625 2181.272216796875 L 3836.750244140625 2180.365966796875 L 3881.924560546875 2156.074951171875 L 3927.09912109375 2131.783935546875 L 3927.58642578125 2131.52197265625 L 3928.07373046875 2131.783935546875 L 3973.248291015625 2156.074951171875 L 4018.4228515625 2180.365966796875 L 4020.108154296875 2181.272216796875 L 4018.4228515625 2182.178466796875 L 3973.248291015625 2206.4697265625 L 3928.07373046875 2230.7607421875 L 3927.58642578125 2231.022705078125 Z" stroke="none"/>
    <path d="M 3927.58642578125 2132.690185546875 L 3837.237548828125 2181.272216796875 L 3927.58642578125 2229.8544921875 L 4017.935546875 2181.272216796875 L 3927.58642578125 2132.690185546875 M 3927.58642578125 2130.632080078125 C 3927.921630859375 2130.632080078125 3928.2568359375 2130.714111328125 3928.56103515625 2130.877685546875 L 4018.91015625 2179.459716796875 C 4019.577392578125 2179.818359375 4019.993408203125 2180.5146484375 4019.993408203125 2181.272216796875 C 4019.993408203125 2182.02978515625 4019.577392578125 2182.72607421875 4018.91015625 2183.084716796875 L 3928.56103515625 2231.6669921875 C 3927.95263671875 2231.994140625 3927.22021484375 2231.994140625 3926.61181640625 2231.6669921875 L 3836.262939453125 2183.084716796875 C 3835.595703125 2182.72607421875 3835.1796875 2182.02978515625 3835.1796875 2181.272216796875 C 3835.1796875 2180.5146484375 3835.595703125 2179.818359375 3836.262939453125 2179.459716796875 L 3926.61181640625 2130.877685546875 C 3926.916015625 2130.714111328125 3927.251220703125 2130.632080078125 3927.58642578125 2130.632080078125 Z" stroke="none" fill="#fff"/>
  </g>
</svg>
